%TF.GenerationSoftware,KiCad,Pcbnew,8.0.2*%
%TF.CreationDate,2025-01-17T11:14:38+01:00*%
%TF.ProjectId,p2000t-joystick-slot2-eeprom,70323030-3074-42d6-9a6f-79737469636b,rev?*%
%TF.SameCoordinates,Original*%
%TF.FileFunction,Profile,NP*%
%FSLAX46Y46*%
G04 Gerber Fmt 4.6, Leading zero omitted, Abs format (unit mm)*
G04 Created by KiCad (PCBNEW 8.0.2) date 2025-01-17 11:14:38*
%MOMM*%
%LPD*%
G01*
G04 APERTURE LIST*
%TA.AperFunction,Profile*%
%ADD10C,0.050000*%
%TD*%
G04 APERTURE END LIST*
D10*
X107776565Y-97602714D02*
X107776565Y-82414714D01*
X36064565Y-116102714D02*
X35776565Y-116102714D01*
X107776565Y-26102714D02*
X107776565Y-47602714D01*
X99437565Y-116102714D02*
X99776565Y-116102714D01*
X107776565Y-56702714D02*
X107776565Y-59802714D01*
X107776565Y-116102714D02*
X107776565Y-109102714D01*
X36064565Y-126102714D02*
X36064565Y-116102714D01*
X27776565Y-91102714D02*
X27776565Y-56602714D01*
X27776565Y-91102714D02*
X27776565Y-95602714D01*
X27776565Y-96102714D02*
X27776565Y-95602714D01*
X35776565Y-116102714D02*
X27776565Y-116102714D01*
X27776565Y-97602714D02*
G75*
G02*
X27776565Y-106602714I0J-4500000D01*
G01*
X107776565Y-109102714D02*
X107776565Y-106602714D01*
X27776565Y-116102714D02*
X27776565Y-109102714D01*
X107776565Y-106602714D02*
G75*
G02*
X107776565Y-97602706I5J4500004D01*
G01*
X99776565Y-116102714D02*
X107776565Y-116102714D01*
X107776565Y-56702714D02*
X107776565Y-56602714D01*
X107776566Y-65402715D02*
X107776565Y-59802714D01*
X107776565Y-82414714D02*
X107776566Y-76802714D01*
X27776565Y-47602714D02*
G75*
G02*
X27776565Y-56602714I0J-4500000D01*
G01*
X27776565Y-97602714D02*
X27776565Y-96102714D01*
X27776565Y-45602714D02*
X27776565Y-41102714D01*
X27776565Y-109102714D02*
X27776565Y-106602714D01*
X107776565Y-26102714D02*
X67776565Y-26102714D01*
X107776566Y-65402715D02*
X107776566Y-76802714D01*
X107776565Y-56602714D02*
G75*
G02*
X107776565Y-47602706I5J4500004D01*
G01*
X99437565Y-126102714D02*
X99437565Y-116102714D01*
X67776565Y-26102714D02*
X27776565Y-26102714D01*
X27776565Y-26102714D02*
X27776565Y-41102714D01*
X99437565Y-126102714D02*
X36064565Y-126102714D01*
X27776565Y-47602714D02*
X27776565Y-45602714D01*
M02*
