%TF.GenerationSoftware,KiCad,Pcbnew,8.0.2*%
%TF.CreationDate,2025-01-17T11:14:38+01:00*%
%TF.ProjectId,p2000t-joystick-slot2-eeprom,70323030-3074-42d6-9a6f-79737469636b,rev?*%
%TF.SameCoordinates,Original*%
%TF.FileFunction,Soldermask,Bot*%
%TF.FilePolarity,Negative*%
%FSLAX46Y46*%
G04 Gerber Fmt 4.6, Leading zero omitted, Abs format (unit mm)*
G04 Created by KiCad (PCBNEW 8.0.2) date 2025-01-17 11:14:38*
%MOMM*%
%LPD*%
G01*
G04 APERTURE LIST*
%ADD10C,0.100000*%
%ADD11C,1.600000*%
%ADD12O,1.600000X1.600000*%
%ADD13R,1.422400X1.422400*%
%ADD14C,1.422400*%
%ADD15R,1.600000X1.600000*%
%ADD16C,4.000000*%
%ADD17R,2.000000X10.000000*%
G04 APERTURE END LIST*
D10*
X35560000Y-116840000D02*
X99695000Y-116840000D01*
X99695000Y-126365000D01*
X35560000Y-126365000D01*
X35560000Y-116840000D01*
G36*
X35560000Y-116840000D02*
G01*
X99695000Y-116840000D01*
X99695000Y-126365000D01*
X35560000Y-126365000D01*
X35560000Y-116840000D01*
G37*
D11*
%TO.C,R2*%
X54356000Y-68834000D03*
D12*
X46736000Y-68834000D03*
%TD*%
D11*
%TO.C,R1*%
X54356000Y-64770000D03*
D12*
X46736000Y-64770000D03*
%TD*%
D13*
%TO.C,U4*%
X66548000Y-74930000D03*
D14*
X69088000Y-72390000D03*
X69088000Y-74930000D03*
X71628000Y-72390000D03*
X74168000Y-74930000D03*
X71628000Y-74930000D03*
X74168000Y-77470000D03*
X71628000Y-77470000D03*
X74168000Y-80010000D03*
X71628000Y-80010000D03*
X74168000Y-82550000D03*
X71628000Y-82550000D03*
X74168000Y-85090000D03*
X71628000Y-87630000D03*
X71628000Y-85090000D03*
X69088000Y-87630000D03*
X69088000Y-85090000D03*
X66548000Y-87630000D03*
X66548000Y-85090000D03*
X64008000Y-87630000D03*
X61468000Y-85090000D03*
X64008000Y-85090000D03*
X61468000Y-82550000D03*
X64008000Y-82550000D03*
X61468000Y-80010000D03*
X64008000Y-80010000D03*
X61468000Y-77470000D03*
X64008000Y-77470000D03*
X61468000Y-74930000D03*
X64008000Y-72390000D03*
X64008000Y-74930000D03*
X66548000Y-72390000D03*
%TD*%
D12*
%TO.C,U3*%
X81788000Y-67310000D03*
X81788000Y-69850000D03*
X81788000Y-72390000D03*
X81788000Y-74930000D03*
X81788000Y-77470000D03*
X81788000Y-80010000D03*
X81788000Y-82550000D03*
X81788000Y-85090000D03*
X89408000Y-85090000D03*
X89408000Y-82550000D03*
X89408000Y-80010000D03*
X89408000Y-77470000D03*
X89408000Y-74930000D03*
X89408000Y-72390000D03*
X89408000Y-69850000D03*
D15*
X89408000Y-67310000D03*
%TD*%
%TO.C,U2*%
X54610000Y-78232000D03*
D12*
X54610000Y-80772000D03*
X54610000Y-83312000D03*
X54610000Y-85852000D03*
X54610000Y-88392000D03*
X54610000Y-90932000D03*
X54610000Y-93472000D03*
X46990000Y-93472000D03*
X46990000Y-90932000D03*
X46990000Y-88392000D03*
X46990000Y-85852000D03*
X46990000Y-83312000D03*
X46990000Y-80772000D03*
X46990000Y-78232000D03*
%TD*%
D15*
%TO.C,U1*%
X42164000Y-78232000D03*
D12*
X42164000Y-80772000D03*
X42164000Y-83312000D03*
X42164000Y-85852000D03*
X42164000Y-88392000D03*
X42164000Y-90932000D03*
X42164000Y-93472000D03*
X34544000Y-93472000D03*
X34544000Y-90932000D03*
X34544000Y-88392000D03*
X34544000Y-85852000D03*
X34544000Y-83312000D03*
X34544000Y-80772000D03*
X34544000Y-78232000D03*
%TD*%
D15*
%TO.C,SW1*%
X100203000Y-36957000D03*
D12*
X102743000Y-36957000D03*
X102743000Y-29337000D03*
X100203000Y-29337000D03*
%TD*%
D16*
%TO.C,J3*%
X66446000Y-33782000D03*
X91446000Y-33782000D03*
D15*
X73406000Y-34082000D03*
D11*
X76176000Y-34082000D03*
X78946000Y-34082000D03*
X81716000Y-34082000D03*
X84486000Y-34082000D03*
X74791000Y-31242000D03*
X77561000Y-31242000D03*
X80331000Y-31242000D03*
X83101000Y-31242000D03*
%TD*%
D17*
%TO.C,J2*%
X95397000Y-120959000D03*
X83517000Y-120959000D03*
X79557000Y-120959000D03*
X75597000Y-120959000D03*
X71637000Y-120959000D03*
X67677000Y-120959000D03*
X63717000Y-120959000D03*
X59757000Y-120959000D03*
X55797000Y-120959000D03*
X51837000Y-120959000D03*
X47877000Y-120959000D03*
X43917000Y-120959000D03*
X39957000Y-120959000D03*
%TD*%
D11*
%TO.C,C4*%
X53086000Y-73660000D03*
X48086000Y-73660000D03*
%TD*%
%TO.C,C3*%
X35894000Y-73660000D03*
X40894000Y-73660000D03*
%TD*%
%TO.C,C2*%
X88108000Y-62494000D03*
X83108000Y-62494000D03*
%TD*%
D16*
%TO.C,J1*%
X31896000Y-33782000D03*
X56896000Y-33782000D03*
D15*
X38856000Y-34082000D03*
D11*
X41626000Y-34082000D03*
X44396000Y-34082000D03*
X47166000Y-34082000D03*
X49936000Y-34082000D03*
X40241000Y-31242000D03*
X43011000Y-31242000D03*
X45781000Y-31242000D03*
X48551000Y-31242000D03*
%TD*%
D12*
%TO.C,D6*%
X71120000Y-102616000D03*
D15*
X71120000Y-94996000D03*
%TD*%
D11*
%TO.C,C1*%
X70318000Y-66294000D03*
X65318000Y-66294000D03*
%TD*%
%TO.C,R3*%
X33528000Y-68820000D03*
D12*
X41148000Y-68820000D03*
%TD*%
D15*
%TO.C,RN1*%
X54356000Y-60198000D03*
D12*
X51816000Y-60198000D03*
X49276000Y-60198000D03*
X46736000Y-60198000D03*
X44196000Y-60198000D03*
X41656000Y-60198000D03*
X39116000Y-60198000D03*
X36576000Y-60198000D03*
X34036000Y-60198000D03*
%TD*%
D15*
%TO.C,D8*%
X60960000Y-94996000D03*
D12*
X60960000Y-102616000D03*
%TD*%
%TO.C,D5*%
X76200000Y-102616000D03*
D15*
X76200000Y-94996000D03*
%TD*%
D12*
%TO.C,D3*%
X86360000Y-102616000D03*
D15*
X86360000Y-94996000D03*
%TD*%
D12*
%TO.C,D4*%
X81280000Y-102616000D03*
D15*
X81280000Y-94996000D03*
%TD*%
D11*
%TO.C,R4*%
X33528000Y-64770000D03*
D12*
X41148000Y-64770000D03*
%TD*%
%TO.C,D1*%
X96520000Y-102616000D03*
D15*
X96520000Y-94996000D03*
%TD*%
D12*
%TO.C,D7*%
X66040000Y-102616000D03*
D15*
X66040000Y-94996000D03*
%TD*%
D12*
%TO.C,D2*%
X91440000Y-102616000D03*
D15*
X91440000Y-94996000D03*
%TD*%
M02*
