%TF.GenerationSoftware,KiCad,Pcbnew,8.0.2*%
%TF.CreationDate,2025-01-17T11:14:38+01:00*%
%TF.ProjectId,p2000t-joystick-slot2-eeprom,70323030-3074-42d6-9a6f-79737469636b,rev?*%
%TF.SameCoordinates,Original*%
%TF.FileFunction,Soldermask,Top*%
%TF.FilePolarity,Negative*%
%FSLAX46Y46*%
G04 Gerber Fmt 4.6, Leading zero omitted, Abs format (unit mm)*
G04 Created by KiCad (PCBNEW 8.0.2) date 2025-01-17 11:14:38*
%MOMM*%
%LPD*%
G01*
G04 APERTURE LIST*
G04 Aperture macros list*
%AMRoundRect*
0 Rectangle with rounded corners*
0 $1 Rounding radius*
0 $2 $3 $4 $5 $6 $7 $8 $9 X,Y pos of 4 corners*
0 Add a 4 corners polygon primitive as box body*
4,1,4,$2,$3,$4,$5,$6,$7,$8,$9,$2,$3,0*
0 Add four circle primitives for the rounded corners*
1,1,$1+$1,$2,$3*
1,1,$1+$1,$4,$5*
1,1,$1+$1,$6,$7*
1,1,$1+$1,$8,$9*
0 Add four rect primitives between the rounded corners*
20,1,$1+$1,$2,$3,$4,$5,0*
20,1,$1+$1,$4,$5,$6,$7,0*
20,1,$1+$1,$6,$7,$8,$9,0*
20,1,$1+$1,$8,$9,$2,$3,0*%
G04 Aperture macros list end*
%ADD10C,0.100000*%
%ADD11C,1.600000*%
%ADD12O,1.600000X1.600000*%
%ADD13RoundRect,0.250000X-0.450000X0.350000X-0.450000X-0.350000X0.450000X-0.350000X0.450000X0.350000X0*%
%ADD14RoundRect,0.250000X0.450000X-0.350000X0.450000X0.350000X-0.450000X0.350000X-0.450000X-0.350000X0*%
%ADD15RoundRect,0.250000X0.450000X-0.325000X0.450000X0.325000X-0.450000X0.325000X-0.450000X-0.325000X0*%
%ADD16R,1.422400X1.422400*%
%ADD17C,1.422400*%
%ADD18R,1.600000X1.600000*%
%ADD19C,4.000000*%
%ADD20R,2.000000X10.000000*%
G04 APERTURE END LIST*
D10*
X35560000Y-116840000D02*
X99695000Y-116840000D01*
X99695000Y-126365000D01*
X35560000Y-126365000D01*
X35560000Y-116840000D01*
G36*
X35560000Y-116840000D02*
G01*
X99695000Y-116840000D01*
X99695000Y-126365000D01*
X35560000Y-126365000D01*
X35560000Y-116840000D01*
G37*
D11*
%TO.C,R2*%
X54356000Y-68834000D03*
D12*
X46736000Y-68834000D03*
%TD*%
D11*
%TO.C,R1*%
X54356000Y-64770000D03*
D12*
X46736000Y-64770000D03*
%TD*%
D13*
%TO.C,R15*%
X61722000Y-49752000D03*
X61722000Y-47752000D03*
%TD*%
%TO.C,R14*%
X86106000Y-46260000D03*
X86106000Y-48260000D03*
%TD*%
%TO.C,R13*%
X82550000Y-46260000D03*
X82550000Y-48260000D03*
%TD*%
%TO.C,R12*%
X78994000Y-46260000D03*
X78994000Y-48260000D03*
%TD*%
D14*
%TO.C,R11*%
X75438000Y-48228000D03*
X75438000Y-46228000D03*
%TD*%
D13*
%TO.C,R10*%
X71882000Y-46260000D03*
X71882000Y-48260000D03*
%TD*%
%TO.C,R9*%
X52324000Y-46278000D03*
X52324000Y-48278000D03*
%TD*%
%TO.C,R8*%
X48768000Y-46246000D03*
X48768000Y-48246000D03*
%TD*%
%TO.C,R7*%
X44958000Y-48246000D03*
X44958000Y-46246000D03*
%TD*%
%TO.C,R6*%
X41402000Y-48246000D03*
X41402000Y-46246000D03*
%TD*%
D15*
%TO.C,D19*%
X61722000Y-45935000D03*
X61722000Y-43885000D03*
%TD*%
%TO.C,D18*%
X86106000Y-43942000D03*
X86106000Y-41892000D03*
%TD*%
%TO.C,D17*%
X82550000Y-41901000D03*
X82550000Y-43951000D03*
%TD*%
%TO.C,D16*%
X78994000Y-43951000D03*
X78994000Y-41901000D03*
%TD*%
%TO.C,D15*%
X75438000Y-43951000D03*
X75438000Y-41901000D03*
%TD*%
%TO.C,D14*%
X71882000Y-43960000D03*
X71882000Y-41910000D03*
%TD*%
%TO.C,D13*%
X52324000Y-43942000D03*
X52324000Y-41892000D03*
%TD*%
%TO.C,D12*%
X48768000Y-43910000D03*
X48768000Y-41860000D03*
%TD*%
%TO.C,D11*%
X44958000Y-43910000D03*
X44958000Y-41860000D03*
%TD*%
%TO.C,D10*%
X41402000Y-43910000D03*
X41402000Y-41860000D03*
%TD*%
D16*
%TO.C,U4*%
X66548000Y-74930000D03*
D17*
X69088000Y-72390000D03*
X69088000Y-74930000D03*
X71628000Y-72390000D03*
X74168000Y-74930000D03*
X71628000Y-74930000D03*
X74168000Y-77470000D03*
X71628000Y-77470000D03*
X74168000Y-80010000D03*
X71628000Y-80010000D03*
X74168000Y-82550000D03*
X71628000Y-82550000D03*
X74168000Y-85090000D03*
X71628000Y-87630000D03*
X71628000Y-85090000D03*
X69088000Y-87630000D03*
X69088000Y-85090000D03*
X66548000Y-87630000D03*
X66548000Y-85090000D03*
X64008000Y-87630000D03*
X61468000Y-85090000D03*
X64008000Y-85090000D03*
X61468000Y-82550000D03*
X64008000Y-82550000D03*
X61468000Y-80010000D03*
X64008000Y-80010000D03*
X61468000Y-77470000D03*
X64008000Y-77470000D03*
X61468000Y-74930000D03*
X64008000Y-72390000D03*
X64008000Y-74930000D03*
X66548000Y-72390000D03*
%TD*%
D12*
%TO.C,U3*%
X81788000Y-67310000D03*
X81788000Y-69850000D03*
X81788000Y-72390000D03*
X81788000Y-74930000D03*
X81788000Y-77470000D03*
X81788000Y-80010000D03*
X81788000Y-82550000D03*
X81788000Y-85090000D03*
X89408000Y-85090000D03*
X89408000Y-82550000D03*
X89408000Y-80010000D03*
X89408000Y-77470000D03*
X89408000Y-74930000D03*
X89408000Y-72390000D03*
X89408000Y-69850000D03*
D18*
X89408000Y-67310000D03*
%TD*%
%TO.C,U2*%
X54610000Y-78232000D03*
D12*
X54610000Y-80772000D03*
X54610000Y-83312000D03*
X54610000Y-85852000D03*
X54610000Y-88392000D03*
X54610000Y-90932000D03*
X54610000Y-93472000D03*
X46990000Y-93472000D03*
X46990000Y-90932000D03*
X46990000Y-88392000D03*
X46990000Y-85852000D03*
X46990000Y-83312000D03*
X46990000Y-80772000D03*
X46990000Y-78232000D03*
%TD*%
D18*
%TO.C,U1*%
X42164000Y-78232000D03*
D12*
X42164000Y-80772000D03*
X42164000Y-83312000D03*
X42164000Y-85852000D03*
X42164000Y-88392000D03*
X42164000Y-90932000D03*
X42164000Y-93472000D03*
X34544000Y-93472000D03*
X34544000Y-90932000D03*
X34544000Y-88392000D03*
X34544000Y-85852000D03*
X34544000Y-83312000D03*
X34544000Y-80772000D03*
X34544000Y-78232000D03*
%TD*%
D18*
%TO.C,SW1*%
X100203000Y-36957000D03*
D12*
X102743000Y-36957000D03*
X102743000Y-29337000D03*
X100203000Y-29337000D03*
%TD*%
D13*
%TO.C,R5*%
X37846000Y-46244000D03*
X37846000Y-48244000D03*
%TD*%
D19*
%TO.C,J3*%
X66446000Y-33782000D03*
X91446000Y-33782000D03*
D18*
X73406000Y-34082000D03*
D11*
X76176000Y-34082000D03*
X78946000Y-34082000D03*
X81716000Y-34082000D03*
X84486000Y-34082000D03*
X74791000Y-31242000D03*
X77561000Y-31242000D03*
X80331000Y-31242000D03*
X83101000Y-31242000D03*
%TD*%
D20*
%TO.C,J2*%
X43917000Y-120959000D03*
X47877000Y-120959000D03*
X51837000Y-120959000D03*
X55797000Y-120959000D03*
X59757000Y-120959000D03*
X63717000Y-120959000D03*
X67677000Y-120959000D03*
X71637000Y-120959000D03*
X75597000Y-120959000D03*
X79557000Y-120959000D03*
X83517000Y-120959000D03*
X95397000Y-120959000D03*
X39957000Y-120959000D03*
X91451400Y-120959000D03*
%TD*%
D11*
%TO.C,C4*%
X53086000Y-73660000D03*
X48086000Y-73660000D03*
%TD*%
%TO.C,C3*%
X35894000Y-73660000D03*
X40894000Y-73660000D03*
%TD*%
%TO.C,C2*%
X88108000Y-62494000D03*
X83108000Y-62494000D03*
%TD*%
D19*
%TO.C,J1*%
X31896000Y-33782000D03*
X56896000Y-33782000D03*
D18*
X38856000Y-34082000D03*
D11*
X41626000Y-34082000D03*
X44396000Y-34082000D03*
X47166000Y-34082000D03*
X49936000Y-34082000D03*
X40241000Y-31242000D03*
X43011000Y-31242000D03*
X45781000Y-31242000D03*
X48551000Y-31242000D03*
%TD*%
D12*
%TO.C,D6*%
X71120000Y-102616000D03*
D18*
X71120000Y-94996000D03*
%TD*%
D11*
%TO.C,C1*%
X70318000Y-66294000D03*
X65318000Y-66294000D03*
%TD*%
%TO.C,R3*%
X33528000Y-68820000D03*
D12*
X41148000Y-68820000D03*
%TD*%
D18*
%TO.C,RN1*%
X54356000Y-60198000D03*
D12*
X51816000Y-60198000D03*
X49276000Y-60198000D03*
X46736000Y-60198000D03*
X44196000Y-60198000D03*
X41656000Y-60198000D03*
X39116000Y-60198000D03*
X36576000Y-60198000D03*
X34036000Y-60198000D03*
%TD*%
D18*
%TO.C,D8*%
X60960000Y-94996000D03*
D12*
X60960000Y-102616000D03*
%TD*%
%TO.C,D5*%
X76200000Y-102616000D03*
D18*
X76200000Y-94996000D03*
%TD*%
D12*
%TO.C,D3*%
X86360000Y-102616000D03*
D18*
X86360000Y-94996000D03*
%TD*%
D12*
%TO.C,D4*%
X81280000Y-102616000D03*
D18*
X81280000Y-94996000D03*
%TD*%
D11*
%TO.C,R4*%
X33528000Y-64770000D03*
D12*
X41148000Y-64770000D03*
%TD*%
%TO.C,D1*%
X96520000Y-102616000D03*
D18*
X96520000Y-94996000D03*
%TD*%
D12*
%TO.C,D7*%
X66040000Y-102616000D03*
D18*
X66040000Y-94996000D03*
%TD*%
D12*
%TO.C,D2*%
X91440000Y-102616000D03*
D18*
X91440000Y-94996000D03*
%TD*%
D15*
%TO.C,D9*%
X37846000Y-41860000D03*
X37846000Y-43910000D03*
%TD*%
M02*
