%TF.GenerationSoftware,KiCad,Pcbnew,8.0.2*%
%TF.CreationDate,2025-01-17T11:14:38+01:00*%
%TF.ProjectId,p2000t-joystick-slot2-eeprom,70323030-3074-42d6-9a6f-79737469636b,rev?*%
%TF.SameCoordinates,Original*%
%TF.FileFunction,Copper,L2,Bot*%
%TF.FilePolarity,Positive*%
%FSLAX46Y46*%
G04 Gerber Fmt 4.6, Leading zero omitted, Abs format (unit mm)*
G04 Created by KiCad (PCBNEW 8.0.2) date 2025-01-17 11:14:38*
%MOMM*%
%LPD*%
G01*
G04 APERTURE LIST*
%TA.AperFunction,ComponentPad*%
%ADD10C,1.600000*%
%TD*%
%TA.AperFunction,ComponentPad*%
%ADD11O,1.600000X1.600000*%
%TD*%
%TA.AperFunction,ComponentPad*%
%ADD12R,1.422400X1.422400*%
%TD*%
%TA.AperFunction,ComponentPad*%
%ADD13C,1.422400*%
%TD*%
%TA.AperFunction,ComponentPad*%
%ADD14R,1.600000X1.600000*%
%TD*%
%TA.AperFunction,ComponentPad*%
%ADD15C,4.000000*%
%TD*%
%TA.AperFunction,SMDPad,CuDef*%
%ADD16R,2.000000X10.000000*%
%TD*%
%TA.AperFunction,ViaPad*%
%ADD17C,0.600000*%
%TD*%
%TA.AperFunction,Conductor*%
%ADD18C,0.200000*%
%TD*%
%TA.AperFunction,Conductor*%
%ADD19C,1.000000*%
%TD*%
G04 APERTURE END LIST*
D10*
%TO.P,R2,1*%
%TO.N,DIP1*%
X54356000Y-68834000D03*
D11*
%TO.P,R2,2*%
%TO.N,GND*%
X46736000Y-68834000D03*
%TD*%
D10*
%TO.P,R1,1*%
%TO.N,DIP2*%
X54356000Y-64770000D03*
D11*
%TO.P,R1,2*%
%TO.N,GND*%
X46736000Y-64770000D03*
%TD*%
D12*
%TO.P,U4,1,NC*%
%TO.N,GND*%
X66548000Y-74930000D03*
D13*
%TO.P,U4,2,A16*%
%TO.N,DIP2*%
X69088000Y-72390000D03*
%TO.P,U4,3,A15*%
%TO.N,DIP1*%
X69088000Y-74930000D03*
%TO.P,U4,4,A12*%
%TO.N,A2*%
X71628000Y-72390000D03*
%TO.P,U4,5,A7*%
%TO.N,~{P2_LEFT}*%
X74168000Y-74930000D03*
%TO.P,U4,6,A6*%
%TO.N,~{P2_DOWN}*%
X71628000Y-74930000D03*
%TO.P,U4,7,A5*%
%TO.N,~{P2_UP}*%
X74168000Y-77470000D03*
%TO.P,U4,8,A4*%
%TO.N,~{P1_FIRE}*%
X71628000Y-77470000D03*
%TO.P,U4,9,A3*%
%TO.N,~{P1_RIGHT}*%
X74168000Y-80010000D03*
%TO.P,U4,10,A2*%
%TO.N,~{P1_LEFT}*%
X71628000Y-80010000D03*
%TO.P,U4,11,A1*%
%TO.N,~{P1_DOWN}*%
X74168000Y-82550000D03*
%TO.P,U4,12,A0*%
%TO.N,~{P1_UP}*%
X71628000Y-82550000D03*
%TO.P,U4,13,D0*%
%TO.N,Net-(D1-K)*%
X74168000Y-85090000D03*
%TO.P,U4,14,D1*%
%TO.N,Net-(D2-K)*%
X71628000Y-87630000D03*
%TO.P,U4,15,D2*%
%TO.N,Net-(D3-K)*%
X71628000Y-85090000D03*
%TO.P,U4,16,GND*%
%TO.N,GND*%
X69088000Y-87630000D03*
%TO.P,U4,17,D3*%
%TO.N,Net-(D4-K)*%
X69088000Y-85090000D03*
%TO.P,U4,18,D4*%
%TO.N,Net-(D5-K)*%
X66548000Y-87630000D03*
%TO.P,U4,19,D5*%
%TO.N,Net-(D6-K)*%
X66548000Y-85090000D03*
%TO.P,U4,20,D6*%
%TO.N,Net-(D7-K)*%
X64008000Y-87630000D03*
%TO.P,U4,21,D7*%
%TO.N,Net-(D8-K)*%
X61468000Y-85090000D03*
%TO.P,U4,22,CE*%
%TO.N,GND*%
X64008000Y-85090000D03*
%TO.P,U4,23,A10*%
%TO.N,A0*%
X61468000Y-82550000D03*
%TO.P,U4,24,OE*%
%TO.N,Net-(U4-OE)*%
X64008000Y-82550000D03*
%TO.P,U4,25,A11*%
%TO.N,A1*%
X61468000Y-80010000D03*
%TO.P,U4,26,A9*%
%TO.N,~{P2_FIRE}*%
X64008000Y-80010000D03*
%TO.P,U4,27,A8*%
%TO.N,~{P2_RIGHT}*%
X61468000Y-77470000D03*
%TO.P,U4,28,A13*%
%TO.N,A3*%
X64008000Y-77470000D03*
%TO.P,U4,29,A14*%
%TO.N,KBIEN*%
X61468000Y-74930000D03*
%TO.P,U4,30,NC*%
%TO.N,GND*%
X64008000Y-72390000D03*
%TO.P,U4,31,PGM*%
%TO.N,VCC*%
X64008000Y-74930000D03*
%TO.P,U4,32,VCC*%
X66548000Y-72390000D03*
%TD*%
D11*
%TO.P,U3,16,VCC*%
%TO.N,VCC*%
X81788000Y-67310000D03*
%TO.P,U3,15,~{Y0}*%
%TO.N,Net-(U3-~{Y0})*%
X81788000Y-69850000D03*
%TO.P,U3,14,~{Y1}*%
%TO.N,Net-(U3-~{Y1})*%
X81788000Y-72390000D03*
%TO.P,U3,13,~{Y2}*%
%TO.N,unconnected-(U3-~{Y2}-Pad13)*%
X81788000Y-74930000D03*
%TO.P,U3,12,~{Y3}*%
%TO.N,unconnected-(U3-~{Y3}-Pad12)*%
X81788000Y-77470000D03*
%TO.P,U3,11,~{Y4}*%
%TO.N,unconnected-(U3-~{Y4}-Pad11)*%
X81788000Y-80010000D03*
%TO.P,U3,10,~{Y5}*%
%TO.N,unconnected-(U3-~{Y5}-Pad10)*%
X81788000Y-82550000D03*
%TO.P,U3,9,~{Y6}*%
%TO.N,unconnected-(U3-~{Y6}-Pad9)*%
X81788000Y-85090000D03*
%TO.P,U3,8,GND*%
%TO.N,GND*%
X89408000Y-85090000D03*
%TO.P,U3,7,~{Y7}*%
%TO.N,unconnected-(U3-~{Y7}-Pad7)*%
X89408000Y-82550000D03*
%TO.P,U3,6,E2*%
%TO.N,Net-(U3-E2)*%
X89408000Y-80010000D03*
%TO.P,U3,5,~{E1}*%
%TO.N,~{IORQ}*%
X89408000Y-77470000D03*
%TO.P,U3,4,~{E0}*%
%TO.N,A5*%
X89408000Y-74930000D03*
%TO.P,U3,3,A2*%
%TO.N,GND*%
X89408000Y-72390000D03*
%TO.P,U3,2,A1*%
X89408000Y-69850000D03*
D14*
%TO.P,U3,1,A0*%
%TO.N,A4*%
X89408000Y-67310000D03*
%TD*%
%TO.P,U2,1,~{R}*%
%TO.N,VCC*%
X54610000Y-78232000D03*
D11*
%TO.P,U2,2,D*%
%TO.N,D6*%
X54610000Y-80772000D03*
%TO.P,U2,3,C*%
%TO.N,Net-(U2A-C)*%
X54610000Y-83312000D03*
%TO.P,U2,4,~{S}*%
%TO.N,VCC*%
X54610000Y-85852000D03*
%TO.P,U2,5,Q*%
%TO.N,KBIEN*%
X54610000Y-88392000D03*
%TO.P,U2,6,~{Q}*%
%TO.N,unconnected-(U2A-~{Q}-Pad6)*%
X54610000Y-90932000D03*
%TO.P,U2,7,GND*%
%TO.N,GND*%
X54610000Y-93472000D03*
%TO.P,U2,8,~{Q}*%
%TO.N,unconnected-(U2B-~{Q}-Pad8)*%
X46990000Y-93472000D03*
%TO.P,U2,9,Q*%
%TO.N,unconnected-(U2B-Q-Pad9)*%
X46990000Y-90932000D03*
%TO.P,U2,10,~{S}*%
%TO.N,VCC*%
X46990000Y-88392000D03*
%TO.P,U2,11,C*%
%TO.N,GND*%
X46990000Y-85852000D03*
%TO.P,U2,12,D*%
X46990000Y-83312000D03*
%TO.P,U2,13,~{R}*%
%TO.N,VCC*%
X46990000Y-80772000D03*
%TO.P,U2,14,VCC*%
X46990000Y-78232000D03*
%TD*%
D14*
%TO.P,U1,1*%
%TO.N,Net-(U3-E2)*%
X42164000Y-78232000D03*
D11*
%TO.P,U1,2*%
%TO.N,A6*%
X42164000Y-80772000D03*
%TO.P,U1,3*%
%TO.N,A7*%
X42164000Y-83312000D03*
%TO.P,U1,4*%
%TO.N,Net-(U1-Pad4)*%
X42164000Y-85852000D03*
%TO.P,U1,5*%
%TO.N,Net-(U3-~{Y0})*%
X42164000Y-88392000D03*
%TO.P,U1,6*%
%TO.N,~{RD}*%
X42164000Y-90932000D03*
%TO.P,U1,7,GND*%
%TO.N,GND*%
X42164000Y-93472000D03*
%TO.P,U1,8*%
%TO.N,Net-(U1-Pad4)*%
X34544000Y-93472000D03*
%TO.P,U1,9*%
X34544000Y-90932000D03*
%TO.P,U1,10*%
%TO.N,Net-(U4-OE)*%
X34544000Y-88392000D03*
%TO.P,U1,11*%
%TO.N,~{WR}*%
X34544000Y-85852000D03*
%TO.P,U1,12*%
%TO.N,Net-(U3-~{Y1})*%
X34544000Y-83312000D03*
%TO.P,U1,13*%
%TO.N,Net-(U2A-C)*%
X34544000Y-80772000D03*
%TO.P,U1,14,VCC*%
%TO.N,VCC*%
X34544000Y-78232000D03*
%TD*%
D14*
%TO.P,SW1,1*%
%TO.N,DIP2*%
X100203000Y-36957000D03*
D11*
%TO.P,SW1,2*%
%TO.N,DIP1*%
X102743000Y-36957000D03*
%TO.P,SW1,3*%
%TO.N,VCC*%
X102743000Y-29337000D03*
%TO.P,SW1,4*%
X100203000Y-29337000D03*
%TD*%
D15*
%TO.P,J3,0,PAD*%
%TO.N,unconnected-(J3-PAD-Pad0)*%
X66446000Y-33782000D03*
%TO.N,unconnected-(J3-PAD-Pad0)_0*%
X91446000Y-33782000D03*
D14*
%TO.P,J3,1,UP*%
%TO.N,~{P2_UP}*%
X73406000Y-34082000D03*
D10*
%TO.P,J3,2,DOWN*%
%TO.N,~{P2_DOWN}*%
X76176000Y-34082000D03*
%TO.P,J3,3,LEFT*%
%TO.N,~{P2_LEFT}*%
X78946000Y-34082000D03*
%TO.P,J3,4,RIGHT*%
%TO.N,~{P2_RIGHT}*%
X81716000Y-34082000D03*
%TO.P,J3,5,VCC*%
%TO.N,VCC*%
X84486000Y-34082000D03*
%TO.P,J3,6,FIRE*%
%TO.N,~{P2_FIRE}*%
X74791000Y-31242000D03*
%TO.P,J3,7,NC*%
%TO.N,unconnected-(J3-NC-Pad7)*%
X77561000Y-31242000D03*
%TO.P,J3,8,CC-DPAD*%
%TO.N,GND*%
X80331000Y-31242000D03*
%TO.P,J3,9,CC-FIRE*%
X83101000Y-31242000D03*
%TD*%
D16*
%TO.P,J2,15a,Pin_15a*%
%TO.N,GND*%
X95397000Y-120959000D03*
%TO.P,J2,12a,Pin_12a*%
%TO.N,unconnected-(J2-Pin_12a-Pad12a)*%
X83517000Y-120959000D03*
%TO.P,J2,11a,Pin_11a*%
%TO.N,~{IORQ}*%
X79557000Y-120959000D03*
%TO.P,J2,10a,Pin_10a*%
%TO.N,~{RD}*%
X75597000Y-120959000D03*
%TO.P,J2,9a,Pin_9a*%
%TO.N,A6*%
X71637000Y-120959000D03*
%TO.P,J2,8a,Pin_8a*%
%TO.N,A4*%
X67677000Y-120959000D03*
%TO.P,J2,7a,Pin_7a*%
%TO.N,A2*%
X63717000Y-120959000D03*
%TO.P,J2,6a,Pin_6a*%
%TO.N,A0*%
X59757000Y-120959000D03*
%TO.P,J2,5a,Pin_5a*%
%TO.N,D6*%
X55797000Y-120959000D03*
%TO.P,J2,4a,Pin_4a*%
%TO.N,D4*%
X51837000Y-120959000D03*
%TO.P,J2,3a,Pin_3a*%
%TO.N,D2*%
X47877000Y-120959000D03*
%TO.P,J2,2a,Pin_2a*%
%TO.N,D0*%
X43917000Y-120959000D03*
%TO.P,J2,1a,Pin_1a*%
%TO.N,unconnected-(J2-Pin_1a-Pad1a)*%
X39957000Y-120959000D03*
%TD*%
D10*
%TO.P,C4,2*%
%TO.N,GND*%
X53086000Y-73660000D03*
%TO.P,C4,1*%
%TO.N,VCC*%
X48086000Y-73660000D03*
%TD*%
%TO.P,C3,1*%
%TO.N,VCC*%
X35894000Y-73660000D03*
%TO.P,C3,2*%
%TO.N,GND*%
X40894000Y-73660000D03*
%TD*%
%TO.P,C2,2*%
%TO.N,GND*%
X88108000Y-62494000D03*
%TO.P,C2,1*%
%TO.N,VCC*%
X83108000Y-62494000D03*
%TD*%
D15*
%TO.P,J1,0,PAD*%
%TO.N,unconnected-(J1-PAD-Pad0)*%
X31896000Y-33782000D03*
%TO.N,unconnected-(J1-PAD-Pad0)_0*%
X56896000Y-33782000D03*
D14*
%TO.P,J1,1,UP*%
%TO.N,~{P1_UP}*%
X38856000Y-34082000D03*
D10*
%TO.P,J1,2,DOWN*%
%TO.N,~{P1_DOWN}*%
X41626000Y-34082000D03*
%TO.P,J1,3,LEFT*%
%TO.N,~{P1_LEFT}*%
X44396000Y-34082000D03*
%TO.P,J1,4,RIGHT*%
%TO.N,~{P1_RIGHT}*%
X47166000Y-34082000D03*
%TO.P,J1,5,VCC*%
%TO.N,VCC*%
X49936000Y-34082000D03*
%TO.P,J1,6,FIRE*%
%TO.N,~{P1_FIRE}*%
X40241000Y-31242000D03*
%TO.P,J1,7,NC*%
%TO.N,unconnected-(J1-NC-Pad7)*%
X43011000Y-31242000D03*
%TO.P,J1,8,CC-DPAD*%
%TO.N,GND*%
X45781000Y-31242000D03*
%TO.P,J1,9,CC-FIRE*%
X48551000Y-31242000D03*
%TD*%
D11*
%TO.P,D6,2,A*%
%TO.N,D5*%
X71120000Y-102616000D03*
D14*
%TO.P,D6,1,K*%
%TO.N,Net-(D6-K)*%
X71120000Y-94996000D03*
%TD*%
D10*
%TO.P,C1,2*%
%TO.N,GND*%
X70318000Y-66294000D03*
%TO.P,C1,1*%
%TO.N,VCC*%
X65318000Y-66294000D03*
%TD*%
%TO.P,R3,1*%
%TO.N,VCC*%
X33528000Y-68820000D03*
D11*
%TO.P,R3,2*%
%TO.N,~{P2_RIGHT}*%
X41148000Y-68820000D03*
%TD*%
D14*
%TO.P,RN1,1,common*%
%TO.N,VCC*%
X54356000Y-60198000D03*
D11*
%TO.P,RN1,2,R1*%
%TO.N,~{P1_UP}*%
X51816000Y-60198000D03*
%TO.P,RN1,3,R2*%
%TO.N,~{P1_DOWN}*%
X49276000Y-60198000D03*
%TO.P,RN1,4,R3*%
%TO.N,~{P1_LEFT}*%
X46736000Y-60198000D03*
%TO.P,RN1,5,R4*%
%TO.N,~{P1_RIGHT}*%
X44196000Y-60198000D03*
%TO.P,RN1,6,R5*%
%TO.N,~{P1_FIRE}*%
X41656000Y-60198000D03*
%TO.P,RN1,7,R6*%
%TO.N,~{P2_UP}*%
X39116000Y-60198000D03*
%TO.P,RN1,8,R7*%
%TO.N,~{P2_DOWN}*%
X36576000Y-60198000D03*
%TO.P,RN1,9,R8*%
%TO.N,~{P2_LEFT}*%
X34036000Y-60198000D03*
%TD*%
D14*
%TO.P,D8,1,K*%
%TO.N,Net-(D8-K)*%
X60960000Y-94996000D03*
D11*
%TO.P,D8,2,A*%
%TO.N,D7*%
X60960000Y-102616000D03*
%TD*%
%TO.P,D5,2,A*%
%TO.N,D4*%
X76200000Y-102616000D03*
D14*
%TO.P,D5,1,K*%
%TO.N,Net-(D5-K)*%
X76200000Y-94996000D03*
%TD*%
D11*
%TO.P,D3,2,A*%
%TO.N,D2*%
X86360000Y-102616000D03*
D14*
%TO.P,D3,1,K*%
%TO.N,Net-(D3-K)*%
X86360000Y-94996000D03*
%TD*%
D11*
%TO.P,D4,2,A*%
%TO.N,D3*%
X81280000Y-102616000D03*
D14*
%TO.P,D4,1,K*%
%TO.N,Net-(D4-K)*%
X81280000Y-94996000D03*
%TD*%
D10*
%TO.P,R4,1*%
%TO.N,VCC*%
X33528000Y-64770000D03*
D11*
%TO.P,R4,2*%
%TO.N,~{P2_FIRE}*%
X41148000Y-64770000D03*
%TD*%
%TO.P,D1,2,A*%
%TO.N,D0*%
X96520000Y-102616000D03*
D14*
%TO.P,D1,1,K*%
%TO.N,Net-(D1-K)*%
X96520000Y-94996000D03*
%TD*%
D11*
%TO.P,D7,2,A*%
%TO.N,D6*%
X66040000Y-102616000D03*
D14*
%TO.P,D7,1,K*%
%TO.N,Net-(D7-K)*%
X66040000Y-94996000D03*
%TD*%
D11*
%TO.P,D2,2,A*%
%TO.N,D1*%
X91440000Y-102616000D03*
D14*
%TO.P,D2,1,K*%
%TO.N,Net-(D2-K)*%
X91440000Y-94996000D03*
%TD*%
D17*
%TO.N,KBIEN*%
X69793700Y-69600700D03*
%TO.N,Net-(U3-E2)*%
X49509700Y-90233700D03*
%TO.N,~{WR}*%
X85244300Y-100429300D03*
%TO.N,~{P2_LEFT}*%
X78946000Y-49368100D03*
X77588500Y-64963100D03*
%TO.N,D1*%
X52736000Y-107447300D03*
%TO.N,A2*%
X70144000Y-106779300D03*
%TO.N,D3*%
X58922600Y-103781600D03*
%TO.N,A6*%
X64090500Y-102905000D03*
%TO.N,A0*%
X67351200Y-102862300D03*
%TO.N,A4*%
X74779000Y-107425200D03*
%TO.N,A7*%
X73879700Y-107432200D03*
X67813400Y-103572600D03*
%TO.N,~{P2_DOWN}*%
X70012000Y-70457100D03*
%TO.N,~{P2_UP}*%
X70605900Y-69000600D03*
%TO.N,~{P2_RIGHT}*%
X57269000Y-62446300D03*
X74177800Y-59356500D03*
%TO.N,~{P1_DOWN}*%
X73444600Y-70191500D03*
%TO.N,~{P1_UP}*%
X73525100Y-69391300D03*
%TO.N,VCC*%
X38735000Y-103505000D03*
%TO.N,GND*%
X101600000Y-105410000D03*
%TD*%
D18*
%TO.N,KBIEN*%
X62033900Y-74930000D02*
X61468000Y-74930000D01*
X63084500Y-75980600D02*
X62033900Y-74930000D01*
X64985100Y-75980600D02*
X63084500Y-75980600D01*
X65385200Y-76380700D02*
X64985100Y-75980600D01*
X74749000Y-76380700D02*
X65385200Y-76380700D01*
X75618700Y-75511000D02*
X74749000Y-76380700D01*
X75618700Y-74345800D02*
X75618700Y-75511000D01*
X70873600Y-69600700D02*
X75618700Y-74345800D01*
X69793700Y-69600700D02*
X70873600Y-69600700D01*
%TO.N,Net-(U3-E2)*%
X89408000Y-80010000D02*
X89408000Y-81110100D01*
X89635900Y-81110100D02*
X89408000Y-81110100D01*
X97620200Y-89094400D02*
X89635900Y-81110100D01*
X97620200Y-95924600D02*
X97620200Y-89094400D01*
X97040100Y-96504700D02*
X97620200Y-95924600D01*
X55780700Y-96504700D02*
X97040100Y-96504700D01*
X49509700Y-90233700D02*
X55780700Y-96504700D01*
%TO.N,Net-(U2A-C)*%
X52070000Y-81872100D02*
X53509900Y-83312000D01*
X36744200Y-81872100D02*
X52070000Y-81872100D01*
X35644100Y-80772000D02*
X36744200Y-81872100D01*
X34544000Y-80772000D02*
X35644100Y-80772000D01*
X54610000Y-83312000D02*
X53509900Y-83312000D01*
%TO.N,Net-(U1-Pad4)*%
X36370400Y-85852000D02*
X42164000Y-85852000D01*
X34958900Y-87263500D02*
X36370400Y-85852000D01*
X34081500Y-87263500D02*
X34958900Y-87263500D01*
X33434100Y-87910900D02*
X34081500Y-87263500D01*
X33434100Y-88859500D02*
X33434100Y-87910900D01*
X34406500Y-89831900D02*
X33434100Y-88859500D01*
X34544000Y-89831900D02*
X34406500Y-89831900D01*
X34544000Y-90932000D02*
X34544000Y-89831900D01*
%TO.N,Net-(U3-~{Y0})*%
X82015900Y-70950100D02*
X81788000Y-70950100D01*
X82895500Y-71829700D02*
X82015900Y-70950100D01*
X82895500Y-77953000D02*
X82895500Y-71829700D01*
X82108500Y-78740000D02*
X82895500Y-77953000D01*
X80315000Y-78740000D02*
X82108500Y-78740000D01*
X75156400Y-83898600D02*
X80315000Y-78740000D01*
X63706800Y-83898600D02*
X75156400Y-83898600D01*
X62738000Y-84867400D02*
X63706800Y-83898600D01*
X62738000Y-85277300D02*
X62738000Y-84867400D01*
X58523100Y-89492200D02*
X62738000Y-85277300D01*
X44364300Y-89492200D02*
X58523100Y-89492200D01*
X43264100Y-88392000D02*
X44364300Y-89492200D01*
X42164000Y-88392000D02*
X43264100Y-88392000D01*
X81788000Y-69850000D02*
X81788000Y-70950100D01*
%TO.N,Net-(U4-OE)*%
X34544000Y-88392000D02*
X35644100Y-88392000D01*
X37057700Y-86978400D02*
X35644100Y-88392000D01*
X57034900Y-86978400D02*
X37057700Y-86978400D01*
X60312100Y-83701200D02*
X57034900Y-86978400D01*
X62856800Y-83701200D02*
X60312100Y-83701200D01*
X64008000Y-82550000D02*
X62856800Y-83701200D01*
%TO.N,Net-(U3-~{Y1})*%
X81560000Y-73490100D02*
X81788000Y-73490100D01*
X80348200Y-74701900D02*
X81560000Y-73490100D01*
X80348200Y-75889400D02*
X80348200Y-74701900D01*
X74699000Y-81538600D02*
X80348200Y-75889400D01*
X58024000Y-81538600D02*
X74699000Y-81538600D01*
X55147400Y-84415200D02*
X58024000Y-81538600D01*
X36747300Y-84415200D02*
X55147400Y-84415200D01*
X35644100Y-83312000D02*
X36747300Y-84415200D01*
X34544000Y-83312000D02*
X35644100Y-83312000D01*
X81788000Y-72390000D02*
X81788000Y-73490100D01*
%TO.N,~{WR}*%
X83496400Y-98681400D02*
X85244300Y-100429300D01*
X41553400Y-98681400D02*
X83496400Y-98681400D01*
X35243800Y-92371800D02*
X41553400Y-98681400D01*
X34396500Y-92371800D02*
X35243800Y-92371800D01*
X32993700Y-90969000D02*
X34396500Y-92371800D01*
X32993700Y-87402300D02*
X32993700Y-90969000D01*
X34544000Y-85852000D02*
X32993700Y-87402300D01*
%TO.N,~{P2_LEFT}*%
X78946000Y-34082000D02*
X78946000Y-49368100D01*
X34036000Y-60198000D02*
X35136100Y-60198000D01*
X72639400Y-73401400D02*
X74168000Y-74930000D01*
X60755200Y-73401400D02*
X72639400Y-73401400D01*
X51096200Y-63742400D02*
X60755200Y-73401400D01*
X47974400Y-63742400D02*
X51096200Y-63742400D01*
X47174400Y-62942400D02*
X47974400Y-63742400D01*
X37743000Y-62942400D02*
X47174400Y-62942400D01*
X35136100Y-60335500D02*
X37743000Y-62942400D01*
X35136100Y-60198000D02*
X35136100Y-60335500D01*
X78946000Y-63605600D02*
X78946000Y-49368100D01*
X77588500Y-64963100D02*
X78946000Y-63605600D01*
%TO.N,DIP1*%
X67959600Y-73801600D02*
X69088000Y-74930000D01*
X59323600Y-73801600D02*
X67959600Y-73801600D01*
X54356000Y-68834000D02*
X59323600Y-73801600D01*
%TO.N,DIP2*%
X67906200Y-71208200D02*
X69088000Y-72390000D01*
X60794200Y-71208200D02*
X67906200Y-71208200D01*
X54356000Y-64770000D02*
X60794200Y-71208200D01*
%TO.N,Net-(D5-K)*%
X73914000Y-94996000D02*
X66548000Y-87630000D01*
X75099900Y-94996000D02*
X73914000Y-94996000D01*
X76200000Y-94996000D02*
X75099900Y-94996000D01*
%TO.N,Net-(D4-K)*%
X70358000Y-86360000D02*
X69088000Y-85090000D01*
X71812600Y-86360000D02*
X70358000Y-86360000D01*
X80179900Y-94727300D02*
X71812600Y-86360000D01*
X80179900Y-94996000D02*
X80179900Y-94727300D01*
X81280000Y-94996000D02*
X80179900Y-94996000D01*
%TO.N,Net-(D3-K)*%
X86360000Y-94996000D02*
X85259900Y-94996000D01*
X79229900Y-92691900D02*
X71628000Y-85090000D01*
X82955800Y-92691900D02*
X79229900Y-92691900D01*
X85259900Y-94996000D02*
X82955800Y-92691900D01*
%TO.N,Net-(D2-K)*%
X80094200Y-96096200D02*
X71628000Y-87630000D01*
X89239700Y-96096200D02*
X80094200Y-96096200D01*
X90339900Y-94996000D02*
X89239700Y-96096200D01*
X91440000Y-94996000D02*
X90339900Y-94996000D01*
%TO.N,Net-(D1-K)*%
X76307800Y-87229800D02*
X74168000Y-85090000D01*
X87653700Y-87229800D02*
X76307800Y-87229800D01*
X95419900Y-94996000D02*
X87653700Y-87229800D01*
X96520000Y-94996000D02*
X95419900Y-94996000D01*
%TO.N,D1*%
X91440000Y-102616000D02*
X90339900Y-102616000D01*
X60301600Y-99881700D02*
X52736000Y-107447300D01*
X81408800Y-99881700D02*
X60301600Y-99881700D01*
X82992900Y-101465800D02*
X81408800Y-99881700D01*
X89189700Y-101465800D02*
X82992900Y-101465800D01*
X90339900Y-102616000D02*
X89189700Y-101465800D01*
%TO.N,A2*%
X63717000Y-113206300D02*
X70144000Y-106779300D01*
X63717000Y-120959000D02*
X63717000Y-113206300D01*
%TO.N,~{IORQ}*%
X89635900Y-78570100D02*
X89408000Y-78570100D01*
X98044800Y-86979000D02*
X89635900Y-78570100D01*
X98044800Y-103256400D02*
X98044800Y-86979000D01*
X85642300Y-115658900D02*
X98044800Y-103256400D01*
X79557000Y-115658900D02*
X85642300Y-115658900D01*
X79557000Y-120959000D02*
X79557000Y-115658900D01*
X89408000Y-77470000D02*
X89408000Y-78570100D01*
%TO.N,D3*%
X81280000Y-102616000D02*
X80179900Y-102616000D01*
X78245800Y-100681900D02*
X80179900Y-102616000D01*
X64457400Y-100681900D02*
X78245800Y-100681900D01*
X61357700Y-103781600D02*
X64457400Y-100681900D01*
X58922600Y-103781600D02*
X61357700Y-103781600D01*
%TO.N,A6*%
X64090500Y-102899500D02*
X64090500Y-102905000D01*
X65507900Y-101482100D02*
X64090500Y-102899500D01*
X67867200Y-101482100D02*
X65507900Y-101482100D01*
X72635000Y-106249900D02*
X67867200Y-101482100D01*
X74455300Y-106249900D02*
X72635000Y-106249900D01*
X75403700Y-107198300D02*
X74455300Y-106249900D01*
X75403700Y-108779000D02*
X75403700Y-107198300D01*
X71637000Y-112545700D02*
X75403700Y-108779000D01*
X71637000Y-120959000D02*
X71637000Y-112545700D01*
%TO.N,A0*%
X59757000Y-120959000D02*
X59757000Y-115658900D01*
X59757000Y-110456500D02*
X59757000Y-115658900D01*
X67351200Y-102862300D02*
X59757000Y-110456500D01*
%TO.N,D0*%
X96520000Y-102616000D02*
X95419900Y-102616000D01*
X43917000Y-120959000D02*
X43917000Y-115658900D01*
X43917000Y-115396800D02*
X43917000Y-115658900D01*
X59860300Y-99453500D02*
X43917000Y-115396800D01*
X83383700Y-99453500D02*
X59860300Y-99453500D01*
X84995900Y-101065700D02*
X83383700Y-99453500D01*
X93869600Y-101065700D02*
X84995900Y-101065700D01*
X95419900Y-102616000D02*
X93869600Y-101065700D01*
%TO.N,D2*%
X83577200Y-102616000D02*
X86360000Y-102616000D01*
X81243000Y-100281800D02*
X83577200Y-102616000D01*
X61566100Y-100281800D02*
X81243000Y-100281800D01*
X47877000Y-113970900D02*
X61566100Y-100281800D01*
X47877000Y-120959000D02*
X47877000Y-113970900D01*
%TO.N,D6*%
X66040000Y-102616000D02*
X64939900Y-102616000D01*
X55797000Y-120959000D02*
X55797000Y-115658900D01*
X64939900Y-102904300D02*
X64939900Y-102616000D01*
X55797000Y-112047200D02*
X64939900Y-102904300D01*
X55797000Y-115658900D02*
X55797000Y-112047200D01*
%TO.N,A4*%
X67677000Y-114527200D02*
X74779000Y-107425200D01*
X67677000Y-120959000D02*
X67677000Y-114527200D01*
%TO.N,~{RD}*%
X43264100Y-91387900D02*
X43264100Y-90932000D01*
X49068400Y-97192200D02*
X43264100Y-91387900D01*
X92731200Y-97192200D02*
X49068400Y-97192200D01*
X97644100Y-102105100D02*
X92731200Y-97192200D01*
X97644100Y-103087400D02*
X97644100Y-102105100D01*
X96981600Y-103749900D02*
X97644100Y-103087400D01*
X87506000Y-103749900D02*
X96981600Y-103749900D01*
X75597000Y-115658900D02*
X87506000Y-103749900D01*
X75597000Y-120959000D02*
X75597000Y-115658900D01*
X42164000Y-90932000D02*
X43264100Y-90932000D01*
%TO.N,D4*%
X76200000Y-102616000D02*
X75099900Y-102616000D01*
X51837000Y-114310000D02*
X51837000Y-120959000D01*
X65065000Y-101082000D02*
X51837000Y-114310000D01*
X73565900Y-101082000D02*
X65065000Y-101082000D01*
X75099900Y-102616000D02*
X73565900Y-101082000D01*
%TO.N,A7*%
X71673000Y-107432200D02*
X67813400Y-103572600D01*
X73879700Y-107432200D02*
X71673000Y-107432200D01*
%TO.N,~{P2_DOWN}*%
X36576000Y-60198000D02*
X37676100Y-60198000D01*
X61599200Y-70457100D02*
X70012000Y-70457100D01*
X54484400Y-63342300D02*
X61599200Y-70457100D01*
X49555500Y-63342300D02*
X54484400Y-63342300D01*
X48755400Y-62542200D02*
X49555500Y-63342300D01*
X39882700Y-62542200D02*
X48755400Y-62542200D01*
X37676100Y-60335600D02*
X39882700Y-62542200D01*
X37676100Y-60198000D02*
X37676100Y-60335600D01*
X72678500Y-75980500D02*
X71628000Y-74930000D01*
X74583100Y-75980500D02*
X72678500Y-75980500D01*
X75218500Y-75345100D02*
X74583100Y-75980500D01*
X75218500Y-74511400D02*
X75218500Y-75345100D01*
X71164200Y-70457100D02*
X75218500Y-74511400D01*
X70012000Y-70457100D02*
X71164200Y-70457100D01*
%TO.N,~{P2_UP}*%
X70839300Y-69000600D02*
X70605900Y-69000600D01*
X76029800Y-74191100D02*
X70839300Y-69000600D01*
X76029800Y-75693500D02*
X76029800Y-74191100D01*
X74253300Y-77470000D02*
X76029800Y-75693500D01*
X74168000Y-77470000D02*
X74253300Y-77470000D01*
X40816400Y-61898400D02*
X39116000Y-60198000D01*
X48677400Y-61898400D02*
X40816400Y-61898400D01*
X49721200Y-62942200D02*
X48677400Y-61898400D01*
X54933000Y-62942200D02*
X49721200Y-62942200D01*
X60991400Y-69000600D02*
X54933000Y-62942200D01*
X70605900Y-69000600D02*
X60991400Y-69000600D01*
%TO.N,~{P2_FIRE}*%
X64008000Y-78949400D02*
X64008000Y-80010000D01*
X74791000Y-59503600D02*
X74791000Y-31242000D01*
X76903600Y-61616200D02*
X74791000Y-59503600D01*
X76903600Y-78757700D02*
X76903600Y-61616200D01*
X74633800Y-81027500D02*
X76903600Y-78757700D01*
X73712100Y-81027500D02*
X74633800Y-81027500D01*
X73156600Y-80472000D02*
X73712100Y-81027500D01*
X73156600Y-80104600D02*
X73156600Y-80472000D01*
X72001400Y-78949400D02*
X73156600Y-80104600D01*
X64008000Y-78949400D02*
X72001400Y-78949400D01*
X41148000Y-64770000D02*
X42248100Y-64770000D01*
X62738000Y-77679400D02*
X64008000Y-78949400D01*
X62738000Y-77283900D02*
X62738000Y-77679400D01*
X61905500Y-76451400D02*
X62738000Y-77283900D01*
X59354000Y-76451400D02*
X61905500Y-76451400D01*
X49172800Y-66270200D02*
X59354000Y-76451400D01*
X43748300Y-66270200D02*
X49172800Y-66270200D01*
X42248100Y-64770000D02*
X43748300Y-66270200D01*
%TO.N,~{P2_RIGHT}*%
X58451900Y-77470000D02*
X61468000Y-77470000D01*
X48702600Y-67720700D02*
X58451900Y-77470000D01*
X43347400Y-67720700D02*
X48702600Y-67720700D01*
X42248100Y-68820000D02*
X43347400Y-67720700D01*
X41148000Y-68820000D02*
X42248100Y-68820000D01*
X62218500Y-67395800D02*
X57269000Y-62446300D01*
X66138500Y-67395800D02*
X62218500Y-67395800D01*
X74177800Y-59356500D02*
X66138500Y-67395800D01*
%TO.N,~{P1_RIGHT}*%
X44196000Y-60198000D02*
X45296100Y-60198000D01*
X45296100Y-60359200D02*
X45296100Y-60198000D01*
X46435200Y-61498300D02*
X45296100Y-60359200D01*
X48843100Y-61498300D02*
X46435200Y-61498300D01*
X49886900Y-62542100D02*
X48843100Y-61498300D01*
X55381500Y-62542100D02*
X49886900Y-62542100D01*
X61439900Y-68600500D02*
X55381500Y-62542100D01*
X70157400Y-68600500D02*
X61439900Y-68600500D01*
X70362700Y-68395200D02*
X70157400Y-68600500D01*
X70902200Y-68395200D02*
X70362700Y-68395200D01*
X72844500Y-70337500D02*
X70902200Y-68395200D01*
X72844500Y-70439900D02*
X72844500Y-70337500D01*
X76438300Y-74033700D02*
X72844500Y-70439900D01*
X76438300Y-77739700D02*
X76438300Y-74033700D01*
X74168000Y-80010000D02*
X76438300Y-77739700D01*
%TO.N,~{P1_DOWN}*%
X49276000Y-60198000D02*
X50376100Y-60198000D01*
X50376100Y-60335500D02*
X50376100Y-60198000D01*
X52182600Y-62142000D02*
X50376100Y-60335500D01*
X55547200Y-62142000D02*
X52182600Y-62142000D01*
X61605600Y-68200400D02*
X55547200Y-62142000D01*
X69991700Y-68200400D02*
X61605600Y-68200400D01*
X70197000Y-67995100D02*
X69991700Y-68200400D01*
X71248200Y-67995100D02*
X70197000Y-67995100D01*
X73444600Y-70191500D02*
X71248200Y-67995100D01*
%TO.N,~{P1_LEFT}*%
X46736000Y-60198000D02*
X46736000Y-59097900D01*
X70570100Y-81067900D02*
X71628000Y-80010000D01*
X59237800Y-81067900D02*
X70570100Y-81067900D01*
X57530300Y-79360400D02*
X59237800Y-81067900D01*
X45348900Y-79360400D02*
X57530300Y-79360400D01*
X42050600Y-76062100D02*
X45348900Y-79360400D01*
X41666100Y-76062100D02*
X42050600Y-76062100D01*
X39725500Y-74121500D02*
X41666100Y-76062100D01*
X39725500Y-69039800D02*
X39725500Y-74121500D01*
X32455100Y-61769400D02*
X39725500Y-69039800D01*
X32455100Y-59583900D02*
X32455100Y-61769400D01*
X34084800Y-57954200D02*
X32455100Y-59583900D01*
X44396000Y-57954200D02*
X34084800Y-57954200D01*
X45592300Y-57954200D02*
X44396000Y-57954200D01*
X46736000Y-59097900D02*
X45592300Y-57954200D01*
X44396000Y-57954200D02*
X44396000Y-34082000D01*
%TO.N,~{P1_UP}*%
X51816000Y-60198000D02*
X52916100Y-60198000D01*
X52916100Y-60785000D02*
X52916100Y-60198000D01*
X53673000Y-61541900D02*
X52916100Y-60785000D01*
X55512900Y-61541900D02*
X53673000Y-61541900D01*
X61767000Y-67796000D02*
X55512900Y-61541900D01*
X69830300Y-67796000D02*
X61767000Y-67796000D01*
X70031300Y-67595000D02*
X69830300Y-67796000D01*
X71728800Y-67595000D02*
X70031300Y-67595000D01*
X73525100Y-69391300D02*
X71728800Y-67595000D01*
%TO.N,~{P1_FIRE}*%
X65708500Y-77470000D02*
X71628000Y-77470000D01*
X64619200Y-76380700D02*
X65708500Y-77470000D01*
X62918700Y-76380700D02*
X64619200Y-76380700D01*
X62534200Y-75996200D02*
X62918700Y-76380700D01*
X59518000Y-75996200D02*
X62534200Y-75996200D01*
X47064200Y-63542400D02*
X59518000Y-75996200D01*
X35739500Y-63542400D02*
X47064200Y-63542400D01*
X32903900Y-60706800D02*
X35739500Y-63542400D01*
X32903900Y-59720900D02*
X32903900Y-60706800D01*
X33541100Y-59083700D02*
X32903900Y-59720900D01*
X39579100Y-59083700D02*
X33541100Y-59083700D01*
X40555900Y-60060500D02*
X39579100Y-59083700D01*
X40555900Y-60198000D02*
X40555900Y-60060500D01*
X41656000Y-60198000D02*
X40555900Y-60198000D01*
D19*
%TO.N,VCC*%
X49530000Y-27940000D02*
X61595000Y-27940000D01*
X65318000Y-63413000D02*
X65318000Y-66294000D01*
X83108000Y-61037000D02*
X83108000Y-62494000D01*
X85725000Y-58420000D02*
X83108000Y-61037000D01*
X97790000Y-58420000D02*
X85725000Y-58420000D01*
X100330000Y-55880000D02*
X97790000Y-58420000D01*
X100330000Y-50165000D02*
X100330000Y-55880000D01*
X106680000Y-43815000D02*
X100330000Y-50165000D01*
X106680000Y-29845000D02*
X106680000Y-43815000D01*
X106172000Y-29337000D02*
X106680000Y-29845000D01*
X102743000Y-29337000D02*
X106172000Y-29337000D01*
X100203000Y-29337000D02*
X102743000Y-29337000D01*
X99060000Y-28194000D02*
X100203000Y-29337000D01*
X99060000Y-27940000D02*
X99060000Y-28194000D01*
X83820000Y-27940000D02*
X99060000Y-27940000D01*
X85090000Y-33478000D02*
X84486000Y-34082000D01*
X85090000Y-29210000D02*
X85090000Y-33478000D01*
X83820000Y-27940000D02*
X85090000Y-29210000D01*
X50165000Y-33853000D02*
X49936000Y-34082000D01*
X50165000Y-28575000D02*
X50165000Y-33853000D01*
X49530000Y-27940000D02*
X50165000Y-28575000D01*
X31750000Y-73660000D02*
X35894000Y-73660000D01*
X29527500Y-75882500D02*
X31750000Y-73660000D01*
X29210000Y-76200000D02*
X29527500Y-75882500D01*
X29210000Y-93980000D02*
X29210000Y-76200000D01*
X38735000Y-103505000D02*
X29210000Y-93980000D01*
X62103000Y-60198000D02*
X65318000Y-63413000D01*
X54356000Y-60198000D02*
X62103000Y-60198000D01*
X61595000Y-27940000D02*
X83820000Y-27940000D01*
X61595000Y-36830000D02*
X61595000Y-27940000D01*
X65318000Y-40553000D02*
X61595000Y-36830000D01*
X65318000Y-63413000D02*
X65318000Y-40553000D01*
D18*
X48090100Y-78232000D02*
X54610000Y-78232000D01*
X46990000Y-78232000D02*
X48090100Y-78232000D01*
D19*
X29527500Y-75882500D02*
X29527500Y-67310000D01*
X38100000Y-27940000D02*
X49530000Y-27940000D01*
X35560000Y-30480000D02*
X38100000Y-27940000D01*
X35560000Y-36830000D02*
X35560000Y-30480000D01*
X33655000Y-38735000D02*
X35560000Y-36830000D01*
X33655000Y-54610000D02*
X33655000Y-38735000D01*
X29527500Y-58737500D02*
X33655000Y-54610000D01*
X29527500Y-67310000D02*
X29527500Y-58737500D01*
D18*
X32018000Y-66280000D02*
X33528000Y-64770000D01*
X32018000Y-67310000D02*
X32018000Y-66280000D01*
X29527500Y-67310000D02*
X32018000Y-67310000D01*
X32018000Y-67310000D02*
X33528000Y-68820000D01*
D19*
%TO.N,GND*%
X95397000Y-111613000D02*
X101600000Y-105410000D01*
X95397000Y-120959000D02*
X95397000Y-111613000D01*
D18*
X83101000Y-31242000D02*
X80331000Y-31242000D01*
D19*
X51586000Y-75160000D02*
X43853700Y-75160000D01*
X53086000Y-73660000D02*
X51586000Y-75160000D01*
X42394000Y-75160000D02*
X40894000Y-73660000D01*
X43853700Y-75160000D02*
X42394000Y-75160000D01*
D18*
X43853700Y-72816400D02*
X46736000Y-69934100D01*
X43853700Y-75160000D02*
X43853700Y-72816400D01*
X46736000Y-68834000D02*
X46736000Y-69934100D01*
X48551000Y-31242000D02*
X45781000Y-31242000D01*
X65278000Y-86360000D02*
X64008000Y-85090000D01*
X67818000Y-86360000D02*
X65278000Y-86360000D01*
X69088000Y-87630000D02*
X67818000Y-86360000D01*
%TD*%
%TA.AperFunction,Conductor*%
%TO.N,VCC*%
G36*
X102422920Y-29091394D02*
G01*
X102370259Y-29182606D01*
X102343000Y-29284339D01*
X102343000Y-29389661D01*
X102370259Y-29491394D01*
X102422920Y-29582606D01*
X102427314Y-29587000D01*
X100518686Y-29587000D01*
X100523080Y-29582606D01*
X100575741Y-29491394D01*
X100603000Y-29389661D01*
X100603000Y-29284339D01*
X100575741Y-29182606D01*
X100523080Y-29091394D01*
X100518686Y-29087000D01*
X102427314Y-29087000D01*
X102422920Y-29091394D01*
G37*
%TD.AperFunction*%
%TA.AperFunction,Conductor*%
G36*
X107219104Y-26622899D02*
G01*
X107264859Y-26675703D01*
X107276065Y-26727214D01*
X107276065Y-47013268D01*
X107256380Y-47080307D01*
X107203576Y-47126062D01*
X107162873Y-47136796D01*
X107123242Y-47140263D01*
X106693232Y-47216087D01*
X106693229Y-47216087D01*
X106693227Y-47216088D01*
X106693222Y-47216089D01*
X106693219Y-47216090D01*
X106271463Y-47329098D01*
X106066293Y-47403774D01*
X105861133Y-47478447D01*
X105861129Y-47478448D01*
X105861123Y-47478451D01*
X105861115Y-47478454D01*
X105465400Y-47662980D01*
X105465384Y-47662988D01*
X105087246Y-47881307D01*
X105087231Y-47881316D01*
X104729546Y-48131770D01*
X104395055Y-48412443D01*
X104086316Y-48721182D01*
X104086295Y-48721205D01*
X103805627Y-49055691D01*
X103555173Y-49413376D01*
X103555164Y-49413391D01*
X103336845Y-49791529D01*
X103336832Y-49791553D01*
X103152306Y-50187273D01*
X103152303Y-50187281D01*
X103002958Y-50597604D01*
X102889949Y-51019364D01*
X102889945Y-51019381D01*
X102814123Y-51449385D01*
X102814123Y-51449389D01*
X102776066Y-51884379D01*
X102776066Y-52321040D01*
X102814123Y-52756030D01*
X102814123Y-52756034D01*
X102889945Y-53186038D01*
X102889949Y-53186055D01*
X103002958Y-53607815D01*
X103152303Y-54018138D01*
X103152306Y-54018146D01*
X103336832Y-54413866D01*
X103336845Y-54413890D01*
X103555164Y-54792028D01*
X103555173Y-54792043D01*
X103805627Y-55149728D01*
X104014383Y-55398513D01*
X104086298Y-55484218D01*
X104086301Y-55484221D01*
X104086316Y-55484237D01*
X104395055Y-55792976D01*
X104395058Y-55792979D01*
X104400768Y-55797770D01*
X104729546Y-56073649D01*
X104729552Y-56073653D01*
X104729553Y-56073654D01*
X105087238Y-56324108D01*
X105465391Y-56542435D01*
X105465400Y-56542439D01*
X105861115Y-56726965D01*
X105861119Y-56726966D01*
X105861133Y-56726973D01*
X106271453Y-56876318D01*
X106271459Y-56876319D01*
X106271463Y-56876321D01*
X106386319Y-56907096D01*
X106693227Y-56989332D01*
X107123246Y-57065157D01*
X107162872Y-57068623D01*
X107227940Y-57094074D01*
X107268919Y-57150665D01*
X107276065Y-57192151D01*
X107276065Y-59736822D01*
X107276066Y-65336823D01*
X107276066Y-76736822D01*
X107276065Y-82348821D01*
X107276065Y-97013268D01*
X107256380Y-97080307D01*
X107203576Y-97126062D01*
X107162873Y-97136796D01*
X107123242Y-97140263D01*
X106693232Y-97216087D01*
X106693229Y-97216087D01*
X106693227Y-97216088D01*
X106693222Y-97216089D01*
X106693219Y-97216090D01*
X106271463Y-97329098D01*
X106066293Y-97403774D01*
X105861133Y-97478447D01*
X105861129Y-97478448D01*
X105861123Y-97478451D01*
X105861115Y-97478454D01*
X105465400Y-97662980D01*
X105465384Y-97662988D01*
X105087246Y-97881307D01*
X105087231Y-97881316D01*
X104729546Y-98131770D01*
X104395055Y-98412443D01*
X104086316Y-98721182D01*
X104086295Y-98721205D01*
X103805627Y-99055691D01*
X103555173Y-99413376D01*
X103555164Y-99413391D01*
X103336845Y-99791529D01*
X103336832Y-99791553D01*
X103152306Y-100187273D01*
X103152303Y-100187281D01*
X103002958Y-100597604D01*
X102889949Y-101019364D01*
X102889945Y-101019381D01*
X102814123Y-101449385D01*
X102814123Y-101449389D01*
X102776066Y-101884379D01*
X102776066Y-102321040D01*
X102814123Y-102756030D01*
X102814123Y-102756034D01*
X102889349Y-103182659D01*
X102889947Y-103186048D01*
X102898197Y-103216838D01*
X103002958Y-103607815D01*
X103152303Y-104018138D01*
X103152306Y-104018146D01*
X103336832Y-104413866D01*
X103336845Y-104413890D01*
X103467371Y-104639967D01*
X103553545Y-104789225D01*
X103555164Y-104792028D01*
X103555173Y-104792043D01*
X103805627Y-105149728D01*
X103966129Y-105341006D01*
X104086298Y-105484218D01*
X104086301Y-105484221D01*
X104086316Y-105484237D01*
X104343886Y-105741807D01*
X104395058Y-105792979D01*
X104400768Y-105797770D01*
X104729546Y-106073649D01*
X104729552Y-106073653D01*
X104729553Y-106073654D01*
X105087238Y-106324108D01*
X105465391Y-106542435D01*
X105560358Y-106586719D01*
X105861115Y-106726965D01*
X105861119Y-106726966D01*
X105861133Y-106726973D01*
X106271453Y-106876318D01*
X106271459Y-106876319D01*
X106271463Y-106876321D01*
X106336413Y-106893724D01*
X106693227Y-106989332D01*
X107123246Y-107065157D01*
X107162872Y-107068623D01*
X107227940Y-107094074D01*
X107268919Y-107150665D01*
X107276065Y-107192151D01*
X107276065Y-115478214D01*
X107256380Y-115545253D01*
X107203576Y-115591008D01*
X107152065Y-115602214D01*
X99371673Y-115602214D01*
X99244377Y-115636322D01*
X99130251Y-115702214D01*
X99130248Y-115702216D01*
X99037067Y-115795397D01*
X99037065Y-115795400D01*
X98971173Y-115909526D01*
X98937065Y-116036822D01*
X98937065Y-116178467D01*
X98917380Y-116245506D01*
X98864576Y-116291261D01*
X98812675Y-116302466D01*
X96721110Y-116295888D01*
X96654133Y-116275993D01*
X96608544Y-116223045D01*
X96597500Y-116171889D01*
X96597500Y-115939249D01*
X96597499Y-115939247D01*
X96585868Y-115880770D01*
X96585867Y-115880769D01*
X96541552Y-115814447D01*
X96475230Y-115770132D01*
X96475229Y-115770131D01*
X96416752Y-115758500D01*
X96416748Y-115758500D01*
X96221500Y-115758500D01*
X96154461Y-115738815D01*
X96108706Y-115686011D01*
X96097500Y-115634500D01*
X96097500Y-111954519D01*
X96117185Y-111887480D01*
X96133819Y-111866838D01*
X102144112Y-105856545D01*
X102144114Y-105856543D01*
X102220775Y-105741811D01*
X102273580Y-105614328D01*
X102299460Y-105484223D01*
X102300500Y-105478996D01*
X102300500Y-105341003D01*
X102273581Y-105205676D01*
X102273580Y-105205675D01*
X102273580Y-105205671D01*
X102220775Y-105078189D01*
X102144114Y-104963457D01*
X102144112Y-104963454D01*
X102046545Y-104865887D01*
X101936019Y-104792037D01*
X101931811Y-104789225D01*
X101804329Y-104736420D01*
X101804323Y-104736418D01*
X101668996Y-104709500D01*
X101668994Y-104709500D01*
X101531006Y-104709500D01*
X101531004Y-104709500D01*
X101395677Y-104736418D01*
X101395667Y-104736421D01*
X101268192Y-104789222D01*
X101153454Y-104865887D01*
X94852887Y-111166454D01*
X94776222Y-111281192D01*
X94723421Y-111408667D01*
X94723418Y-111408677D01*
X94696500Y-111544004D01*
X94696500Y-115634500D01*
X94676815Y-115701539D01*
X94624011Y-115747294D01*
X94572500Y-115758500D01*
X94377247Y-115758500D01*
X94318770Y-115770131D01*
X94318769Y-115770132D01*
X94252447Y-115814447D01*
X94208132Y-115880769D01*
X94208131Y-115880770D01*
X94196500Y-115939247D01*
X94196500Y-116163559D01*
X94176815Y-116230598D01*
X94124011Y-116276353D01*
X94072110Y-116287558D01*
X84841110Y-116258530D01*
X84774133Y-116238635D01*
X84728544Y-116185688D01*
X84717500Y-116134531D01*
X84717500Y-116083400D01*
X84737185Y-116016361D01*
X84789989Y-115970606D01*
X84841500Y-115959400D01*
X85681860Y-115959400D01*
X85681862Y-115959400D01*
X85758289Y-115938921D01*
X85826811Y-115899360D01*
X85882760Y-115843411D01*
X98285260Y-103440911D01*
X98324822Y-103372388D01*
X98345300Y-103295962D01*
X98345300Y-103216838D01*
X98345300Y-86939438D01*
X98324821Y-86863011D01*
X98324817Y-86863004D01*
X98285264Y-86794495D01*
X98285258Y-86794487D01*
X89969986Y-78479215D01*
X89936501Y-78417892D01*
X89941485Y-78348200D01*
X89979002Y-78295681D01*
X90118883Y-78180883D01*
X90188954Y-78095502D01*
X90243910Y-78028538D01*
X90312437Y-77900333D01*
X90336811Y-77854733D01*
X90336811Y-77854732D01*
X90336814Y-77854727D01*
X90394024Y-77666132D01*
X90413341Y-77470000D01*
X90394024Y-77273868D01*
X90336814Y-77085273D01*
X90336811Y-77085269D01*
X90336811Y-77085266D01*
X90243913Y-76911467D01*
X90243909Y-76911460D01*
X90118883Y-76759116D01*
X89966539Y-76634090D01*
X89966532Y-76634086D01*
X89792733Y-76541188D01*
X89792727Y-76541186D01*
X89604132Y-76483976D01*
X89604129Y-76483975D01*
X89408000Y-76464659D01*
X89211870Y-76483975D01*
X89023266Y-76541188D01*
X88849467Y-76634086D01*
X88849460Y-76634090D01*
X88697116Y-76759116D01*
X88572090Y-76911460D01*
X88572086Y-76911467D01*
X88479188Y-77085266D01*
X88421975Y-77273870D01*
X88402659Y-77470000D01*
X88421975Y-77666129D01*
X88421976Y-77666132D01*
X88475587Y-77842864D01*
X88479188Y-77854733D01*
X88572086Y-78028532D01*
X88572090Y-78028539D01*
X88697116Y-78180883D01*
X88849460Y-78305909D01*
X88849467Y-78305913D01*
X89023273Y-78398814D01*
X89028897Y-78401144D01*
X89028020Y-78403260D01*
X89077917Y-78435945D01*
X89106387Y-78499751D01*
X89107500Y-78516328D01*
X89107500Y-78609662D01*
X89113486Y-78632000D01*
X89127979Y-78686090D01*
X89127982Y-78686095D01*
X89167535Y-78754604D01*
X89167541Y-78754612D01*
X89223488Y-78810559D01*
X89228007Y-78814027D01*
X89269208Y-78870456D01*
X89273360Y-78940202D01*
X89239146Y-79001121D01*
X89188513Y-79031060D01*
X89023271Y-79081186D01*
X88849467Y-79174086D01*
X88849460Y-79174090D01*
X88697116Y-79299116D01*
X88572090Y-79451460D01*
X88572086Y-79451467D01*
X88479188Y-79625266D01*
X88421975Y-79813870D01*
X88402659Y-80010000D01*
X88421975Y-80206129D01*
X88436519Y-80254075D01*
X88475587Y-80382864D01*
X88479188Y-80394733D01*
X88572086Y-80568532D01*
X88572090Y-80568539D01*
X88697116Y-80720883D01*
X88849460Y-80845909D01*
X88849467Y-80845913D01*
X89023273Y-80938814D01*
X89028897Y-80941144D01*
X89028020Y-80943260D01*
X89077917Y-80975945D01*
X89106387Y-81039751D01*
X89107500Y-81056328D01*
X89107500Y-81070538D01*
X89107500Y-81149662D01*
X89118190Y-81189555D01*
X89127979Y-81226090D01*
X89127982Y-81226095D01*
X89167535Y-81294604D01*
X89167541Y-81294612D01*
X89223488Y-81350559D01*
X89228007Y-81354027D01*
X89269208Y-81410456D01*
X89273360Y-81480202D01*
X89239146Y-81541121D01*
X89188513Y-81571060D01*
X89023271Y-81621186D01*
X88849467Y-81714086D01*
X88849460Y-81714090D01*
X88697116Y-81839116D01*
X88572090Y-81991460D01*
X88572086Y-81991467D01*
X88479188Y-82165266D01*
X88421975Y-82353870D01*
X88402659Y-82550000D01*
X88421975Y-82746129D01*
X88424200Y-82753464D01*
X88475587Y-82922864D01*
X88479188Y-82934733D01*
X88572086Y-83108532D01*
X88572090Y-83108539D01*
X88697116Y-83260883D01*
X88849460Y-83385909D01*
X88849467Y-83385913D01*
X89023266Y-83478811D01*
X89023269Y-83478811D01*
X89023273Y-83478814D01*
X89211868Y-83536024D01*
X89408000Y-83555341D01*
X89604132Y-83536024D01*
X89792727Y-83478814D01*
X89826538Y-83460742D01*
X89879632Y-83432362D01*
X89966538Y-83385910D01*
X90118883Y-83260883D01*
X90243910Y-83108538D01*
X90336814Y-82934727D01*
X90394024Y-82746132D01*
X90408936Y-82594716D01*
X90435096Y-82529931D01*
X90492131Y-82489572D01*
X90561931Y-82486455D01*
X90620020Y-82519191D01*
X97283381Y-89182552D01*
X97316866Y-89243875D01*
X97319700Y-89270233D01*
X97319700Y-93871500D01*
X97300015Y-93938539D01*
X97247211Y-93984294D01*
X97195700Y-93995500D01*
X95700247Y-93995500D01*
X95641770Y-94007131D01*
X95641769Y-94007132D01*
X95575447Y-94051447D01*
X95531132Y-94117769D01*
X95531131Y-94117770D01*
X95519500Y-94176247D01*
X95519500Y-94371266D01*
X95499815Y-94438305D01*
X95447011Y-94484060D01*
X95377853Y-94494004D01*
X95314297Y-94464979D01*
X95307819Y-94458947D01*
X87838214Y-86989342D01*
X87838211Y-86989340D01*
X87828059Y-86983479D01*
X87769689Y-86949779D01*
X87693262Y-86929300D01*
X87693260Y-86929300D01*
X76483633Y-86929300D01*
X76416594Y-86909615D01*
X76395952Y-86892981D01*
X75049479Y-85546508D01*
X75015994Y-85485185D01*
X75019229Y-85420509D01*
X75022727Y-85409740D01*
X75064689Y-85280597D01*
X75084722Y-85090000D01*
X80782659Y-85090000D01*
X80801975Y-85286129D01*
X80804201Y-85293467D01*
X80855587Y-85462864D01*
X80859188Y-85474733D01*
X80952086Y-85648532D01*
X80952090Y-85648539D01*
X81077116Y-85800883D01*
X81229460Y-85925909D01*
X81229467Y-85925913D01*
X81403266Y-86018811D01*
X81403269Y-86018811D01*
X81403273Y-86018814D01*
X81591868Y-86076024D01*
X81788000Y-86095341D01*
X81984132Y-86076024D01*
X82172727Y-86018814D01*
X82217273Y-85995004D01*
X82270678Y-85966458D01*
X82346538Y-85925910D01*
X82498883Y-85800883D01*
X82623910Y-85648538D01*
X82716814Y-85474727D01*
X82774024Y-85286132D01*
X82793341Y-85090000D01*
X88402659Y-85090000D01*
X88421975Y-85286129D01*
X88424201Y-85293467D01*
X88475587Y-85462864D01*
X88479188Y-85474733D01*
X88572086Y-85648532D01*
X88572090Y-85648539D01*
X88697116Y-85800883D01*
X88849460Y-85925909D01*
X88849467Y-85925913D01*
X89023266Y-86018811D01*
X89023269Y-86018811D01*
X89023273Y-86018814D01*
X89211868Y-86076024D01*
X89408000Y-86095341D01*
X89604132Y-86076024D01*
X89792727Y-86018814D01*
X89837273Y-85995004D01*
X89890678Y-85966458D01*
X89966538Y-85925910D01*
X90118883Y-85800883D01*
X90243910Y-85648538D01*
X90336814Y-85474727D01*
X90394024Y-85286132D01*
X90413341Y-85090000D01*
X90394024Y-84893868D01*
X90336814Y-84705273D01*
X90336811Y-84705269D01*
X90336811Y-84705266D01*
X90243913Y-84531467D01*
X90243909Y-84531460D01*
X90118883Y-84379116D01*
X89966539Y-84254090D01*
X89966532Y-84254086D01*
X89792733Y-84161188D01*
X89792727Y-84161186D01*
X89604132Y-84103976D01*
X89604129Y-84103975D01*
X89408000Y-84084659D01*
X89211870Y-84103975D01*
X89023266Y-84161188D01*
X88849467Y-84254086D01*
X88849460Y-84254090D01*
X88697116Y-84379116D01*
X88572090Y-84531460D01*
X88572086Y-84531467D01*
X88479188Y-84705266D01*
X88421975Y-84893870D01*
X88402659Y-85090000D01*
X82793341Y-85090000D01*
X82774024Y-84893868D01*
X82716814Y-84705273D01*
X82716811Y-84705269D01*
X82716811Y-84705266D01*
X82623913Y-84531467D01*
X82623909Y-84531460D01*
X82498883Y-84379116D01*
X82346539Y-84254090D01*
X82346532Y-84254086D01*
X82172733Y-84161188D01*
X82172727Y-84161186D01*
X81984132Y-84103976D01*
X81984129Y-84103975D01*
X81788000Y-84084659D01*
X81591870Y-84103975D01*
X81403266Y-84161188D01*
X81229467Y-84254086D01*
X81229460Y-84254090D01*
X81077116Y-84379116D01*
X80952090Y-84531460D01*
X80952086Y-84531467D01*
X80859188Y-84705266D01*
X80801975Y-84893870D01*
X80782659Y-85090000D01*
X75084722Y-85090000D01*
X75064689Y-84899403D01*
X75005467Y-84717136D01*
X75004701Y-84715810D01*
X74950265Y-84621523D01*
X74909644Y-84551164D01*
X74781407Y-84408743D01*
X74781406Y-84408742D01*
X74779002Y-84406072D01*
X74748772Y-84343081D01*
X74757397Y-84273746D01*
X74802138Y-84220080D01*
X74868791Y-84199122D01*
X74871152Y-84199100D01*
X75195960Y-84199100D01*
X75195962Y-84199100D01*
X75272389Y-84178621D01*
X75340911Y-84139060D01*
X75396860Y-84083111D01*
X76929971Y-82550000D01*
X80782659Y-82550000D01*
X80801975Y-82746129D01*
X80804200Y-82753464D01*
X80855587Y-82922864D01*
X80859188Y-82934733D01*
X80952086Y-83108532D01*
X80952090Y-83108539D01*
X81077116Y-83260883D01*
X81229460Y-83385909D01*
X81229467Y-83385913D01*
X81403266Y-83478811D01*
X81403269Y-83478811D01*
X81403273Y-83478814D01*
X81591868Y-83536024D01*
X81788000Y-83555341D01*
X81984132Y-83536024D01*
X82172727Y-83478814D01*
X82206538Y-83460742D01*
X82259632Y-83432362D01*
X82346538Y-83385910D01*
X82498883Y-83260883D01*
X82623910Y-83108538D01*
X82716814Y-82934727D01*
X82774024Y-82746132D01*
X82793341Y-82550000D01*
X82774024Y-82353868D01*
X82716814Y-82165273D01*
X82716811Y-82165269D01*
X82716811Y-82165266D01*
X82623913Y-81991467D01*
X82623909Y-81991460D01*
X82498883Y-81839116D01*
X82346539Y-81714090D01*
X82346532Y-81714086D01*
X82172733Y-81621188D01*
X82172727Y-81621186D01*
X81984132Y-81563976D01*
X81984129Y-81563975D01*
X81788000Y-81544659D01*
X81591870Y-81563975D01*
X81403266Y-81621188D01*
X81229467Y-81714086D01*
X81229460Y-81714090D01*
X81077116Y-81839116D01*
X80952090Y-81991460D01*
X80952086Y-81991467D01*
X80859188Y-82165266D01*
X80801975Y-82353870D01*
X80782659Y-82550000D01*
X76929971Y-82550000D01*
X80403152Y-79076819D01*
X80464475Y-79043334D01*
X80490833Y-79040500D01*
X81045685Y-79040500D01*
X81112724Y-79060185D01*
X81158479Y-79112989D01*
X81168423Y-79182147D01*
X81139398Y-79245703D01*
X81124350Y-79260353D01*
X81077116Y-79299116D01*
X80952090Y-79451460D01*
X80952086Y-79451467D01*
X80859188Y-79625266D01*
X80801975Y-79813870D01*
X80782659Y-80010000D01*
X80801975Y-80206129D01*
X80816519Y-80254075D01*
X80855587Y-80382864D01*
X80859188Y-80394733D01*
X80952086Y-80568532D01*
X80952090Y-80568539D01*
X81077116Y-80720883D01*
X81229460Y-80845909D01*
X81229467Y-80845913D01*
X81403266Y-80938811D01*
X81403269Y-80938811D01*
X81403273Y-80938814D01*
X81591868Y-80996024D01*
X81788000Y-81015341D01*
X81984132Y-80996024D01*
X82172727Y-80938814D01*
X82346538Y-80845910D01*
X82498883Y-80720883D01*
X82623910Y-80568538D01*
X82716814Y-80394727D01*
X82774024Y-80206132D01*
X82793341Y-80010000D01*
X82774024Y-79813868D01*
X82716814Y-79625273D01*
X82716811Y-79625269D01*
X82716811Y-79625266D01*
X82623913Y-79451467D01*
X82623909Y-79451460D01*
X82498883Y-79299116D01*
X82346539Y-79174090D01*
X82346531Y-79174085D01*
X82332921Y-79166810D01*
X82283079Y-79117846D01*
X82267620Y-79049708D01*
X82291454Y-78984029D01*
X82303691Y-78969779D01*
X82348960Y-78924511D01*
X83135960Y-78137511D01*
X83144423Y-78122852D01*
X83160214Y-78095502D01*
X83164632Y-78087848D01*
X83175521Y-78068989D01*
X83196000Y-77992562D01*
X83196000Y-74930000D01*
X88402659Y-74930000D01*
X88421975Y-75126129D01*
X88421976Y-75126132D01*
X88475587Y-75302864D01*
X88479188Y-75314733D01*
X88572086Y-75488532D01*
X88572090Y-75488539D01*
X88697116Y-75640883D01*
X88849460Y-75765909D01*
X88849467Y-75765913D01*
X89023266Y-75858811D01*
X89023269Y-75858811D01*
X89023273Y-75858814D01*
X89211868Y-75916024D01*
X89408000Y-75935341D01*
X89604132Y-75916024D01*
X89792727Y-75858814D01*
X89813283Y-75847827D01*
X89890678Y-75806458D01*
X89966538Y-75765910D01*
X90118883Y-75640883D01*
X90243910Y-75488538D01*
X90320190Y-75345829D01*
X90336811Y-75314733D01*
X90336811Y-75314732D01*
X90336814Y-75314727D01*
X90394024Y-75126132D01*
X90413341Y-74930000D01*
X90394024Y-74733868D01*
X90336814Y-74545273D01*
X90336811Y-74545269D01*
X90336811Y-74545266D01*
X90243913Y-74371467D01*
X90243909Y-74371460D01*
X90118883Y-74219116D01*
X89966539Y-74094090D01*
X89966532Y-74094086D01*
X89792733Y-74001188D01*
X89792727Y-74001186D01*
X89604132Y-73943976D01*
X89604129Y-73943975D01*
X89408000Y-73924659D01*
X89211870Y-73943975D01*
X89023266Y-74001188D01*
X88849467Y-74094086D01*
X88849460Y-74094090D01*
X88697116Y-74219116D01*
X88572090Y-74371460D01*
X88572086Y-74371467D01*
X88479188Y-74545266D01*
X88421975Y-74733870D01*
X88402659Y-74930000D01*
X83196000Y-74930000D01*
X83196000Y-72390000D01*
X88402659Y-72390000D01*
X88421975Y-72586129D01*
X88421976Y-72586132D01*
X88475587Y-72762864D01*
X88479188Y-72774733D01*
X88572086Y-72948532D01*
X88572090Y-72948539D01*
X88697116Y-73100883D01*
X88849460Y-73225909D01*
X88849467Y-73225913D01*
X89023266Y-73318811D01*
X89023269Y-73318811D01*
X89023273Y-73318814D01*
X89211868Y-73376024D01*
X89408000Y-73395341D01*
X89604132Y-73376024D01*
X89792727Y-73318814D01*
X89966538Y-73225910D01*
X90118883Y-73100883D01*
X90243910Y-72948538D01*
X90320190Y-72805829D01*
X90336811Y-72774733D01*
X90336811Y-72774732D01*
X90336814Y-72774727D01*
X90394024Y-72586132D01*
X90413341Y-72390000D01*
X90394024Y-72193868D01*
X90336814Y-72005273D01*
X90336811Y-72005269D01*
X90336811Y-72005266D01*
X90243913Y-71831467D01*
X90243909Y-71831460D01*
X90118883Y-71679116D01*
X89966539Y-71554090D01*
X89966532Y-71554086D01*
X89792733Y-71461188D01*
X89792727Y-71461186D01*
X89604132Y-71403976D01*
X89604129Y-71403975D01*
X89408000Y-71384659D01*
X89211870Y-71403975D01*
X89023266Y-71461188D01*
X88849467Y-71554086D01*
X88849460Y-71554090D01*
X88697116Y-71679116D01*
X88572090Y-71831460D01*
X88572086Y-71831467D01*
X88479188Y-72005266D01*
X88421975Y-72193870D01*
X88402659Y-72390000D01*
X83196000Y-72390000D01*
X83196000Y-71790138D01*
X83175521Y-71713711D01*
X83169812Y-71703823D01*
X83135964Y-71645195D01*
X83135958Y-71645187D01*
X82349986Y-70859215D01*
X82316501Y-70797892D01*
X82321485Y-70728200D01*
X82359002Y-70675681D01*
X82498883Y-70560883D01*
X82623909Y-70408539D01*
X82623913Y-70408532D01*
X82716811Y-70234733D01*
X82716811Y-70234732D01*
X82716814Y-70234727D01*
X82774024Y-70046132D01*
X82793341Y-69850000D01*
X88402659Y-69850000D01*
X88421975Y-70046129D01*
X88479188Y-70234733D01*
X88572086Y-70408532D01*
X88572090Y-70408539D01*
X88697116Y-70560883D01*
X88849460Y-70685909D01*
X88849467Y-70685913D01*
X89023266Y-70778811D01*
X89023269Y-70778811D01*
X89023273Y-70778814D01*
X89211868Y-70836024D01*
X89408000Y-70855341D01*
X89604132Y-70836024D01*
X89792727Y-70778814D01*
X89831825Y-70757916D01*
X89966532Y-70685913D01*
X89966538Y-70685910D01*
X90118883Y-70560883D01*
X90243910Y-70408538D01*
X90336814Y-70234727D01*
X90394024Y-70046132D01*
X90413341Y-69850000D01*
X90394024Y-69653868D01*
X90336814Y-69465273D01*
X90336811Y-69465269D01*
X90336811Y-69465266D01*
X90243913Y-69291467D01*
X90243909Y-69291460D01*
X90118883Y-69139116D01*
X89966539Y-69014090D01*
X89966532Y-69014086D01*
X89792733Y-68921188D01*
X89792727Y-68921186D01*
X89666997Y-68883046D01*
X89604129Y-68863975D01*
X89408000Y-68844659D01*
X89211870Y-68863975D01*
X89023266Y-68921188D01*
X88849467Y-69014086D01*
X88849460Y-69014090D01*
X88697116Y-69139116D01*
X88572090Y-69291460D01*
X88572086Y-69291467D01*
X88479188Y-69465266D01*
X88421975Y-69653870D01*
X88402659Y-69850000D01*
X82793341Y-69850000D01*
X82774024Y-69653868D01*
X82716814Y-69465273D01*
X82716811Y-69465269D01*
X82716811Y-69465266D01*
X82623913Y-69291467D01*
X82623909Y-69291460D01*
X82498883Y-69139116D01*
X82346539Y-69014090D01*
X82346532Y-69014086D01*
X82172733Y-68921188D01*
X82172727Y-68921186D01*
X82046997Y-68883046D01*
X81984129Y-68863975D01*
X81788000Y-68844659D01*
X81591870Y-68863975D01*
X81403266Y-68921188D01*
X81229467Y-69014086D01*
X81229460Y-69014090D01*
X81077116Y-69139116D01*
X80952090Y-69291460D01*
X80952086Y-69291467D01*
X80859188Y-69465266D01*
X80801975Y-69653870D01*
X80782659Y-69850000D01*
X80801975Y-70046129D01*
X80859188Y-70234733D01*
X80952086Y-70408532D01*
X80952090Y-70408539D01*
X81077116Y-70560883D01*
X81229460Y-70685909D01*
X81229467Y-70685913D01*
X81403273Y-70778814D01*
X81408897Y-70781144D01*
X81408020Y-70783260D01*
X81457917Y-70815945D01*
X81486387Y-70879751D01*
X81487500Y-70896328D01*
X81487500Y-70989662D01*
X81501152Y-71040613D01*
X81507979Y-71066090D01*
X81507982Y-71066095D01*
X81547535Y-71134604D01*
X81547541Y-71134612D01*
X81603488Y-71190559D01*
X81608007Y-71194027D01*
X81649208Y-71250456D01*
X81653360Y-71320202D01*
X81619146Y-71381121D01*
X81568513Y-71411060D01*
X81403271Y-71461186D01*
X81229467Y-71554086D01*
X81229460Y-71554090D01*
X81077116Y-71679116D01*
X80952090Y-71831460D01*
X80952086Y-71831467D01*
X80859188Y-72005266D01*
X80801975Y-72193870D01*
X80782659Y-72390000D01*
X80801975Y-72586129D01*
X80801976Y-72586132D01*
X80855587Y-72762864D01*
X80859188Y-72774733D01*
X80952086Y-72948532D01*
X80952090Y-72948539D01*
X81077116Y-73100883D01*
X81216942Y-73215635D01*
X81256276Y-73273380D01*
X81258147Y-73343225D01*
X81225958Y-73399169D01*
X80163689Y-74461440D01*
X80107741Y-74517387D01*
X80107735Y-74517395D01*
X80068182Y-74585904D01*
X80068179Y-74585909D01*
X80054740Y-74636064D01*
X80052072Y-74646024D01*
X80047700Y-74662339D01*
X80047700Y-75713567D01*
X80028015Y-75780606D01*
X80011381Y-75801248D01*
X77415781Y-78396848D01*
X77354458Y-78430333D01*
X77284766Y-78425349D01*
X77228833Y-78383477D01*
X77204416Y-78318013D01*
X77204100Y-78309167D01*
X77204100Y-67059999D01*
X80509127Y-67059999D01*
X80509128Y-67060000D01*
X81472314Y-67060000D01*
X81467920Y-67064394D01*
X81415259Y-67155606D01*
X81388000Y-67257339D01*
X81388000Y-67362661D01*
X81415259Y-67464394D01*
X81467920Y-67555606D01*
X81472314Y-67560000D01*
X80509128Y-67560000D01*
X80561730Y-67756317D01*
X80561734Y-67756326D01*
X80657865Y-67962482D01*
X80788342Y-68148820D01*
X80949179Y-68309657D01*
X81135517Y-68440134D01*
X81341673Y-68536265D01*
X81341682Y-68536269D01*
X81537999Y-68588872D01*
X81538000Y-68588871D01*
X81538000Y-67625686D01*
X81542394Y-67630080D01*
X81633606Y-67682741D01*
X81735339Y-67710000D01*
X81840661Y-67710000D01*
X81942394Y-67682741D01*
X82033606Y-67630080D01*
X82038000Y-67625686D01*
X82038000Y-68588872D01*
X82234317Y-68536269D01*
X82234326Y-68536265D01*
X82440482Y-68440134D01*
X82626820Y-68309657D01*
X82787657Y-68148820D01*
X82918134Y-67962482D01*
X83014265Y-67756326D01*
X83014269Y-67756317D01*
X83066872Y-67560000D01*
X82103686Y-67560000D01*
X82108080Y-67555606D01*
X82160741Y-67464394D01*
X82188000Y-67362661D01*
X82188000Y-67257339D01*
X82160741Y-67155606D01*
X82108080Y-67064394D01*
X82103686Y-67060000D01*
X83066872Y-67060000D01*
X83066872Y-67059999D01*
X83014269Y-66863682D01*
X83014265Y-66863673D01*
X82918134Y-66657517D01*
X82801009Y-66490247D01*
X88407500Y-66490247D01*
X88407500Y-68129752D01*
X88419131Y-68188229D01*
X88419132Y-68188230D01*
X88463447Y-68254552D01*
X88529769Y-68298867D01*
X88529770Y-68298868D01*
X88588247Y-68310499D01*
X88588250Y-68310500D01*
X88588252Y-68310500D01*
X90227750Y-68310500D01*
X90227751Y-68310499D01*
X90242568Y-68307552D01*
X90286229Y-68298868D01*
X90286229Y-68298867D01*
X90286231Y-68298867D01*
X90352552Y-68254552D01*
X90396867Y-68188231D01*
X90396867Y-68188229D01*
X90396868Y-68188229D01*
X90408499Y-68129752D01*
X90408500Y-68129750D01*
X90408500Y-66490249D01*
X90408499Y-66490247D01*
X90396868Y-66431770D01*
X90396867Y-66431769D01*
X90352552Y-66365447D01*
X90286230Y-66321132D01*
X90286229Y-66321131D01*
X90227752Y-66309500D01*
X90227748Y-66309500D01*
X88588252Y-66309500D01*
X88588247Y-66309500D01*
X88529770Y-66321131D01*
X88529769Y-66321132D01*
X88463447Y-66365447D01*
X88419132Y-66431769D01*
X88419131Y-66431770D01*
X88407500Y-66490247D01*
X82801009Y-66490247D01*
X82787657Y-66471179D01*
X82626820Y-66310342D01*
X82440482Y-66179865D01*
X82234328Y-66083734D01*
X82038000Y-66031127D01*
X82038000Y-66994314D01*
X82033606Y-66989920D01*
X81942394Y-66937259D01*
X81840661Y-66910000D01*
X81735339Y-66910000D01*
X81633606Y-66937259D01*
X81542394Y-66989920D01*
X81538000Y-66994314D01*
X81538000Y-66031127D01*
X81341671Y-66083734D01*
X81135517Y-66179865D01*
X80949179Y-66310342D01*
X80788342Y-66471179D01*
X80657865Y-66657517D01*
X80561734Y-66863673D01*
X80561730Y-66863682D01*
X80509127Y-67059999D01*
X77204100Y-67059999D01*
X77204100Y-65536379D01*
X77223785Y-65469340D01*
X77276589Y-65423585D01*
X77345747Y-65413641D01*
X77369885Y-65420729D01*
X77369937Y-65420555D01*
X77516536Y-65463599D01*
X77516538Y-65463600D01*
X77516539Y-65463600D01*
X77660462Y-65463600D01*
X77660462Y-65463599D01*
X77767621Y-65432135D01*
X77798550Y-65423054D01*
X77798550Y-65423053D01*
X77798553Y-65423053D01*
X77919628Y-65345243D01*
X78013877Y-65236473D01*
X78073665Y-65105557D01*
X78094147Y-64963100D01*
X78092839Y-64954005D01*
X78102779Y-64884849D01*
X78127892Y-64848677D01*
X79186460Y-63790111D01*
X79191165Y-63781962D01*
X79226021Y-63721589D01*
X79246500Y-63645162D01*
X79246500Y-62493997D01*
X81803034Y-62493997D01*
X81803034Y-62494002D01*
X81822858Y-62720599D01*
X81822860Y-62720610D01*
X81881730Y-62940317D01*
X81881735Y-62940331D01*
X81977863Y-63146478D01*
X82028974Y-63219472D01*
X82708000Y-62540446D01*
X82708000Y-62546661D01*
X82735259Y-62648394D01*
X82787920Y-62739606D01*
X82862394Y-62814080D01*
X82953606Y-62866741D01*
X83055339Y-62894000D01*
X83061553Y-62894000D01*
X82382526Y-63573025D01*
X82455513Y-63624132D01*
X82455521Y-63624136D01*
X82661668Y-63720264D01*
X82661682Y-63720269D01*
X82881389Y-63779139D01*
X82881400Y-63779141D01*
X83107998Y-63798966D01*
X83108002Y-63798966D01*
X83334599Y-63779141D01*
X83334610Y-63779139D01*
X83554317Y-63720269D01*
X83554331Y-63720264D01*
X83760478Y-63624136D01*
X83833471Y-63573024D01*
X83154447Y-62894000D01*
X83160661Y-62894000D01*
X83262394Y-62866741D01*
X83353606Y-62814080D01*
X83428080Y-62739606D01*
X83480741Y-62648394D01*
X83508000Y-62546661D01*
X83508000Y-62540447D01*
X84187024Y-63219471D01*
X84238136Y-63146478D01*
X84334264Y-62940331D01*
X84334269Y-62940317D01*
X84393139Y-62720610D01*
X84393141Y-62720599D01*
X84412966Y-62494002D01*
X84412966Y-62494000D01*
X87102659Y-62494000D01*
X87121975Y-62690129D01*
X87121976Y-62690132D01*
X87169729Y-62847553D01*
X87179188Y-62878733D01*
X87272086Y-63052532D01*
X87272090Y-63052539D01*
X87397116Y-63204883D01*
X87549460Y-63329909D01*
X87549467Y-63329913D01*
X87723266Y-63422811D01*
X87723269Y-63422811D01*
X87723273Y-63422814D01*
X87911868Y-63480024D01*
X88108000Y-63499341D01*
X88304132Y-63480024D01*
X88492727Y-63422814D01*
X88666538Y-63329910D01*
X88818883Y-63204883D01*
X88943910Y-63052538D01*
X89012954Y-62923366D01*
X89036811Y-62878733D01*
X89036811Y-62878732D01*
X89036814Y-62878727D01*
X89094024Y-62690132D01*
X89113341Y-62494000D01*
X89094024Y-62297868D01*
X89036814Y-62109273D01*
X89036811Y-62109269D01*
X89036811Y-62109266D01*
X88943913Y-61935466D01*
X88943909Y-61935460D01*
X88818883Y-61783116D01*
X88666539Y-61658090D01*
X88666532Y-61658086D01*
X88492733Y-61565188D01*
X88492727Y-61565186D01*
X88366997Y-61527046D01*
X88304129Y-61507975D01*
X88108000Y-61488659D01*
X87911870Y-61507975D01*
X87723266Y-61565188D01*
X87549467Y-61658086D01*
X87549460Y-61658090D01*
X87397116Y-61783116D01*
X87272090Y-61935460D01*
X87272087Y-61935466D01*
X87179188Y-62109266D01*
X87121975Y-62297870D01*
X87102659Y-62494000D01*
X84412966Y-62494000D01*
X84412966Y-62493997D01*
X84393141Y-62267400D01*
X84393139Y-62267389D01*
X84334269Y-62047682D01*
X84334264Y-62047668D01*
X84238136Y-61841521D01*
X84238132Y-61841513D01*
X84187025Y-61768526D01*
X83508000Y-62447551D01*
X83508000Y-62441339D01*
X83480741Y-62339606D01*
X83428080Y-62248394D01*
X83353606Y-62173920D01*
X83262394Y-62121259D01*
X83160661Y-62094000D01*
X83154448Y-62094000D01*
X83833472Y-61414974D01*
X83760478Y-61363863D01*
X83554331Y-61267735D01*
X83554317Y-61267730D01*
X83334610Y-61208860D01*
X83334599Y-61208858D01*
X83108002Y-61189034D01*
X83107998Y-61189034D01*
X82881400Y-61208858D01*
X82881389Y-61208860D01*
X82661682Y-61267730D01*
X82661673Y-61267734D01*
X82455516Y-61363866D01*
X82455512Y-61363868D01*
X82382526Y-61414973D01*
X82382526Y-61414974D01*
X83061553Y-62094000D01*
X83055339Y-62094000D01*
X82953606Y-62121259D01*
X82862394Y-62173920D01*
X82787920Y-62248394D01*
X82735259Y-62339606D01*
X82708000Y-62441339D01*
X82708000Y-62447552D01*
X82028974Y-61768526D01*
X82028973Y-61768526D01*
X81977868Y-61841512D01*
X81977866Y-61841516D01*
X81881734Y-62047673D01*
X81881730Y-62047682D01*
X81822860Y-62267389D01*
X81822858Y-62267400D01*
X81803034Y-62493997D01*
X79246500Y-62493997D01*
X79246500Y-49831838D01*
X79266185Y-49764799D01*
X79276787Y-49750635D01*
X79277124Y-49750244D01*
X79277128Y-49750243D01*
X79371377Y-49641473D01*
X79431165Y-49510557D01*
X79451647Y-49368100D01*
X79431165Y-49225643D01*
X79371377Y-49094727D01*
X79371375Y-49094725D01*
X79371374Y-49094722D01*
X79276787Y-48985562D01*
X79247762Y-48922006D01*
X79246500Y-48904360D01*
X79246500Y-36137247D01*
X99202500Y-36137247D01*
X99202500Y-37776752D01*
X99214131Y-37835229D01*
X99214132Y-37835230D01*
X99258447Y-37901552D01*
X99324769Y-37945867D01*
X99324770Y-37945868D01*
X99383247Y-37957499D01*
X99383250Y-37957500D01*
X99383252Y-37957500D01*
X101022750Y-37957500D01*
X101022751Y-37957499D01*
X101037568Y-37954552D01*
X101081229Y-37945868D01*
X101081229Y-37945867D01*
X101081231Y-37945867D01*
X101147552Y-37901552D01*
X101191867Y-37835231D01*
X101191867Y-37835229D01*
X101191868Y-37835229D01*
X101203499Y-37776752D01*
X101203500Y-37776750D01*
X101203500Y-36957000D01*
X101737659Y-36957000D01*
X101756975Y-37153129D01*
X101814188Y-37341733D01*
X101907086Y-37515532D01*
X101907090Y-37515539D01*
X102032116Y-37667883D01*
X102184460Y-37792909D01*
X102184467Y-37792913D01*
X102358266Y-37885811D01*
X102358269Y-37885811D01*
X102358273Y-37885814D01*
X102546868Y-37943024D01*
X102743000Y-37962341D01*
X102939132Y-37943024D01*
X103127727Y-37885814D01*
X103301538Y-37792910D01*
X103453883Y-37667883D01*
X103578910Y-37515538D01*
X103671814Y-37341727D01*
X103729024Y-37153132D01*
X103748341Y-36957000D01*
X103729024Y-36760868D01*
X103671814Y-36572273D01*
X103671811Y-36572269D01*
X103671811Y-36572266D01*
X103578913Y-36398467D01*
X103578909Y-36398460D01*
X103453883Y-36246116D01*
X103301539Y-36121090D01*
X103301532Y-36121086D01*
X103127733Y-36028188D01*
X103127727Y-36028186D01*
X102939132Y-35970976D01*
X102939129Y-35970975D01*
X102743000Y-35951659D01*
X102546870Y-35970975D01*
X102358266Y-36028188D01*
X102184467Y-36121086D01*
X102184460Y-36121090D01*
X102032116Y-36246116D01*
X101907090Y-36398460D01*
X101907086Y-36398467D01*
X101814188Y-36572266D01*
X101756975Y-36760870D01*
X101737659Y-36957000D01*
X101203500Y-36957000D01*
X101203500Y-36137249D01*
X101203499Y-36137247D01*
X101191868Y-36078770D01*
X101191867Y-36078769D01*
X101147552Y-36012447D01*
X101081230Y-35968132D01*
X101081229Y-35968131D01*
X101022752Y-35956500D01*
X101022748Y-35956500D01*
X99383252Y-35956500D01*
X99383247Y-35956500D01*
X99324770Y-35968131D01*
X99324769Y-35968132D01*
X99258447Y-36012447D01*
X99214132Y-36078769D01*
X99214131Y-36078770D01*
X99202500Y-36137247D01*
X79246500Y-36137247D01*
X79246500Y-35128328D01*
X79266185Y-35061289D01*
X79318989Y-35015534D01*
X79325131Y-35013212D01*
X79325103Y-35013144D01*
X79330723Y-35010815D01*
X79330727Y-35010814D01*
X79504538Y-34917910D01*
X79656883Y-34792883D01*
X79781910Y-34640538D01*
X79841893Y-34528317D01*
X79874811Y-34466733D01*
X79874811Y-34466732D01*
X79874814Y-34466727D01*
X79932024Y-34278132D01*
X79951341Y-34082000D01*
X80710659Y-34082000D01*
X80729975Y-34278129D01*
X80729976Y-34278132D01*
X80777729Y-34435553D01*
X80787188Y-34466733D01*
X80880086Y-34640532D01*
X80880090Y-34640539D01*
X81005116Y-34792883D01*
X81157460Y-34917909D01*
X81157467Y-34917913D01*
X81331266Y-35010811D01*
X81331269Y-35010811D01*
X81331273Y-35010814D01*
X81519868Y-35068024D01*
X81716000Y-35087341D01*
X81912132Y-35068024D01*
X82100727Y-35010814D01*
X82274538Y-34917910D01*
X82426883Y-34792883D01*
X82551910Y-34640538D01*
X82611893Y-34528317D01*
X82644811Y-34466733D01*
X82644811Y-34466732D01*
X82644814Y-34466727D01*
X82702024Y-34278132D01*
X82721341Y-34082000D01*
X82721341Y-34081997D01*
X83181034Y-34081997D01*
X83181034Y-34082000D01*
X83200858Y-34308599D01*
X83200860Y-34308610D01*
X83259730Y-34528317D01*
X83259735Y-34528331D01*
X83355863Y-34734478D01*
X83406974Y-34807472D01*
X84003037Y-34211409D01*
X84020075Y-34274993D01*
X84085901Y-34389007D01*
X84178993Y-34482099D01*
X84293007Y-34547925D01*
X84356590Y-34564962D01*
X83760526Y-35161025D01*
X83833513Y-35212132D01*
X83833521Y-35212136D01*
X84039668Y-35308264D01*
X84039682Y-35308269D01*
X84259389Y-35367139D01*
X84259400Y-35367141D01*
X84485998Y-35386966D01*
X84486002Y-35386966D01*
X84712599Y-35367141D01*
X84712610Y-35367139D01*
X84932317Y-35308269D01*
X84932331Y-35308264D01*
X85138478Y-35212136D01*
X85211471Y-35161024D01*
X84615409Y-34564962D01*
X84678993Y-34547925D01*
X84793007Y-34482099D01*
X84886099Y-34389007D01*
X84951925Y-34274993D01*
X84968962Y-34211409D01*
X85565024Y-34807471D01*
X85616136Y-34734478D01*
X85712264Y-34528331D01*
X85712269Y-34528317D01*
X85771139Y-34308610D01*
X85771141Y-34308599D01*
X85790966Y-34082000D01*
X85790966Y-34081997D01*
X85771141Y-33855400D01*
X85771139Y-33855389D01*
X85751475Y-33782000D01*
X89240778Y-33782000D01*
X89259644Y-34069837D01*
X89259646Y-34069849D01*
X89315917Y-34352745D01*
X89315921Y-34352760D01*
X89408642Y-34625905D01*
X89536219Y-34884606D01*
X89536223Y-34884613D01*
X89696478Y-35124452D01*
X89886672Y-35341327D01*
X90103546Y-35531520D01*
X90343389Y-35691778D01*
X90602098Y-35819359D01*
X90875247Y-35912081D01*
X91158161Y-35968356D01*
X91446000Y-35987222D01*
X91733839Y-35968356D01*
X92016753Y-35912081D01*
X92289902Y-35819359D01*
X92548611Y-35691778D01*
X92788454Y-35531520D01*
X93005327Y-35341327D01*
X93195520Y-35124454D01*
X93355778Y-34884611D01*
X93483359Y-34625902D01*
X93576081Y-34352753D01*
X93632356Y-34069839D01*
X93651222Y-33782000D01*
X93632356Y-33494161D01*
X93576081Y-33211247D01*
X93483359Y-32938098D01*
X93355778Y-32679389D01*
X93195520Y-32439546D01*
X93005327Y-32222672D01*
X92788452Y-32032478D01*
X92548613Y-31872223D01*
X92548606Y-31872219D01*
X92289905Y-31744642D01*
X92016760Y-31651921D01*
X92016754Y-31651919D01*
X92016753Y-31651919D01*
X92016751Y-31651918D01*
X92016745Y-31651917D01*
X91733849Y-31595646D01*
X91733839Y-31595644D01*
X91446000Y-31576778D01*
X91158161Y-31595644D01*
X91158155Y-31595645D01*
X91158150Y-31595646D01*
X90875254Y-31651917D01*
X90875239Y-31651921D01*
X90602094Y-31744642D01*
X90343393Y-31872219D01*
X90343386Y-31872223D01*
X90103547Y-32032478D01*
X89886672Y-32222672D01*
X89696478Y-32439547D01*
X89536223Y-32679386D01*
X89536219Y-32679393D01*
X89408642Y-32938094D01*
X89315921Y-33211239D01*
X89315917Y-33211254D01*
X89259646Y-33494150D01*
X89259644Y-33494161D01*
X89257723Y-33523467D01*
X89240778Y-33782000D01*
X85751475Y-33782000D01*
X85712269Y-33635682D01*
X85712264Y-33635668D01*
X85616136Y-33429521D01*
X85616132Y-33429513D01*
X85565025Y-33356526D01*
X84968962Y-33952589D01*
X84951925Y-33889007D01*
X84886099Y-33774993D01*
X84793007Y-33681901D01*
X84678993Y-33616075D01*
X84615410Y-33599037D01*
X85211472Y-33002974D01*
X85138478Y-32951863D01*
X84932331Y-32855735D01*
X84932317Y-32855730D01*
X84712610Y-32796860D01*
X84712599Y-32796858D01*
X84486002Y-32777034D01*
X84485998Y-32777034D01*
X84259400Y-32796858D01*
X84259389Y-32796860D01*
X84039682Y-32855730D01*
X84039673Y-32855734D01*
X83833516Y-32951866D01*
X83833512Y-32951868D01*
X83760526Y-33002973D01*
X83760526Y-33002974D01*
X84356590Y-33599037D01*
X84293007Y-33616075D01*
X84178993Y-33681901D01*
X84085901Y-33774993D01*
X84020075Y-33889007D01*
X84003037Y-33952589D01*
X83406974Y-33356526D01*
X83406973Y-33356526D01*
X83355868Y-33429512D01*
X83355866Y-33429516D01*
X83259734Y-33635673D01*
X83259730Y-33635682D01*
X83200860Y-33855389D01*
X83200858Y-33855400D01*
X83181034Y-34081997D01*
X82721341Y-34081997D01*
X82702024Y-33885868D01*
X82644814Y-33697273D01*
X82644811Y-33697269D01*
X82644811Y-33697266D01*
X82551913Y-33523467D01*
X82551909Y-33523460D01*
X82426883Y-33371116D01*
X82274539Y-33246090D01*
X82274532Y-33246086D01*
X82100733Y-33153188D01*
X82100727Y-33153186D01*
X81974997Y-33115046D01*
X81912129Y-33095975D01*
X81716000Y-33076659D01*
X81519870Y-33095975D01*
X81331266Y-33153188D01*
X81157467Y-33246086D01*
X81157460Y-33246090D01*
X81005116Y-33371116D01*
X80880090Y-33523460D01*
X80880086Y-33523467D01*
X80787188Y-33697266D01*
X80729975Y-33885870D01*
X80710659Y-34082000D01*
X79951341Y-34082000D01*
X79932024Y-33885868D01*
X79874814Y-33697273D01*
X79874811Y-33697269D01*
X79874811Y-33697266D01*
X79781913Y-33523467D01*
X79781909Y-33523460D01*
X79656883Y-33371116D01*
X79504539Y-33246090D01*
X79504532Y-33246086D01*
X79330733Y-33153188D01*
X79330727Y-33153186D01*
X79204997Y-33115046D01*
X79142129Y-33095975D01*
X78946000Y-33076659D01*
X78749870Y-33095975D01*
X78561266Y-33153188D01*
X78387467Y-33246086D01*
X78387460Y-33246090D01*
X78235116Y-33371116D01*
X78110090Y-33523460D01*
X78110086Y-33523467D01*
X78017188Y-33697266D01*
X77959975Y-33885870D01*
X77940659Y-34082000D01*
X77959975Y-34278129D01*
X77959976Y-34278132D01*
X78007729Y-34435553D01*
X78017188Y-34466733D01*
X78110086Y-34640532D01*
X78110090Y-34640539D01*
X78235116Y-34792883D01*
X78387460Y-34917909D01*
X78387467Y-34917913D01*
X78561273Y-35010814D01*
X78566897Y-35013144D01*
X78566020Y-35015260D01*
X78615917Y-35047945D01*
X78644387Y-35111751D01*
X78645500Y-35128328D01*
X78645500Y-48904360D01*
X78625815Y-48971399D01*
X78615213Y-48985562D01*
X78520625Y-49094722D01*
X78520622Y-49094728D01*
X78460834Y-49225643D01*
X78440353Y-49368100D01*
X78460834Y-49510556D01*
X78520622Y-49641471D01*
X78520623Y-49641473D01*
X78614872Y-49750243D01*
X78614875Y-49750244D01*
X78615213Y-49750635D01*
X78644238Y-49814191D01*
X78645500Y-49831838D01*
X78645500Y-63429766D01*
X78625815Y-63496805D01*
X78609181Y-63517447D01*
X77700347Y-64426281D01*
X77639024Y-64459766D01*
X77612666Y-64462600D01*
X77516536Y-64462600D01*
X77369937Y-64505645D01*
X77369475Y-64504072D01*
X77310446Y-64512557D01*
X77246892Y-64483528D01*
X77209121Y-64424748D01*
X77204100Y-64389820D01*
X77204100Y-61576640D01*
X77204099Y-61576636D01*
X77193710Y-61537860D01*
X77193710Y-61537859D01*
X77185702Y-61507975D01*
X77183622Y-61500212D01*
X77144060Y-61431689D01*
X75127819Y-59415448D01*
X75094334Y-59354125D01*
X75091500Y-59327767D01*
X75091500Y-34670495D01*
X75111185Y-34603456D01*
X75163989Y-34557701D01*
X75233147Y-34547757D01*
X75296703Y-34576782D01*
X75324859Y-34612043D01*
X75340088Y-34640536D01*
X75340090Y-34640539D01*
X75465116Y-34792883D01*
X75617460Y-34917909D01*
X75617467Y-34917913D01*
X75791266Y-35010811D01*
X75791269Y-35010811D01*
X75791273Y-35010814D01*
X75979868Y-35068024D01*
X76176000Y-35087341D01*
X76372132Y-35068024D01*
X76560727Y-35010814D01*
X76734538Y-34917910D01*
X76886883Y-34792883D01*
X77011910Y-34640538D01*
X77071893Y-34528317D01*
X77104811Y-34466733D01*
X77104811Y-34466732D01*
X77104814Y-34466727D01*
X77162024Y-34278132D01*
X77181341Y-34082000D01*
X77162024Y-33885868D01*
X77104814Y-33697273D01*
X77104811Y-33697269D01*
X77104811Y-33697266D01*
X77011913Y-33523467D01*
X77011909Y-33523460D01*
X76886883Y-33371116D01*
X76734539Y-33246090D01*
X76734532Y-33246086D01*
X76560733Y-33153188D01*
X76560727Y-33153186D01*
X76434997Y-33115046D01*
X76372129Y-33095975D01*
X76176000Y-33076659D01*
X75979870Y-33095975D01*
X75791266Y-33153188D01*
X75617467Y-33246086D01*
X75617460Y-33246090D01*
X75465116Y-33371116D01*
X75340090Y-33523460D01*
X75340088Y-33523463D01*
X75324858Y-33551958D01*
X75275895Y-33601802D01*
X75207758Y-33617262D01*
X75142078Y-33593430D01*
X75099709Y-33537872D01*
X75091500Y-33493504D01*
X75091500Y-32288328D01*
X75111185Y-32221289D01*
X75163989Y-32175534D01*
X75170131Y-32173212D01*
X75170103Y-32173144D01*
X75175723Y-32170815D01*
X75175727Y-32170814D01*
X75349538Y-32077910D01*
X75501883Y-31952883D01*
X75626910Y-31800538D01*
X75719814Y-31626727D01*
X75777024Y-31438132D01*
X75796341Y-31242000D01*
X76555659Y-31242000D01*
X76574975Y-31438129D01*
X76574976Y-31438132D01*
X76630488Y-31621131D01*
X76632188Y-31626733D01*
X76725086Y-31800532D01*
X76725090Y-31800539D01*
X76850116Y-31952883D01*
X77002460Y-32077909D01*
X77002467Y-32077913D01*
X77176266Y-32170811D01*
X77176269Y-32170811D01*
X77176273Y-32170814D01*
X77364868Y-32228024D01*
X77561000Y-32247341D01*
X77757132Y-32228024D01*
X77945727Y-32170814D01*
X78119538Y-32077910D01*
X78271883Y-31952883D01*
X78396910Y-31800538D01*
X78489814Y-31626727D01*
X78547024Y-31438132D01*
X78566341Y-31242000D01*
X79325659Y-31242000D01*
X79344975Y-31438129D01*
X79344976Y-31438132D01*
X79400488Y-31621131D01*
X79402188Y-31626733D01*
X79495086Y-31800532D01*
X79495090Y-31800539D01*
X79620116Y-31952883D01*
X79772460Y-32077909D01*
X79772467Y-32077913D01*
X79946266Y-32170811D01*
X79946269Y-32170811D01*
X79946273Y-32170814D01*
X80134868Y-32228024D01*
X80331000Y-32247341D01*
X80527132Y-32228024D01*
X80715727Y-32170814D01*
X80889538Y-32077910D01*
X81041883Y-31952883D01*
X81166910Y-31800538D01*
X81259814Y-31626727D01*
X81259815Y-31626723D01*
X81262144Y-31621103D01*
X81264260Y-31621979D01*
X81296945Y-31572083D01*
X81360751Y-31543613D01*
X81377328Y-31542500D01*
X82054672Y-31542500D01*
X82121711Y-31562185D01*
X82167466Y-31614989D01*
X82169787Y-31621131D01*
X82169856Y-31621103D01*
X82172185Y-31626726D01*
X82265086Y-31800532D01*
X82265090Y-31800539D01*
X82390116Y-31952883D01*
X82542460Y-32077909D01*
X82542467Y-32077913D01*
X82716266Y-32170811D01*
X82716269Y-32170811D01*
X82716273Y-32170814D01*
X82904868Y-32228024D01*
X83101000Y-32247341D01*
X83297132Y-32228024D01*
X83485727Y-32170814D01*
X83659538Y-32077910D01*
X83811883Y-31952883D01*
X83936910Y-31800538D01*
X84029814Y-31626727D01*
X84087024Y-31438132D01*
X84106341Y-31242000D01*
X84087024Y-31045868D01*
X84029814Y-30857273D01*
X84029811Y-30857269D01*
X84029811Y-30857266D01*
X83936913Y-30683467D01*
X83936909Y-30683460D01*
X83811883Y-30531116D01*
X83659539Y-30406090D01*
X83659532Y-30406086D01*
X83485733Y-30313188D01*
X83485727Y-30313186D01*
X83297132Y-30255976D01*
X83297129Y-30255975D01*
X83101000Y-30236659D01*
X82904870Y-30255975D01*
X82716266Y-30313188D01*
X82542467Y-30406086D01*
X82542460Y-30406090D01*
X82390116Y-30531116D01*
X82265090Y-30683460D01*
X82265086Y-30683467D01*
X82172185Y-30857273D01*
X82169856Y-30862897D01*
X82167739Y-30862020D01*
X82135055Y-30911917D01*
X82071249Y-30940387D01*
X82054672Y-30941500D01*
X81377328Y-30941500D01*
X81310289Y-30921815D01*
X81264534Y-30869011D01*
X81262212Y-30862868D01*
X81262144Y-30862897D01*
X81259814Y-30857273D01*
X81166913Y-30683467D01*
X81166909Y-30683460D01*
X81041883Y-30531116D01*
X80889539Y-30406090D01*
X80889532Y-30406086D01*
X80715733Y-30313188D01*
X80715727Y-30313186D01*
X80527132Y-30255976D01*
X80527129Y-30255975D01*
X80331000Y-30236659D01*
X80134870Y-30255975D01*
X79946266Y-30313188D01*
X79772467Y-30406086D01*
X79772460Y-30406090D01*
X79620116Y-30531116D01*
X79495090Y-30683460D01*
X79495086Y-30683467D01*
X79402188Y-30857266D01*
X79344975Y-31045870D01*
X79325659Y-31242000D01*
X78566341Y-31242000D01*
X78547024Y-31045868D01*
X78489814Y-30857273D01*
X78489811Y-30857269D01*
X78489811Y-30857266D01*
X78396913Y-30683467D01*
X78396909Y-30683460D01*
X78271883Y-30531116D01*
X78119539Y-30406090D01*
X78119532Y-30406086D01*
X77945733Y-30313188D01*
X77945727Y-30313186D01*
X77757132Y-30255976D01*
X77757129Y-30255975D01*
X77561000Y-30236659D01*
X77364870Y-30255975D01*
X77176266Y-30313188D01*
X77002467Y-30406086D01*
X77002460Y-30406090D01*
X76850116Y-30531116D01*
X76725090Y-30683460D01*
X76725086Y-30683467D01*
X76632188Y-30857266D01*
X76574975Y-31045870D01*
X76555659Y-31242000D01*
X75796341Y-31242000D01*
X75777024Y-31045868D01*
X75719814Y-30857273D01*
X75719811Y-30857269D01*
X75719811Y-30857266D01*
X75626913Y-30683467D01*
X75626909Y-30683460D01*
X75501883Y-30531116D01*
X75349539Y-30406090D01*
X75349532Y-30406086D01*
X75175733Y-30313188D01*
X75175727Y-30313186D01*
X74987132Y-30255976D01*
X74987129Y-30255975D01*
X74791000Y-30236659D01*
X74594870Y-30255975D01*
X74406266Y-30313188D01*
X74232467Y-30406086D01*
X74232460Y-30406090D01*
X74080116Y-30531116D01*
X73955090Y-30683460D01*
X73955086Y-30683467D01*
X73862188Y-30857266D01*
X73804975Y-31045870D01*
X73785659Y-31242000D01*
X73804975Y-31438129D01*
X73804976Y-31438132D01*
X73860488Y-31621131D01*
X73862188Y-31626733D01*
X73955086Y-31800532D01*
X73955090Y-31800539D01*
X74080116Y-31952883D01*
X74232460Y-32077909D01*
X74232467Y-32077913D01*
X74406273Y-32170814D01*
X74411897Y-32173144D01*
X74411020Y-32175260D01*
X74460917Y-32207945D01*
X74489387Y-32271751D01*
X74490500Y-32288328D01*
X74490500Y-32998969D01*
X74470815Y-33066008D01*
X74418011Y-33111763D01*
X74348853Y-33121707D01*
X74297611Y-33102072D01*
X74284233Y-33093133D01*
X74284229Y-33093131D01*
X74225752Y-33081500D01*
X74225748Y-33081500D01*
X72586252Y-33081500D01*
X72586247Y-33081500D01*
X72527770Y-33093131D01*
X72527769Y-33093132D01*
X72461447Y-33137447D01*
X72417132Y-33203769D01*
X72417131Y-33203770D01*
X72405500Y-33262247D01*
X72405500Y-34901752D01*
X72417131Y-34960229D01*
X72417132Y-34960230D01*
X72461447Y-35026552D01*
X72527769Y-35070867D01*
X72527770Y-35070868D01*
X72586247Y-35082499D01*
X72586250Y-35082500D01*
X72586252Y-35082500D01*
X74225750Y-35082500D01*
X74225751Y-35082499D01*
X74240568Y-35079552D01*
X74284229Y-35070868D01*
X74284231Y-35070867D01*
X74297608Y-35061929D01*
X74364285Y-35041050D01*
X74431666Y-35059534D01*
X74478356Y-35111512D01*
X74490500Y-35165030D01*
X74490500Y-58761042D01*
X74470815Y-58828081D01*
X74418011Y-58873836D01*
X74348853Y-58883780D01*
X74331566Y-58880019D01*
X74249763Y-58856000D01*
X74249761Y-58856000D01*
X74105839Y-58856000D01*
X74105836Y-58856000D01*
X73967749Y-58896545D01*
X73846673Y-58974356D01*
X73846672Y-58974356D01*
X73846672Y-58974357D01*
X73834090Y-58988877D01*
X73752423Y-59083126D01*
X73752422Y-59083128D01*
X73692634Y-59214043D01*
X73672153Y-59356500D01*
X73672153Y-59356501D01*
X73673461Y-59365603D01*
X73663513Y-59434761D01*
X73638403Y-59470924D01*
X66826474Y-66282853D01*
X66765151Y-66316338D01*
X66695459Y-66311354D01*
X66639526Y-66269482D01*
X66615265Y-66205979D01*
X66603141Y-66067400D01*
X66603139Y-66067389D01*
X66544269Y-65847682D01*
X66544264Y-65847668D01*
X66448136Y-65641521D01*
X66448132Y-65641513D01*
X66397025Y-65568526D01*
X65718000Y-66247551D01*
X65718000Y-66241339D01*
X65690741Y-66139606D01*
X65638080Y-66048394D01*
X65563606Y-65973920D01*
X65472394Y-65921259D01*
X65370661Y-65894000D01*
X65364448Y-65894000D01*
X66043472Y-65214974D01*
X65970478Y-65163863D01*
X65764331Y-65067735D01*
X65764317Y-65067730D01*
X65544610Y-65008860D01*
X65544599Y-65008858D01*
X65318002Y-64989034D01*
X65317998Y-64989034D01*
X65091400Y-65008858D01*
X65091389Y-65008860D01*
X64871682Y-65067730D01*
X64871673Y-65067734D01*
X64665516Y-65163866D01*
X64665512Y-65163868D01*
X64592526Y-65214973D01*
X64592526Y-65214974D01*
X65271553Y-65894000D01*
X65265339Y-65894000D01*
X65163606Y-65921259D01*
X65072394Y-65973920D01*
X64997920Y-66048394D01*
X64945259Y-66139606D01*
X64918000Y-66241339D01*
X64918000Y-66247552D01*
X64238974Y-65568526D01*
X64238973Y-65568526D01*
X64187868Y-65641512D01*
X64187866Y-65641516D01*
X64091734Y-65847673D01*
X64091730Y-65847682D01*
X64032860Y-66067389D01*
X64032858Y-66067400D01*
X64013034Y-66293997D01*
X64013034Y-66294002D01*
X64032858Y-66520599D01*
X64032860Y-66520610D01*
X64091730Y-66740317D01*
X64091734Y-66740326D01*
X64175002Y-66918895D01*
X64185494Y-66987973D01*
X64156974Y-67051757D01*
X64098498Y-67089996D01*
X64062620Y-67095300D01*
X62394333Y-67095300D01*
X62327294Y-67075615D01*
X62306652Y-67058981D01*
X57808395Y-62560724D01*
X57774910Y-62499401D01*
X57773339Y-62455394D01*
X57774647Y-62446300D01*
X57754165Y-62303843D01*
X57694377Y-62172927D01*
X57600128Y-62064157D01*
X57479053Y-61986347D01*
X57479051Y-61986346D01*
X57479049Y-61986345D01*
X57479050Y-61986345D01*
X57340963Y-61945800D01*
X57340961Y-61945800D01*
X57197039Y-61945800D01*
X57197036Y-61945800D01*
X57058949Y-61986345D01*
X56937873Y-62064156D01*
X56843623Y-62172926D01*
X56843622Y-62172928D01*
X56831684Y-62199069D01*
X56785929Y-62251873D01*
X56718889Y-62271557D01*
X56651850Y-62251872D01*
X56631209Y-62235238D01*
X55697412Y-61301441D01*
X55697411Y-61301440D01*
X55688735Y-61296430D01*
X55640521Y-61245867D01*
X55627296Y-61177260D01*
X55634554Y-61145708D01*
X55649597Y-61105377D01*
X55649598Y-61105372D01*
X55655999Y-61045844D01*
X55656000Y-61045827D01*
X55656000Y-60448000D01*
X54671686Y-60448000D01*
X54676080Y-60443606D01*
X54728741Y-60352394D01*
X54756000Y-60250661D01*
X54756000Y-60145339D01*
X54728741Y-60043606D01*
X54676080Y-59952394D01*
X54671686Y-59948000D01*
X55656000Y-59948000D01*
X55656000Y-59350172D01*
X55655999Y-59350155D01*
X55649598Y-59290627D01*
X55649596Y-59290620D01*
X55599354Y-59155913D01*
X55599350Y-59155906D01*
X55513190Y-59040812D01*
X55513187Y-59040809D01*
X55398093Y-58954649D01*
X55398086Y-58954645D01*
X55263379Y-58904403D01*
X55263372Y-58904401D01*
X55203844Y-58898000D01*
X54606000Y-58898000D01*
X54606000Y-59882314D01*
X54601606Y-59877920D01*
X54510394Y-59825259D01*
X54408661Y-59798000D01*
X54303339Y-59798000D01*
X54201606Y-59825259D01*
X54110394Y-59877920D01*
X54106000Y-59882314D01*
X54106000Y-58898000D01*
X53508155Y-58898000D01*
X53448627Y-58904401D01*
X53448620Y-58904403D01*
X53313913Y-58954645D01*
X53313906Y-58954649D01*
X53198812Y-59040809D01*
X53198809Y-59040812D01*
X53112649Y-59155906D01*
X53112645Y-59155913D01*
X53062403Y-59290620D01*
X53062401Y-59290627D01*
X53056000Y-59350155D01*
X53056000Y-59773500D01*
X53036315Y-59840539D01*
X52983511Y-59886294D01*
X52932000Y-59897500D01*
X52862328Y-59897500D01*
X52795289Y-59877815D01*
X52749534Y-59825011D01*
X52747212Y-59818868D01*
X52747144Y-59818897D01*
X52744814Y-59813273D01*
X52651913Y-59639467D01*
X52651909Y-59639460D01*
X52526883Y-59487116D01*
X52374539Y-59362090D01*
X52374532Y-59362086D01*
X52200733Y-59269188D01*
X52200727Y-59269186D01*
X52012132Y-59211976D01*
X52012129Y-59211975D01*
X51816000Y-59192659D01*
X51619870Y-59211975D01*
X51431266Y-59269188D01*
X51257467Y-59362086D01*
X51257460Y-59362090D01*
X51105116Y-59487116D01*
X50980090Y-59639460D01*
X50980086Y-59639467D01*
X50887186Y-59813271D01*
X50837060Y-59978513D01*
X50798763Y-60036951D01*
X50734950Y-60065408D01*
X50665883Y-60054847D01*
X50620027Y-60018007D01*
X50616559Y-60013488D01*
X50560612Y-59957541D01*
X50560604Y-59957535D01*
X50492095Y-59917982D01*
X50492090Y-59917979D01*
X50466613Y-59911152D01*
X50415662Y-59897500D01*
X50415660Y-59897500D01*
X50322328Y-59897500D01*
X50255289Y-59877815D01*
X50209534Y-59825011D01*
X50207212Y-59818868D01*
X50207144Y-59818897D01*
X50204814Y-59813273D01*
X50111913Y-59639467D01*
X50111909Y-59639460D01*
X49986883Y-59487116D01*
X49834539Y-59362090D01*
X49834532Y-59362086D01*
X49660733Y-59269188D01*
X49660727Y-59269186D01*
X49472132Y-59211976D01*
X49472129Y-59211975D01*
X49276000Y-59192659D01*
X49079870Y-59211975D01*
X48891266Y-59269188D01*
X48717467Y-59362086D01*
X48717460Y-59362090D01*
X48565116Y-59487116D01*
X48440090Y-59639460D01*
X48440086Y-59639467D01*
X48347188Y-59813266D01*
X48289975Y-60001870D01*
X48270659Y-60198000D01*
X48289975Y-60394129D01*
X48289976Y-60394132D01*
X48345488Y-60577131D01*
X48347188Y-60582733D01*
X48440086Y-60756532D01*
X48440090Y-60756539D01*
X48565116Y-60908883D01*
X48649271Y-60977947D01*
X48688605Y-61035692D01*
X48690476Y-61105537D01*
X48654288Y-61165305D01*
X48591533Y-61196021D01*
X48570606Y-61197800D01*
X47441394Y-61197800D01*
X47374355Y-61178115D01*
X47328600Y-61125311D01*
X47318656Y-61056153D01*
X47347681Y-60992597D01*
X47362729Y-60977947D01*
X47446883Y-60908883D01*
X47516084Y-60824562D01*
X47571910Y-60756538D01*
X47654309Y-60602380D01*
X47664811Y-60582733D01*
X47664811Y-60582732D01*
X47664814Y-60582727D01*
X47722024Y-60394132D01*
X47741341Y-60198000D01*
X47722024Y-60001868D01*
X47664814Y-59813273D01*
X47664811Y-59813269D01*
X47664811Y-59813266D01*
X47571913Y-59639467D01*
X47571909Y-59639460D01*
X47446883Y-59487116D01*
X47294539Y-59362090D01*
X47294532Y-59362086D01*
X47120730Y-59269187D01*
X47115100Y-59266855D01*
X47115974Y-59264744D01*
X47066058Y-59232024D01*
X47037608Y-59168209D01*
X47036500Y-59151671D01*
X47036500Y-59058339D01*
X47016020Y-58981909D01*
X47016017Y-58981904D01*
X46976464Y-58913395D01*
X46976458Y-58913387D01*
X45776812Y-57713741D01*
X45776804Y-57713735D01*
X45708295Y-57674182D01*
X45708290Y-57674179D01*
X45682813Y-57667352D01*
X45631862Y-57653700D01*
X45631860Y-57653700D01*
X44820500Y-57653700D01*
X44753461Y-57634015D01*
X44707706Y-57581211D01*
X44696500Y-57529700D01*
X44696500Y-35128328D01*
X44716185Y-35061289D01*
X44768989Y-35015534D01*
X44775131Y-35013212D01*
X44775103Y-35013144D01*
X44780723Y-35010815D01*
X44780727Y-35010814D01*
X44954538Y-34917910D01*
X45106883Y-34792883D01*
X45231910Y-34640538D01*
X45291893Y-34528317D01*
X45324811Y-34466733D01*
X45324811Y-34466732D01*
X45324814Y-34466727D01*
X45382024Y-34278132D01*
X45401341Y-34082000D01*
X46160659Y-34082000D01*
X46179975Y-34278129D01*
X46179976Y-34278132D01*
X46227729Y-34435553D01*
X46237188Y-34466733D01*
X46330086Y-34640532D01*
X46330090Y-34640539D01*
X46455116Y-34792883D01*
X46607460Y-34917909D01*
X46607467Y-34917913D01*
X46781266Y-35010811D01*
X46781269Y-35010811D01*
X46781273Y-35010814D01*
X46969868Y-35068024D01*
X47166000Y-35087341D01*
X47362132Y-35068024D01*
X47550727Y-35010814D01*
X47724538Y-34917910D01*
X47876883Y-34792883D01*
X48001910Y-34640538D01*
X48061893Y-34528317D01*
X48094811Y-34466733D01*
X48094811Y-34466732D01*
X48094814Y-34466727D01*
X48152024Y-34278132D01*
X48171341Y-34082000D01*
X48171341Y-34081997D01*
X48631034Y-34081997D01*
X48631034Y-34082000D01*
X48650858Y-34308599D01*
X48650860Y-34308610D01*
X48709730Y-34528317D01*
X48709735Y-34528331D01*
X48805863Y-34734478D01*
X48856974Y-34807472D01*
X49453037Y-34211409D01*
X49470075Y-34274993D01*
X49535901Y-34389007D01*
X49628993Y-34482099D01*
X49743007Y-34547925D01*
X49806590Y-34564962D01*
X49210526Y-35161025D01*
X49283513Y-35212132D01*
X49283521Y-35212136D01*
X49489668Y-35308264D01*
X49489682Y-35308269D01*
X49709389Y-35367139D01*
X49709400Y-35367141D01*
X49935998Y-35386966D01*
X49936002Y-35386966D01*
X50162599Y-35367141D01*
X50162610Y-35367139D01*
X50382317Y-35308269D01*
X50382331Y-35308264D01*
X50588478Y-35212136D01*
X50661471Y-35161024D01*
X50065409Y-34564962D01*
X50128993Y-34547925D01*
X50243007Y-34482099D01*
X50336099Y-34389007D01*
X50401925Y-34274993D01*
X50418962Y-34211409D01*
X51015024Y-34807471D01*
X51066136Y-34734478D01*
X51162264Y-34528331D01*
X51162269Y-34528317D01*
X51221139Y-34308610D01*
X51221141Y-34308599D01*
X51240966Y-34082000D01*
X51240966Y-34081997D01*
X51221141Y-33855400D01*
X51221139Y-33855389D01*
X51201475Y-33782000D01*
X54690778Y-33782000D01*
X54709644Y-34069837D01*
X54709646Y-34069849D01*
X54765917Y-34352745D01*
X54765921Y-34352760D01*
X54858642Y-34625905D01*
X54986219Y-34884606D01*
X54986223Y-34884613D01*
X55146478Y-35124452D01*
X55336672Y-35341327D01*
X55553546Y-35531520D01*
X55793389Y-35691778D01*
X56052098Y-35819359D01*
X56325247Y-35912081D01*
X56608161Y-35968356D01*
X56896000Y-35987222D01*
X57183839Y-35968356D01*
X57466753Y-35912081D01*
X57739902Y-35819359D01*
X57998611Y-35691778D01*
X58238454Y-35531520D01*
X58455327Y-35341327D01*
X58645520Y-35124454D01*
X58805778Y-34884611D01*
X58933359Y-34625902D01*
X59026081Y-34352753D01*
X59082356Y-34069839D01*
X59101222Y-33782000D01*
X64240778Y-33782000D01*
X64259644Y-34069837D01*
X64259646Y-34069849D01*
X64315917Y-34352745D01*
X64315921Y-34352760D01*
X64408642Y-34625905D01*
X64536219Y-34884606D01*
X64536223Y-34884613D01*
X64696478Y-35124452D01*
X64886672Y-35341327D01*
X65103546Y-35531520D01*
X65343389Y-35691778D01*
X65602098Y-35819359D01*
X65875247Y-35912081D01*
X66158161Y-35968356D01*
X66446000Y-35987222D01*
X66733839Y-35968356D01*
X67016753Y-35912081D01*
X67289902Y-35819359D01*
X67548611Y-35691778D01*
X67788454Y-35531520D01*
X68005327Y-35341327D01*
X68195520Y-35124454D01*
X68355778Y-34884611D01*
X68483359Y-34625902D01*
X68576081Y-34352753D01*
X68632356Y-34069839D01*
X68651222Y-33782000D01*
X68632356Y-33494161D01*
X68576081Y-33211247D01*
X68483359Y-32938098D01*
X68355778Y-32679389D01*
X68195520Y-32439546D01*
X68005327Y-32222672D01*
X67788452Y-32032478D01*
X67548613Y-31872223D01*
X67548606Y-31872219D01*
X67289905Y-31744642D01*
X67016760Y-31651921D01*
X67016754Y-31651919D01*
X67016753Y-31651919D01*
X67016751Y-31651918D01*
X67016745Y-31651917D01*
X66733849Y-31595646D01*
X66733839Y-31595644D01*
X66446000Y-31576778D01*
X66158161Y-31595644D01*
X66158155Y-31595645D01*
X66158150Y-31595646D01*
X65875254Y-31651917D01*
X65875239Y-31651921D01*
X65602094Y-31744642D01*
X65343393Y-31872219D01*
X65343386Y-31872223D01*
X65103547Y-32032478D01*
X64886672Y-32222672D01*
X64696478Y-32439547D01*
X64536223Y-32679386D01*
X64536219Y-32679393D01*
X64408642Y-32938094D01*
X64315921Y-33211239D01*
X64315917Y-33211254D01*
X64259646Y-33494150D01*
X64259644Y-33494161D01*
X64257723Y-33523467D01*
X64240778Y-33782000D01*
X59101222Y-33782000D01*
X59082356Y-33494161D01*
X59026081Y-33211247D01*
X58933359Y-32938098D01*
X58805778Y-32679389D01*
X58645520Y-32439546D01*
X58455327Y-32222672D01*
X58238452Y-32032478D01*
X57998613Y-31872223D01*
X57998606Y-31872219D01*
X57739905Y-31744642D01*
X57466760Y-31651921D01*
X57466754Y-31651919D01*
X57466753Y-31651919D01*
X57466751Y-31651918D01*
X57466745Y-31651917D01*
X57183849Y-31595646D01*
X57183839Y-31595644D01*
X56896000Y-31576778D01*
X56608161Y-31595644D01*
X56608155Y-31595645D01*
X56608150Y-31595646D01*
X56325254Y-31651917D01*
X56325239Y-31651921D01*
X56052094Y-31744642D01*
X55793393Y-31872219D01*
X55793386Y-31872223D01*
X55553547Y-32032478D01*
X55336672Y-32222672D01*
X55146478Y-32439547D01*
X54986223Y-32679386D01*
X54986219Y-32679393D01*
X54858642Y-32938094D01*
X54765921Y-33211239D01*
X54765917Y-33211254D01*
X54709646Y-33494150D01*
X54709644Y-33494161D01*
X54707723Y-33523467D01*
X54690778Y-33782000D01*
X51201475Y-33782000D01*
X51162269Y-33635682D01*
X51162264Y-33635668D01*
X51066136Y-33429521D01*
X51066132Y-33429513D01*
X51015025Y-33356526D01*
X50418962Y-33952589D01*
X50401925Y-33889007D01*
X50336099Y-33774993D01*
X50243007Y-33681901D01*
X50128993Y-33616075D01*
X50065410Y-33599037D01*
X50661472Y-33002974D01*
X50588478Y-32951863D01*
X50382331Y-32855735D01*
X50382317Y-32855730D01*
X50162610Y-32796860D01*
X50162599Y-32796858D01*
X49936002Y-32777034D01*
X49935998Y-32777034D01*
X49709400Y-32796858D01*
X49709389Y-32796860D01*
X49489682Y-32855730D01*
X49489673Y-32855734D01*
X49283516Y-32951866D01*
X49283512Y-32951868D01*
X49210526Y-33002973D01*
X49210526Y-33002974D01*
X49806590Y-33599037D01*
X49743007Y-33616075D01*
X49628993Y-33681901D01*
X49535901Y-33774993D01*
X49470075Y-33889007D01*
X49453037Y-33952589D01*
X48856974Y-33356526D01*
X48856973Y-33356526D01*
X48805868Y-33429512D01*
X48805866Y-33429516D01*
X48709734Y-33635673D01*
X48709730Y-33635682D01*
X48650860Y-33855389D01*
X48650858Y-33855400D01*
X48631034Y-34081997D01*
X48171341Y-34081997D01*
X48152024Y-33885868D01*
X48094814Y-33697273D01*
X48094811Y-33697269D01*
X48094811Y-33697266D01*
X48001913Y-33523467D01*
X48001909Y-33523460D01*
X47876883Y-33371116D01*
X47724539Y-33246090D01*
X47724532Y-33246086D01*
X47550733Y-33153188D01*
X47550727Y-33153186D01*
X47424997Y-33115046D01*
X47362129Y-33095975D01*
X47166000Y-33076659D01*
X46969870Y-33095975D01*
X46781266Y-33153188D01*
X46607467Y-33246086D01*
X46607460Y-33246090D01*
X46455116Y-33371116D01*
X46330090Y-33523460D01*
X46330086Y-33523467D01*
X46237188Y-33697266D01*
X46179975Y-33885870D01*
X46160659Y-34082000D01*
X45401341Y-34082000D01*
X45382024Y-33885868D01*
X45324814Y-33697273D01*
X45324811Y-33697269D01*
X45324811Y-33697266D01*
X45231913Y-33523467D01*
X45231909Y-33523460D01*
X45106883Y-33371116D01*
X44954539Y-33246090D01*
X44954532Y-33246086D01*
X44780733Y-33153188D01*
X44780727Y-33153186D01*
X44654997Y-33115046D01*
X44592129Y-33095975D01*
X44396000Y-33076659D01*
X44199870Y-33095975D01*
X44011266Y-33153188D01*
X43837467Y-33246086D01*
X43837460Y-33246090D01*
X43685116Y-33371116D01*
X43560090Y-33523460D01*
X43560086Y-33523467D01*
X43467188Y-33697266D01*
X43409975Y-33885870D01*
X43390659Y-34082000D01*
X43409975Y-34278129D01*
X43409976Y-34278132D01*
X43457729Y-34435553D01*
X43467188Y-34466733D01*
X43560086Y-34640532D01*
X43560090Y-34640539D01*
X43685116Y-34792883D01*
X43837460Y-34917909D01*
X43837467Y-34917913D01*
X44011273Y-35010814D01*
X44016897Y-35013144D01*
X44016020Y-35015260D01*
X44065917Y-35047945D01*
X44094387Y-35111751D01*
X44095500Y-35128328D01*
X44095500Y-57529700D01*
X44075815Y-57596739D01*
X44023011Y-57642494D01*
X43971500Y-57653700D01*
X34045238Y-57653700D01*
X34007024Y-57663939D01*
X33968809Y-57674179D01*
X33968804Y-57674182D01*
X33900295Y-57713735D01*
X33900287Y-57713741D01*
X32214641Y-59399387D01*
X32214635Y-59399395D01*
X32175082Y-59467904D01*
X32175079Y-59467909D01*
X32161426Y-59518862D01*
X32154600Y-59544338D01*
X32154600Y-61808962D01*
X32175079Y-61885389D01*
X32203989Y-61935462D01*
X32212692Y-61950538D01*
X32214641Y-61953913D01*
X33521819Y-63261091D01*
X33555304Y-63322414D01*
X33550320Y-63392106D01*
X33508448Y-63448039D01*
X33444945Y-63472300D01*
X33301400Y-63484858D01*
X33301389Y-63484860D01*
X33081682Y-63543730D01*
X33081673Y-63543734D01*
X32875516Y-63639866D01*
X32875512Y-63639868D01*
X32802526Y-63690973D01*
X32802526Y-63690974D01*
X33481553Y-64370000D01*
X33475339Y-64370000D01*
X33373606Y-64397259D01*
X33282394Y-64449920D01*
X33207920Y-64524394D01*
X33155259Y-64615606D01*
X33128000Y-64717339D01*
X33128000Y-64723552D01*
X32448974Y-64044526D01*
X32448973Y-64044526D01*
X32397868Y-64117512D01*
X32397866Y-64117516D01*
X32301734Y-64323673D01*
X32301730Y-64323682D01*
X32242860Y-64543389D01*
X32242858Y-64543400D01*
X32223034Y-64769997D01*
X32223034Y-64770002D01*
X32242858Y-64996599D01*
X32242860Y-64996610D01*
X32301730Y-65216317D01*
X32301735Y-65216331D01*
X32397863Y-65422478D01*
X32448974Y-65495472D01*
X33128000Y-64816446D01*
X33128000Y-64822661D01*
X33155259Y-64924394D01*
X33207920Y-65015606D01*
X33282394Y-65090080D01*
X33373606Y-65142741D01*
X33475339Y-65170000D01*
X33481553Y-65170000D01*
X32802526Y-65849025D01*
X32875513Y-65900132D01*
X32875521Y-65900136D01*
X33081668Y-65996264D01*
X33081682Y-65996269D01*
X33301389Y-66055139D01*
X33301400Y-66055141D01*
X33527998Y-66074966D01*
X33528002Y-66074966D01*
X33754599Y-66055141D01*
X33754610Y-66055139D01*
X33974317Y-65996269D01*
X33974331Y-65996264D01*
X34180478Y-65900136D01*
X34253471Y-65849024D01*
X33574447Y-65170000D01*
X33580661Y-65170000D01*
X33682394Y-65142741D01*
X33773606Y-65090080D01*
X33848080Y-65015606D01*
X33900741Y-64924394D01*
X33928000Y-64822661D01*
X33928000Y-64816447D01*
X34607024Y-65495471D01*
X34658136Y-65422478D01*
X34754264Y-65216331D01*
X34754269Y-65216317D01*
X34813139Y-64996610D01*
X34813141Y-64996599D01*
X34825699Y-64853054D01*
X34851151Y-64787985D01*
X34907741Y-64747006D01*
X34977503Y-64743127D01*
X35036908Y-64776179D01*
X39388681Y-69127952D01*
X39422166Y-69189275D01*
X39425000Y-69215633D01*
X39425000Y-74161062D01*
X39435180Y-74199052D01*
X39445479Y-74237491D01*
X39445481Y-74237494D01*
X39464790Y-74270937D01*
X39464793Y-74270941D01*
X39485037Y-74306007D01*
X39485039Y-74306010D01*
X39485040Y-74306011D01*
X41425640Y-76246611D01*
X41481589Y-76302560D01*
X41481591Y-76302561D01*
X41481595Y-76302564D01*
X41550104Y-76342117D01*
X41550111Y-76342121D01*
X41626538Y-76362600D01*
X41705662Y-76362600D01*
X41874767Y-76362600D01*
X41941806Y-76382285D01*
X41962448Y-76398919D01*
X42583348Y-77019819D01*
X42616833Y-77081142D01*
X42611849Y-77150834D01*
X42569977Y-77206767D01*
X42504513Y-77231184D01*
X42495667Y-77231500D01*
X41344247Y-77231500D01*
X41285770Y-77243131D01*
X41285769Y-77243132D01*
X41219447Y-77287447D01*
X41175132Y-77353769D01*
X41175131Y-77353770D01*
X41163500Y-77412247D01*
X41163500Y-79051752D01*
X41175131Y-79110229D01*
X41175132Y-79110230D01*
X41219447Y-79176552D01*
X41285769Y-79220867D01*
X41285770Y-79220868D01*
X41344247Y-79232499D01*
X41344250Y-79232500D01*
X41344252Y-79232500D01*
X42983750Y-79232500D01*
X42983751Y-79232499D01*
X42998568Y-79229552D01*
X43042229Y-79220868D01*
X43042229Y-79220867D01*
X43042231Y-79220867D01*
X43108552Y-79176552D01*
X43152867Y-79110231D01*
X43152867Y-79110229D01*
X43152868Y-79110229D01*
X43164499Y-79051752D01*
X43164500Y-79051750D01*
X43164500Y-77900333D01*
X43184185Y-77833294D01*
X43236989Y-77787539D01*
X43306147Y-77777595D01*
X43369703Y-77806620D01*
X43376181Y-77812652D01*
X45164389Y-79600860D01*
X45222471Y-79634394D01*
X45227220Y-79637136D01*
X45232912Y-79640422D01*
X45309338Y-79660900D01*
X45388462Y-79660900D01*
X45963260Y-79660900D01*
X46030299Y-79680585D01*
X46076054Y-79733389D01*
X46085998Y-79802547D01*
X46056973Y-79866103D01*
X46050941Y-79872581D01*
X45990342Y-79933179D01*
X45859865Y-80119517D01*
X45763734Y-80325673D01*
X45763730Y-80325682D01*
X45711127Y-80521999D01*
X45711128Y-80522000D01*
X46674314Y-80522000D01*
X46669920Y-80526394D01*
X46617259Y-80617606D01*
X46590000Y-80719339D01*
X46590000Y-80824661D01*
X46617259Y-80926394D01*
X46669920Y-81017606D01*
X46674314Y-81022000D01*
X45711128Y-81022000D01*
X45763730Y-81218317D01*
X45763734Y-81218326D01*
X45846209Y-81395195D01*
X45856701Y-81464273D01*
X45828181Y-81528057D01*
X45769705Y-81566296D01*
X45733827Y-81571600D01*
X43064252Y-81571600D01*
X42997213Y-81551915D01*
X42951458Y-81499111D01*
X42941514Y-81429953D01*
X42968399Y-81368935D01*
X42983479Y-81350559D01*
X42999910Y-81330538D01*
X43081812Y-81177310D01*
X43092811Y-81156733D01*
X43092811Y-81156732D01*
X43092814Y-81156727D01*
X43150024Y-80968132D01*
X43169341Y-80772000D01*
X43150024Y-80575868D01*
X43092814Y-80387273D01*
X43092811Y-80387269D01*
X43092811Y-80387266D01*
X42999913Y-80213467D01*
X42999909Y-80213460D01*
X42874883Y-80061116D01*
X42722539Y-79936090D01*
X42722532Y-79936086D01*
X42548733Y-79843188D01*
X42548727Y-79843186D01*
X42360132Y-79785976D01*
X42360129Y-79785975D01*
X42164000Y-79766659D01*
X41967870Y-79785975D01*
X41779266Y-79843188D01*
X41605467Y-79936086D01*
X41605460Y-79936090D01*
X41453116Y-80061116D01*
X41328090Y-80213460D01*
X41328086Y-80213467D01*
X41235188Y-80387266D01*
X41177975Y-80575870D01*
X41158659Y-80772000D01*
X41177975Y-80968129D01*
X41177976Y-80968132D01*
X41234200Y-81153478D01*
X41235188Y-81156733D01*
X41328086Y-81330532D01*
X41328091Y-81330539D01*
X41359601Y-81368935D01*
X41386914Y-81433245D01*
X41375123Y-81502113D01*
X41327970Y-81553673D01*
X41263748Y-81571600D01*
X36920033Y-81571600D01*
X36852994Y-81551915D01*
X36832352Y-81535281D01*
X35828612Y-80531541D01*
X35828604Y-80531535D01*
X35760095Y-80491982D01*
X35760090Y-80491979D01*
X35734613Y-80485152D01*
X35683662Y-80471500D01*
X35683660Y-80471500D01*
X35590328Y-80471500D01*
X35523289Y-80451815D01*
X35477534Y-80399011D01*
X35475212Y-80392868D01*
X35475144Y-80392897D01*
X35472814Y-80387273D01*
X35379913Y-80213467D01*
X35379909Y-80213460D01*
X35254883Y-80061116D01*
X35102539Y-79936090D01*
X35102532Y-79936086D01*
X34928733Y-79843188D01*
X34928727Y-79843186D01*
X34740132Y-79785976D01*
X34740129Y-79785975D01*
X34544000Y-79766659D01*
X34347870Y-79785975D01*
X34159266Y-79843188D01*
X33985467Y-79936086D01*
X33985460Y-79936090D01*
X33833116Y-80061116D01*
X33708090Y-80213460D01*
X33708086Y-80213467D01*
X33615188Y-80387266D01*
X33557975Y-80575870D01*
X33538659Y-80772000D01*
X33557975Y-80968129D01*
X33557976Y-80968132D01*
X33614200Y-81153478D01*
X33615188Y-81156733D01*
X33708086Y-81330532D01*
X33708090Y-81330539D01*
X33833116Y-81482883D01*
X33985460Y-81607909D01*
X33985467Y-81607913D01*
X34159266Y-81700811D01*
X34159269Y-81700811D01*
X34159273Y-81700814D01*
X34347868Y-81758024D01*
X34544000Y-81777341D01*
X34740132Y-81758024D01*
X34928727Y-81700814D01*
X35102538Y-81607910D01*
X35254883Y-81482883D01*
X35379910Y-81330538D01*
X35399117Y-81294604D01*
X35439645Y-81218783D01*
X35488607Y-81168939D01*
X35556745Y-81153478D01*
X35622424Y-81177310D01*
X35636684Y-81189555D01*
X36503740Y-82056611D01*
X36559689Y-82112560D01*
X36559691Y-82112561D01*
X36559695Y-82112564D01*
X36628204Y-82152117D01*
X36628211Y-82152121D01*
X36704638Y-82172600D01*
X36783762Y-82172600D01*
X41678215Y-82172600D01*
X41745254Y-82192285D01*
X41791009Y-82245089D01*
X41800953Y-82314247D01*
X41771928Y-82377803D01*
X41736668Y-82405958D01*
X41605467Y-82476086D01*
X41605460Y-82476090D01*
X41453116Y-82601116D01*
X41328090Y-82753460D01*
X41328086Y-82753467D01*
X41235188Y-82927266D01*
X41177975Y-83115870D01*
X41158659Y-83312000D01*
X41177975Y-83508129D01*
X41177976Y-83508132D01*
X41234200Y-83693478D01*
X41235188Y-83696733D01*
X41328086Y-83870532D01*
X41328090Y-83870538D01*
X41362146Y-83912036D01*
X41389458Y-83976346D01*
X41377667Y-84045213D01*
X41330514Y-84096773D01*
X41266292Y-84114700D01*
X36923133Y-84114700D01*
X36856094Y-84095015D01*
X36835452Y-84078381D01*
X35828612Y-83071541D01*
X35828604Y-83071535D01*
X35760095Y-83031982D01*
X35760090Y-83031979D01*
X35734613Y-83025152D01*
X35683662Y-83011500D01*
X35683660Y-83011500D01*
X35590328Y-83011500D01*
X35523289Y-82991815D01*
X35477534Y-82939011D01*
X35475212Y-82932868D01*
X35475144Y-82932897D01*
X35472814Y-82927273D01*
X35379913Y-82753467D01*
X35379909Y-82753460D01*
X35254883Y-82601116D01*
X35102539Y-82476090D01*
X35102532Y-82476086D01*
X34928733Y-82383188D01*
X34928727Y-82383186D01*
X34740132Y-82325976D01*
X34740129Y-82325975D01*
X34544000Y-82306659D01*
X34347870Y-82325975D01*
X34159266Y-82383188D01*
X33985467Y-82476086D01*
X33985460Y-82476090D01*
X33833116Y-82601116D01*
X33708090Y-82753460D01*
X33708086Y-82753467D01*
X33615188Y-82927266D01*
X33557975Y-83115870D01*
X33538659Y-83312000D01*
X33557975Y-83508129D01*
X33557976Y-83508132D01*
X33614200Y-83693478D01*
X33615188Y-83696733D01*
X33708086Y-83870532D01*
X33708090Y-83870539D01*
X33833116Y-84022883D01*
X33985460Y-84147909D01*
X33985467Y-84147913D01*
X34159266Y-84240811D01*
X34159269Y-84240811D01*
X34159273Y-84240814D01*
X34347868Y-84298024D01*
X34544000Y-84317341D01*
X34740132Y-84298024D01*
X34928727Y-84240814D01*
X34932159Y-84238980D01*
X35045682Y-84178300D01*
X35102538Y-84147910D01*
X35254883Y-84022883D01*
X35379910Y-83870538D01*
X35394287Y-83843639D01*
X35439645Y-83758783D01*
X35488607Y-83708939D01*
X35556745Y-83693478D01*
X35622424Y-83717310D01*
X35636684Y-83729555D01*
X36506840Y-84599711D01*
X36562789Y-84655660D01*
X36562791Y-84655661D01*
X36562795Y-84655664D01*
X36618909Y-84688061D01*
X36631311Y-84695221D01*
X36707738Y-84715700D01*
X36707740Y-84715700D01*
X41672416Y-84715700D01*
X41739455Y-84735385D01*
X41785210Y-84788189D01*
X41795154Y-84857347D01*
X41766129Y-84920903D01*
X41730869Y-84949058D01*
X41605467Y-85016086D01*
X41605460Y-85016090D01*
X41453116Y-85141116D01*
X41328090Y-85293460D01*
X41328086Y-85293467D01*
X41235185Y-85467273D01*
X41232856Y-85472897D01*
X41230739Y-85472020D01*
X41198055Y-85521917D01*
X41134249Y-85550387D01*
X41117672Y-85551500D01*
X36330838Y-85551500D01*
X36292624Y-85561739D01*
X36254409Y-85571979D01*
X36254404Y-85571982D01*
X36185895Y-85611535D01*
X36185887Y-85611541D01*
X35751120Y-86046307D01*
X35689797Y-86079792D01*
X35620105Y-86074808D01*
X35564172Y-86032936D01*
X35539755Y-85967472D01*
X35540036Y-85946472D01*
X35540071Y-85946118D01*
X35549341Y-85852000D01*
X35530024Y-85655868D01*
X35472814Y-85467273D01*
X35472811Y-85467269D01*
X35472811Y-85467266D01*
X35379913Y-85293467D01*
X35379909Y-85293460D01*
X35254883Y-85141116D01*
X35102539Y-85016090D01*
X35102532Y-85016086D01*
X34928733Y-84923188D01*
X34928727Y-84923186D01*
X34740132Y-84865976D01*
X34740129Y-84865975D01*
X34544000Y-84846659D01*
X34347870Y-84865975D01*
X34159266Y-84923188D01*
X33985467Y-85016086D01*
X33985460Y-85016090D01*
X33833116Y-85141116D01*
X33708090Y-85293460D01*
X33708086Y-85293467D01*
X33615188Y-85467266D01*
X33557975Y-85655870D01*
X33538659Y-85852000D01*
X33557975Y-86048129D01*
X33557976Y-86048132D01*
X33613488Y-86231131D01*
X33615190Y-86236739D01*
X33617518Y-86242359D01*
X33615411Y-86243231D01*
X33627563Y-86301687D01*
X33602542Y-86366923D01*
X33591647Y-86379380D01*
X32809189Y-87161840D01*
X32753241Y-87217787D01*
X32753235Y-87217795D01*
X32713682Y-87286304D01*
X32713679Y-87286309D01*
X32710390Y-87298585D01*
X32693200Y-87362738D01*
X32693200Y-91008562D01*
X32706852Y-91059513D01*
X32713679Y-91084990D01*
X32725889Y-91106138D01*
X32749734Y-91147438D01*
X32749734Y-91147440D01*
X32753237Y-91153507D01*
X32753241Y-91153512D01*
X34030388Y-92430659D01*
X34063873Y-92491982D01*
X34058889Y-92561674D01*
X34017017Y-92617607D01*
X34001166Y-92627695D01*
X33985460Y-92636090D01*
X33833116Y-92761116D01*
X33708090Y-92913460D01*
X33708086Y-92913467D01*
X33615188Y-93087266D01*
X33557975Y-93275870D01*
X33538659Y-93472000D01*
X33557975Y-93668129D01*
X33615188Y-93856733D01*
X33708086Y-94030532D01*
X33708090Y-94030539D01*
X33833116Y-94182883D01*
X33985460Y-94307909D01*
X33985467Y-94307913D01*
X34159266Y-94400811D01*
X34159269Y-94400811D01*
X34159273Y-94400814D01*
X34347868Y-94458024D01*
X34544000Y-94477341D01*
X34740132Y-94458024D01*
X34928727Y-94400814D01*
X34984006Y-94371267D01*
X35102532Y-94307913D01*
X35102538Y-94307910D01*
X35254883Y-94182883D01*
X35379910Y-94030538D01*
X35472814Y-93856727D01*
X35530024Y-93668132D01*
X35549341Y-93472000D01*
X35542920Y-93406809D01*
X35555939Y-93338164D01*
X35604003Y-93287454D01*
X35671854Y-93270779D01*
X35737949Y-93293435D01*
X35754004Y-93306975D01*
X41312940Y-98865911D01*
X41368889Y-98921860D01*
X41368891Y-98921861D01*
X41368895Y-98921864D01*
X41437404Y-98961417D01*
X41437411Y-98961421D01*
X41513838Y-98981900D01*
X41592962Y-98981900D01*
X59613361Y-98981900D01*
X59680400Y-99001585D01*
X59726155Y-99054389D01*
X59736099Y-99123547D01*
X59707074Y-99187103D01*
X59682013Y-99207794D01*
X59682240Y-99208090D01*
X59675787Y-99213041D01*
X43676541Y-115212287D01*
X43676535Y-115212295D01*
X43636982Y-115280804D01*
X43636979Y-115280809D01*
X43616500Y-115357239D01*
X43616500Y-115634500D01*
X43596815Y-115701539D01*
X43544011Y-115747294D01*
X43492500Y-115758500D01*
X42897247Y-115758500D01*
X42838770Y-115770131D01*
X42838769Y-115770132D01*
X42772447Y-115814447D01*
X42728132Y-115880769D01*
X42728131Y-115880770D01*
X42716500Y-115939247D01*
X42716500Y-116001673D01*
X42696815Y-116068712D01*
X42644011Y-116114467D01*
X42592110Y-116125672D01*
X41281110Y-116121549D01*
X41214133Y-116101654D01*
X41168544Y-116048706D01*
X41157500Y-115997550D01*
X41157500Y-115939249D01*
X41157499Y-115939247D01*
X41145868Y-115880770D01*
X41145867Y-115880769D01*
X41101552Y-115814447D01*
X41035230Y-115770132D01*
X41035229Y-115770131D01*
X40976752Y-115758500D01*
X40976748Y-115758500D01*
X38937252Y-115758500D01*
X38937247Y-115758500D01*
X38878770Y-115770131D01*
X38878769Y-115770132D01*
X38812447Y-115814447D01*
X38768132Y-115880769D01*
X38768131Y-115880770D01*
X38756500Y-115939247D01*
X38756500Y-115989220D01*
X38736815Y-116056259D01*
X38684011Y-116102014D01*
X38632110Y-116113219D01*
X36678648Y-116107076D01*
X36611671Y-116087181D01*
X36566082Y-116034234D01*
X36559263Y-116015170D01*
X36552310Y-115989220D01*
X36530957Y-115909528D01*
X36525086Y-115899360D01*
X36522128Y-115894235D01*
X36465065Y-115795400D01*
X36371879Y-115702214D01*
X36314815Y-115669268D01*
X36257752Y-115636322D01*
X36185091Y-115616853D01*
X36130457Y-115602214D01*
X36130456Y-115602214D01*
X28401065Y-115602214D01*
X28334026Y-115582529D01*
X28288271Y-115529725D01*
X28277065Y-115478214D01*
X28277065Y-107192151D01*
X28296750Y-107125112D01*
X28349554Y-107079357D01*
X28390256Y-107068623D01*
X28429883Y-107065157D01*
X28859902Y-106989333D01*
X29281677Y-106876319D01*
X29691997Y-106726975D01*
X30087739Y-106542437D01*
X30465891Y-106324111D01*
X30823577Y-106073657D01*
X31158072Y-105792982D01*
X31466833Y-105484221D01*
X31747508Y-105149726D01*
X31997962Y-104792040D01*
X32216288Y-104413888D01*
X32400826Y-104018146D01*
X32550170Y-103607826D01*
X32663184Y-103186051D01*
X32739008Y-102756032D01*
X32777065Y-102321041D01*
X32777065Y-101884387D01*
X32739008Y-101449396D01*
X32733616Y-101418819D01*
X32682510Y-101128981D01*
X32663184Y-101019377D01*
X32557124Y-100623553D01*
X32550172Y-100597608D01*
X32550170Y-100597602D01*
X32400826Y-100187282D01*
X32398456Y-100182200D01*
X32216292Y-99791549D01*
X32216284Y-99791533D01*
X32194614Y-99754000D01*
X31997962Y-99413388D01*
X31997954Y-99413376D01*
X31997950Y-99413370D01*
X31747507Y-99055700D01*
X31583534Y-98860286D01*
X31466833Y-98721207D01*
X31158072Y-98412446D01*
X30994776Y-98275424D01*
X30823578Y-98131771D01*
X30465908Y-97881328D01*
X30465897Y-97881321D01*
X30465891Y-97881317D01*
X30317944Y-97795900D01*
X30087745Y-97662994D01*
X30087729Y-97662986D01*
X29692014Y-97478460D01*
X29691999Y-97478454D01*
X29691997Y-97478453D01*
X29537866Y-97422354D01*
X29281670Y-97329106D01*
X28859909Y-97216097D01*
X28859912Y-97216097D01*
X28859902Y-97216095D01*
X28859896Y-97216093D01*
X28859892Y-97216093D01*
X28429888Y-97140271D01*
X28390257Y-97136804D01*
X28325188Y-97111351D01*
X28284210Y-97054760D01*
X28277065Y-97013276D01*
X28277065Y-77981999D01*
X33265127Y-77981999D01*
X33265128Y-77982000D01*
X34228314Y-77982000D01*
X34223920Y-77986394D01*
X34171259Y-78077606D01*
X34144000Y-78179339D01*
X34144000Y-78284661D01*
X34171259Y-78386394D01*
X34223920Y-78477606D01*
X34228314Y-78482000D01*
X33265128Y-78482000D01*
X33317730Y-78678317D01*
X33317734Y-78678326D01*
X33413865Y-78884482D01*
X33544342Y-79070820D01*
X33705179Y-79231657D01*
X33891517Y-79362134D01*
X34097673Y-79458265D01*
X34097682Y-79458269D01*
X34293999Y-79510872D01*
X34294000Y-79510871D01*
X34294000Y-78547686D01*
X34298394Y-78552080D01*
X34389606Y-78604741D01*
X34491339Y-78632000D01*
X34596661Y-78632000D01*
X34698394Y-78604741D01*
X34789606Y-78552080D01*
X34794000Y-78547686D01*
X34794000Y-79510872D01*
X34990317Y-79458269D01*
X34990326Y-79458265D01*
X35196482Y-79362134D01*
X35382820Y-79231657D01*
X35543657Y-79070820D01*
X35674134Y-78884482D01*
X35770265Y-78678326D01*
X35770269Y-78678317D01*
X35822872Y-78482000D01*
X34859686Y-78482000D01*
X34864080Y-78477606D01*
X34916741Y-78386394D01*
X34944000Y-78284661D01*
X34944000Y-78179339D01*
X34916741Y-78077606D01*
X34864080Y-77986394D01*
X34859686Y-77982000D01*
X35822872Y-77982000D01*
X35822872Y-77981999D01*
X35770269Y-77785682D01*
X35770265Y-77785673D01*
X35674134Y-77579517D01*
X35543657Y-77393179D01*
X35382820Y-77232342D01*
X35196482Y-77101865D01*
X34990328Y-77005734D01*
X34794000Y-76953127D01*
X34794000Y-77916314D01*
X34789606Y-77911920D01*
X34698394Y-77859259D01*
X34596661Y-77832000D01*
X34491339Y-77832000D01*
X34389606Y-77859259D01*
X34298394Y-77911920D01*
X34294000Y-77916314D01*
X34294000Y-76953127D01*
X34097671Y-77005734D01*
X33891517Y-77101865D01*
X33705179Y-77232342D01*
X33544342Y-77393179D01*
X33413865Y-77579517D01*
X33317734Y-77785673D01*
X33317730Y-77785682D01*
X33265127Y-77981999D01*
X28277065Y-77981999D01*
X28277065Y-73659997D01*
X34589034Y-73659997D01*
X34589034Y-73660002D01*
X34608858Y-73886599D01*
X34608860Y-73886610D01*
X34667730Y-74106317D01*
X34667735Y-74106331D01*
X34763863Y-74312478D01*
X34814974Y-74385472D01*
X35494000Y-73706446D01*
X35494000Y-73712661D01*
X35521259Y-73814394D01*
X35573920Y-73905606D01*
X35648394Y-73980080D01*
X35739606Y-74032741D01*
X35841339Y-74060000D01*
X35847553Y-74060000D01*
X35168526Y-74739025D01*
X35241513Y-74790132D01*
X35241521Y-74790136D01*
X35447668Y-74886264D01*
X35447682Y-74886269D01*
X35667389Y-74945139D01*
X35667400Y-74945141D01*
X35893998Y-74964966D01*
X35894002Y-74964966D01*
X36120599Y-74945141D01*
X36120610Y-74945139D01*
X36340317Y-74886269D01*
X36340331Y-74886264D01*
X36546478Y-74790136D01*
X36619471Y-74739024D01*
X35940447Y-74060000D01*
X35946661Y-74060000D01*
X36048394Y-74032741D01*
X36139606Y-73980080D01*
X36214080Y-73905606D01*
X36266741Y-73814394D01*
X36294000Y-73712661D01*
X36294000Y-73706447D01*
X36973024Y-74385471D01*
X37024136Y-74312478D01*
X37120264Y-74106331D01*
X37120269Y-74106317D01*
X37179139Y-73886610D01*
X37179141Y-73886599D01*
X37198966Y-73660002D01*
X37198966Y-73659997D01*
X37179141Y-73433400D01*
X37179139Y-73433389D01*
X37120269Y-73213682D01*
X37120264Y-73213668D01*
X37024136Y-73007521D01*
X37024132Y-73007513D01*
X36973025Y-72934526D01*
X36294000Y-73613551D01*
X36294000Y-73607339D01*
X36266741Y-73505606D01*
X36214080Y-73414394D01*
X36139606Y-73339920D01*
X36048394Y-73287259D01*
X35946661Y-73260000D01*
X35940448Y-73260000D01*
X36619472Y-72580974D01*
X36546478Y-72529863D01*
X36340331Y-72433735D01*
X36340317Y-72433730D01*
X36120610Y-72374860D01*
X36120599Y-72374858D01*
X35894002Y-72355034D01*
X35893998Y-72355034D01*
X35667400Y-72374858D01*
X35667389Y-72374860D01*
X35447682Y-72433730D01*
X35447673Y-72433734D01*
X35241516Y-72529866D01*
X35241512Y-72529868D01*
X35168526Y-72580973D01*
X35168526Y-72580974D01*
X35847553Y-73260000D01*
X35841339Y-73260000D01*
X35739606Y-73287259D01*
X35648394Y-73339920D01*
X35573920Y-73414394D01*
X35521259Y-73505606D01*
X35494000Y-73607339D01*
X35494000Y-73613552D01*
X34814974Y-72934526D01*
X34814973Y-72934526D01*
X34763868Y-73007512D01*
X34763866Y-73007516D01*
X34667734Y-73213673D01*
X34667730Y-73213682D01*
X34608860Y-73433389D01*
X34608858Y-73433400D01*
X34589034Y-73659997D01*
X28277065Y-73659997D01*
X28277065Y-68819997D01*
X32223034Y-68819997D01*
X32223034Y-68820002D01*
X32242858Y-69046599D01*
X32242860Y-69046610D01*
X32301730Y-69266317D01*
X32301735Y-69266331D01*
X32397863Y-69472478D01*
X32448974Y-69545472D01*
X33128000Y-68866446D01*
X33128000Y-68872661D01*
X33155259Y-68974394D01*
X33207920Y-69065606D01*
X33282394Y-69140080D01*
X33373606Y-69192741D01*
X33475339Y-69220000D01*
X33481553Y-69220000D01*
X32802526Y-69899025D01*
X32875513Y-69950132D01*
X32875521Y-69950136D01*
X33081668Y-70046264D01*
X33081682Y-70046269D01*
X33301389Y-70105139D01*
X33301400Y-70105141D01*
X33527998Y-70124966D01*
X33528002Y-70124966D01*
X33754599Y-70105141D01*
X33754610Y-70105139D01*
X33974317Y-70046269D01*
X33974331Y-70046264D01*
X34180478Y-69950136D01*
X34253471Y-69899024D01*
X33574447Y-69220000D01*
X33580661Y-69220000D01*
X33682394Y-69192741D01*
X33773606Y-69140080D01*
X33848080Y-69065606D01*
X33900741Y-68974394D01*
X33928000Y-68872661D01*
X33928000Y-68866447D01*
X34607024Y-69545471D01*
X34658136Y-69472478D01*
X34754264Y-69266331D01*
X34754269Y-69266317D01*
X34813139Y-69046610D01*
X34813141Y-69046599D01*
X34832966Y-68820002D01*
X34832966Y-68819997D01*
X34813141Y-68593400D01*
X34813139Y-68593389D01*
X34754269Y-68373682D01*
X34754264Y-68373668D01*
X34658136Y-68167521D01*
X34658132Y-68167513D01*
X34607025Y-68094526D01*
X33928000Y-68773551D01*
X33928000Y-68767339D01*
X33900741Y-68665606D01*
X33848080Y-68574394D01*
X33773606Y-68499920D01*
X33682394Y-68447259D01*
X33580661Y-68420000D01*
X33574448Y-68420000D01*
X34253472Y-67740974D01*
X34180478Y-67689863D01*
X33974331Y-67593735D01*
X33974317Y-67593730D01*
X33754610Y-67534860D01*
X33754599Y-67534858D01*
X33528002Y-67515034D01*
X33527998Y-67515034D01*
X33301400Y-67534858D01*
X33301389Y-67534860D01*
X33081682Y-67593730D01*
X33081673Y-67593734D01*
X32875516Y-67689866D01*
X32875512Y-67689868D01*
X32802526Y-67740973D01*
X32802526Y-67740974D01*
X33481553Y-68420000D01*
X33475339Y-68420000D01*
X33373606Y-68447259D01*
X33282394Y-68499920D01*
X33207920Y-68574394D01*
X33155259Y-68665606D01*
X33128000Y-68767339D01*
X33128000Y-68773552D01*
X32448974Y-68094526D01*
X32448973Y-68094526D01*
X32397868Y-68167512D01*
X32397866Y-68167516D01*
X32301734Y-68373673D01*
X32301730Y-68373682D01*
X32242860Y-68593389D01*
X32242858Y-68593400D01*
X32223034Y-68819997D01*
X28277065Y-68819997D01*
X28277065Y-57192151D01*
X28296750Y-57125112D01*
X28349554Y-57079357D01*
X28390256Y-57068623D01*
X28429883Y-57065157D01*
X28859902Y-56989333D01*
X29281677Y-56876319D01*
X29691997Y-56726975D01*
X30087739Y-56542437D01*
X30465891Y-56324111D01*
X30823577Y-56073657D01*
X31158072Y-55792982D01*
X31466833Y-55484221D01*
X31747508Y-55149726D01*
X31997962Y-54792040D01*
X32216288Y-54413888D01*
X32400826Y-54018146D01*
X32550170Y-53607826D01*
X32663184Y-53186051D01*
X32739008Y-52756032D01*
X32777065Y-52321041D01*
X32777065Y-51884387D01*
X32739008Y-51449396D01*
X32663184Y-51019377D01*
X32550170Y-50597602D01*
X32400826Y-50187282D01*
X32216288Y-49791540D01*
X31997962Y-49413388D01*
X31997954Y-49413376D01*
X31997950Y-49413370D01*
X31747507Y-49055700D01*
X31583534Y-48860286D01*
X31466833Y-48721207D01*
X31158072Y-48412446D01*
X30994776Y-48275424D01*
X30823578Y-48131771D01*
X30465908Y-47881328D01*
X30465897Y-47881321D01*
X30465891Y-47881317D01*
X30317944Y-47795900D01*
X30087745Y-47662994D01*
X30087729Y-47662986D01*
X29692014Y-47478460D01*
X29691999Y-47478454D01*
X29691997Y-47478453D01*
X29537866Y-47422354D01*
X29281670Y-47329106D01*
X28859909Y-47216097D01*
X28859912Y-47216097D01*
X28859902Y-47216095D01*
X28859896Y-47216093D01*
X28859892Y-47216093D01*
X28429888Y-47140271D01*
X28390257Y-47136804D01*
X28325188Y-47111351D01*
X28284210Y-47054760D01*
X28277065Y-47013276D01*
X28277065Y-33782000D01*
X29690778Y-33782000D01*
X29709644Y-34069837D01*
X29709646Y-34069849D01*
X29765917Y-34352745D01*
X29765921Y-34352760D01*
X29858642Y-34625905D01*
X29986219Y-34884606D01*
X29986223Y-34884613D01*
X30146478Y-35124452D01*
X30336672Y-35341327D01*
X30553546Y-35531520D01*
X30793389Y-35691778D01*
X31052098Y-35819359D01*
X31325247Y-35912081D01*
X31608161Y-35968356D01*
X31896000Y-35987222D01*
X32183839Y-35968356D01*
X32466753Y-35912081D01*
X32739902Y-35819359D01*
X32998611Y-35691778D01*
X33238454Y-35531520D01*
X33455327Y-35341327D01*
X33645520Y-35124454D01*
X33805778Y-34884611D01*
X33933359Y-34625902D01*
X34026081Y-34352753D01*
X34082356Y-34069839D01*
X34101222Y-33782000D01*
X34082356Y-33494161D01*
X34036226Y-33262247D01*
X37855500Y-33262247D01*
X37855500Y-34901752D01*
X37867131Y-34960229D01*
X37867132Y-34960230D01*
X37911447Y-35026552D01*
X37977769Y-35070867D01*
X37977770Y-35070868D01*
X38036247Y-35082499D01*
X38036250Y-35082500D01*
X38036252Y-35082500D01*
X39675750Y-35082500D01*
X39675751Y-35082499D01*
X39690568Y-35079552D01*
X39734229Y-35070868D01*
X39734229Y-35070867D01*
X39734231Y-35070867D01*
X39800552Y-35026552D01*
X39844867Y-34960231D01*
X39844867Y-34960229D01*
X39844868Y-34960229D01*
X39856499Y-34901752D01*
X39856500Y-34901750D01*
X39856500Y-34082000D01*
X40620659Y-34082000D01*
X40639975Y-34278129D01*
X40639976Y-34278132D01*
X40687729Y-34435553D01*
X40697188Y-34466733D01*
X40790086Y-34640532D01*
X40790090Y-34640539D01*
X40915116Y-34792883D01*
X41067460Y-34917909D01*
X41067467Y-34917913D01*
X41241266Y-35010811D01*
X41241269Y-35010811D01*
X41241273Y-35010814D01*
X41429868Y-35068024D01*
X41626000Y-35087341D01*
X41822132Y-35068024D01*
X42010727Y-35010814D01*
X42184538Y-34917910D01*
X42336883Y-34792883D01*
X42461910Y-34640538D01*
X42521893Y-34528317D01*
X42554811Y-34466733D01*
X42554811Y-34466732D01*
X42554814Y-34466727D01*
X42612024Y-34278132D01*
X42631341Y-34082000D01*
X42612024Y-33885868D01*
X42554814Y-33697273D01*
X42554811Y-33697269D01*
X42554811Y-33697266D01*
X42461913Y-33523467D01*
X42461909Y-33523460D01*
X42336883Y-33371116D01*
X42184539Y-33246090D01*
X42184532Y-33246086D01*
X42010733Y-33153188D01*
X42010727Y-33153186D01*
X41884997Y-33115046D01*
X41822129Y-33095975D01*
X41626000Y-33076659D01*
X41429870Y-33095975D01*
X41241266Y-33153188D01*
X41067467Y-33246086D01*
X41067460Y-33246090D01*
X40915116Y-33371116D01*
X40790090Y-33523460D01*
X40790086Y-33523467D01*
X40697188Y-33697266D01*
X40639975Y-33885870D01*
X40620659Y-34082000D01*
X39856500Y-34082000D01*
X39856500Y-33262249D01*
X39856499Y-33262247D01*
X39844868Y-33203770D01*
X39844867Y-33203769D01*
X39800552Y-33137447D01*
X39734230Y-33093132D01*
X39734229Y-33093131D01*
X39675752Y-33081500D01*
X39675748Y-33081500D01*
X38036252Y-33081500D01*
X38036247Y-33081500D01*
X37977770Y-33093131D01*
X37977769Y-33093132D01*
X37911447Y-33137447D01*
X37867132Y-33203769D01*
X37867131Y-33203770D01*
X37855500Y-33262247D01*
X34036226Y-33262247D01*
X34026081Y-33211247D01*
X33933359Y-32938098D01*
X33805778Y-32679389D01*
X33645520Y-32439546D01*
X33455327Y-32222672D01*
X33238452Y-32032478D01*
X32998613Y-31872223D01*
X32998606Y-31872219D01*
X32739905Y-31744642D01*
X32466760Y-31651921D01*
X32466754Y-31651919D01*
X32466753Y-31651919D01*
X32466751Y-31651918D01*
X32466745Y-31651917D01*
X32183849Y-31595646D01*
X32183839Y-31595644D01*
X31896000Y-31576778D01*
X31608161Y-31595644D01*
X31608155Y-31595645D01*
X31608150Y-31595646D01*
X31325254Y-31651917D01*
X31325239Y-31651921D01*
X31052094Y-31744642D01*
X30793393Y-31872219D01*
X30793386Y-31872223D01*
X30553547Y-32032478D01*
X30336672Y-32222672D01*
X30146478Y-32439547D01*
X29986223Y-32679386D01*
X29986219Y-32679393D01*
X29858642Y-32938094D01*
X29765921Y-33211239D01*
X29765917Y-33211254D01*
X29709646Y-33494150D01*
X29709644Y-33494161D01*
X29707723Y-33523467D01*
X29690778Y-33782000D01*
X28277065Y-33782000D01*
X28277065Y-31242000D01*
X39235659Y-31242000D01*
X39254975Y-31438129D01*
X39254976Y-31438132D01*
X39310488Y-31621131D01*
X39312188Y-31626733D01*
X39405086Y-31800532D01*
X39405090Y-31800539D01*
X39530116Y-31952883D01*
X39682460Y-32077909D01*
X39682467Y-32077913D01*
X39856266Y-32170811D01*
X39856269Y-32170811D01*
X39856273Y-32170814D01*
X40044868Y-32228024D01*
X40241000Y-32247341D01*
X40437132Y-32228024D01*
X40625727Y-32170814D01*
X40799538Y-32077910D01*
X40951883Y-31952883D01*
X41076910Y-31800538D01*
X41169814Y-31626727D01*
X41227024Y-31438132D01*
X41246341Y-31242000D01*
X42005659Y-31242000D01*
X42024975Y-31438129D01*
X42024976Y-31438132D01*
X42080488Y-31621131D01*
X42082188Y-31626733D01*
X42175086Y-31800532D01*
X42175090Y-31800539D01*
X42300116Y-31952883D01*
X42452460Y-32077909D01*
X42452467Y-32077913D01*
X42626266Y-32170811D01*
X42626269Y-32170811D01*
X42626273Y-32170814D01*
X42814868Y-32228024D01*
X43011000Y-32247341D01*
X43207132Y-32228024D01*
X43395727Y-32170814D01*
X43569538Y-32077910D01*
X43721883Y-31952883D01*
X43846910Y-31800538D01*
X43939814Y-31626727D01*
X43997024Y-31438132D01*
X44016341Y-31242000D01*
X44775659Y-31242000D01*
X44794975Y-31438129D01*
X44794976Y-31438132D01*
X44850488Y-31621131D01*
X44852188Y-31626733D01*
X44945086Y-31800532D01*
X44945090Y-31800539D01*
X45070116Y-31952883D01*
X45222460Y-32077909D01*
X45222467Y-32077913D01*
X45396266Y-32170811D01*
X45396269Y-32170811D01*
X45396273Y-32170814D01*
X45584868Y-32228024D01*
X45781000Y-32247341D01*
X45977132Y-32228024D01*
X46165727Y-32170814D01*
X46339538Y-32077910D01*
X46491883Y-31952883D01*
X46616910Y-31800538D01*
X46709814Y-31626727D01*
X46709815Y-31626723D01*
X46712144Y-31621103D01*
X46714260Y-31621979D01*
X46746945Y-31572083D01*
X46810751Y-31543613D01*
X46827328Y-31542500D01*
X47504672Y-31542500D01*
X47571711Y-31562185D01*
X47617466Y-31614989D01*
X47619787Y-31621131D01*
X47619856Y-31621103D01*
X47622185Y-31626726D01*
X47715086Y-31800532D01*
X47715090Y-31800539D01*
X47840116Y-31952883D01*
X47992460Y-32077909D01*
X47992467Y-32077913D01*
X48166266Y-32170811D01*
X48166269Y-32170811D01*
X48166273Y-32170814D01*
X48354868Y-32228024D01*
X48551000Y-32247341D01*
X48747132Y-32228024D01*
X48935727Y-32170814D01*
X49109538Y-32077910D01*
X49261883Y-31952883D01*
X49386910Y-31800538D01*
X49479814Y-31626727D01*
X49537024Y-31438132D01*
X49556341Y-31242000D01*
X49537024Y-31045868D01*
X49479814Y-30857273D01*
X49479811Y-30857269D01*
X49479811Y-30857266D01*
X49386913Y-30683467D01*
X49386909Y-30683460D01*
X49261883Y-30531116D01*
X49109539Y-30406090D01*
X49109532Y-30406086D01*
X48935733Y-30313188D01*
X48935727Y-30313186D01*
X48747132Y-30255976D01*
X48747129Y-30255975D01*
X48551000Y-30236659D01*
X48354870Y-30255975D01*
X48166266Y-30313188D01*
X47992467Y-30406086D01*
X47992460Y-30406090D01*
X47840116Y-30531116D01*
X47715090Y-30683460D01*
X47715086Y-30683467D01*
X47622185Y-30857273D01*
X47619856Y-30862897D01*
X47617739Y-30862020D01*
X47585055Y-30911917D01*
X47521249Y-30940387D01*
X47504672Y-30941500D01*
X46827328Y-30941500D01*
X46760289Y-30921815D01*
X46714534Y-30869011D01*
X46712212Y-30862868D01*
X46712144Y-30862897D01*
X46709814Y-30857273D01*
X46616913Y-30683467D01*
X46616909Y-30683460D01*
X46491883Y-30531116D01*
X46339539Y-30406090D01*
X46339532Y-30406086D01*
X46165733Y-30313188D01*
X46165727Y-30313186D01*
X45977132Y-30255976D01*
X45977129Y-30255975D01*
X45781000Y-30236659D01*
X45584870Y-30255975D01*
X45396266Y-30313188D01*
X45222467Y-30406086D01*
X45222460Y-30406090D01*
X45070116Y-30531116D01*
X44945090Y-30683460D01*
X44945086Y-30683467D01*
X44852188Y-30857266D01*
X44794975Y-31045870D01*
X44775659Y-31242000D01*
X44016341Y-31242000D01*
X43997024Y-31045868D01*
X43939814Y-30857273D01*
X43939811Y-30857269D01*
X43939811Y-30857266D01*
X43846913Y-30683467D01*
X43846909Y-30683460D01*
X43721883Y-30531116D01*
X43569539Y-30406090D01*
X43569532Y-30406086D01*
X43395733Y-30313188D01*
X43395727Y-30313186D01*
X43207132Y-30255976D01*
X43207129Y-30255975D01*
X43011000Y-30236659D01*
X42814870Y-30255975D01*
X42626266Y-30313188D01*
X42452467Y-30406086D01*
X42452460Y-30406090D01*
X42300116Y-30531116D01*
X42175090Y-30683460D01*
X42175086Y-30683467D01*
X42082188Y-30857266D01*
X42024975Y-31045870D01*
X42005659Y-31242000D01*
X41246341Y-31242000D01*
X41227024Y-31045868D01*
X41169814Y-30857273D01*
X41169811Y-30857269D01*
X41169811Y-30857266D01*
X41076913Y-30683467D01*
X41076909Y-30683460D01*
X40951883Y-30531116D01*
X40799539Y-30406090D01*
X40799532Y-30406086D01*
X40625733Y-30313188D01*
X40625727Y-30313186D01*
X40437132Y-30255976D01*
X40437129Y-30255975D01*
X40241000Y-30236659D01*
X40044870Y-30255975D01*
X39856266Y-30313188D01*
X39682467Y-30406086D01*
X39682460Y-30406090D01*
X39530116Y-30531116D01*
X39405090Y-30683460D01*
X39405086Y-30683467D01*
X39312188Y-30857266D01*
X39254975Y-31045870D01*
X39235659Y-31242000D01*
X28277065Y-31242000D01*
X28277065Y-29086999D01*
X98924127Y-29086999D01*
X98924128Y-29087000D01*
X99887314Y-29087000D01*
X99882920Y-29091394D01*
X99830259Y-29182606D01*
X99803000Y-29284339D01*
X99803000Y-29389661D01*
X99830259Y-29491394D01*
X99882920Y-29582606D01*
X99887314Y-29587000D01*
X98924128Y-29587000D01*
X98976730Y-29783317D01*
X98976734Y-29783326D01*
X99072865Y-29989482D01*
X99203342Y-30175820D01*
X99364179Y-30336657D01*
X99550517Y-30467134D01*
X99756673Y-30563265D01*
X99756682Y-30563269D01*
X99952999Y-30615872D01*
X99953000Y-30615871D01*
X99953000Y-29652686D01*
X99957394Y-29657080D01*
X100048606Y-29709741D01*
X100150339Y-29737000D01*
X100255661Y-29737000D01*
X100357394Y-29709741D01*
X100448606Y-29657080D01*
X100453000Y-29652686D01*
X100453000Y-30615872D01*
X100649317Y-30563269D01*
X100649326Y-30563265D01*
X100855482Y-30467134D01*
X101041820Y-30336657D01*
X101202657Y-30175820D01*
X101333134Y-29989481D01*
X101333135Y-29989479D01*
X101360618Y-29930543D01*
X101406790Y-29878103D01*
X101473983Y-29858951D01*
X101540864Y-29879166D01*
X101585382Y-29930543D01*
X101612864Y-29989479D01*
X101612865Y-29989481D01*
X101743342Y-30175820D01*
X101904179Y-30336657D01*
X102090517Y-30467134D01*
X102296673Y-30563265D01*
X102296682Y-30563269D01*
X102492999Y-30615872D01*
X102493000Y-30615871D01*
X102493000Y-29652686D01*
X102497394Y-29657080D01*
X102588606Y-29709741D01*
X102690339Y-29737000D01*
X102795661Y-29737000D01*
X102897394Y-29709741D01*
X102988606Y-29657080D01*
X102993000Y-29652686D01*
X102993000Y-30615872D01*
X103189317Y-30563269D01*
X103189326Y-30563265D01*
X103395482Y-30467134D01*
X103581820Y-30336657D01*
X103742657Y-30175820D01*
X103873134Y-29989482D01*
X103969265Y-29783326D01*
X103969269Y-29783317D01*
X104021872Y-29587000D01*
X103058686Y-29587000D01*
X103063080Y-29582606D01*
X103115741Y-29491394D01*
X103143000Y-29389661D01*
X103143000Y-29284339D01*
X103115741Y-29182606D01*
X103063080Y-29091394D01*
X103058686Y-29087000D01*
X104021872Y-29087000D01*
X104021872Y-29086999D01*
X103969269Y-28890682D01*
X103969265Y-28890673D01*
X103873134Y-28684517D01*
X103742657Y-28498179D01*
X103581820Y-28337342D01*
X103395482Y-28206865D01*
X103189328Y-28110734D01*
X102993000Y-28058127D01*
X102993000Y-29021314D01*
X102988606Y-29016920D01*
X102897394Y-28964259D01*
X102795661Y-28937000D01*
X102690339Y-28937000D01*
X102588606Y-28964259D01*
X102497394Y-29016920D01*
X102493000Y-29021314D01*
X102493000Y-28058127D01*
X102296671Y-28110734D01*
X102090517Y-28206865D01*
X101904179Y-28337342D01*
X101743342Y-28498179D01*
X101612865Y-28684517D01*
X101585382Y-28743457D01*
X101539210Y-28795896D01*
X101472016Y-28815048D01*
X101405135Y-28794832D01*
X101360618Y-28743457D01*
X101333134Y-28684517D01*
X101202657Y-28498179D01*
X101041820Y-28337342D01*
X100855482Y-28206865D01*
X100649328Y-28110734D01*
X100453000Y-28058127D01*
X100453000Y-29021314D01*
X100448606Y-29016920D01*
X100357394Y-28964259D01*
X100255661Y-28937000D01*
X100150339Y-28937000D01*
X100048606Y-28964259D01*
X99957394Y-29016920D01*
X99953000Y-29021314D01*
X99953000Y-28058127D01*
X99756671Y-28110734D01*
X99550517Y-28206865D01*
X99364179Y-28337342D01*
X99203342Y-28498179D01*
X99072865Y-28684517D01*
X98976734Y-28890673D01*
X98976730Y-28890682D01*
X98924127Y-29086999D01*
X28277065Y-29086999D01*
X28277065Y-26727214D01*
X28296750Y-26660175D01*
X28349554Y-26614420D01*
X28401065Y-26603214D01*
X67710673Y-26603214D01*
X107152065Y-26603214D01*
X107219104Y-26622899D01*
G37*
%TD.AperFunction*%
%TA.AperFunction,Conductor*%
G36*
X46032299Y-87298585D02*
G01*
X46078054Y-87351389D01*
X46087998Y-87420547D01*
X46058973Y-87484103D01*
X46052941Y-87490581D01*
X45990342Y-87553179D01*
X45859865Y-87739517D01*
X45763734Y-87945673D01*
X45763730Y-87945682D01*
X45711127Y-88141999D01*
X45711128Y-88142000D01*
X46674314Y-88142000D01*
X46669920Y-88146394D01*
X46617259Y-88237606D01*
X46590000Y-88339339D01*
X46590000Y-88444661D01*
X46617259Y-88546394D01*
X46669920Y-88637606D01*
X46674314Y-88642000D01*
X45711128Y-88642000D01*
X45763730Y-88838317D01*
X45763734Y-88838326D01*
X45846256Y-89015295D01*
X45856748Y-89084373D01*
X45828228Y-89148157D01*
X45769752Y-89186396D01*
X45733874Y-89191700D01*
X44540133Y-89191700D01*
X44473094Y-89172015D01*
X44452452Y-89155381D01*
X43448610Y-88151539D01*
X43448301Y-88151361D01*
X43448306Y-88151351D01*
X43448265Y-88151340D01*
X43408989Y-88128664D01*
X43380090Y-88111979D01*
X43354613Y-88105152D01*
X43303662Y-88091500D01*
X43303660Y-88091500D01*
X43210328Y-88091500D01*
X43143289Y-88071815D01*
X43097534Y-88019011D01*
X43095212Y-88012868D01*
X43095144Y-88012897D01*
X43092814Y-88007273D01*
X42999913Y-87833467D01*
X42999909Y-87833460D01*
X42874883Y-87681116D01*
X42722539Y-87556090D01*
X42722532Y-87556085D01*
X42640536Y-87512258D01*
X42590691Y-87463296D01*
X42575231Y-87395158D01*
X42599063Y-87329478D01*
X42654620Y-87287110D01*
X42698989Y-87278900D01*
X45965260Y-87278900D01*
X46032299Y-87298585D01*
G37*
%TD.AperFunction*%
%TA.AperFunction,Conductor*%
G36*
X54142050Y-87298585D02*
G01*
X54187805Y-87351389D01*
X54197749Y-87420547D01*
X54168724Y-87484103D01*
X54133464Y-87512258D01*
X54051467Y-87556085D01*
X54051460Y-87556090D01*
X53899116Y-87681116D01*
X53774090Y-87833460D01*
X53774086Y-87833467D01*
X53681188Y-88007266D01*
X53623975Y-88195870D01*
X53604659Y-88392000D01*
X53623975Y-88588129D01*
X53623976Y-88588132D01*
X53680200Y-88773478D01*
X53681188Y-88776733D01*
X53774086Y-88950532D01*
X53774090Y-88950538D01*
X53805684Y-88989036D01*
X53832996Y-89053346D01*
X53821205Y-89122213D01*
X53774052Y-89173773D01*
X53709830Y-89191700D01*
X48246126Y-89191700D01*
X48179087Y-89172015D01*
X48133332Y-89119211D01*
X48123388Y-89050053D01*
X48133744Y-89015295D01*
X48216265Y-88838326D01*
X48216269Y-88838317D01*
X48268872Y-88642000D01*
X47305686Y-88642000D01*
X47310080Y-88637606D01*
X47362741Y-88546394D01*
X47390000Y-88444661D01*
X47390000Y-88339339D01*
X47362741Y-88237606D01*
X47310080Y-88146394D01*
X47305686Y-88142000D01*
X48268872Y-88142000D01*
X48268872Y-88141999D01*
X48216269Y-87945682D01*
X48216265Y-87945673D01*
X48120134Y-87739517D01*
X47989657Y-87553179D01*
X47927059Y-87490581D01*
X47893574Y-87429258D01*
X47898558Y-87359566D01*
X47940430Y-87303633D01*
X48005894Y-87279216D01*
X48014740Y-87278900D01*
X54075011Y-87278900D01*
X54142050Y-87298585D01*
G37*
%TD.AperFunction*%
%TA.AperFunction,Conductor*%
G36*
X53675499Y-84735385D02*
G01*
X53721254Y-84788189D01*
X53731198Y-84857347D01*
X53702173Y-84920903D01*
X53696141Y-84927381D01*
X53610342Y-85013179D01*
X53479865Y-85199517D01*
X53383734Y-85405673D01*
X53383730Y-85405682D01*
X53331127Y-85601999D01*
X53331128Y-85602000D01*
X54294314Y-85602000D01*
X54289920Y-85606394D01*
X54237259Y-85697606D01*
X54210000Y-85799339D01*
X54210000Y-85904661D01*
X54237259Y-86006394D01*
X54289920Y-86097606D01*
X54294314Y-86102000D01*
X53331128Y-86102000D01*
X53383730Y-86298317D01*
X53383734Y-86298326D01*
X53478473Y-86501495D01*
X53488965Y-86570573D01*
X53460445Y-86634357D01*
X53401969Y-86672596D01*
X53366091Y-86677900D01*
X47868668Y-86677900D01*
X47801629Y-86658215D01*
X47755874Y-86605411D01*
X47745930Y-86536253D01*
X47772815Y-86475235D01*
X47825909Y-86410539D01*
X47825913Y-86410532D01*
X47918811Y-86236733D01*
X47918811Y-86236732D01*
X47918814Y-86236727D01*
X47976024Y-86048132D01*
X47995341Y-85852000D01*
X47976024Y-85655868D01*
X47918814Y-85467273D01*
X47918811Y-85467269D01*
X47918811Y-85467266D01*
X47825913Y-85293467D01*
X47825909Y-85293460D01*
X47700883Y-85141116D01*
X47548539Y-85016090D01*
X47548532Y-85016086D01*
X47423131Y-84949058D01*
X47373287Y-84900096D01*
X47357826Y-84831958D01*
X47381657Y-84766279D01*
X47437215Y-84723910D01*
X47481584Y-84715700D01*
X53608460Y-84715700D01*
X53675499Y-84735385D01*
G37*
%TD.AperFunction*%
%TA.AperFunction,Conductor*%
G36*
X60677962Y-81858785D02*
G01*
X60723717Y-81911589D01*
X60733661Y-81980747D01*
X60718310Y-82025100D01*
X60630534Y-82177132D01*
X60630533Y-82177134D01*
X60571312Y-82359398D01*
X60571311Y-82359400D01*
X60551278Y-82550000D01*
X60571311Y-82740599D01*
X60571312Y-82740601D01*
X60630533Y-82922865D01*
X60630534Y-82922867D01*
X60716367Y-83071535D01*
X60726356Y-83088836D01*
X60820803Y-83193730D01*
X60851032Y-83256719D01*
X60842407Y-83326054D01*
X60797666Y-83379720D01*
X60731013Y-83400678D01*
X60728652Y-83400700D01*
X60272538Y-83400700D01*
X60196110Y-83421178D01*
X60127589Y-83460740D01*
X60127586Y-83460742D01*
X56946748Y-86641581D01*
X56885425Y-86675066D01*
X56859067Y-86677900D01*
X55853909Y-86677900D01*
X55786870Y-86658215D01*
X55741115Y-86605411D01*
X55731171Y-86536253D01*
X55741527Y-86501495D01*
X55836265Y-86298326D01*
X55836269Y-86298317D01*
X55888872Y-86102000D01*
X54925686Y-86102000D01*
X54930080Y-86097606D01*
X54982741Y-86006394D01*
X55010000Y-85904661D01*
X55010000Y-85799339D01*
X54982741Y-85697606D01*
X54930080Y-85606394D01*
X54925686Y-85602000D01*
X55888872Y-85602000D01*
X55888872Y-85601999D01*
X55836269Y-85405682D01*
X55836265Y-85405673D01*
X55740134Y-85199517D01*
X55609657Y-85013179D01*
X55448819Y-84852341D01*
X55385428Y-84807953D01*
X55341804Y-84753376D01*
X55334612Y-84683877D01*
X55366135Y-84621523D01*
X55368812Y-84618758D01*
X55387860Y-84599711D01*
X58112152Y-81875419D01*
X58173475Y-81841934D01*
X58199833Y-81839100D01*
X60610923Y-81839100D01*
X60677962Y-81858785D01*
G37*
%TD.AperFunction*%
%TA.AperFunction,Conductor*%
G36*
X54138309Y-79680585D02*
G01*
X54184064Y-79733389D01*
X54194008Y-79802547D01*
X54164983Y-79866103D01*
X54129723Y-79894258D01*
X54051467Y-79936086D01*
X54051460Y-79936090D01*
X53899116Y-80061116D01*
X53774090Y-80213460D01*
X53774086Y-80213467D01*
X53681188Y-80387266D01*
X53623975Y-80575870D01*
X53604659Y-80772000D01*
X53623975Y-80968129D01*
X53623976Y-80968132D01*
X53680200Y-81153478D01*
X53681188Y-81156733D01*
X53774086Y-81330532D01*
X53774090Y-81330539D01*
X53899116Y-81482883D01*
X54051460Y-81607909D01*
X54051467Y-81607913D01*
X54225266Y-81700811D01*
X54225269Y-81700811D01*
X54225273Y-81700814D01*
X54413868Y-81758024D01*
X54610000Y-81777341D01*
X54806132Y-81758024D01*
X54994727Y-81700814D01*
X55168538Y-81607910D01*
X55320883Y-81482883D01*
X55445910Y-81330538D01*
X55527812Y-81177310D01*
X55538811Y-81156733D01*
X55538811Y-81156732D01*
X55538814Y-81156727D01*
X55596024Y-80968132D01*
X55615341Y-80772000D01*
X55596024Y-80575868D01*
X55538814Y-80387273D01*
X55538811Y-80387269D01*
X55538811Y-80387266D01*
X55445913Y-80213467D01*
X55445909Y-80213460D01*
X55320883Y-80061116D01*
X55168539Y-79936090D01*
X55168532Y-79936086D01*
X55090277Y-79894258D01*
X55040433Y-79845296D01*
X55024972Y-79777159D01*
X55048803Y-79711479D01*
X55104361Y-79669110D01*
X55148730Y-79660900D01*
X57354467Y-79660900D01*
X57421506Y-79680585D01*
X57442148Y-79697219D01*
X58771348Y-81026419D01*
X58804833Y-81087742D01*
X58799849Y-81157434D01*
X58757977Y-81213367D01*
X58692513Y-81237784D01*
X58683667Y-81238100D01*
X57984438Y-81238100D01*
X57908010Y-81258578D01*
X57839489Y-81298140D01*
X57839486Y-81298142D01*
X55819581Y-83318046D01*
X55758258Y-83351531D01*
X55688566Y-83346547D01*
X55632633Y-83304675D01*
X55608497Y-83242520D01*
X55596024Y-83115868D01*
X55538814Y-82927273D01*
X55538811Y-82927269D01*
X55538811Y-82927266D01*
X55445913Y-82753467D01*
X55445909Y-82753460D01*
X55320883Y-82601116D01*
X55168539Y-82476090D01*
X55168532Y-82476086D01*
X54994733Y-82383188D01*
X54994727Y-82383186D01*
X54806132Y-82325976D01*
X54806129Y-82325975D01*
X54610000Y-82306659D01*
X54413870Y-82325975D01*
X54225266Y-82383188D01*
X54051467Y-82476086D01*
X54051460Y-82476090D01*
X53899116Y-82601116D01*
X53774090Y-82753460D01*
X53774088Y-82753464D01*
X53714354Y-82865217D01*
X53665391Y-82915061D01*
X53597253Y-82930521D01*
X53531574Y-82906689D01*
X53517315Y-82894444D01*
X52254510Y-81631639D01*
X52233960Y-81619775D01*
X52213409Y-81607910D01*
X52207613Y-81604563D01*
X52185990Y-81592079D01*
X52185991Y-81592079D01*
X52147775Y-81581839D01*
X52109562Y-81571600D01*
X52109560Y-81571600D01*
X48246173Y-81571600D01*
X48179134Y-81551915D01*
X48133379Y-81499111D01*
X48123435Y-81429953D01*
X48133791Y-81395195D01*
X48216265Y-81218326D01*
X48216269Y-81218317D01*
X48268872Y-81022000D01*
X47305686Y-81022000D01*
X47310080Y-81017606D01*
X47362741Y-80926394D01*
X47390000Y-80824661D01*
X47390000Y-80719339D01*
X47362741Y-80617606D01*
X47310080Y-80526394D01*
X47305686Y-80522000D01*
X48268872Y-80522000D01*
X48268872Y-80521999D01*
X48216269Y-80325682D01*
X48216265Y-80325673D01*
X48120134Y-80119517D01*
X47989657Y-79933179D01*
X47929059Y-79872581D01*
X47895574Y-79811258D01*
X47900558Y-79741566D01*
X47942430Y-79685633D01*
X48007894Y-79661216D01*
X48016740Y-79660900D01*
X54071270Y-79660900D01*
X54138309Y-79680585D01*
G37*
%TD.AperFunction*%
%TA.AperFunction,Conductor*%
G36*
X54287987Y-73731058D02*
G01*
X58211440Y-77654511D01*
X58267389Y-77710460D01*
X58267391Y-77710461D01*
X58267395Y-77710464D01*
X58335904Y-77750017D01*
X58335911Y-77750021D01*
X58412338Y-77770500D01*
X58491462Y-77770500D01*
X60517788Y-77770500D01*
X60584827Y-77790185D01*
X60626159Y-77837884D01*
X60627283Y-77837236D01*
X60663712Y-77900333D01*
X60726356Y-78008836D01*
X60854593Y-78151257D01*
X60937580Y-78211551D01*
X61009640Y-78263906D01*
X61056258Y-78284661D01*
X61184717Y-78341854D01*
X61372176Y-78381700D01*
X61563824Y-78381700D01*
X61751283Y-78341854D01*
X61926361Y-78263905D01*
X62081407Y-78151257D01*
X62209644Y-78008836D01*
X62272288Y-77900333D01*
X62288212Y-77872752D01*
X62338778Y-77824536D01*
X62407385Y-77811312D01*
X62472250Y-77837280D01*
X62493974Y-77859263D01*
X62497542Y-77863913D01*
X63629700Y-78996071D01*
X63663185Y-79057394D01*
X63658201Y-79127086D01*
X63616329Y-79183019D01*
X63592457Y-79197031D01*
X63549636Y-79216096D01*
X63394591Y-79328744D01*
X63266355Y-79471165D01*
X63170534Y-79637132D01*
X63170533Y-79637134D01*
X63111312Y-79819398D01*
X63111311Y-79819400D01*
X63091278Y-80010000D01*
X63111311Y-80200599D01*
X63111312Y-80200601D01*
X63170533Y-80382865D01*
X63170534Y-80382867D01*
X63266355Y-80548835D01*
X63276794Y-80560429D01*
X63307023Y-80623422D01*
X63298397Y-80692757D01*
X63253654Y-80746421D01*
X63187002Y-80767378D01*
X63184643Y-80767400D01*
X62291357Y-80767400D01*
X62224318Y-80747715D01*
X62178563Y-80694911D01*
X62168619Y-80625753D01*
X62197644Y-80562197D01*
X62199206Y-80560429D01*
X62202576Y-80556685D01*
X62209644Y-80548836D01*
X62305467Y-80382864D01*
X62364689Y-80200597D01*
X62384722Y-80010000D01*
X62364689Y-79819403D01*
X62305467Y-79637136D01*
X62209644Y-79471164D01*
X62081407Y-79328743D01*
X62001767Y-79270881D01*
X61926359Y-79216093D01*
X61768499Y-79145811D01*
X61751283Y-79138146D01*
X61751281Y-79138145D01*
X61751280Y-79138145D01*
X61563824Y-79098300D01*
X61372176Y-79098300D01*
X61184719Y-79138145D01*
X61009640Y-79216093D01*
X60854591Y-79328744D01*
X60726355Y-79471165D01*
X60630534Y-79637132D01*
X60630533Y-79637134D01*
X60571312Y-79819398D01*
X60571311Y-79819400D01*
X60551278Y-80010000D01*
X60571311Y-80200599D01*
X60571312Y-80200601D01*
X60630533Y-80382865D01*
X60630534Y-80382867D01*
X60726355Y-80548835D01*
X60736794Y-80560429D01*
X60767023Y-80623422D01*
X60758397Y-80692757D01*
X60713654Y-80746421D01*
X60647002Y-80767378D01*
X60644643Y-80767400D01*
X59413633Y-80767400D01*
X59346594Y-80747715D01*
X59325952Y-80731081D01*
X57714812Y-79119941D01*
X57714807Y-79119937D01*
X57691558Y-79106515D01*
X57677329Y-79098300D01*
X57677328Y-79098299D01*
X57646294Y-79080381D01*
X57646291Y-79080379D01*
X57608075Y-79070139D01*
X57569862Y-79059900D01*
X57569860Y-79059900D01*
X56034000Y-79059900D01*
X55966961Y-79040215D01*
X55921206Y-78987411D01*
X55910000Y-78935900D01*
X55910000Y-78482000D01*
X54925686Y-78482000D01*
X54930080Y-78477606D01*
X54982741Y-78386394D01*
X55010000Y-78284661D01*
X55010000Y-78179339D01*
X54982741Y-78077606D01*
X54930080Y-77986394D01*
X54925686Y-77982000D01*
X55910000Y-77982000D01*
X55910000Y-77384172D01*
X55909999Y-77384155D01*
X55903598Y-77324627D01*
X55903596Y-77324620D01*
X55853354Y-77189913D01*
X55853350Y-77189906D01*
X55767190Y-77074812D01*
X55767187Y-77074809D01*
X55652093Y-76988649D01*
X55652086Y-76988645D01*
X55517379Y-76938403D01*
X55517372Y-76938401D01*
X55457844Y-76932000D01*
X54860000Y-76932000D01*
X54860000Y-77916314D01*
X54855606Y-77911920D01*
X54764394Y-77859259D01*
X54662661Y-77832000D01*
X54557339Y-77832000D01*
X54455606Y-77859259D01*
X54364394Y-77911920D01*
X54360000Y-77916314D01*
X54360000Y-76932000D01*
X53762155Y-76932000D01*
X53702627Y-76938401D01*
X53702620Y-76938403D01*
X53567913Y-76988645D01*
X53567906Y-76988649D01*
X53452812Y-77074809D01*
X53452809Y-77074812D01*
X53366649Y-77189906D01*
X53366645Y-77189913D01*
X53316403Y-77324620D01*
X53316401Y-77324627D01*
X53310000Y-77384155D01*
X53310000Y-77982000D01*
X54294314Y-77982000D01*
X54289920Y-77986394D01*
X54237259Y-78077606D01*
X54210000Y-78179339D01*
X54210000Y-78284661D01*
X54237259Y-78386394D01*
X54289920Y-78477606D01*
X54294314Y-78482000D01*
X53310000Y-78482000D01*
X53310000Y-78935900D01*
X53290315Y-79002939D01*
X53237511Y-79048694D01*
X53186000Y-79059900D01*
X48232976Y-79059900D01*
X48165937Y-79040215D01*
X48120182Y-78987411D01*
X48110238Y-78918253D01*
X48120594Y-78883495D01*
X48216265Y-78678326D01*
X48216269Y-78678317D01*
X48268872Y-78482000D01*
X47305686Y-78482000D01*
X47310080Y-78477606D01*
X47362741Y-78386394D01*
X47390000Y-78284661D01*
X47390000Y-78179339D01*
X47362741Y-78077606D01*
X47310080Y-77986394D01*
X47305686Y-77982000D01*
X48268872Y-77982000D01*
X48268872Y-77981999D01*
X48216269Y-77785682D01*
X48216265Y-77785673D01*
X48120134Y-77579517D01*
X47989657Y-77393179D01*
X47828820Y-77232342D01*
X47642482Y-77101865D01*
X47436328Y-77005734D01*
X47240000Y-76953127D01*
X47240000Y-77916314D01*
X47235606Y-77911920D01*
X47144394Y-77859259D01*
X47042661Y-77832000D01*
X46937339Y-77832000D01*
X46835606Y-77859259D01*
X46744394Y-77911920D01*
X46740000Y-77916314D01*
X46740000Y-76953127D01*
X46543671Y-77005734D01*
X46337517Y-77101865D01*
X46151179Y-77232342D01*
X45990342Y-77393179D01*
X45859865Y-77579517D01*
X45763734Y-77785673D01*
X45763730Y-77785682D01*
X45711127Y-77981999D01*
X45711128Y-77982000D01*
X46674314Y-77982000D01*
X46669920Y-77986394D01*
X46617259Y-78077606D01*
X46590000Y-78179339D01*
X46590000Y-78284661D01*
X46617259Y-78386394D01*
X46669920Y-78477606D01*
X46674314Y-78482000D01*
X45711128Y-78482000D01*
X45763730Y-78678317D01*
X45763734Y-78678326D01*
X45859406Y-78883495D01*
X45869898Y-78952573D01*
X45841378Y-79016357D01*
X45782902Y-79054596D01*
X45747024Y-79059900D01*
X45524733Y-79059900D01*
X45457694Y-79040215D01*
X45437052Y-79023581D01*
X42485652Y-76072181D01*
X42452167Y-76010858D01*
X42457151Y-75941166D01*
X42499023Y-75885233D01*
X42564487Y-75860816D01*
X42573333Y-75860500D01*
X51654996Y-75860500D01*
X51749507Y-75841700D01*
X51790328Y-75833580D01*
X51904912Y-75786118D01*
X51917807Y-75780777D01*
X51917808Y-75780776D01*
X51917811Y-75780775D01*
X52032543Y-75704114D01*
X53038338Y-74698316D01*
X53099659Y-74664833D01*
X53113852Y-74662597D01*
X53282132Y-74646024D01*
X53470727Y-74588814D01*
X53476172Y-74585904D01*
X53604342Y-74517395D01*
X53644538Y-74495910D01*
X53796883Y-74370883D01*
X53921910Y-74218538D01*
X53984136Y-74102122D01*
X54014811Y-74044733D01*
X54014811Y-74044732D01*
X54014814Y-74044727D01*
X54072024Y-73856132D01*
X54076903Y-73806584D01*
X54103063Y-73741799D01*
X54160096Y-73701439D01*
X54229896Y-73698321D01*
X54287987Y-73731058D01*
G37*
%TD.AperFunction*%
%TA.AperFunction,Conductor*%
G36*
X47183039Y-79680585D02*
G01*
X47228794Y-79733389D01*
X47240000Y-79784900D01*
X47240000Y-80456314D01*
X47235606Y-80451920D01*
X47144394Y-80399259D01*
X47042661Y-80372000D01*
X46937339Y-80372000D01*
X46835606Y-80399259D01*
X46744394Y-80451920D01*
X46740000Y-80456314D01*
X46740000Y-79784900D01*
X46759685Y-79717861D01*
X46812489Y-79672106D01*
X46864000Y-79660900D01*
X47116000Y-79660900D01*
X47183039Y-79680585D01*
G37*
%TD.AperFunction*%
%TA.AperFunction,Conductor*%
G36*
X47240000Y-78935900D02*
G01*
X47220315Y-79002939D01*
X47167511Y-79048694D01*
X47116000Y-79059900D01*
X46864000Y-79059900D01*
X46796961Y-79040215D01*
X46751206Y-78987411D01*
X46740000Y-78935900D01*
X46740000Y-78547686D01*
X46744394Y-78552080D01*
X46835606Y-78604741D01*
X46937339Y-78632000D01*
X47042661Y-78632000D01*
X47144394Y-78604741D01*
X47235606Y-78552080D01*
X47240000Y-78547686D01*
X47240000Y-78935900D01*
G37*
%TD.AperFunction*%
%TA.AperFunction,Conductor*%
G36*
X48593806Y-68040885D02*
G01*
X48614448Y-68057519D01*
X53014941Y-72458012D01*
X53048426Y-72519335D01*
X53043442Y-72589027D01*
X53001570Y-72644960D01*
X52939414Y-72669096D01*
X52889870Y-72673975D01*
X52701266Y-72731188D01*
X52527467Y-72824086D01*
X52527460Y-72824090D01*
X52375116Y-72949116D01*
X52250090Y-73101460D01*
X52250086Y-73101467D01*
X52157188Y-73275266D01*
X52099975Y-73463870D01*
X52083403Y-73632134D01*
X52057242Y-73696921D01*
X52047681Y-73707661D01*
X51332162Y-74423181D01*
X51270839Y-74456666D01*
X51244481Y-74459500D01*
X49342220Y-74459500D01*
X49275181Y-74439815D01*
X49229426Y-74387011D01*
X49219482Y-74317853D01*
X49229838Y-74283096D01*
X49312264Y-74106331D01*
X49312269Y-74106317D01*
X49371139Y-73886610D01*
X49371141Y-73886599D01*
X49390966Y-73660002D01*
X49390966Y-73659997D01*
X49371141Y-73433400D01*
X49371139Y-73433389D01*
X49312269Y-73213682D01*
X49312264Y-73213668D01*
X49216136Y-73007521D01*
X49216132Y-73007513D01*
X49165025Y-72934526D01*
X48486000Y-73613551D01*
X48486000Y-73607339D01*
X48458741Y-73505606D01*
X48406080Y-73414394D01*
X48331606Y-73339920D01*
X48240394Y-73287259D01*
X48138661Y-73260000D01*
X48132448Y-73260000D01*
X48811472Y-72580974D01*
X48738478Y-72529863D01*
X48532331Y-72433735D01*
X48532317Y-72433730D01*
X48312610Y-72374860D01*
X48312599Y-72374858D01*
X48086002Y-72355034D01*
X48085998Y-72355034D01*
X47859400Y-72374858D01*
X47859389Y-72374860D01*
X47639682Y-72433730D01*
X47639673Y-72433734D01*
X47433516Y-72529866D01*
X47433512Y-72529868D01*
X47360526Y-72580973D01*
X47360526Y-72580974D01*
X48039553Y-73260000D01*
X48033339Y-73260000D01*
X47931606Y-73287259D01*
X47840394Y-73339920D01*
X47765920Y-73414394D01*
X47713259Y-73505606D01*
X47686000Y-73607339D01*
X47686000Y-73613552D01*
X47006974Y-72934526D01*
X47006973Y-72934526D01*
X46955868Y-73007512D01*
X46955866Y-73007516D01*
X46859734Y-73213673D01*
X46859730Y-73213682D01*
X46800860Y-73433389D01*
X46800858Y-73433400D01*
X46781034Y-73659997D01*
X46781034Y-73660002D01*
X46800858Y-73886599D01*
X46800860Y-73886610D01*
X46859730Y-74106317D01*
X46859735Y-74106331D01*
X46942162Y-74283096D01*
X46952654Y-74352173D01*
X46924134Y-74415957D01*
X46865657Y-74454196D01*
X46829780Y-74459500D01*
X44278200Y-74459500D01*
X44211161Y-74439815D01*
X44165406Y-74387011D01*
X44154200Y-74335500D01*
X44154200Y-72992233D01*
X44173885Y-72925194D01*
X44190519Y-72904552D01*
X45581536Y-71513535D01*
X46976460Y-70118611D01*
X47016022Y-70050088D01*
X47036500Y-69973662D01*
X47036500Y-69894538D01*
X47036500Y-69880328D01*
X47056185Y-69813289D01*
X47108989Y-69767534D01*
X47115131Y-69765212D01*
X47115103Y-69765144D01*
X47120723Y-69762815D01*
X47120727Y-69762814D01*
X47294538Y-69669910D01*
X47446883Y-69544883D01*
X47571910Y-69392538D01*
X47651970Y-69242756D01*
X47664811Y-69218733D01*
X47664811Y-69218732D01*
X47664814Y-69218727D01*
X47722024Y-69030132D01*
X47741341Y-68834000D01*
X47722024Y-68637868D01*
X47664814Y-68449273D01*
X47664811Y-68449269D01*
X47664811Y-68449266D01*
X47571913Y-68275467D01*
X47571911Y-68275465D01*
X47571910Y-68275462D01*
X47554750Y-68254552D01*
X47529566Y-68223865D01*
X47502253Y-68159555D01*
X47514044Y-68090687D01*
X47561196Y-68039127D01*
X47625419Y-68021200D01*
X48526767Y-68021200D01*
X48593806Y-68040885D01*
G37*
%TD.AperFunction*%
%TD*%
M02*
