M48
; DRILL file {KiCad 8.0.2} date 2025-01-31T19:47:30+0100
; FORMAT={-:-/ absolute / inch / decimal}
; #@! TF.CreationDate,2025-01-31T19:47:30+01:00
; #@! TF.GenerationSoftware,Kicad,Pcbnew,8.0.2
; #@! TF.FileFunction,Plated,1,2,PTH
FMAT,2
INCH
; #@! TA.AperFunction,Plated,PTH,ViaDrill
T1C0.0118
; #@! TA.AperFunction,Plated,PTH,ComponentDrill
T2C0.0315
; #@! TA.AperFunction,Plated,PTH,ComponentDrill
T3C0.0630
%
G90
G05
T1
X1.3813Y-2.8227
X1.4555Y-3.8453
X1.702Y-3.941
X1.806Y-4.0738
X1.809Y-4.03
X1.8899Y-4.1439
X1.9331Y-4.0686
X1.9422Y-3.9814
X1.9554Y-4.0464
X2.0588Y-4.1625
X2.1203Y-4.0905
X2.126Y-2.0332
X2.165Y-4.1944
X2.1692Y-4.2565
X2.2456Y-3.5738
X2.3557Y-3.4294
X2.3781Y-3.8993
X2.4218Y-3.8295
X2.4745Y-3.7853
X2.4766Y-3.8171
X2.5239Y-4.059
X2.5314Y-3.8309
X2.567Y-4.1615
X2.5889Y-3.8309
X2.6288Y-3.7049
X2.6447Y-3.7856
X2.6684Y-2.7035
X2.7217Y-4.0303
X2.7221Y-4.0888
X2.7376Y-3.6365
X2.7515Y-2.8637
X2.7536Y-4.0902
X2.7628Y-4.1431
X2.7809Y-4.0687
X2.8037Y-4.1867
X2.8671Y-2.7113
X2.8919Y-1.8939
X2.9296Y-2.6837
X2.9482Y-3.64
X2.9666Y-2.6458
X2.9935Y-4.2365
X3.0001Y-2.6198
X3.0037Y-2.7353
X3.0107Y-3.1329
X3.0132Y-4.0071
X3.0239Y-3.9746
X3.0806Y-4.1054
X3.087Y-2.5957
X3.1088Y-3.1068
X3.1734Y-2.9559
X3.1905Y-3.7864
X3.1914Y-3.5534
X3.2109Y-3.4685
X3.2241Y-2.5956
X3.3008Y-3.2845
X3.303Y-3.6743
X3.3294Y-4.0071
X3.3993Y-4.1044
X3.4435Y-2.7108
X3.4572Y-3.1068
X3.4898Y-3.7051
X3.5776Y-4.1864
X3.6019Y-3.8933
X3.6125Y-2.7384
X3.6178Y-3.7881
X3.6254Y-2.8559
X3.6261Y-4.2381
X3.6325Y-2.962
X3.6788Y-2.7242
X3.7156Y-2.9341
X3.718Y-2.9012
X3.7535Y-3.7727
X3.9898Y-3.2617
X4.0609Y-3.2316
T2
X1.2196Y-3.0296
X1.2196Y-3.1296
X1.2196Y-3.2296
X1.2196Y-3.3296
X1.2196Y-3.4296
X1.2196Y-3.5296
X1.2196Y-3.6296
X1.2196Y-3.7296
X1.3Y-2.5516
X1.3Y-2.7484
X1.476Y-3.93
X1.476Y-4.23
X1.51Y-2.49
X1.51Y-2.79
X1.5196Y-3.0296
X1.5196Y-3.1296
X1.5196Y-3.2296
X1.5196Y-3.3296
X1.5196Y-3.4296
X1.5196Y-3.5296
X1.5196Y-3.6296
X1.5196Y-3.7296
X1.52Y-1.97
X1.52Y-2.27
X1.61Y-2.49
X1.61Y-2.79
X1.62Y-1.97
X1.62Y-2.27
X1.6353Y-3.93
X1.6353Y-4.23
X1.69Y-3.03
X1.69Y-3.13
X1.69Y-3.23
X1.69Y-3.33
X1.69Y-3.43
X1.69Y-3.53
X1.69Y-3.63
X1.69Y-3.73
X1.71Y-2.49
X1.71Y-2.79
X1.72Y-1.97
X1.72Y-2.27
X1.7947Y-3.93
X1.7947Y-4.23
X1.81Y-2.49
X1.81Y-2.79
X1.82Y-1.97
X1.82Y-2.27
X1.91Y-2.49
X1.91Y-2.79
X1.92Y-1.97
X1.92Y-2.27
X1.954Y-3.93
X1.954Y-4.23
X1.99Y-3.03
X1.99Y-3.13
X1.99Y-3.23
X1.99Y-3.33
X1.99Y-3.43
X1.99Y-3.53
X1.99Y-3.63
X1.99Y-3.73
X2.01Y-2.49
X2.01Y-2.79
X2.02Y-1.97
X2.02Y-2.27
X2.11Y-2.49
X2.11Y-2.79
X2.1133Y-3.93
X2.1133Y-4.23
X2.12Y-1.97
X2.12Y-2.27
X2.15Y-3.0296
X2.15Y-3.1296
X2.15Y-3.2296
X2.15Y-3.3296
X2.15Y-3.4296
X2.15Y-3.5296
X2.15Y-3.6296
X2.15Y-3.7296
X2.2727Y-3.93
X2.2727Y-4.23
X2.32Y-2.49
X2.32Y-2.79
X2.37Y-1.95
X2.37Y-2.25
X2.42Y-2.49
X2.42Y-2.79
X2.432Y-3.93
X2.432Y-4.23
X2.45Y-3.0296
X2.45Y-3.1296
X2.45Y-3.2296
X2.45Y-3.3296
X2.45Y-3.4296
X2.45Y-3.5296
X2.45Y-3.6296
X2.45Y-3.7296
X2.52Y-2.49
X2.52Y-2.79
X2.5913Y-3.93
X2.5913Y-4.23
X2.62Y-2.49
X2.62Y-2.79
X2.66Y-3.19
X2.66Y-3.29
X2.66Y-3.39
X2.66Y-3.49
X2.66Y-3.59
X2.72Y-2.49
X2.72Y-2.79
X2.75Y-3.93
X2.75Y-4.23
X2.76Y-3.09
X2.76Y-3.19
X2.76Y-3.29
X2.76Y-3.39
X2.76Y-3.49
X2.76Y-3.59
X2.76Y-3.69
X2.82Y-2.49
X2.82Y-2.79
X2.86Y-3.09
X2.86Y-3.19
X2.86Y-3.59
X2.86Y-3.69
X2.91Y-3.93
X2.91Y-4.23
X2.92Y-2.49
X2.92Y-2.79
X2.96Y-3.09
X2.96Y-3.19
X2.96Y-3.59
X2.96Y-3.69
X2.97Y-1.95
X2.97Y-2.25
X3.02Y-2.49
X3.02Y-2.79
X3.06Y-3.09
X3.06Y-3.19
X3.06Y-3.29
X3.06Y-3.39
X3.06Y-3.49
X3.06Y-3.59
X3.06Y-3.69
X3.07Y-3.93
X3.07Y-4.23
X3.16Y-3.19
X3.16Y-3.29
X3.16Y-3.39
X3.16Y-3.49
X3.16Y-3.59
X3.2Y-1.97
X3.2Y-2.27
X3.2Y-2.49
X3.2Y-2.79
X3.23Y-3.93
X3.23Y-4.23
X3.3Y-1.97
X3.3Y-2.27
X3.3Y-2.49
X3.3Y-2.79
X3.38Y-3.93
X3.38Y-4.23
X3.4Y-1.97
X3.4Y-2.27
X3.4Y-2.49
X3.4Y-2.79
X3.45Y-3.19
X3.45Y-3.29
X3.45Y-3.39
X3.45Y-3.49
X3.45Y-3.59
X3.5Y-1.97
X3.5Y-2.27
X3.5Y-2.49
X3.5Y-2.79
X3.53Y-3.93
X3.53Y-4.23
X3.55Y-3.09
X3.55Y-3.19
X3.55Y-3.29
X3.55Y-3.39
X3.55Y-3.49
X3.55Y-3.59
X3.55Y-3.69
X3.6Y-1.97
X3.6Y-2.27
X3.6Y-2.49
X3.6Y-2.79
X3.65Y-3.09
X3.65Y-3.19
X3.65Y-3.59
X3.65Y-3.69
X3.69Y-3.93
X3.69Y-4.23
X3.7Y-1.97
X3.7Y-2.27
X3.7Y-2.49
X3.7Y-2.79
X3.75Y-3.09
X3.75Y-3.19
X3.75Y-3.59
X3.75Y-3.69
X3.8Y-1.97
X3.8Y-2.27
X3.8Y-2.49
X3.8Y-2.79
X3.825Y-1.0983
X3.825Y-1.3983
X3.85Y-3.09
X3.85Y-3.19
X3.85Y-3.29
X3.85Y-3.39
X3.85Y-3.49
X3.85Y-3.59
X3.85Y-3.69
X3.85Y-3.93
X3.85Y-4.23
X3.925Y-1.0983
X3.925Y-1.3983
X3.95Y-3.19
X3.95Y-3.29
X3.95Y-3.39
X3.95Y-3.49
X3.95Y-3.59
X3.98Y-2.5516
X3.98Y-2.7484
X4.025Y-1.0983
X4.025Y-1.3983
X4.125Y-1.0983
X4.125Y-1.3983
X4.16Y-2.61
X4.16Y-2.71
X4.16Y-2.81
X4.16Y-2.91
X4.16Y-3.01
X4.16Y-3.11
X4.16Y-3.21
X4.16Y-3.31
X4.16Y-3.41
T3
X1.502Y-1.525
X1.502Y-1.6628
X1.667Y-1.525
X1.667Y-1.6628
X1.832Y-1.525
X1.832Y-1.6628
X1.997Y-1.6628
X2.751Y-1.5272
X2.751Y-1.665
X2.916Y-1.5272
X2.916Y-1.665
X3.081Y-1.5272
X3.081Y-1.665
X3.2461Y-1.665
M30
