M48
; DRILL file {KiCad 8.0.2} date 2025-01-23T22:42:57+0100
; FORMAT={-:-/ absolute / inch / decimal}
; #@! TF.CreationDate,2025-01-23T22:42:57+01:00
; #@! TF.GenerationSoftware,Kicad,Pcbnew,8.0.2
; #@! TF.FileFunction,Plated,1,2,PTH
FMAT,2
INCH
; #@! TA.AperFunction,Plated,PTH,ViaDrill
T1C0.0118
; #@! TA.AperFunction,Plated,PTH,ComponentDrill
T2C0.0315
; #@! TA.AperFunction,Plated,PTH,ComponentDrill
T3C0.0394
; #@! TA.AperFunction,Plated,PTH,ComponentDrill
T4C0.1260
%
G90
G05
T1
X1.525Y-4.075
X1.9492Y-3.5525
X2.0762Y-4.2302
X2.2547Y-2.4585
X2.3198Y-4.0859
X2.5232Y-4.0514
X2.6516Y-4.0497
X2.6698Y-4.0777
X2.7478Y-2.7402
X2.7564Y-2.7739
X2.7616Y-4.2039
X2.7798Y-2.7166
X2.8915Y-2.7634
X2.8947Y-2.7319
X2.9086Y-4.2296
X2.9204Y-2.3369
X2.9441Y-4.2293
X3.0547Y-2.5576
X3.1081Y-1.9436
X3.3561Y-3.9539
X4.0Y-4.15
T2
X1.32Y-2.55
X1.32Y-2.7094
X1.34Y-2.37
X1.36Y-3.08
X1.36Y-3.18
X1.36Y-3.28
X1.36Y-3.38
X1.36Y-3.48
X1.36Y-3.58
X1.36Y-3.68
X1.4131Y-2.9
X1.44Y-2.37
X1.54Y-2.37
X1.61Y-2.9
X1.62Y-2.55
X1.62Y-2.7094
X1.64Y-2.37
X1.66Y-3.08
X1.66Y-3.18
X1.66Y-3.28
X1.66Y-3.38
X1.66Y-3.48
X1.66Y-3.58
X1.66Y-3.68
X1.74Y-2.37
X1.84Y-2.37
X1.84Y-2.55
X1.84Y-2.71
X1.85Y-3.08
X1.85Y-3.18
X1.85Y-3.28
X1.85Y-3.38
X1.85Y-3.48
X1.85Y-3.58
X1.85Y-3.68
X1.8931Y-2.9
X1.94Y-2.37
X2.04Y-2.37
X2.09Y-2.9
X2.14Y-2.37
X2.14Y-2.55
X2.14Y-2.71
X2.15Y-3.08
X2.15Y-3.18
X2.15Y-3.28
X2.15Y-3.38
X2.15Y-3.48
X2.15Y-3.58
X2.15Y-3.68
X2.4Y-3.74
X2.4Y-4.04
X2.42Y-2.95
X2.42Y-3.05
X2.42Y-3.15
X2.42Y-3.25
X2.42Y-3.35
X2.52Y-2.85
X2.52Y-2.95
X2.52Y-3.05
X2.52Y-3.15
X2.52Y-3.25
X2.52Y-3.35
X2.52Y-3.45
X2.5716Y-2.61
X2.6Y-3.74
X2.6Y-4.04
X2.62Y-2.85
X2.62Y-2.95
X2.62Y-3.35
X2.62Y-3.45
X2.72Y-2.85
X2.72Y-2.95
X2.72Y-3.35
X2.72Y-3.45
X2.7684Y-2.61
X2.8Y-3.74
X2.8Y-4.04
X2.82Y-2.85
X2.82Y-2.95
X2.82Y-3.05
X2.82Y-3.15
X2.82Y-3.25
X2.82Y-3.35
X2.82Y-3.45
X2.92Y-2.95
X2.92Y-3.05
X2.92Y-3.15
X2.92Y-3.25
X2.92Y-3.35
X3.0Y-3.74
X3.0Y-4.04
X3.2Y-3.74
X3.2Y-4.04
X3.22Y-2.65
X3.22Y-2.75
X3.22Y-2.85
X3.22Y-2.95
X3.22Y-3.05
X3.22Y-3.15
X3.22Y-3.25
X3.22Y-3.35
X3.272Y-2.4604
X3.4Y-3.74
X3.4Y-4.04
X3.4688Y-2.4604
X3.52Y-2.65
X3.52Y-2.75
X3.52Y-2.85
X3.52Y-2.95
X3.52Y-3.05
X3.52Y-3.15
X3.52Y-3.25
X3.52Y-3.35
X3.6Y-3.74
X3.6Y-4.04
X3.8Y-3.74
X3.8Y-4.04
X3.945Y-1.155
X3.945Y-1.455
X4.045Y-1.155
X4.045Y-1.455
T3
X1.5298Y-1.3418
X1.5843Y-1.23
X1.6388Y-1.3418
X1.6933Y-1.23
X1.7479Y-1.3418
X1.8024Y-1.23
X1.8569Y-1.3418
X1.9115Y-1.23
X1.966Y-1.3418
X2.89Y-1.3418
X2.9445Y-1.23
X2.9991Y-1.3418
X3.0536Y-1.23
X3.1081Y-1.3418
X3.1626Y-1.23
X3.2172Y-1.3418
X3.2717Y-1.23
X3.3262Y-1.3418
T4
X1.2557Y-1.33
X2.24Y-1.33
X2.616Y-1.33
X3.6002Y-1.33
M30
