%TF.GenerationSoftware,KiCad,Pcbnew,8.0.2*%
%TF.CreationDate,2025-01-23T22:42:54+01:00*%
%TF.ProjectId,p2000t-joystick-slot2-eeprom,70323030-3074-42d6-9a6f-79737469636b,rev?*%
%TF.SameCoordinates,Original*%
%TF.FileFunction,Paste,Top*%
%TF.FilePolarity,Positive*%
%FSLAX46Y46*%
G04 Gerber Fmt 4.6, Leading zero omitted, Abs format (unit mm)*
G04 Created by KiCad (PCBNEW 8.0.2) date 2025-01-23 22:42:54*
%MOMM*%
%LPD*%
G01*
G04 APERTURE LIST*
G04 Aperture macros list*
%AMRoundRect*
0 Rectangle with rounded corners*
0 $1 Rounding radius*
0 $2 $3 $4 $5 $6 $7 $8 $9 X,Y pos of 4 corners*
0 Add a 4 corners polygon primitive as box body*
4,1,4,$2,$3,$4,$5,$6,$7,$8,$9,$2,$3,0*
0 Add four circle primitives for the rounded corners*
1,1,$1+$1,$2,$3*
1,1,$1+$1,$4,$5*
1,1,$1+$1,$6,$7*
1,1,$1+$1,$8,$9*
0 Add four rect primitives between the rounded corners*
20,1,$1+$1,$2,$3,$4,$5,0*
20,1,$1+$1,$4,$5,$6,$7,0*
20,1,$1+$1,$6,$7,$8,$9,0*
20,1,$1+$1,$8,$9,$2,$3,0*%
G04 Aperture macros list end*
%ADD10RoundRect,0.250000X0.450000X-0.325000X0.450000X0.325000X-0.450000X0.325000X-0.450000X-0.325000X0*%
%ADD11RoundRect,0.250000X0.450000X-0.350000X0.450000X0.350000X-0.450000X0.350000X-0.450000X-0.350000X0*%
%ADD12RoundRect,0.250000X-0.450000X0.350000X-0.450000X-0.350000X0.450000X-0.350000X0.450000X0.350000X0*%
%ADD13R,2.000000X10.000000*%
G04 APERTURE END LIST*
D10*
%TO.C,D16*%
X78994000Y-43951000D03*
X78994000Y-41901000D03*
%TD*%
D11*
%TO.C,R11*%
X75438000Y-48228000D03*
X75438000Y-46228000D03*
%TD*%
D12*
%TO.C,R9*%
X52324000Y-46278000D03*
X52324000Y-48278000D03*
%TD*%
D10*
%TO.C,D18*%
X86106000Y-43942000D03*
X86106000Y-41892000D03*
%TD*%
%TO.C,D11*%
X44958000Y-43910000D03*
X44958000Y-41860000D03*
%TD*%
D12*
%TO.C,R14*%
X86106000Y-46260000D03*
X86106000Y-48260000D03*
%TD*%
%TO.C,R5*%
X37846000Y-46244000D03*
X37846000Y-48244000D03*
%TD*%
%TO.C,R10*%
X71882000Y-46260000D03*
X71882000Y-48260000D03*
%TD*%
D10*
%TO.C,D17*%
X82550000Y-43951000D03*
X82550000Y-41901000D03*
%TD*%
%TO.C,D10*%
X41402000Y-43910000D03*
X41402000Y-41860000D03*
%TD*%
D12*
%TO.C,R12*%
X78994000Y-46260000D03*
X78994000Y-48260000D03*
%TD*%
D10*
%TO.C,D13*%
X52324000Y-43942000D03*
X52324000Y-41892000D03*
%TD*%
%TO.C,D19*%
X61722000Y-45935000D03*
X61722000Y-43885000D03*
%TD*%
%TO.C,D15*%
X75438000Y-43951000D03*
X75438000Y-41901000D03*
%TD*%
D12*
%TO.C,R6*%
X41402000Y-46246000D03*
X41402000Y-48246000D03*
%TD*%
D10*
%TO.C,D14*%
X71882000Y-43960000D03*
X71882000Y-41910000D03*
%TD*%
D12*
%TO.C,R7*%
X44958000Y-46246000D03*
X44958000Y-48246000D03*
%TD*%
%TO.C,R8*%
X48768000Y-46246000D03*
X48768000Y-48246000D03*
%TD*%
D10*
%TO.C,D12*%
X48768000Y-43910000D03*
X48768000Y-41860000D03*
%TD*%
D12*
%TO.C,R15*%
X61722000Y-47752000D03*
X61722000Y-49752000D03*
%TD*%
%TO.C,R13*%
X82550000Y-46260000D03*
X82550000Y-48260000D03*
%TD*%
D10*
%TO.C,D9*%
X37846000Y-43910000D03*
X37846000Y-41860000D03*
%TD*%
D13*
%TO.C,J2*%
X39957000Y-120959000D03*
X43917000Y-120959000D03*
X47877000Y-120959000D03*
X51837000Y-120959000D03*
X55797000Y-120959000D03*
X59757000Y-120959000D03*
X63717000Y-120959000D03*
X67677000Y-120959000D03*
X71637000Y-120959000D03*
X75597000Y-120959000D03*
X79557000Y-120959000D03*
X83517000Y-120959000D03*
X91451400Y-120959000D03*
X95397000Y-120959000D03*
%TD*%
M02*
