%TF.GenerationSoftware,KiCad,Pcbnew,8.0.2*%
%TF.CreationDate,2025-01-23T22:42:54+01:00*%
%TF.ProjectId,p2000t-joystick-slot2-eeprom,70323030-3074-42d6-9a6f-79737469636b,rev?*%
%TF.SameCoordinates,Original*%
%TF.FileFunction,Legend,Bot*%
%TF.FilePolarity,Positive*%
%FSLAX46Y46*%
G04 Gerber Fmt 4.6, Leading zero omitted, Abs format (unit mm)*
G04 Created by KiCad (PCBNEW 8.0.2) date 2025-01-23 22:42:54*
%MOMM*%
%LPD*%
G01*
G04 APERTURE LIST*
%ADD10C,0.100000*%
%ADD11C,0.120000*%
%ADD12C,0.300000*%
%ADD13C,0.150000*%
%ADD14C,0.200000*%
G04 APERTURE END LIST*
D10*
X97790000Y-104140000D02*
X96690000Y-104140000D01*
X96290000Y-104140000D02*
X95190000Y-104140000D01*
X94790000Y-104140000D02*
X93690000Y-104140000D01*
X93290000Y-104140000D02*
X92190000Y-104140000D01*
X91790000Y-104140000D02*
X90690000Y-104140000D01*
X90290000Y-104140000D02*
X89190000Y-104140000D01*
X88790000Y-104140000D02*
X87690000Y-104140000D01*
X87290000Y-104140000D02*
X86190000Y-104140000D01*
X85790000Y-104140000D02*
X84690000Y-104140000D01*
X84290000Y-104140000D02*
X83190000Y-104140000D01*
X82790000Y-104140000D02*
X81690000Y-104140000D01*
X81290000Y-104140000D02*
X80190000Y-104140000D01*
X79790000Y-104140000D02*
X78690000Y-104140000D01*
X78290000Y-104140000D02*
X77190000Y-104140000D01*
X76790000Y-104140000D02*
X75690000Y-104140000D01*
X75290000Y-104140000D02*
X74190000Y-104140000D01*
X73790000Y-104140000D02*
X72690000Y-104140000D01*
X72290000Y-104140000D02*
X71190000Y-104140000D01*
X70790000Y-104140000D02*
X69690000Y-104140000D01*
X69290000Y-104140000D02*
X68190000Y-104140000D01*
X67790000Y-104140000D02*
X66690000Y-104140000D01*
X66290000Y-104140000D02*
X65190000Y-104140000D01*
X64790000Y-104140000D02*
X63690000Y-104140000D01*
X63290000Y-104140000D02*
X62190000Y-104140000D01*
X61790000Y-104140000D02*
X60690000Y-104140000D01*
X60290000Y-104140000D02*
X59690000Y-104140000D01*
X65405000Y-74168000D02*
X65532000Y-74168000D01*
X65532000Y-75692000D01*
X65405000Y-75692000D01*
X65405000Y-74168000D01*
G36*
X65405000Y-74168000D02*
G01*
X65532000Y-74168000D01*
X65532000Y-75692000D01*
X65405000Y-75692000D01*
X65405000Y-74168000D01*
G37*
X43561000Y-77470000D02*
X44196000Y-77470000D01*
X44196000Y-78994000D01*
X43561000Y-78994000D01*
X43561000Y-77470000D01*
G36*
X43561000Y-77470000D02*
G01*
X44196000Y-77470000D01*
X44196000Y-78994000D01*
X43561000Y-78994000D01*
X43561000Y-77470000D01*
G37*
D11*
X94126665Y-110335314D02*
X96539665Y-110335314D01*
X96539665Y-113891314D02*
X94126665Y-113891314D01*
X72831065Y-113834514D02*
X58731765Y-113834514D01*
D10*
X90678000Y-66548000D02*
X91313000Y-66548000D01*
X91313000Y-68072000D01*
X90678000Y-68072000D01*
X90678000Y-66548000D01*
G36*
X90678000Y-66548000D02*
G01*
X91313000Y-66548000D01*
X91313000Y-68072000D01*
X90678000Y-68072000D01*
X90678000Y-66548000D01*
G37*
X55880000Y-77470000D02*
X56515000Y-77470000D01*
X56515000Y-78994000D01*
X55880000Y-78994000D01*
X55880000Y-77470000D01*
G36*
X55880000Y-77470000D02*
G01*
X56515000Y-77470000D01*
X56515000Y-78994000D01*
X55880000Y-78994000D01*
X55880000Y-77470000D01*
G37*
D11*
X94126665Y-113891314D02*
X94126665Y-110335314D01*
X57017265Y-113821814D02*
X42920265Y-113821814D01*
X96539665Y-110335314D02*
X96539665Y-113891314D01*
D12*
X106182378Y-112267213D02*
X105468093Y-112267213D01*
X106325235Y-112695784D02*
X105825235Y-111195784D01*
X105825235Y-111195784D02*
X105325235Y-112695784D01*
X104825236Y-112124356D02*
X103682379Y-112124356D01*
X103039521Y-112624356D02*
X102825236Y-112695784D01*
X102825236Y-112695784D02*
X102468093Y-112695784D01*
X102468093Y-112695784D02*
X102325236Y-112624356D01*
X102325236Y-112624356D02*
X102253807Y-112552927D01*
X102253807Y-112552927D02*
X102182378Y-112410070D01*
X102182378Y-112410070D02*
X102182378Y-112267213D01*
X102182378Y-112267213D02*
X102253807Y-112124356D01*
X102253807Y-112124356D02*
X102325236Y-112052927D01*
X102325236Y-112052927D02*
X102468093Y-111981498D01*
X102468093Y-111981498D02*
X102753807Y-111910070D01*
X102753807Y-111910070D02*
X102896664Y-111838641D01*
X102896664Y-111838641D02*
X102968093Y-111767213D01*
X102968093Y-111767213D02*
X103039521Y-111624356D01*
X103039521Y-111624356D02*
X103039521Y-111481498D01*
X103039521Y-111481498D02*
X102968093Y-111338641D01*
X102968093Y-111338641D02*
X102896664Y-111267213D01*
X102896664Y-111267213D02*
X102753807Y-111195784D01*
X102753807Y-111195784D02*
X102396664Y-111195784D01*
X102396664Y-111195784D02*
X102182378Y-111267213D01*
X101539522Y-112695784D02*
X101539522Y-111195784D01*
X100825236Y-112695784D02*
X100825236Y-111195784D01*
X100825236Y-111195784D02*
X100468093Y-111195784D01*
X100468093Y-111195784D02*
X100253807Y-111267213D01*
X100253807Y-111267213D02*
X100110950Y-111410070D01*
X100110950Y-111410070D02*
X100039521Y-111552927D01*
X100039521Y-111552927D02*
X99968093Y-111838641D01*
X99968093Y-111838641D02*
X99968093Y-112052927D01*
X99968093Y-112052927D02*
X100039521Y-112338641D01*
X100039521Y-112338641D02*
X100110950Y-112481498D01*
X100110950Y-112481498D02*
X100253807Y-112624356D01*
X100253807Y-112624356D02*
X100468093Y-112695784D01*
X100468093Y-112695784D02*
X100825236Y-112695784D01*
X99325236Y-111910070D02*
X98825236Y-111910070D01*
X98610950Y-112695784D02*
X99325236Y-112695784D01*
X99325236Y-112695784D02*
X99325236Y-111195784D01*
X99325236Y-111195784D02*
X98610950Y-111195784D01*
X104432379Y-114324986D02*
X104218093Y-114396414D01*
X104218093Y-114396414D02*
X104146664Y-114467843D01*
X104146664Y-114467843D02*
X104075236Y-114610700D01*
X104075236Y-114610700D02*
X104075236Y-114824986D01*
X104075236Y-114824986D02*
X104146664Y-114967843D01*
X104146664Y-114967843D02*
X104218093Y-115039272D01*
X104218093Y-115039272D02*
X104360950Y-115110700D01*
X104360950Y-115110700D02*
X104932379Y-115110700D01*
X104932379Y-115110700D02*
X104932379Y-113610700D01*
X104932379Y-113610700D02*
X104432379Y-113610700D01*
X104432379Y-113610700D02*
X104289522Y-113682129D01*
X104289522Y-113682129D02*
X104218093Y-113753557D01*
X104218093Y-113753557D02*
X104146664Y-113896414D01*
X104146664Y-113896414D02*
X104146664Y-114039272D01*
X104146664Y-114039272D02*
X104218093Y-114182129D01*
X104218093Y-114182129D02*
X104289522Y-114253557D01*
X104289522Y-114253557D02*
X104432379Y-114324986D01*
X104432379Y-114324986D02*
X104932379Y-114324986D01*
X103503807Y-114682129D02*
X102789522Y-114682129D01*
X103646664Y-115110700D02*
X103146664Y-113610700D01*
X103146664Y-113610700D02*
X102646664Y-115110700D01*
X101289522Y-114967843D02*
X101360950Y-115039272D01*
X101360950Y-115039272D02*
X101575236Y-115110700D01*
X101575236Y-115110700D02*
X101718093Y-115110700D01*
X101718093Y-115110700D02*
X101932379Y-115039272D01*
X101932379Y-115039272D02*
X102075236Y-114896414D01*
X102075236Y-114896414D02*
X102146665Y-114753557D01*
X102146665Y-114753557D02*
X102218093Y-114467843D01*
X102218093Y-114467843D02*
X102218093Y-114253557D01*
X102218093Y-114253557D02*
X102146665Y-113967843D01*
X102146665Y-113967843D02*
X102075236Y-113824986D01*
X102075236Y-113824986D02*
X101932379Y-113682129D01*
X101932379Y-113682129D02*
X101718093Y-113610700D01*
X101718093Y-113610700D02*
X101575236Y-113610700D01*
X101575236Y-113610700D02*
X101360950Y-113682129D01*
X101360950Y-113682129D02*
X101289522Y-113753557D01*
X100646665Y-115110700D02*
X100646665Y-113610700D01*
X99789522Y-115110700D02*
X100432379Y-114253557D01*
X99789522Y-113610700D02*
X100646665Y-114467843D01*
D13*
X52199169Y-114752966D02*
X52199169Y-115419633D01*
X52437264Y-114372014D02*
X52675359Y-115086299D01*
X52675359Y-115086299D02*
X52056312Y-115086299D01*
X51246788Y-115419633D02*
X51246788Y-114895823D01*
X51246788Y-114895823D02*
X51294407Y-114800585D01*
X51294407Y-114800585D02*
X51389645Y-114752966D01*
X51389645Y-114752966D02*
X51580121Y-114752966D01*
X51580121Y-114752966D02*
X51675359Y-114800585D01*
X51246788Y-115372014D02*
X51342026Y-115419633D01*
X51342026Y-115419633D02*
X51580121Y-115419633D01*
X51580121Y-115419633D02*
X51675359Y-115372014D01*
X51675359Y-115372014D02*
X51722978Y-115276775D01*
X51722978Y-115276775D02*
X51722978Y-115181537D01*
X51722978Y-115181537D02*
X51675359Y-115086299D01*
X51675359Y-115086299D02*
X51580121Y-115038680D01*
X51580121Y-115038680D02*
X51342026Y-115038680D01*
X51342026Y-115038680D02*
X51246788Y-114991061D01*
X48785978Y-114419633D02*
X48166931Y-114419633D01*
X48166931Y-114419633D02*
X48500264Y-114800585D01*
X48500264Y-114800585D02*
X48357407Y-114800585D01*
X48357407Y-114800585D02*
X48262169Y-114848204D01*
X48262169Y-114848204D02*
X48214550Y-114895823D01*
X48214550Y-114895823D02*
X48166931Y-114991061D01*
X48166931Y-114991061D02*
X48166931Y-115229156D01*
X48166931Y-115229156D02*
X48214550Y-115324394D01*
X48214550Y-115324394D02*
X48262169Y-115372014D01*
X48262169Y-115372014D02*
X48357407Y-115419633D01*
X48357407Y-115419633D02*
X48643121Y-115419633D01*
X48643121Y-115419633D02*
X48738359Y-115372014D01*
X48738359Y-115372014D02*
X48785978Y-115324394D01*
X47309788Y-115419633D02*
X47309788Y-114895823D01*
X47309788Y-114895823D02*
X47357407Y-114800585D01*
X47357407Y-114800585D02*
X47452645Y-114752966D01*
X47452645Y-114752966D02*
X47643121Y-114752966D01*
X47643121Y-114752966D02*
X47738359Y-114800585D01*
X47309788Y-115372014D02*
X47405026Y-115419633D01*
X47405026Y-115419633D02*
X47643121Y-115419633D01*
X47643121Y-115419633D02*
X47738359Y-115372014D01*
X47738359Y-115372014D02*
X47785978Y-115276775D01*
X47785978Y-115276775D02*
X47785978Y-115181537D01*
X47785978Y-115181537D02*
X47738359Y-115086299D01*
X47738359Y-115086299D02*
X47643121Y-115038680D01*
X47643121Y-115038680D02*
X47405026Y-115038680D01*
X47405026Y-115038680D02*
X47309788Y-114991061D01*
X76265622Y-115432333D02*
X76837050Y-115432333D01*
X76551336Y-115432333D02*
X76551336Y-114432333D01*
X76551336Y-114432333D02*
X76646574Y-114575190D01*
X76646574Y-114575190D02*
X76741812Y-114670428D01*
X76741812Y-114670428D02*
X76837050Y-114718047D01*
X75646574Y-114432333D02*
X75551336Y-114432333D01*
X75551336Y-114432333D02*
X75456098Y-114479952D01*
X75456098Y-114479952D02*
X75408479Y-114527571D01*
X75408479Y-114527571D02*
X75360860Y-114622809D01*
X75360860Y-114622809D02*
X75313241Y-114813285D01*
X75313241Y-114813285D02*
X75313241Y-115051380D01*
X75313241Y-115051380D02*
X75360860Y-115241856D01*
X75360860Y-115241856D02*
X75408479Y-115337094D01*
X75408479Y-115337094D02*
X75456098Y-115384714D01*
X75456098Y-115384714D02*
X75551336Y-115432333D01*
X75551336Y-115432333D02*
X75646574Y-115432333D01*
X75646574Y-115432333D02*
X75741812Y-115384714D01*
X75741812Y-115384714D02*
X75789431Y-115337094D01*
X75789431Y-115337094D02*
X75837050Y-115241856D01*
X75837050Y-115241856D02*
X75884669Y-115051380D01*
X75884669Y-115051380D02*
X75884669Y-114813285D01*
X75884669Y-114813285D02*
X75837050Y-114622809D01*
X75837050Y-114622809D02*
X75789431Y-114527571D01*
X75789431Y-114527571D02*
X75741812Y-114479952D01*
X75741812Y-114479952D02*
X75646574Y-114432333D01*
X74456098Y-115432333D02*
X74456098Y-114908523D01*
X74456098Y-114908523D02*
X74503717Y-114813285D01*
X74503717Y-114813285D02*
X74598955Y-114765666D01*
X74598955Y-114765666D02*
X74789431Y-114765666D01*
X74789431Y-114765666D02*
X74884669Y-114813285D01*
X74456098Y-115384714D02*
X74551336Y-115432333D01*
X74551336Y-115432333D02*
X74789431Y-115432333D01*
X74789431Y-115432333D02*
X74884669Y-115384714D01*
X74884669Y-115384714D02*
X74932288Y-115289475D01*
X74932288Y-115289475D02*
X74932288Y-115194237D01*
X74932288Y-115194237D02*
X74884669Y-115098999D01*
X74884669Y-115098999D02*
X74789431Y-115051380D01*
X74789431Y-115051380D02*
X74551336Y-115051380D01*
X74551336Y-115051380D02*
X74456098Y-115003761D01*
D14*
G36*
X76160988Y-39332700D02*
G01*
X75791159Y-39333609D01*
X75786064Y-39332481D01*
X75779505Y-39333638D01*
X75525036Y-39334264D01*
X75370087Y-39258383D01*
X75296448Y-39186556D01*
X75217101Y-39031086D01*
X75215598Y-38792284D01*
X75291302Y-38637696D01*
X75363128Y-38564057D01*
X75518445Y-38484788D01*
X76160180Y-38483210D01*
X76160988Y-39332700D01*
G37*
G36*
X81456070Y-39713680D02*
G01*
X80778542Y-39715019D01*
X81116510Y-38698056D01*
X81456070Y-39713680D01*
G37*
G36*
X85018132Y-39332700D02*
G01*
X84382180Y-39334264D01*
X84227231Y-39258383D01*
X84153592Y-39186556D01*
X84074245Y-39031086D01*
X84072742Y-38792284D01*
X84148446Y-38637696D01*
X84220272Y-38564057D01*
X84375589Y-38484788D01*
X85017324Y-38483210D01*
X85018132Y-39332700D01*
G37*
G36*
X85439453Y-40707060D02*
G01*
X71366436Y-40707060D01*
X71366436Y-38765790D01*
X71588658Y-38765790D01*
X71590392Y-38955409D01*
X71589443Y-38968773D01*
X71590559Y-38973684D01*
X71590579Y-38975775D01*
X71591590Y-38978217D01*
X71593790Y-38987889D01*
X71685817Y-39258556D01*
X71685817Y-39261489D01*
X71691382Y-39274924D01*
X71697019Y-39291503D01*
X71699374Y-39294218D01*
X71700749Y-39297537D01*
X71713185Y-39312691D01*
X72687983Y-40285202D01*
X71669149Y-40286759D01*
X71633101Y-40301691D01*
X71605511Y-40329281D01*
X71590579Y-40365329D01*
X71590579Y-40404347D01*
X71605511Y-40440395D01*
X71633101Y-40467985D01*
X71669149Y-40482917D01*
X71688658Y-40484838D01*
X72946262Y-40482917D01*
X72982311Y-40467986D01*
X73009901Y-40440396D01*
X73024832Y-40404347D01*
X73024832Y-40365329D01*
X73009901Y-40329281D01*
X72997464Y-40314128D01*
X71872432Y-39191735D01*
X71788555Y-38945037D01*
X71787155Y-38792021D01*
X71800001Y-38765790D01*
X75017230Y-38765790D01*
X75018932Y-39036245D01*
X75018015Y-39038997D01*
X75019040Y-39053423D01*
X75019151Y-39071013D01*
X75020526Y-39074333D01*
X75020781Y-39077917D01*
X75027787Y-39096225D01*
X75124105Y-39284947D01*
X75129320Y-39297537D01*
X75132521Y-39301437D01*
X75133468Y-39303292D01*
X75135464Y-39305023D01*
X75141757Y-39312690D01*
X75238145Y-39406707D01*
X75246394Y-39416219D01*
X75250629Y-39418885D01*
X75252148Y-39420366D01*
X75254588Y-39421376D01*
X75262985Y-39426662D01*
X75440723Y-39513702D01*
X75442625Y-39515604D01*
X75455477Y-39520927D01*
X75471769Y-39528906D01*
X75475352Y-39529160D01*
X75478673Y-39530536D01*
X75498182Y-39532457D01*
X75592373Y-39532225D01*
X75025693Y-40344576D01*
X75017253Y-40382670D01*
X75024034Y-40421095D01*
X75045003Y-40454000D01*
X75076968Y-40476375D01*
X75115062Y-40484815D01*
X75153487Y-40478034D01*
X75186392Y-40457065D01*
X75199153Y-40442184D01*
X75834339Y-39531630D01*
X76161177Y-39530827D01*
X76162008Y-40404347D01*
X76176940Y-40440395D01*
X76204530Y-40467985D01*
X76240578Y-40482917D01*
X76279596Y-40482917D01*
X76315644Y-40467985D01*
X76343234Y-40440395D01*
X76358166Y-40404347D01*
X76360087Y-40384838D01*
X76358166Y-38365329D01*
X77019151Y-38365329D01*
X77019151Y-38404347D01*
X77034083Y-38440395D01*
X77061673Y-38467985D01*
X77097721Y-38482917D01*
X77117230Y-38484838D01*
X77969704Y-38483153D01*
X77970422Y-39237496D01*
X77383435Y-39239140D01*
X77347387Y-39254072D01*
X77319797Y-39281662D01*
X77304865Y-39317710D01*
X77304865Y-39356728D01*
X77319797Y-39392776D01*
X77347387Y-39420366D01*
X77383435Y-39435298D01*
X77402944Y-39437219D01*
X77970610Y-39435629D01*
X77971418Y-40285032D01*
X77097721Y-40286759D01*
X77061673Y-40301691D01*
X77034083Y-40329281D01*
X77019151Y-40365329D01*
X77019151Y-40404347D01*
X77034083Y-40440395D01*
X77061673Y-40467985D01*
X77097721Y-40482917D01*
X77117230Y-40484838D01*
X78089120Y-40482917D01*
X78125168Y-40467985D01*
X78152758Y-40440395D01*
X78167690Y-40404347D01*
X78169611Y-40384838D01*
X78167706Y-38382606D01*
X78636303Y-38382606D01*
X78643059Y-38421035D01*
X78651912Y-38438526D01*
X79302995Y-39458225D01*
X79304866Y-40404347D01*
X79319798Y-40440395D01*
X79347388Y-40467985D01*
X79383436Y-40482917D01*
X79422454Y-40482917D01*
X79458502Y-40467985D01*
X79486092Y-40440395D01*
X79501024Y-40404347D01*
X79502945Y-40384838D01*
X79502920Y-40372331D01*
X80351349Y-40372331D01*
X80354115Y-40411251D01*
X80371565Y-40446149D01*
X80401041Y-40471715D01*
X80438057Y-40484053D01*
X80476977Y-40481287D01*
X80511875Y-40463837D01*
X80537441Y-40434361D01*
X80545432Y-40416461D01*
X80712658Y-39913267D01*
X81522264Y-39911667D01*
X81697020Y-40434361D01*
X81722586Y-40463837D01*
X81757484Y-40481287D01*
X81796404Y-40484053D01*
X81833420Y-40471715D01*
X81862896Y-40446150D01*
X81880346Y-40411251D01*
X81883112Y-40372331D01*
X81881520Y-40365329D01*
X82066771Y-40365329D01*
X82066771Y-40404347D01*
X82081703Y-40440395D01*
X82109293Y-40467985D01*
X82145341Y-40482917D01*
X82164850Y-40484838D01*
X83136740Y-40482917D01*
X83172788Y-40467985D01*
X83200378Y-40440395D01*
X83215310Y-40404347D01*
X83217231Y-40384838D01*
X83215691Y-38765790D01*
X83874374Y-38765790D01*
X83876076Y-39036245D01*
X83875159Y-39038997D01*
X83876184Y-39053423D01*
X83876295Y-39071013D01*
X83877670Y-39074333D01*
X83877925Y-39077917D01*
X83884931Y-39096225D01*
X83981249Y-39284947D01*
X83986464Y-39297537D01*
X83989665Y-39301437D01*
X83990612Y-39303292D01*
X83992608Y-39305023D01*
X83998901Y-39312690D01*
X84095289Y-39406707D01*
X84103538Y-39416219D01*
X84107773Y-39418885D01*
X84109292Y-39420366D01*
X84111732Y-39421376D01*
X84120129Y-39426662D01*
X84297867Y-39513702D01*
X84299769Y-39515604D01*
X84312621Y-39520927D01*
X84328913Y-39528906D01*
X84332496Y-39529160D01*
X84335817Y-39530536D01*
X84355326Y-39532457D01*
X85018321Y-39530827D01*
X85019152Y-40404347D01*
X85034084Y-40440395D01*
X85061674Y-40467985D01*
X85097722Y-40482917D01*
X85136740Y-40482917D01*
X85172788Y-40467985D01*
X85200378Y-40440395D01*
X85215310Y-40404347D01*
X85217231Y-40384838D01*
X85215310Y-38365329D01*
X85200378Y-38329281D01*
X85172788Y-38301691D01*
X85136740Y-38286759D01*
X85117231Y-38284838D01*
X84370982Y-38286672D01*
X84367834Y-38285623D01*
X84352423Y-38286718D01*
X84335817Y-38286759D01*
X84332496Y-38288134D01*
X84328913Y-38288389D01*
X84310605Y-38295395D01*
X84121876Y-38391716D01*
X84109293Y-38396929D01*
X84105393Y-38400128D01*
X84103538Y-38401076D01*
X84101805Y-38403073D01*
X84094139Y-38409365D01*
X84000127Y-38505749D01*
X83990612Y-38514002D01*
X83987943Y-38518241D01*
X83986465Y-38519757D01*
X83985455Y-38522193D01*
X83980169Y-38530592D01*
X83893128Y-38708331D01*
X83891227Y-38710233D01*
X83885903Y-38723084D01*
X83877925Y-38739377D01*
X83877670Y-38742960D01*
X83876295Y-38746281D01*
X83874374Y-38765790D01*
X83215691Y-38765790D01*
X83215310Y-38365329D01*
X83200378Y-38329281D01*
X83172788Y-38301691D01*
X83136740Y-38286759D01*
X83097722Y-38286759D01*
X83061674Y-38301691D01*
X83034084Y-38329281D01*
X83019152Y-38365329D01*
X83017231Y-38384838D01*
X83019038Y-40285032D01*
X82145341Y-40286759D01*
X82109293Y-40301691D01*
X82081703Y-40329281D01*
X82066771Y-40365329D01*
X81881520Y-40365329D01*
X81878765Y-40353215D01*
X81214178Y-38365434D01*
X81213680Y-38358426D01*
X81208111Y-38347289D01*
X81204108Y-38335315D01*
X81199423Y-38329913D01*
X81196230Y-38323527D01*
X81186761Y-38315314D01*
X81178543Y-38305839D01*
X81172151Y-38302642D01*
X81166754Y-38297962D01*
X81154860Y-38293997D01*
X81143644Y-38288389D01*
X81136516Y-38287882D01*
X81129738Y-38285623D01*
X81117231Y-38286511D01*
X81104724Y-38285623D01*
X81097945Y-38287882D01*
X81090818Y-38288389D01*
X81079605Y-38293995D01*
X81067708Y-38297961D01*
X81062308Y-38302644D01*
X81055919Y-38305839D01*
X81047703Y-38315310D01*
X81038232Y-38323526D01*
X81035037Y-38329915D01*
X81030354Y-38335315D01*
X81022363Y-38353215D01*
X80546088Y-39786349D01*
X80542961Y-39793900D01*
X80542961Y-39795760D01*
X80351349Y-40372331D01*
X79502920Y-40372331D01*
X79501125Y-39464363D01*
X80162830Y-38421036D01*
X80169586Y-38382607D01*
X80161122Y-38344518D01*
X80138726Y-38312567D01*
X80105808Y-38291619D01*
X80067379Y-38284863D01*
X80029290Y-38293328D01*
X79997339Y-38315723D01*
X79985245Y-38331151D01*
X79403785Y-39247954D01*
X78808550Y-38315723D01*
X78776599Y-38293327D01*
X78738510Y-38284863D01*
X78700081Y-38291619D01*
X78667163Y-38312566D01*
X78644767Y-38344517D01*
X78636303Y-38382606D01*
X78167706Y-38382606D01*
X78167690Y-38365329D01*
X78152758Y-38329281D01*
X78125168Y-38301691D01*
X78089120Y-38286759D01*
X78069611Y-38284838D01*
X77097721Y-38286759D01*
X77061673Y-38301691D01*
X77034083Y-38329281D01*
X77019151Y-38365329D01*
X76358166Y-38365329D01*
X76343234Y-38329281D01*
X76315644Y-38301691D01*
X76279596Y-38286759D01*
X76260087Y-38284838D01*
X75513838Y-38286672D01*
X75510690Y-38285623D01*
X75495279Y-38286718D01*
X75478673Y-38286759D01*
X75475352Y-38288134D01*
X75471769Y-38288389D01*
X75453461Y-38295395D01*
X75264732Y-38391716D01*
X75252149Y-38396929D01*
X75248249Y-38400128D01*
X75246394Y-38401076D01*
X75244661Y-38403073D01*
X75236995Y-38409365D01*
X75142983Y-38505749D01*
X75133468Y-38514002D01*
X75130799Y-38518241D01*
X75129321Y-38519757D01*
X75128311Y-38522193D01*
X75123025Y-38530592D01*
X75035984Y-38708331D01*
X75034083Y-38710233D01*
X75028759Y-38723084D01*
X75020781Y-38739377D01*
X75020526Y-38742960D01*
X75019151Y-38746281D01*
X75017230Y-38765790D01*
X71800001Y-38765790D01*
X71862730Y-38637696D01*
X71934556Y-38564057D01*
X72089929Y-38484759D01*
X72519080Y-38483096D01*
X72673894Y-38558910D01*
X72775958Y-38658461D01*
X72812006Y-38673393D01*
X72851024Y-38673393D01*
X72887072Y-38658461D01*
X72914662Y-38630871D01*
X72929594Y-38594823D01*
X72929594Y-38555805D01*
X72914662Y-38519757D01*
X72902226Y-38504603D01*
X72805841Y-38410591D01*
X72797589Y-38401076D01*
X72793349Y-38398407D01*
X72791834Y-38396929D01*
X72789397Y-38395919D01*
X72780999Y-38390633D01*
X72603259Y-38303592D01*
X72601358Y-38301691D01*
X72588506Y-38296367D01*
X72572214Y-38288389D01*
X72568630Y-38288134D01*
X72565310Y-38286759D01*
X72545801Y-38284838D01*
X72085118Y-38286623D01*
X72082118Y-38285623D01*
X72067057Y-38286693D01*
X72050101Y-38286759D01*
X72046780Y-38288134D01*
X72043197Y-38288389D01*
X72024889Y-38295395D01*
X71836160Y-38391716D01*
X71823577Y-38396929D01*
X71819677Y-38400128D01*
X71817822Y-38401076D01*
X71816089Y-38403073D01*
X71808423Y-38409365D01*
X71714411Y-38505749D01*
X71704896Y-38514002D01*
X71702227Y-38518241D01*
X71700749Y-38519757D01*
X71699739Y-38522193D01*
X71694453Y-38530592D01*
X71607412Y-38708331D01*
X71605511Y-38710233D01*
X71600187Y-38723084D01*
X71592209Y-38739377D01*
X71591954Y-38742960D01*
X71590579Y-38746281D01*
X71588658Y-38765790D01*
X71366436Y-38765790D01*
X71366436Y-38062616D01*
X85439453Y-38062616D01*
X85439453Y-40707060D01*
G37*
D13*
X64470478Y-114432333D02*
X63803812Y-114432333D01*
X63803812Y-114432333D02*
X64232383Y-115432333D01*
X62994288Y-115432333D02*
X62994288Y-114908523D01*
X62994288Y-114908523D02*
X63041907Y-114813285D01*
X63041907Y-114813285D02*
X63137145Y-114765666D01*
X63137145Y-114765666D02*
X63327621Y-114765666D01*
X63327621Y-114765666D02*
X63422859Y-114813285D01*
X62994288Y-115384714D02*
X63089526Y-115432333D01*
X63089526Y-115432333D02*
X63327621Y-115432333D01*
X63327621Y-115432333D02*
X63422859Y-115384714D01*
X63422859Y-115384714D02*
X63470478Y-115289475D01*
X63470478Y-115289475D02*
X63470478Y-115194237D01*
X63470478Y-115194237D02*
X63422859Y-115098999D01*
X63422859Y-115098999D02*
X63327621Y-115051380D01*
X63327621Y-115051380D02*
X63089526Y-115051380D01*
X63089526Y-115051380D02*
X62994288Y-115003761D01*
X53579883Y-113133633D02*
X53579883Y-112133633D01*
X53579883Y-112133633D02*
X53341788Y-112133633D01*
X53341788Y-112133633D02*
X53198931Y-112181252D01*
X53198931Y-112181252D02*
X53103693Y-112276490D01*
X53103693Y-112276490D02*
X53056074Y-112371728D01*
X53056074Y-112371728D02*
X53008455Y-112562204D01*
X53008455Y-112562204D02*
X53008455Y-112705061D01*
X53008455Y-112705061D02*
X53056074Y-112895537D01*
X53056074Y-112895537D02*
X53103693Y-112990775D01*
X53103693Y-112990775D02*
X53198931Y-113086014D01*
X53198931Y-113086014D02*
X53341788Y-113133633D01*
X53341788Y-113133633D02*
X53579883Y-113133633D01*
X52294169Y-113466966D02*
X52532264Y-113466966D01*
X52532264Y-113466966D02*
X52532264Y-112038394D01*
X52532264Y-112038394D02*
X52294169Y-112038394D01*
X51484645Y-112133633D02*
X51675121Y-112133633D01*
X51675121Y-112133633D02*
X51770359Y-112181252D01*
X51770359Y-112181252D02*
X51817978Y-112228871D01*
X51817978Y-112228871D02*
X51913216Y-112371728D01*
X51913216Y-112371728D02*
X51960835Y-112562204D01*
X51960835Y-112562204D02*
X51960835Y-112943156D01*
X51960835Y-112943156D02*
X51913216Y-113038394D01*
X51913216Y-113038394D02*
X51865597Y-113086014D01*
X51865597Y-113086014D02*
X51770359Y-113133633D01*
X51770359Y-113133633D02*
X51579883Y-113133633D01*
X51579883Y-113133633D02*
X51484645Y-113086014D01*
X51484645Y-113086014D02*
X51437026Y-113038394D01*
X51437026Y-113038394D02*
X51389407Y-112943156D01*
X51389407Y-112943156D02*
X51389407Y-112705061D01*
X51389407Y-112705061D02*
X51437026Y-112609823D01*
X51437026Y-112609823D02*
X51484645Y-112562204D01*
X51484645Y-112562204D02*
X51579883Y-112514585D01*
X51579883Y-112514585D02*
X51770359Y-112514585D01*
X51770359Y-112514585D02*
X51865597Y-112562204D01*
X51865597Y-112562204D02*
X51913216Y-112609823D01*
X51913216Y-112609823D02*
X51960835Y-112705061D01*
X50913216Y-113086014D02*
X50913216Y-113133633D01*
X50913216Y-113133633D02*
X50960835Y-113228871D01*
X50960835Y-113228871D02*
X51008454Y-113276490D01*
X50056074Y-112466966D02*
X50056074Y-113133633D01*
X50294169Y-112086014D02*
X50532264Y-112800299D01*
X50532264Y-112800299D02*
X49913217Y-112800299D01*
X49484645Y-113086014D02*
X49484645Y-113133633D01*
X49484645Y-113133633D02*
X49532264Y-113228871D01*
X49532264Y-113228871D02*
X49579883Y-113276490D01*
X49103693Y-112228871D02*
X49056074Y-112181252D01*
X49056074Y-112181252D02*
X48960836Y-112133633D01*
X48960836Y-112133633D02*
X48722741Y-112133633D01*
X48722741Y-112133633D02*
X48627503Y-112181252D01*
X48627503Y-112181252D02*
X48579884Y-112228871D01*
X48579884Y-112228871D02*
X48532265Y-112324109D01*
X48532265Y-112324109D02*
X48532265Y-112419347D01*
X48532265Y-112419347D02*
X48579884Y-112562204D01*
X48579884Y-112562204D02*
X49151312Y-113133633D01*
X49151312Y-113133633D02*
X48532265Y-113133633D01*
X48056074Y-113086014D02*
X48056074Y-113133633D01*
X48056074Y-113133633D02*
X48103693Y-113228871D01*
X48103693Y-113228871D02*
X48151312Y-113276490D01*
X47437027Y-112133633D02*
X47341789Y-112133633D01*
X47341789Y-112133633D02*
X47246551Y-112181252D01*
X47246551Y-112181252D02*
X47198932Y-112228871D01*
X47198932Y-112228871D02*
X47151313Y-112324109D01*
X47151313Y-112324109D02*
X47103694Y-112514585D01*
X47103694Y-112514585D02*
X47103694Y-112752680D01*
X47103694Y-112752680D02*
X47151313Y-112943156D01*
X47151313Y-112943156D02*
X47198932Y-113038394D01*
X47198932Y-113038394D02*
X47246551Y-113086014D01*
X47246551Y-113086014D02*
X47341789Y-113133633D01*
X47341789Y-113133633D02*
X47437027Y-113133633D01*
X47437027Y-113133633D02*
X47532265Y-113086014D01*
X47532265Y-113086014D02*
X47579884Y-113038394D01*
X47579884Y-113038394D02*
X47627503Y-112943156D01*
X47627503Y-112943156D02*
X47675122Y-112752680D01*
X47675122Y-112752680D02*
X47675122Y-112514585D01*
X47675122Y-112514585D02*
X47627503Y-112324109D01*
X47627503Y-112324109D02*
X47579884Y-112228871D01*
X47579884Y-112228871D02*
X47532265Y-112181252D01*
X47532265Y-112181252D02*
X47437027Y-112133633D01*
X46770360Y-113466966D02*
X46532265Y-113466966D01*
X46532265Y-113466966D02*
X46532265Y-112038394D01*
X46532265Y-112038394D02*
X46770360Y-112038394D01*
D10*
X106222601Y-59462074D02*
X105322601Y-59462074D01*
X106222601Y-59847789D02*
X105751172Y-59847789D01*
X105751172Y-59847789D02*
X105665458Y-59804931D01*
X105665458Y-59804931D02*
X105622601Y-59719217D01*
X105622601Y-59719217D02*
X105622601Y-59590646D01*
X105622601Y-59590646D02*
X105665458Y-59504931D01*
X105665458Y-59504931D02*
X105708315Y-59462074D01*
X105622601Y-60147789D02*
X105622601Y-60490646D01*
X105322601Y-60276360D02*
X106094029Y-60276360D01*
X106094029Y-60276360D02*
X106179744Y-60319217D01*
X106179744Y-60319217D02*
X106222601Y-60404932D01*
X106222601Y-60404932D02*
X106222601Y-60490646D01*
X105622601Y-60662075D02*
X105622601Y-61004932D01*
X105322601Y-60790646D02*
X106094029Y-60790646D01*
X106094029Y-60790646D02*
X106179744Y-60833503D01*
X106179744Y-60833503D02*
X106222601Y-60919218D01*
X106222601Y-60919218D02*
X106222601Y-61004932D01*
X105622601Y-61304932D02*
X106522601Y-61304932D01*
X105665458Y-61304932D02*
X105622601Y-61390647D01*
X105622601Y-61390647D02*
X105622601Y-61562075D01*
X105622601Y-61562075D02*
X105665458Y-61647789D01*
X105665458Y-61647789D02*
X105708315Y-61690647D01*
X105708315Y-61690647D02*
X105794029Y-61733504D01*
X105794029Y-61733504D02*
X106051172Y-61733504D01*
X106051172Y-61733504D02*
X106136886Y-61690647D01*
X106136886Y-61690647D02*
X106179744Y-61647789D01*
X106179744Y-61647789D02*
X106222601Y-61562075D01*
X106222601Y-61562075D02*
X106222601Y-61390647D01*
X106222601Y-61390647D02*
X106179744Y-61304932D01*
X106179744Y-62076361D02*
X106222601Y-62162075D01*
X106222601Y-62162075D02*
X106222601Y-62333504D01*
X106222601Y-62333504D02*
X106179744Y-62419218D01*
X106179744Y-62419218D02*
X106094029Y-62462075D01*
X106094029Y-62462075D02*
X106051172Y-62462075D01*
X106051172Y-62462075D02*
X105965458Y-62419218D01*
X105965458Y-62419218D02*
X105922601Y-62333504D01*
X105922601Y-62333504D02*
X105922601Y-62204933D01*
X105922601Y-62204933D02*
X105879744Y-62119218D01*
X105879744Y-62119218D02*
X105794029Y-62076361D01*
X105794029Y-62076361D02*
X105751172Y-62076361D01*
X105751172Y-62076361D02*
X105665458Y-62119218D01*
X105665458Y-62119218D02*
X105622601Y-62204933D01*
X105622601Y-62204933D02*
X105622601Y-62333504D01*
X105622601Y-62333504D02*
X105665458Y-62419218D01*
X106136886Y-62847789D02*
X106179744Y-62890646D01*
X106179744Y-62890646D02*
X106222601Y-62847789D01*
X106222601Y-62847789D02*
X106179744Y-62804932D01*
X106179744Y-62804932D02*
X106136886Y-62847789D01*
X106136886Y-62847789D02*
X106222601Y-62847789D01*
X105665458Y-62847789D02*
X105708315Y-62890646D01*
X105708315Y-62890646D02*
X105751172Y-62847789D01*
X105751172Y-62847789D02*
X105708315Y-62804932D01*
X105708315Y-62804932D02*
X105665458Y-62847789D01*
X105665458Y-62847789D02*
X105751172Y-62847789D01*
X105279744Y-63919217D02*
X106436886Y-63147789D01*
X105279744Y-64862074D02*
X106436886Y-64090646D01*
X105622601Y-65547789D02*
X106351172Y-65547789D01*
X106351172Y-65547789D02*
X106436886Y-65504931D01*
X106436886Y-65504931D02*
X106479744Y-65462074D01*
X106479744Y-65462074D02*
X106522601Y-65376360D01*
X106522601Y-65376360D02*
X106522601Y-65247789D01*
X106522601Y-65247789D02*
X106479744Y-65162074D01*
X106179744Y-65547789D02*
X106222601Y-65462074D01*
X106222601Y-65462074D02*
X106222601Y-65290646D01*
X106222601Y-65290646D02*
X106179744Y-65204931D01*
X106179744Y-65204931D02*
X106136886Y-65162074D01*
X106136886Y-65162074D02*
X106051172Y-65119217D01*
X106051172Y-65119217D02*
X105794029Y-65119217D01*
X105794029Y-65119217D02*
X105708315Y-65162074D01*
X105708315Y-65162074D02*
X105665458Y-65204931D01*
X105665458Y-65204931D02*
X105622601Y-65290646D01*
X105622601Y-65290646D02*
X105622601Y-65462074D01*
X105622601Y-65462074D02*
X105665458Y-65547789D01*
X106222601Y-65976360D02*
X105622601Y-65976360D01*
X105322601Y-65976360D02*
X105365458Y-65933503D01*
X105365458Y-65933503D02*
X105408315Y-65976360D01*
X105408315Y-65976360D02*
X105365458Y-66019217D01*
X105365458Y-66019217D02*
X105322601Y-65976360D01*
X105322601Y-65976360D02*
X105408315Y-65976360D01*
X105622601Y-66276360D02*
X105622601Y-66619217D01*
X105322601Y-66404931D02*
X106094029Y-66404931D01*
X106094029Y-66404931D02*
X106179744Y-66447788D01*
X106179744Y-66447788D02*
X106222601Y-66533503D01*
X106222601Y-66533503D02*
X106222601Y-66619217D01*
X106222601Y-66919217D02*
X105322601Y-66919217D01*
X106222601Y-67304932D02*
X105751172Y-67304932D01*
X105751172Y-67304932D02*
X105665458Y-67262074D01*
X105665458Y-67262074D02*
X105622601Y-67176360D01*
X105622601Y-67176360D02*
X105622601Y-67047789D01*
X105622601Y-67047789D02*
X105665458Y-66962074D01*
X105665458Y-66962074D02*
X105708315Y-66919217D01*
X105622601Y-68119218D02*
X106222601Y-68119218D01*
X105622601Y-67733503D02*
X106094029Y-67733503D01*
X106094029Y-67733503D02*
X106179744Y-67776360D01*
X106179744Y-67776360D02*
X106222601Y-67862075D01*
X106222601Y-67862075D02*
X106222601Y-67990646D01*
X106222601Y-67990646D02*
X106179744Y-68076360D01*
X106179744Y-68076360D02*
X106136886Y-68119218D01*
X106222601Y-68547789D02*
X105322601Y-68547789D01*
X105665458Y-68547789D02*
X105622601Y-68633504D01*
X105622601Y-68633504D02*
X105622601Y-68804932D01*
X105622601Y-68804932D02*
X105665458Y-68890646D01*
X105665458Y-68890646D02*
X105708315Y-68933504D01*
X105708315Y-68933504D02*
X105794029Y-68976361D01*
X105794029Y-68976361D02*
X106051172Y-68976361D01*
X106051172Y-68976361D02*
X106136886Y-68933504D01*
X106136886Y-68933504D02*
X106179744Y-68890646D01*
X106179744Y-68890646D02*
X106222601Y-68804932D01*
X106222601Y-68804932D02*
X106222601Y-68633504D01*
X106222601Y-68633504D02*
X106179744Y-68547789D01*
X106136886Y-69362075D02*
X106179744Y-69404932D01*
X106179744Y-69404932D02*
X106222601Y-69362075D01*
X106222601Y-69362075D02*
X106179744Y-69319218D01*
X106179744Y-69319218D02*
X106136886Y-69362075D01*
X106136886Y-69362075D02*
X106222601Y-69362075D01*
X106179744Y-70176361D02*
X106222601Y-70090646D01*
X106222601Y-70090646D02*
X106222601Y-69919218D01*
X106222601Y-69919218D02*
X106179744Y-69833503D01*
X106179744Y-69833503D02*
X106136886Y-69790646D01*
X106136886Y-69790646D02*
X106051172Y-69747789D01*
X106051172Y-69747789D02*
X105794029Y-69747789D01*
X105794029Y-69747789D02*
X105708315Y-69790646D01*
X105708315Y-69790646D02*
X105665458Y-69833503D01*
X105665458Y-69833503D02*
X105622601Y-69919218D01*
X105622601Y-69919218D02*
X105622601Y-70090646D01*
X105622601Y-70090646D02*
X105665458Y-70176361D01*
X106222601Y-70690647D02*
X106179744Y-70604932D01*
X106179744Y-70604932D02*
X106136886Y-70562075D01*
X106136886Y-70562075D02*
X106051172Y-70519218D01*
X106051172Y-70519218D02*
X105794029Y-70519218D01*
X105794029Y-70519218D02*
X105708315Y-70562075D01*
X105708315Y-70562075D02*
X105665458Y-70604932D01*
X105665458Y-70604932D02*
X105622601Y-70690647D01*
X105622601Y-70690647D02*
X105622601Y-70819218D01*
X105622601Y-70819218D02*
X105665458Y-70904932D01*
X105665458Y-70904932D02*
X105708315Y-70947790D01*
X105708315Y-70947790D02*
X105794029Y-70990647D01*
X105794029Y-70990647D02*
X106051172Y-70990647D01*
X106051172Y-70990647D02*
X106136886Y-70947790D01*
X106136886Y-70947790D02*
X106179744Y-70904932D01*
X106179744Y-70904932D02*
X106222601Y-70819218D01*
X106222601Y-70819218D02*
X106222601Y-70690647D01*
X106222601Y-71376361D02*
X105622601Y-71376361D01*
X105708315Y-71376361D02*
X105665458Y-71419218D01*
X105665458Y-71419218D02*
X105622601Y-71504933D01*
X105622601Y-71504933D02*
X105622601Y-71633504D01*
X105622601Y-71633504D02*
X105665458Y-71719218D01*
X105665458Y-71719218D02*
X105751172Y-71762076D01*
X105751172Y-71762076D02*
X106222601Y-71762076D01*
X105751172Y-71762076D02*
X105665458Y-71804933D01*
X105665458Y-71804933D02*
X105622601Y-71890647D01*
X105622601Y-71890647D02*
X105622601Y-72019218D01*
X105622601Y-72019218D02*
X105665458Y-72104933D01*
X105665458Y-72104933D02*
X105751172Y-72147790D01*
X105751172Y-72147790D02*
X106222601Y-72147790D01*
X105279744Y-73219218D02*
X106436886Y-72447790D01*
X106222601Y-73519218D02*
X105622601Y-73519218D01*
X105322601Y-73519218D02*
X105365458Y-73476361D01*
X105365458Y-73476361D02*
X105408315Y-73519218D01*
X105408315Y-73519218D02*
X105365458Y-73562075D01*
X105365458Y-73562075D02*
X105322601Y-73519218D01*
X105322601Y-73519218D02*
X105408315Y-73519218D01*
X105622601Y-73819218D02*
X105622601Y-74162075D01*
X106222601Y-73947789D02*
X105451172Y-73947789D01*
X105451172Y-73947789D02*
X105365458Y-73990646D01*
X105365458Y-73990646D02*
X105322601Y-74076361D01*
X105322601Y-74076361D02*
X105322601Y-74162075D01*
X106222601Y-74462075D02*
X105622601Y-74462075D01*
X105322601Y-74462075D02*
X105365458Y-74419218D01*
X105365458Y-74419218D02*
X105408315Y-74462075D01*
X105408315Y-74462075D02*
X105365458Y-74504932D01*
X105365458Y-74504932D02*
X105322601Y-74462075D01*
X105322601Y-74462075D02*
X105408315Y-74462075D01*
X106222601Y-75019218D02*
X106179744Y-74933503D01*
X106179744Y-74933503D02*
X106094029Y-74890646D01*
X106094029Y-74890646D02*
X105322601Y-74890646D01*
X106222601Y-75490647D02*
X106179744Y-75404932D01*
X106179744Y-75404932D02*
X106136886Y-75362075D01*
X106136886Y-75362075D02*
X106051172Y-75319218D01*
X106051172Y-75319218D02*
X105794029Y-75319218D01*
X105794029Y-75319218D02*
X105708315Y-75362075D01*
X105708315Y-75362075D02*
X105665458Y-75404932D01*
X105665458Y-75404932D02*
X105622601Y-75490647D01*
X105622601Y-75490647D02*
X105622601Y-75619218D01*
X105622601Y-75619218D02*
X105665458Y-75704932D01*
X105665458Y-75704932D02*
X105708315Y-75747790D01*
X105708315Y-75747790D02*
X105794029Y-75790647D01*
X105794029Y-75790647D02*
X106051172Y-75790647D01*
X106051172Y-75790647D02*
X106136886Y-75747790D01*
X106136886Y-75747790D02*
X106179744Y-75704932D01*
X106179744Y-75704932D02*
X106222601Y-75619218D01*
X106222601Y-75619218D02*
X106222601Y-75490647D01*
X105622601Y-76047790D02*
X105622601Y-76390647D01*
X105322601Y-76176361D02*
X106094029Y-76176361D01*
X106094029Y-76176361D02*
X106179744Y-76219218D01*
X106179744Y-76219218D02*
X106222601Y-76304933D01*
X106222601Y-76304933D02*
X106222601Y-76390647D01*
X105279744Y-77333504D02*
X106436886Y-76562076D01*
X105622601Y-77633504D02*
X106522601Y-77633504D01*
X105665458Y-77633504D02*
X105622601Y-77719219D01*
X105622601Y-77719219D02*
X105622601Y-77890647D01*
X105622601Y-77890647D02*
X105665458Y-77976361D01*
X105665458Y-77976361D02*
X105708315Y-78019219D01*
X105708315Y-78019219D02*
X105794029Y-78062076D01*
X105794029Y-78062076D02*
X106051172Y-78062076D01*
X106051172Y-78062076D02*
X106136886Y-78019219D01*
X106136886Y-78019219D02*
X106179744Y-77976361D01*
X106179744Y-77976361D02*
X106222601Y-77890647D01*
X106222601Y-77890647D02*
X106222601Y-77719219D01*
X106222601Y-77719219D02*
X106179744Y-77633504D01*
X105408315Y-78404933D02*
X105365458Y-78447790D01*
X105365458Y-78447790D02*
X105322601Y-78533505D01*
X105322601Y-78533505D02*
X105322601Y-78747790D01*
X105322601Y-78747790D02*
X105365458Y-78833505D01*
X105365458Y-78833505D02*
X105408315Y-78876362D01*
X105408315Y-78876362D02*
X105494029Y-78919219D01*
X105494029Y-78919219D02*
X105579744Y-78919219D01*
X105579744Y-78919219D02*
X105708315Y-78876362D01*
X105708315Y-78876362D02*
X106222601Y-78362076D01*
X106222601Y-78362076D02*
X106222601Y-78919219D01*
X105322601Y-79476362D02*
X105322601Y-79562076D01*
X105322601Y-79562076D02*
X105365458Y-79647790D01*
X105365458Y-79647790D02*
X105408315Y-79690648D01*
X105408315Y-79690648D02*
X105494029Y-79733505D01*
X105494029Y-79733505D02*
X105665458Y-79776362D01*
X105665458Y-79776362D02*
X105879744Y-79776362D01*
X105879744Y-79776362D02*
X106051172Y-79733505D01*
X106051172Y-79733505D02*
X106136886Y-79690648D01*
X106136886Y-79690648D02*
X106179744Y-79647790D01*
X106179744Y-79647790D02*
X106222601Y-79562076D01*
X106222601Y-79562076D02*
X106222601Y-79476362D01*
X106222601Y-79476362D02*
X106179744Y-79390648D01*
X106179744Y-79390648D02*
X106136886Y-79347790D01*
X106136886Y-79347790D02*
X106051172Y-79304933D01*
X106051172Y-79304933D02*
X105879744Y-79262076D01*
X105879744Y-79262076D02*
X105665458Y-79262076D01*
X105665458Y-79262076D02*
X105494029Y-79304933D01*
X105494029Y-79304933D02*
X105408315Y-79347790D01*
X105408315Y-79347790D02*
X105365458Y-79390648D01*
X105365458Y-79390648D02*
X105322601Y-79476362D01*
X105322601Y-80333505D02*
X105322601Y-80419219D01*
X105322601Y-80419219D02*
X105365458Y-80504933D01*
X105365458Y-80504933D02*
X105408315Y-80547791D01*
X105408315Y-80547791D02*
X105494029Y-80590648D01*
X105494029Y-80590648D02*
X105665458Y-80633505D01*
X105665458Y-80633505D02*
X105879744Y-80633505D01*
X105879744Y-80633505D02*
X106051172Y-80590648D01*
X106051172Y-80590648D02*
X106136886Y-80547791D01*
X106136886Y-80547791D02*
X106179744Y-80504933D01*
X106179744Y-80504933D02*
X106222601Y-80419219D01*
X106222601Y-80419219D02*
X106222601Y-80333505D01*
X106222601Y-80333505D02*
X106179744Y-80247791D01*
X106179744Y-80247791D02*
X106136886Y-80204933D01*
X106136886Y-80204933D02*
X106051172Y-80162076D01*
X106051172Y-80162076D02*
X105879744Y-80119219D01*
X105879744Y-80119219D02*
X105665458Y-80119219D01*
X105665458Y-80119219D02*
X105494029Y-80162076D01*
X105494029Y-80162076D02*
X105408315Y-80204933D01*
X105408315Y-80204933D02*
X105365458Y-80247791D01*
X105365458Y-80247791D02*
X105322601Y-80333505D01*
X105322601Y-81190648D02*
X105322601Y-81276362D01*
X105322601Y-81276362D02*
X105365458Y-81362076D01*
X105365458Y-81362076D02*
X105408315Y-81404934D01*
X105408315Y-81404934D02*
X105494029Y-81447791D01*
X105494029Y-81447791D02*
X105665458Y-81490648D01*
X105665458Y-81490648D02*
X105879744Y-81490648D01*
X105879744Y-81490648D02*
X106051172Y-81447791D01*
X106051172Y-81447791D02*
X106136886Y-81404934D01*
X106136886Y-81404934D02*
X106179744Y-81362076D01*
X106179744Y-81362076D02*
X106222601Y-81276362D01*
X106222601Y-81276362D02*
X106222601Y-81190648D01*
X106222601Y-81190648D02*
X106179744Y-81104934D01*
X106179744Y-81104934D02*
X106136886Y-81062076D01*
X106136886Y-81062076D02*
X106051172Y-81019219D01*
X106051172Y-81019219D02*
X105879744Y-80976362D01*
X105879744Y-80976362D02*
X105665458Y-80976362D01*
X105665458Y-80976362D02*
X105494029Y-81019219D01*
X105494029Y-81019219D02*
X105408315Y-81062076D01*
X105408315Y-81062076D02*
X105365458Y-81104934D01*
X105365458Y-81104934D02*
X105322601Y-81190648D01*
X105622601Y-81747791D02*
X105622601Y-82090648D01*
X105322601Y-81876362D02*
X106094029Y-81876362D01*
X106094029Y-81876362D02*
X106179744Y-81919219D01*
X106179744Y-81919219D02*
X106222601Y-82004934D01*
X106222601Y-82004934D02*
X106222601Y-82090648D01*
X105879744Y-82390648D02*
X105879744Y-83076363D01*
X105622601Y-83504934D02*
X106394029Y-83504934D01*
X106394029Y-83504934D02*
X106479744Y-83462077D01*
X106479744Y-83462077D02*
X106522601Y-83376363D01*
X106522601Y-83376363D02*
X106522601Y-83333506D01*
X105322601Y-83504934D02*
X105365458Y-83462077D01*
X105365458Y-83462077D02*
X105408315Y-83504934D01*
X105408315Y-83504934D02*
X105365458Y-83547791D01*
X105365458Y-83547791D02*
X105322601Y-83504934D01*
X105322601Y-83504934D02*
X105408315Y-83504934D01*
X106222601Y-84062077D02*
X106179744Y-83976362D01*
X106179744Y-83976362D02*
X106136886Y-83933505D01*
X106136886Y-83933505D02*
X106051172Y-83890648D01*
X106051172Y-83890648D02*
X105794029Y-83890648D01*
X105794029Y-83890648D02*
X105708315Y-83933505D01*
X105708315Y-83933505D02*
X105665458Y-83976362D01*
X105665458Y-83976362D02*
X105622601Y-84062077D01*
X105622601Y-84062077D02*
X105622601Y-84190648D01*
X105622601Y-84190648D02*
X105665458Y-84276362D01*
X105665458Y-84276362D02*
X105708315Y-84319220D01*
X105708315Y-84319220D02*
X105794029Y-84362077D01*
X105794029Y-84362077D02*
X106051172Y-84362077D01*
X106051172Y-84362077D02*
X106136886Y-84319220D01*
X106136886Y-84319220D02*
X106179744Y-84276362D01*
X106179744Y-84276362D02*
X106222601Y-84190648D01*
X106222601Y-84190648D02*
X106222601Y-84062077D01*
X105622601Y-84662077D02*
X106222601Y-84876363D01*
X105622601Y-85090648D02*
X106222601Y-84876363D01*
X106222601Y-84876363D02*
X106436886Y-84790648D01*
X106436886Y-84790648D02*
X106479744Y-84747791D01*
X106479744Y-84747791D02*
X106522601Y-84662077D01*
X106179744Y-85390648D02*
X106222601Y-85476362D01*
X106222601Y-85476362D02*
X106222601Y-85647791D01*
X106222601Y-85647791D02*
X106179744Y-85733505D01*
X106179744Y-85733505D02*
X106094029Y-85776362D01*
X106094029Y-85776362D02*
X106051172Y-85776362D01*
X106051172Y-85776362D02*
X105965458Y-85733505D01*
X105965458Y-85733505D02*
X105922601Y-85647791D01*
X105922601Y-85647791D02*
X105922601Y-85519220D01*
X105922601Y-85519220D02*
X105879744Y-85433505D01*
X105879744Y-85433505D02*
X105794029Y-85390648D01*
X105794029Y-85390648D02*
X105751172Y-85390648D01*
X105751172Y-85390648D02*
X105665458Y-85433505D01*
X105665458Y-85433505D02*
X105622601Y-85519220D01*
X105622601Y-85519220D02*
X105622601Y-85647791D01*
X105622601Y-85647791D02*
X105665458Y-85733505D01*
X105622601Y-86033505D02*
X105622601Y-86376362D01*
X105322601Y-86162076D02*
X106094029Y-86162076D01*
X106094029Y-86162076D02*
X106179744Y-86204933D01*
X106179744Y-86204933D02*
X106222601Y-86290648D01*
X106222601Y-86290648D02*
X106222601Y-86376362D01*
X106222601Y-86676362D02*
X105622601Y-86676362D01*
X105322601Y-86676362D02*
X105365458Y-86633505D01*
X105365458Y-86633505D02*
X105408315Y-86676362D01*
X105408315Y-86676362D02*
X105365458Y-86719219D01*
X105365458Y-86719219D02*
X105322601Y-86676362D01*
X105322601Y-86676362D02*
X105408315Y-86676362D01*
X106179744Y-87490648D02*
X106222601Y-87404933D01*
X106222601Y-87404933D02*
X106222601Y-87233505D01*
X106222601Y-87233505D02*
X106179744Y-87147790D01*
X106179744Y-87147790D02*
X106136886Y-87104933D01*
X106136886Y-87104933D02*
X106051172Y-87062076D01*
X106051172Y-87062076D02*
X105794029Y-87062076D01*
X105794029Y-87062076D02*
X105708315Y-87104933D01*
X105708315Y-87104933D02*
X105665458Y-87147790D01*
X105665458Y-87147790D02*
X105622601Y-87233505D01*
X105622601Y-87233505D02*
X105622601Y-87404933D01*
X105622601Y-87404933D02*
X105665458Y-87490648D01*
X106222601Y-87876362D02*
X105322601Y-87876362D01*
X105879744Y-87962077D02*
X106222601Y-88219219D01*
X105622601Y-88219219D02*
X105965458Y-87876362D01*
X105879744Y-88604933D02*
X105879744Y-89290648D01*
X106179744Y-90104934D02*
X106222601Y-90019219D01*
X106222601Y-90019219D02*
X106222601Y-89847791D01*
X106222601Y-89847791D02*
X106179744Y-89762076D01*
X106179744Y-89762076D02*
X106136886Y-89719219D01*
X106136886Y-89719219D02*
X106051172Y-89676362D01*
X106051172Y-89676362D02*
X105794029Y-89676362D01*
X105794029Y-89676362D02*
X105708315Y-89719219D01*
X105708315Y-89719219D02*
X105665458Y-89762076D01*
X105665458Y-89762076D02*
X105622601Y-89847791D01*
X105622601Y-89847791D02*
X105622601Y-90019219D01*
X105622601Y-90019219D02*
X105665458Y-90104934D01*
X106222601Y-90876363D02*
X105751172Y-90876363D01*
X105751172Y-90876363D02*
X105665458Y-90833505D01*
X105665458Y-90833505D02*
X105622601Y-90747791D01*
X105622601Y-90747791D02*
X105622601Y-90576363D01*
X105622601Y-90576363D02*
X105665458Y-90490648D01*
X106179744Y-90876363D02*
X106222601Y-90790648D01*
X106222601Y-90790648D02*
X106222601Y-90576363D01*
X106222601Y-90576363D02*
X106179744Y-90490648D01*
X106179744Y-90490648D02*
X106094029Y-90447791D01*
X106094029Y-90447791D02*
X106008315Y-90447791D01*
X106008315Y-90447791D02*
X105922601Y-90490648D01*
X105922601Y-90490648D02*
X105879744Y-90576363D01*
X105879744Y-90576363D02*
X105879744Y-90790648D01*
X105879744Y-90790648D02*
X105836886Y-90876363D01*
X106222601Y-91304934D02*
X105622601Y-91304934D01*
X105794029Y-91304934D02*
X105708315Y-91347791D01*
X105708315Y-91347791D02*
X105665458Y-91390649D01*
X105665458Y-91390649D02*
X105622601Y-91476363D01*
X105622601Y-91476363D02*
X105622601Y-91562077D01*
X105622601Y-91733506D02*
X105622601Y-92076363D01*
X105322601Y-91862077D02*
X106094029Y-91862077D01*
X106094029Y-91862077D02*
X106179744Y-91904934D01*
X106179744Y-91904934D02*
X106222601Y-91990649D01*
X106222601Y-91990649D02*
X106222601Y-92076363D01*
X106222601Y-92376363D02*
X105622601Y-92376363D01*
X105794029Y-92376363D02*
X105708315Y-92419220D01*
X105708315Y-92419220D02*
X105665458Y-92462078D01*
X105665458Y-92462078D02*
X105622601Y-92547792D01*
X105622601Y-92547792D02*
X105622601Y-92633506D01*
X106222601Y-92933506D02*
X105622601Y-92933506D01*
X105322601Y-92933506D02*
X105365458Y-92890649D01*
X105365458Y-92890649D02*
X105408315Y-92933506D01*
X105408315Y-92933506D02*
X105365458Y-92976363D01*
X105365458Y-92976363D02*
X105322601Y-92933506D01*
X105322601Y-92933506D02*
X105408315Y-92933506D01*
X106222601Y-93747792D02*
X105322601Y-93747792D01*
X106179744Y-93747792D02*
X106222601Y-93662077D01*
X106222601Y-93662077D02*
X106222601Y-93490649D01*
X106222601Y-93490649D02*
X106179744Y-93404934D01*
X106179744Y-93404934D02*
X106136886Y-93362077D01*
X106136886Y-93362077D02*
X106051172Y-93319220D01*
X106051172Y-93319220D02*
X105794029Y-93319220D01*
X105794029Y-93319220D02*
X105708315Y-93362077D01*
X105708315Y-93362077D02*
X105665458Y-93404934D01*
X105665458Y-93404934D02*
X105622601Y-93490649D01*
X105622601Y-93490649D02*
X105622601Y-93662077D01*
X105622601Y-93662077D02*
X105665458Y-93747792D01*
X105622601Y-94562078D02*
X106351172Y-94562078D01*
X106351172Y-94562078D02*
X106436886Y-94519220D01*
X106436886Y-94519220D02*
X106479744Y-94476363D01*
X106479744Y-94476363D02*
X106522601Y-94390649D01*
X106522601Y-94390649D02*
X106522601Y-94262078D01*
X106522601Y-94262078D02*
X106479744Y-94176363D01*
X106179744Y-94562078D02*
X106222601Y-94476363D01*
X106222601Y-94476363D02*
X106222601Y-94304935D01*
X106222601Y-94304935D02*
X106179744Y-94219220D01*
X106179744Y-94219220D02*
X106136886Y-94176363D01*
X106136886Y-94176363D02*
X106051172Y-94133506D01*
X106051172Y-94133506D02*
X105794029Y-94133506D01*
X105794029Y-94133506D02*
X105708315Y-94176363D01*
X105708315Y-94176363D02*
X105665458Y-94219220D01*
X105665458Y-94219220D02*
X105622601Y-94304935D01*
X105622601Y-94304935D02*
X105622601Y-94476363D01*
X105622601Y-94476363D02*
X105665458Y-94562078D01*
X106179744Y-95333506D02*
X106222601Y-95247792D01*
X106222601Y-95247792D02*
X106222601Y-95076364D01*
X106222601Y-95076364D02*
X106179744Y-94990649D01*
X106179744Y-94990649D02*
X106094029Y-94947792D01*
X106094029Y-94947792D02*
X105751172Y-94947792D01*
X105751172Y-94947792D02*
X105665458Y-94990649D01*
X105665458Y-94990649D02*
X105622601Y-95076364D01*
X105622601Y-95076364D02*
X105622601Y-95247792D01*
X105622601Y-95247792D02*
X105665458Y-95333506D01*
X105665458Y-95333506D02*
X105751172Y-95376364D01*
X105751172Y-95376364D02*
X105836886Y-95376364D01*
X105836886Y-95376364D02*
X105922601Y-94947792D01*
X37734419Y-81615598D02*
X38448704Y-81615598D01*
X38448704Y-81615598D02*
X38591561Y-81567979D01*
X38591561Y-81567979D02*
X38686800Y-81472741D01*
X38686800Y-81472741D02*
X38734419Y-81329884D01*
X38734419Y-81329884D02*
X38734419Y-81234646D01*
X38734419Y-82567979D02*
X38734419Y-82091789D01*
X38734419Y-82091789D02*
X37734419Y-82091789D01*
X38639180Y-83472741D02*
X38686800Y-83425122D01*
X38686800Y-83425122D02*
X38734419Y-83282265D01*
X38734419Y-83282265D02*
X38734419Y-83187027D01*
X38734419Y-83187027D02*
X38686800Y-83044170D01*
X38686800Y-83044170D02*
X38591561Y-82948932D01*
X38591561Y-82948932D02*
X38496323Y-82901313D01*
X38496323Y-82901313D02*
X38305847Y-82853694D01*
X38305847Y-82853694D02*
X38162990Y-82853694D01*
X38162990Y-82853694D02*
X37972514Y-82901313D01*
X37972514Y-82901313D02*
X37877276Y-82948932D01*
X37877276Y-82948932D02*
X37782038Y-83044170D01*
X37782038Y-83044170D02*
X37734419Y-83187027D01*
X37734419Y-83187027D02*
X37734419Y-83282265D01*
X37734419Y-83282265D02*
X37782038Y-83425122D01*
X37782038Y-83425122D02*
X37829657Y-83472741D01*
X37734419Y-84187027D02*
X38448704Y-84187027D01*
X38448704Y-84187027D02*
X38591561Y-84139408D01*
X38591561Y-84139408D02*
X38686800Y-84044170D01*
X38686800Y-84044170D02*
X38734419Y-83901313D01*
X38734419Y-83901313D02*
X38734419Y-83806075D01*
X38734419Y-85139408D02*
X38734419Y-84663218D01*
X38734419Y-84663218D02*
X37734419Y-84663218D01*
X38639180Y-86044170D02*
X38686800Y-85996551D01*
X38686800Y-85996551D02*
X38734419Y-85853694D01*
X38734419Y-85853694D02*
X38734419Y-85758456D01*
X38734419Y-85758456D02*
X38686800Y-85615599D01*
X38686800Y-85615599D02*
X38591561Y-85520361D01*
X38591561Y-85520361D02*
X38496323Y-85472742D01*
X38496323Y-85472742D02*
X38305847Y-85425123D01*
X38305847Y-85425123D02*
X38162990Y-85425123D01*
X38162990Y-85425123D02*
X37972514Y-85472742D01*
X37972514Y-85472742D02*
X37877276Y-85520361D01*
X37877276Y-85520361D02*
X37782038Y-85615599D01*
X37782038Y-85615599D02*
X37734419Y-85758456D01*
X37734419Y-85758456D02*
X37734419Y-85853694D01*
X37734419Y-85853694D02*
X37782038Y-85996551D01*
X37782038Y-85996551D02*
X37829657Y-86044170D01*
X37734419Y-86758456D02*
X38448704Y-86758456D01*
X38448704Y-86758456D02*
X38591561Y-86710837D01*
X38591561Y-86710837D02*
X38686800Y-86615599D01*
X38686800Y-86615599D02*
X38734419Y-86472742D01*
X38734419Y-86472742D02*
X38734419Y-86377504D01*
X38734419Y-87710837D02*
X38734419Y-87234647D01*
X38734419Y-87234647D02*
X37734419Y-87234647D01*
X38639180Y-88615599D02*
X38686800Y-88567980D01*
X38686800Y-88567980D02*
X38734419Y-88425123D01*
X38734419Y-88425123D02*
X38734419Y-88329885D01*
X38734419Y-88329885D02*
X38686800Y-88187028D01*
X38686800Y-88187028D02*
X38591561Y-88091790D01*
X38591561Y-88091790D02*
X38496323Y-88044171D01*
X38496323Y-88044171D02*
X38305847Y-87996552D01*
X38305847Y-87996552D02*
X38162990Y-87996552D01*
X38162990Y-87996552D02*
X37972514Y-88044171D01*
X37972514Y-88044171D02*
X37877276Y-88091790D01*
X37877276Y-88091790D02*
X37782038Y-88187028D01*
X37782038Y-88187028D02*
X37734419Y-88329885D01*
X37734419Y-88329885D02*
X37734419Y-88425123D01*
X37734419Y-88425123D02*
X37782038Y-88567980D01*
X37782038Y-88567980D02*
X37829657Y-88615599D01*
X37734419Y-89329885D02*
X38448704Y-89329885D01*
X38448704Y-89329885D02*
X38591561Y-89282266D01*
X38591561Y-89282266D02*
X38686800Y-89187028D01*
X38686800Y-89187028D02*
X38734419Y-89044171D01*
X38734419Y-89044171D02*
X38734419Y-88948933D01*
X38734419Y-90282266D02*
X38734419Y-89806076D01*
X38734419Y-89806076D02*
X37734419Y-89806076D01*
X38639180Y-91187028D02*
X38686800Y-91139409D01*
X38686800Y-91139409D02*
X38734419Y-90996552D01*
X38734419Y-90996552D02*
X38734419Y-90901314D01*
X38734419Y-90901314D02*
X38686800Y-90758457D01*
X38686800Y-90758457D02*
X38591561Y-90663219D01*
X38591561Y-90663219D02*
X38496323Y-90615600D01*
X38496323Y-90615600D02*
X38305847Y-90567981D01*
X38305847Y-90567981D02*
X38162990Y-90567981D01*
X38162990Y-90567981D02*
X37972514Y-90615600D01*
X37972514Y-90615600D02*
X37877276Y-90663219D01*
X37877276Y-90663219D02*
X37782038Y-90758457D01*
X37782038Y-90758457D02*
X37734419Y-90901314D01*
X37734419Y-90901314D02*
X37734419Y-90996552D01*
X37734419Y-90996552D02*
X37782038Y-91139409D01*
X37782038Y-91139409D02*
X37829657Y-91187028D01*
D13*
X56088550Y-114419633D02*
X56564740Y-114419633D01*
X56564740Y-114419633D02*
X56612359Y-114895823D01*
X56612359Y-114895823D02*
X56564740Y-114848204D01*
X56564740Y-114848204D02*
X56469502Y-114800585D01*
X56469502Y-114800585D02*
X56231407Y-114800585D01*
X56231407Y-114800585D02*
X56136169Y-114848204D01*
X56136169Y-114848204D02*
X56088550Y-114895823D01*
X56088550Y-114895823D02*
X56040931Y-114991061D01*
X56040931Y-114991061D02*
X56040931Y-115229156D01*
X56040931Y-115229156D02*
X56088550Y-115324394D01*
X56088550Y-115324394D02*
X56136169Y-115372014D01*
X56136169Y-115372014D02*
X56231407Y-115419633D01*
X56231407Y-115419633D02*
X56469502Y-115419633D01*
X56469502Y-115419633D02*
X56564740Y-115372014D01*
X56564740Y-115372014D02*
X56612359Y-115324394D01*
X55183788Y-115419633D02*
X55183788Y-114895823D01*
X55183788Y-114895823D02*
X55231407Y-114800585D01*
X55231407Y-114800585D02*
X55326645Y-114752966D01*
X55326645Y-114752966D02*
X55517121Y-114752966D01*
X55517121Y-114752966D02*
X55612359Y-114800585D01*
X55183788Y-115372014D02*
X55279026Y-115419633D01*
X55279026Y-115419633D02*
X55517121Y-115419633D01*
X55517121Y-115419633D02*
X55612359Y-115372014D01*
X55612359Y-115372014D02*
X55659978Y-115276775D01*
X55659978Y-115276775D02*
X55659978Y-115181537D01*
X55659978Y-115181537D02*
X55612359Y-115086299D01*
X55612359Y-115086299D02*
X55517121Y-115038680D01*
X55517121Y-115038680D02*
X55279026Y-115038680D01*
X55279026Y-115038680D02*
X55183788Y-114991061D01*
X96039522Y-115483133D02*
X96610950Y-115483133D01*
X96325236Y-115483133D02*
X96325236Y-114483133D01*
X96325236Y-114483133D02*
X96420474Y-114625990D01*
X96420474Y-114625990D02*
X96515712Y-114721228D01*
X96515712Y-114721228D02*
X96610950Y-114768847D01*
X95134760Y-114483133D02*
X95610950Y-114483133D01*
X95610950Y-114483133D02*
X95658569Y-114959323D01*
X95658569Y-114959323D02*
X95610950Y-114911704D01*
X95610950Y-114911704D02*
X95515712Y-114864085D01*
X95515712Y-114864085D02*
X95277617Y-114864085D01*
X95277617Y-114864085D02*
X95182379Y-114911704D01*
X95182379Y-114911704D02*
X95134760Y-114959323D01*
X95134760Y-114959323D02*
X95087141Y-115054561D01*
X95087141Y-115054561D02*
X95087141Y-115292656D01*
X95087141Y-115292656D02*
X95134760Y-115387894D01*
X95134760Y-115387894D02*
X95182379Y-115435514D01*
X95182379Y-115435514D02*
X95277617Y-115483133D01*
X95277617Y-115483133D02*
X95515712Y-115483133D01*
X95515712Y-115483133D02*
X95610950Y-115435514D01*
X95610950Y-115435514D02*
X95658569Y-115387894D01*
X94229998Y-115483133D02*
X94229998Y-114959323D01*
X94229998Y-114959323D02*
X94277617Y-114864085D01*
X94277617Y-114864085D02*
X94372855Y-114816466D01*
X94372855Y-114816466D02*
X94563331Y-114816466D01*
X94563331Y-114816466D02*
X94658569Y-114864085D01*
X94229998Y-115435514D02*
X94325236Y-115483133D01*
X94325236Y-115483133D02*
X94563331Y-115483133D01*
X94563331Y-115483133D02*
X94658569Y-115435514D01*
X94658569Y-115435514D02*
X94706188Y-115340275D01*
X94706188Y-115340275D02*
X94706188Y-115245037D01*
X94706188Y-115245037D02*
X94658569Y-115149799D01*
X94658569Y-115149799D02*
X94563331Y-115102180D01*
X94563331Y-115102180D02*
X94325236Y-115102180D01*
X94325236Y-115102180D02*
X94229998Y-115054561D01*
X39440784Y-113357552D02*
X39393165Y-113405171D01*
X39393165Y-113405171D02*
X39345545Y-113548028D01*
X39345545Y-113548028D02*
X39345545Y-113643266D01*
X39345545Y-113643266D02*
X39393165Y-113786123D01*
X39393165Y-113786123D02*
X39488403Y-113881361D01*
X39488403Y-113881361D02*
X39583641Y-113928980D01*
X39583641Y-113928980D02*
X39774117Y-113976599D01*
X39774117Y-113976599D02*
X39916974Y-113976599D01*
X39916974Y-113976599D02*
X40107450Y-113928980D01*
X40107450Y-113928980D02*
X40202688Y-113881361D01*
X40202688Y-113881361D02*
X40297926Y-113786123D01*
X40297926Y-113786123D02*
X40345545Y-113643266D01*
X40345545Y-113643266D02*
X40345545Y-113548028D01*
X40345545Y-113548028D02*
X40297926Y-113405171D01*
X40297926Y-113405171D02*
X40250307Y-113357552D01*
X39345545Y-112452790D02*
X39345545Y-112928980D01*
X39345545Y-112928980D02*
X40345545Y-112928980D01*
X39345545Y-112119456D02*
X40345545Y-112119456D01*
X39345545Y-111548028D02*
X39916974Y-111976599D01*
X40345545Y-111548028D02*
X39774117Y-112119456D01*
X80329622Y-115432333D02*
X80901050Y-115432333D01*
X80615336Y-115432333D02*
X80615336Y-114432333D01*
X80615336Y-114432333D02*
X80710574Y-114575190D01*
X80710574Y-114575190D02*
X80805812Y-114670428D01*
X80805812Y-114670428D02*
X80901050Y-114718047D01*
X79377241Y-115432333D02*
X79948669Y-115432333D01*
X79662955Y-115432333D02*
X79662955Y-114432333D01*
X79662955Y-114432333D02*
X79758193Y-114575190D01*
X79758193Y-114575190D02*
X79853431Y-114670428D01*
X79853431Y-114670428D02*
X79948669Y-114718047D01*
X78520098Y-115432333D02*
X78520098Y-114908523D01*
X78520098Y-114908523D02*
X78567717Y-114813285D01*
X78567717Y-114813285D02*
X78662955Y-114765666D01*
X78662955Y-114765666D02*
X78853431Y-114765666D01*
X78853431Y-114765666D02*
X78948669Y-114813285D01*
X78520098Y-115384714D02*
X78615336Y-115432333D01*
X78615336Y-115432333D02*
X78853431Y-115432333D01*
X78853431Y-115432333D02*
X78948669Y-115384714D01*
X78948669Y-115384714D02*
X78996288Y-115289475D01*
X78996288Y-115289475D02*
X78996288Y-115194237D01*
X78996288Y-115194237D02*
X78948669Y-115098999D01*
X78948669Y-115098999D02*
X78853431Y-115051380D01*
X78853431Y-115051380D02*
X78615336Y-115051380D01*
X78615336Y-115051380D02*
X78520098Y-115003761D01*
X68296383Y-114860904D02*
X68391621Y-114813285D01*
X68391621Y-114813285D02*
X68439240Y-114765666D01*
X68439240Y-114765666D02*
X68486859Y-114670428D01*
X68486859Y-114670428D02*
X68486859Y-114622809D01*
X68486859Y-114622809D02*
X68439240Y-114527571D01*
X68439240Y-114527571D02*
X68391621Y-114479952D01*
X68391621Y-114479952D02*
X68296383Y-114432333D01*
X68296383Y-114432333D02*
X68105907Y-114432333D01*
X68105907Y-114432333D02*
X68010669Y-114479952D01*
X68010669Y-114479952D02*
X67963050Y-114527571D01*
X67963050Y-114527571D02*
X67915431Y-114622809D01*
X67915431Y-114622809D02*
X67915431Y-114670428D01*
X67915431Y-114670428D02*
X67963050Y-114765666D01*
X67963050Y-114765666D02*
X68010669Y-114813285D01*
X68010669Y-114813285D02*
X68105907Y-114860904D01*
X68105907Y-114860904D02*
X68296383Y-114860904D01*
X68296383Y-114860904D02*
X68391621Y-114908523D01*
X68391621Y-114908523D02*
X68439240Y-114956142D01*
X68439240Y-114956142D02*
X68486859Y-115051380D01*
X68486859Y-115051380D02*
X68486859Y-115241856D01*
X68486859Y-115241856D02*
X68439240Y-115337094D01*
X68439240Y-115337094D02*
X68391621Y-115384714D01*
X68391621Y-115384714D02*
X68296383Y-115432333D01*
X68296383Y-115432333D02*
X68105907Y-115432333D01*
X68105907Y-115432333D02*
X68010669Y-115384714D01*
X68010669Y-115384714D02*
X67963050Y-115337094D01*
X67963050Y-115337094D02*
X67915431Y-115241856D01*
X67915431Y-115241856D02*
X67915431Y-115051380D01*
X67915431Y-115051380D02*
X67963050Y-114956142D01*
X67963050Y-114956142D02*
X68010669Y-114908523D01*
X68010669Y-114908523D02*
X68105907Y-114860904D01*
X67058288Y-115432333D02*
X67058288Y-114908523D01*
X67058288Y-114908523D02*
X67105907Y-114813285D01*
X67105907Y-114813285D02*
X67201145Y-114765666D01*
X67201145Y-114765666D02*
X67391621Y-114765666D01*
X67391621Y-114765666D02*
X67486859Y-114813285D01*
X67058288Y-115384714D02*
X67153526Y-115432333D01*
X67153526Y-115432333D02*
X67391621Y-115432333D01*
X67391621Y-115432333D02*
X67486859Y-115384714D01*
X67486859Y-115384714D02*
X67534478Y-115289475D01*
X67534478Y-115289475D02*
X67534478Y-115194237D01*
X67534478Y-115194237D02*
X67486859Y-115098999D01*
X67486859Y-115098999D02*
X67391621Y-115051380D01*
X67391621Y-115051380D02*
X67153526Y-115051380D01*
X67153526Y-115051380D02*
X67058288Y-115003761D01*
X94899103Y-111351409D02*
X94851484Y-111256171D01*
X94851484Y-111256171D02*
X94851484Y-111113314D01*
X94851484Y-111113314D02*
X94899103Y-110970457D01*
X94899103Y-110970457D02*
X94994341Y-110875219D01*
X94994341Y-110875219D02*
X95089579Y-110827600D01*
X95089579Y-110827600D02*
X95280055Y-110779981D01*
X95280055Y-110779981D02*
X95422912Y-110779981D01*
X95422912Y-110779981D02*
X95613388Y-110827600D01*
X95613388Y-110827600D02*
X95708626Y-110875219D01*
X95708626Y-110875219D02*
X95803865Y-110970457D01*
X95803865Y-110970457D02*
X95851484Y-111113314D01*
X95851484Y-111113314D02*
X95851484Y-111208552D01*
X95851484Y-111208552D02*
X95803865Y-111351409D01*
X95803865Y-111351409D02*
X95756245Y-111399028D01*
X95756245Y-111399028D02*
X95422912Y-111399028D01*
X95422912Y-111399028D02*
X95422912Y-111208552D01*
X95851484Y-111827600D02*
X94851484Y-111827600D01*
X94851484Y-111827600D02*
X95851484Y-112399028D01*
X95851484Y-112399028D02*
X94851484Y-112399028D01*
X95851484Y-112875219D02*
X94851484Y-112875219D01*
X94851484Y-112875219D02*
X94851484Y-113113314D01*
X94851484Y-113113314D02*
X94899103Y-113256171D01*
X94899103Y-113256171D02*
X94994341Y-113351409D01*
X94994341Y-113351409D02*
X95089579Y-113399028D01*
X95089579Y-113399028D02*
X95280055Y-113446647D01*
X95280055Y-113446647D02*
X95422912Y-113446647D01*
X95422912Y-113446647D02*
X95613388Y-113399028D01*
X95613388Y-113399028D02*
X95708626Y-113351409D01*
X95708626Y-113351409D02*
X95803865Y-113256171D01*
X95803865Y-113256171D02*
X95851484Y-113113314D01*
X95851484Y-113113314D02*
X95851484Y-112875219D01*
X69166673Y-112873318D02*
X68690483Y-112873318D01*
X69261911Y-113159033D02*
X68928578Y-112159033D01*
X68928578Y-112159033D02*
X68595245Y-113159033D01*
X67976197Y-113492366D02*
X68214292Y-113492366D01*
X68214292Y-113492366D02*
X68214292Y-112063794D01*
X68214292Y-112063794D02*
X67976197Y-112063794D01*
X67166673Y-112159033D02*
X67357149Y-112159033D01*
X67357149Y-112159033D02*
X67452387Y-112206652D01*
X67452387Y-112206652D02*
X67500006Y-112254271D01*
X67500006Y-112254271D02*
X67595244Y-112397128D01*
X67595244Y-112397128D02*
X67642863Y-112587604D01*
X67642863Y-112587604D02*
X67642863Y-112968556D01*
X67642863Y-112968556D02*
X67595244Y-113063794D01*
X67595244Y-113063794D02*
X67547625Y-113111414D01*
X67547625Y-113111414D02*
X67452387Y-113159033D01*
X67452387Y-113159033D02*
X67261911Y-113159033D01*
X67261911Y-113159033D02*
X67166673Y-113111414D01*
X67166673Y-113111414D02*
X67119054Y-113063794D01*
X67119054Y-113063794D02*
X67071435Y-112968556D01*
X67071435Y-112968556D02*
X67071435Y-112730461D01*
X67071435Y-112730461D02*
X67119054Y-112635223D01*
X67119054Y-112635223D02*
X67166673Y-112587604D01*
X67166673Y-112587604D02*
X67261911Y-112539985D01*
X67261911Y-112539985D02*
X67452387Y-112539985D01*
X67452387Y-112539985D02*
X67547625Y-112587604D01*
X67547625Y-112587604D02*
X67595244Y-112635223D01*
X67595244Y-112635223D02*
X67642863Y-112730461D01*
X66595244Y-113111414D02*
X66595244Y-113159033D01*
X66595244Y-113159033D02*
X66642863Y-113254271D01*
X66642863Y-113254271D02*
X66690482Y-113301890D01*
X65738102Y-112492366D02*
X65738102Y-113159033D01*
X65976197Y-112111414D02*
X66214292Y-112825699D01*
X66214292Y-112825699D02*
X65595245Y-112825699D01*
X65166673Y-113111414D02*
X65166673Y-113159033D01*
X65166673Y-113159033D02*
X65214292Y-113254271D01*
X65214292Y-113254271D02*
X65261911Y-113301890D01*
X64785721Y-112254271D02*
X64738102Y-112206652D01*
X64738102Y-112206652D02*
X64642864Y-112159033D01*
X64642864Y-112159033D02*
X64404769Y-112159033D01*
X64404769Y-112159033D02*
X64309531Y-112206652D01*
X64309531Y-112206652D02*
X64261912Y-112254271D01*
X64261912Y-112254271D02*
X64214293Y-112349509D01*
X64214293Y-112349509D02*
X64214293Y-112444747D01*
X64214293Y-112444747D02*
X64261912Y-112587604D01*
X64261912Y-112587604D02*
X64833340Y-113159033D01*
X64833340Y-113159033D02*
X64214293Y-113159033D01*
X63738102Y-113111414D02*
X63738102Y-113159033D01*
X63738102Y-113159033D02*
X63785721Y-113254271D01*
X63785721Y-113254271D02*
X63833340Y-113301890D01*
X63119055Y-112159033D02*
X63023817Y-112159033D01*
X63023817Y-112159033D02*
X62928579Y-112206652D01*
X62928579Y-112206652D02*
X62880960Y-112254271D01*
X62880960Y-112254271D02*
X62833341Y-112349509D01*
X62833341Y-112349509D02*
X62785722Y-112539985D01*
X62785722Y-112539985D02*
X62785722Y-112778080D01*
X62785722Y-112778080D02*
X62833341Y-112968556D01*
X62833341Y-112968556D02*
X62880960Y-113063794D01*
X62880960Y-113063794D02*
X62928579Y-113111414D01*
X62928579Y-113111414D02*
X63023817Y-113159033D01*
X63023817Y-113159033D02*
X63119055Y-113159033D01*
X63119055Y-113159033D02*
X63214293Y-113111414D01*
X63214293Y-113111414D02*
X63261912Y-113063794D01*
X63261912Y-113063794D02*
X63309531Y-112968556D01*
X63309531Y-112968556D02*
X63357150Y-112778080D01*
X63357150Y-112778080D02*
X63357150Y-112539985D01*
X63357150Y-112539985D02*
X63309531Y-112349509D01*
X63309531Y-112349509D02*
X63261912Y-112254271D01*
X63261912Y-112254271D02*
X63214293Y-112206652D01*
X63214293Y-112206652D02*
X63119055Y-112159033D01*
X62452388Y-113492366D02*
X62214293Y-113492366D01*
X62214293Y-113492366D02*
X62214293Y-112063794D01*
X62214293Y-112063794D02*
X62452388Y-112063794D01*
X60009669Y-114432333D02*
X60200145Y-114432333D01*
X60200145Y-114432333D02*
X60295383Y-114479952D01*
X60295383Y-114479952D02*
X60343002Y-114527571D01*
X60343002Y-114527571D02*
X60438240Y-114670428D01*
X60438240Y-114670428D02*
X60485859Y-114860904D01*
X60485859Y-114860904D02*
X60485859Y-115241856D01*
X60485859Y-115241856D02*
X60438240Y-115337094D01*
X60438240Y-115337094D02*
X60390621Y-115384714D01*
X60390621Y-115384714D02*
X60295383Y-115432333D01*
X60295383Y-115432333D02*
X60104907Y-115432333D01*
X60104907Y-115432333D02*
X60009669Y-115384714D01*
X60009669Y-115384714D02*
X59962050Y-115337094D01*
X59962050Y-115337094D02*
X59914431Y-115241856D01*
X59914431Y-115241856D02*
X59914431Y-115003761D01*
X59914431Y-115003761D02*
X59962050Y-114908523D01*
X59962050Y-114908523D02*
X60009669Y-114860904D01*
X60009669Y-114860904D02*
X60104907Y-114813285D01*
X60104907Y-114813285D02*
X60295383Y-114813285D01*
X60295383Y-114813285D02*
X60390621Y-114860904D01*
X60390621Y-114860904D02*
X60438240Y-114908523D01*
X60438240Y-114908523D02*
X60485859Y-115003761D01*
X59057288Y-115432333D02*
X59057288Y-114908523D01*
X59057288Y-114908523D02*
X59104907Y-114813285D01*
X59104907Y-114813285D02*
X59200145Y-114765666D01*
X59200145Y-114765666D02*
X59390621Y-114765666D01*
X59390621Y-114765666D02*
X59485859Y-114813285D01*
X59057288Y-115384714D02*
X59152526Y-115432333D01*
X59152526Y-115432333D02*
X59390621Y-115432333D01*
X59390621Y-115432333D02*
X59485859Y-115384714D01*
X59485859Y-115384714D02*
X59533478Y-115289475D01*
X59533478Y-115289475D02*
X59533478Y-115194237D01*
X59533478Y-115194237D02*
X59485859Y-115098999D01*
X59485859Y-115098999D02*
X59390621Y-115051380D01*
X59390621Y-115051380D02*
X59152526Y-115051380D01*
X59152526Y-115051380D02*
X59057288Y-115003761D01*
D14*
G36*
X41870988Y-39332700D02*
G01*
X41501159Y-39333609D01*
X41496064Y-39332481D01*
X41489505Y-39333638D01*
X41235036Y-39334264D01*
X41080087Y-39258383D01*
X41006448Y-39186556D01*
X40927101Y-39031086D01*
X40925598Y-38792284D01*
X41001302Y-38637696D01*
X41073128Y-38564057D01*
X41228445Y-38484788D01*
X41870180Y-38483210D01*
X41870988Y-39332700D01*
G37*
G36*
X47166070Y-39713680D02*
G01*
X46488542Y-39715019D01*
X46826510Y-38698056D01*
X47166070Y-39713680D01*
G37*
G36*
X50728132Y-39332700D02*
G01*
X50092180Y-39334264D01*
X49937231Y-39258383D01*
X49863592Y-39186556D01*
X49784245Y-39031086D01*
X49782742Y-38792284D01*
X49858446Y-38637696D01*
X49930272Y-38564057D01*
X50085589Y-38484788D01*
X50727324Y-38483210D01*
X50728132Y-39332700D01*
G37*
G36*
X51149453Y-40707060D02*
G01*
X37078357Y-40707060D01*
X37078357Y-40365329D01*
X37300579Y-40365329D01*
X37300579Y-40404347D01*
X37315511Y-40440395D01*
X37343101Y-40467985D01*
X37379149Y-40482917D01*
X37398658Y-40484838D01*
X38561024Y-40482917D01*
X38597072Y-40467985D01*
X38624662Y-40440395D01*
X38639594Y-40404347D01*
X38639594Y-40365329D01*
X38624662Y-40329281D01*
X38597072Y-40301691D01*
X38561024Y-40286759D01*
X38541515Y-40284838D01*
X38069992Y-40285617D01*
X38068493Y-38709625D01*
X38073923Y-38717678D01*
X38077416Y-38726109D01*
X38089716Y-38741098D01*
X38089778Y-38741189D01*
X38089807Y-38741208D01*
X38089852Y-38741263D01*
X38280514Y-38929405D01*
X38289727Y-38940028D01*
X38294013Y-38942726D01*
X38295482Y-38944175D01*
X38297919Y-38945184D01*
X38306318Y-38950471D01*
X38515102Y-39052715D01*
X38554023Y-39055481D01*
X38591038Y-39043142D01*
X38620515Y-39017578D01*
X38637965Y-38982679D01*
X38640730Y-38943759D01*
X38628391Y-38906743D01*
X38602827Y-38877266D01*
X38586237Y-38866823D01*
X38413610Y-38782286D01*
X38396893Y-38765790D01*
X40727230Y-38765790D01*
X40728932Y-39036245D01*
X40728015Y-39038997D01*
X40729040Y-39053423D01*
X40729151Y-39071013D01*
X40730526Y-39074333D01*
X40730781Y-39077917D01*
X40737787Y-39096225D01*
X40834105Y-39284947D01*
X40839320Y-39297537D01*
X40842521Y-39301437D01*
X40843468Y-39303292D01*
X40845464Y-39305023D01*
X40851757Y-39312690D01*
X40948145Y-39406707D01*
X40956394Y-39416219D01*
X40960629Y-39418885D01*
X40962148Y-39420366D01*
X40964588Y-39421376D01*
X40972985Y-39426662D01*
X41150723Y-39513702D01*
X41152625Y-39515604D01*
X41165477Y-39520927D01*
X41181769Y-39528906D01*
X41185352Y-39529160D01*
X41188673Y-39530536D01*
X41208182Y-39532457D01*
X41302373Y-39532225D01*
X40735693Y-40344576D01*
X40727253Y-40382670D01*
X40734034Y-40421095D01*
X40755003Y-40454000D01*
X40786968Y-40476375D01*
X40825062Y-40484815D01*
X40863487Y-40478034D01*
X40896392Y-40457065D01*
X40909153Y-40442184D01*
X41544339Y-39531630D01*
X41871177Y-39530827D01*
X41872008Y-40404347D01*
X41886940Y-40440395D01*
X41914530Y-40467985D01*
X41950578Y-40482917D01*
X41989596Y-40482917D01*
X42025644Y-40467985D01*
X42053234Y-40440395D01*
X42068166Y-40404347D01*
X42070087Y-40384838D01*
X42068166Y-38365329D01*
X42729151Y-38365329D01*
X42729151Y-38404347D01*
X42744083Y-38440395D01*
X42771673Y-38467985D01*
X42807721Y-38482917D01*
X42827230Y-38484838D01*
X43679704Y-38483153D01*
X43680422Y-39237496D01*
X43093435Y-39239140D01*
X43057387Y-39254072D01*
X43029797Y-39281662D01*
X43014865Y-39317710D01*
X43014865Y-39356728D01*
X43029797Y-39392776D01*
X43057387Y-39420366D01*
X43093435Y-39435298D01*
X43112944Y-39437219D01*
X43680610Y-39435629D01*
X43681418Y-40285032D01*
X42807721Y-40286759D01*
X42771673Y-40301691D01*
X42744083Y-40329281D01*
X42729151Y-40365329D01*
X42729151Y-40404347D01*
X42744083Y-40440395D01*
X42771673Y-40467985D01*
X42807721Y-40482917D01*
X42827230Y-40484838D01*
X43799120Y-40482917D01*
X43835168Y-40467985D01*
X43862758Y-40440395D01*
X43877690Y-40404347D01*
X43879611Y-40384838D01*
X43877706Y-38382606D01*
X44346303Y-38382606D01*
X44353059Y-38421035D01*
X44361912Y-38438526D01*
X45012995Y-39458225D01*
X45014866Y-40404347D01*
X45029798Y-40440395D01*
X45057388Y-40467985D01*
X45093436Y-40482917D01*
X45132454Y-40482917D01*
X45168502Y-40467985D01*
X45196092Y-40440395D01*
X45211024Y-40404347D01*
X45212945Y-40384838D01*
X45212920Y-40372331D01*
X46061349Y-40372331D01*
X46064115Y-40411251D01*
X46081565Y-40446149D01*
X46111041Y-40471715D01*
X46148057Y-40484053D01*
X46186977Y-40481287D01*
X46221875Y-40463837D01*
X46247441Y-40434361D01*
X46255432Y-40416461D01*
X46422658Y-39913267D01*
X47232264Y-39911667D01*
X47407020Y-40434361D01*
X47432586Y-40463837D01*
X47467484Y-40481287D01*
X47506404Y-40484053D01*
X47543420Y-40471715D01*
X47572896Y-40446150D01*
X47590346Y-40411251D01*
X47593112Y-40372331D01*
X47591520Y-40365329D01*
X47776771Y-40365329D01*
X47776771Y-40404347D01*
X47791703Y-40440395D01*
X47819293Y-40467985D01*
X47855341Y-40482917D01*
X47874850Y-40484838D01*
X48846740Y-40482917D01*
X48882788Y-40467985D01*
X48910378Y-40440395D01*
X48925310Y-40404347D01*
X48927231Y-40384838D01*
X48925691Y-38765790D01*
X49584374Y-38765790D01*
X49586076Y-39036245D01*
X49585159Y-39038997D01*
X49586184Y-39053423D01*
X49586295Y-39071013D01*
X49587670Y-39074333D01*
X49587925Y-39077917D01*
X49594931Y-39096225D01*
X49691249Y-39284947D01*
X49696464Y-39297537D01*
X49699665Y-39301437D01*
X49700612Y-39303292D01*
X49702608Y-39305023D01*
X49708901Y-39312690D01*
X49805289Y-39406707D01*
X49813538Y-39416219D01*
X49817773Y-39418885D01*
X49819292Y-39420366D01*
X49821732Y-39421376D01*
X49830129Y-39426662D01*
X50007867Y-39513702D01*
X50009769Y-39515604D01*
X50022621Y-39520927D01*
X50038913Y-39528906D01*
X50042496Y-39529160D01*
X50045817Y-39530536D01*
X50065326Y-39532457D01*
X50728321Y-39530827D01*
X50729152Y-40404347D01*
X50744084Y-40440395D01*
X50771674Y-40467985D01*
X50807722Y-40482917D01*
X50846740Y-40482917D01*
X50882788Y-40467985D01*
X50910378Y-40440395D01*
X50925310Y-40404347D01*
X50927231Y-40384838D01*
X50925310Y-38365329D01*
X50910378Y-38329281D01*
X50882788Y-38301691D01*
X50846740Y-38286759D01*
X50827231Y-38284838D01*
X50080982Y-38286672D01*
X50077834Y-38285623D01*
X50062423Y-38286718D01*
X50045817Y-38286759D01*
X50042496Y-38288134D01*
X50038913Y-38288389D01*
X50020605Y-38295395D01*
X49831876Y-38391716D01*
X49819293Y-38396929D01*
X49815393Y-38400128D01*
X49813538Y-38401076D01*
X49811805Y-38403073D01*
X49804139Y-38409365D01*
X49710127Y-38505749D01*
X49700612Y-38514002D01*
X49697943Y-38518241D01*
X49696465Y-38519757D01*
X49695455Y-38522193D01*
X49690169Y-38530592D01*
X49603128Y-38708331D01*
X49601227Y-38710233D01*
X49595903Y-38723084D01*
X49587925Y-38739377D01*
X49587670Y-38742960D01*
X49586295Y-38746281D01*
X49584374Y-38765790D01*
X48925691Y-38765790D01*
X48925310Y-38365329D01*
X48910378Y-38329281D01*
X48882788Y-38301691D01*
X48846740Y-38286759D01*
X48807722Y-38286759D01*
X48771674Y-38301691D01*
X48744084Y-38329281D01*
X48729152Y-38365329D01*
X48727231Y-38384838D01*
X48729038Y-40285032D01*
X47855341Y-40286759D01*
X47819293Y-40301691D01*
X47791703Y-40329281D01*
X47776771Y-40365329D01*
X47591520Y-40365329D01*
X47588765Y-40353215D01*
X46924178Y-38365434D01*
X46923680Y-38358426D01*
X46918111Y-38347289D01*
X46914108Y-38335315D01*
X46909423Y-38329913D01*
X46906230Y-38323527D01*
X46896761Y-38315314D01*
X46888543Y-38305839D01*
X46882151Y-38302642D01*
X46876754Y-38297962D01*
X46864860Y-38293997D01*
X46853644Y-38288389D01*
X46846516Y-38287882D01*
X46839738Y-38285623D01*
X46827231Y-38286511D01*
X46814724Y-38285623D01*
X46807945Y-38287882D01*
X46800818Y-38288389D01*
X46789605Y-38293995D01*
X46777708Y-38297961D01*
X46772308Y-38302644D01*
X46765919Y-38305839D01*
X46757703Y-38315310D01*
X46748232Y-38323526D01*
X46745037Y-38329915D01*
X46740354Y-38335315D01*
X46732363Y-38353215D01*
X46256088Y-39786349D01*
X46252961Y-39793900D01*
X46252961Y-39795760D01*
X46061349Y-40372331D01*
X45212920Y-40372331D01*
X45211125Y-39464363D01*
X45872830Y-38421036D01*
X45879586Y-38382607D01*
X45871122Y-38344518D01*
X45848726Y-38312567D01*
X45815808Y-38291619D01*
X45777379Y-38284863D01*
X45739290Y-38293328D01*
X45707339Y-38315723D01*
X45695245Y-38331151D01*
X45113785Y-39247954D01*
X44518550Y-38315723D01*
X44486599Y-38293327D01*
X44448510Y-38284863D01*
X44410081Y-38291619D01*
X44377163Y-38312566D01*
X44354767Y-38344517D01*
X44346303Y-38382606D01*
X43877706Y-38382606D01*
X43877690Y-38365329D01*
X43862758Y-38329281D01*
X43835168Y-38301691D01*
X43799120Y-38286759D01*
X43779611Y-38284838D01*
X42807721Y-38286759D01*
X42771673Y-38301691D01*
X42744083Y-38329281D01*
X42729151Y-38365329D01*
X42068166Y-38365329D01*
X42053234Y-38329281D01*
X42025644Y-38301691D01*
X41989596Y-38286759D01*
X41970087Y-38284838D01*
X41223838Y-38286672D01*
X41220690Y-38285623D01*
X41205279Y-38286718D01*
X41188673Y-38286759D01*
X41185352Y-38288134D01*
X41181769Y-38288389D01*
X41163461Y-38295395D01*
X40974732Y-38391716D01*
X40962149Y-38396929D01*
X40958249Y-38400128D01*
X40956394Y-38401076D01*
X40954661Y-38403073D01*
X40946995Y-38409365D01*
X40852983Y-38505749D01*
X40843468Y-38514002D01*
X40840799Y-38518241D01*
X40839321Y-38519757D01*
X40838311Y-38522193D01*
X40833025Y-38530592D01*
X40745984Y-38708331D01*
X40744083Y-38710233D01*
X40738759Y-38723084D01*
X40730781Y-38739377D01*
X40730526Y-38742960D01*
X40729151Y-38746281D01*
X40727230Y-38765790D01*
X38396893Y-38765790D01*
X38242973Y-38613903D01*
X38056726Y-38337711D01*
X38053234Y-38329281D01*
X38046500Y-38322547D01*
X38040872Y-38314201D01*
X38032643Y-38308690D01*
X38025644Y-38301691D01*
X38016592Y-38297941D01*
X38008452Y-38292490D01*
X37998744Y-38290548D01*
X37989596Y-38286759D01*
X37979797Y-38286759D01*
X37970192Y-38284838D01*
X37960481Y-38286759D01*
X37950578Y-38286759D01*
X37941525Y-38290508D01*
X37931915Y-38292410D01*
X37923676Y-38297902D01*
X37914530Y-38301691D01*
X37907603Y-38308617D01*
X37899450Y-38314053D01*
X37893939Y-38322281D01*
X37886940Y-38329281D01*
X37883190Y-38338332D01*
X37877739Y-38346473D01*
X37875797Y-38356180D01*
X37872008Y-38365329D01*
X37870107Y-38384631D01*
X37870087Y-38384733D01*
X37870093Y-38384767D01*
X37870087Y-38384838D01*
X37871895Y-40285944D01*
X37379149Y-40286759D01*
X37343101Y-40301691D01*
X37315511Y-40329281D01*
X37300579Y-40365329D01*
X37078357Y-40365329D01*
X37078357Y-38062616D01*
X51149453Y-38062616D01*
X51149453Y-40707060D01*
G37*
D12*
X74806122Y-112808842D02*
X75377550Y-113208842D01*
X74806122Y-113494556D02*
X76006122Y-113494556D01*
X76006122Y-113494556D02*
X76006122Y-113037413D01*
X76006122Y-113037413D02*
X75948979Y-112923128D01*
X75948979Y-112923128D02*
X75891836Y-112865985D01*
X75891836Y-112865985D02*
X75777550Y-112808842D01*
X75777550Y-112808842D02*
X75606122Y-112808842D01*
X75606122Y-112808842D02*
X75491836Y-112865985D01*
X75491836Y-112865985D02*
X75434693Y-112923128D01*
X75434693Y-112923128D02*
X75377550Y-113037413D01*
X75377550Y-113037413D02*
X75377550Y-113494556D01*
X74806122Y-112294556D02*
X76006122Y-112294556D01*
X76006122Y-112294556D02*
X76006122Y-112008842D01*
X76006122Y-112008842D02*
X75948979Y-111837413D01*
X75948979Y-111837413D02*
X75834693Y-111723128D01*
X75834693Y-111723128D02*
X75720407Y-111665985D01*
X75720407Y-111665985D02*
X75491836Y-111608842D01*
X75491836Y-111608842D02*
X75320407Y-111608842D01*
X75320407Y-111608842D02*
X75091836Y-111665985D01*
X75091836Y-111665985D02*
X74977550Y-111723128D01*
X74977550Y-111723128D02*
X74863265Y-111837413D01*
X74863265Y-111837413D02*
X74806122Y-112008842D01*
X74806122Y-112008842D02*
X74806122Y-112294556D01*
X76339265Y-113660271D02*
X76339265Y-111500271D01*
D13*
X84165022Y-115356133D02*
X84736450Y-115356133D01*
X84450736Y-115356133D02*
X84450736Y-114356133D01*
X84450736Y-114356133D02*
X84545974Y-114498990D01*
X84545974Y-114498990D02*
X84641212Y-114594228D01*
X84641212Y-114594228D02*
X84736450Y-114641847D01*
X83784069Y-114451371D02*
X83736450Y-114403752D01*
X83736450Y-114403752D02*
X83641212Y-114356133D01*
X83641212Y-114356133D02*
X83403117Y-114356133D01*
X83403117Y-114356133D02*
X83307879Y-114403752D01*
X83307879Y-114403752D02*
X83260260Y-114451371D01*
X83260260Y-114451371D02*
X83212641Y-114546609D01*
X83212641Y-114546609D02*
X83212641Y-114641847D01*
X83212641Y-114641847D02*
X83260260Y-114784704D01*
X83260260Y-114784704D02*
X83831688Y-115356133D01*
X83831688Y-115356133D02*
X83212641Y-115356133D01*
X82355498Y-115356133D02*
X82355498Y-114832323D01*
X82355498Y-114832323D02*
X82403117Y-114737085D01*
X82403117Y-114737085D02*
X82498355Y-114689466D01*
X82498355Y-114689466D02*
X82688831Y-114689466D01*
X82688831Y-114689466D02*
X82784069Y-114737085D01*
X82355498Y-115308514D02*
X82450736Y-115356133D01*
X82450736Y-115356133D02*
X82688831Y-115356133D01*
X82688831Y-115356133D02*
X82784069Y-115308514D01*
X82784069Y-115308514D02*
X82831688Y-115213275D01*
X82831688Y-115213275D02*
X82831688Y-115118037D01*
X82831688Y-115118037D02*
X82784069Y-115022799D01*
X82784069Y-115022799D02*
X82688831Y-114975180D01*
X82688831Y-114975180D02*
X82450736Y-114975180D01*
X82450736Y-114975180D02*
X82355498Y-114927561D01*
X44674359Y-114514871D02*
X44626740Y-114467252D01*
X44626740Y-114467252D02*
X44531502Y-114419633D01*
X44531502Y-114419633D02*
X44293407Y-114419633D01*
X44293407Y-114419633D02*
X44198169Y-114467252D01*
X44198169Y-114467252D02*
X44150550Y-114514871D01*
X44150550Y-114514871D02*
X44102931Y-114610109D01*
X44102931Y-114610109D02*
X44102931Y-114705347D01*
X44102931Y-114705347D02*
X44150550Y-114848204D01*
X44150550Y-114848204D02*
X44721978Y-115419633D01*
X44721978Y-115419633D02*
X44102931Y-115419633D01*
X43245788Y-115419633D02*
X43245788Y-114895823D01*
X43245788Y-114895823D02*
X43293407Y-114800585D01*
X43293407Y-114800585D02*
X43388645Y-114752966D01*
X43388645Y-114752966D02*
X43579121Y-114752966D01*
X43579121Y-114752966D02*
X43674359Y-114800585D01*
X43245788Y-115372014D02*
X43341026Y-115419633D01*
X43341026Y-115419633D02*
X43579121Y-115419633D01*
X43579121Y-115419633D02*
X43674359Y-115372014D01*
X43674359Y-115372014D02*
X43721978Y-115276775D01*
X43721978Y-115276775D02*
X43721978Y-115181537D01*
X43721978Y-115181537D02*
X43674359Y-115086299D01*
X43674359Y-115086299D02*
X43579121Y-115038680D01*
X43579121Y-115038680D02*
X43341026Y-115038680D01*
X43341026Y-115038680D02*
X43245788Y-114991061D01*
D10*
X96851115Y-105917419D02*
X96851115Y-104917419D01*
X96851115Y-104917419D02*
X96613020Y-104917419D01*
X96613020Y-104917419D02*
X96470163Y-104965038D01*
X96470163Y-104965038D02*
X96374925Y-105060276D01*
X96374925Y-105060276D02*
X96327306Y-105155514D01*
X96327306Y-105155514D02*
X96279687Y-105345990D01*
X96279687Y-105345990D02*
X96279687Y-105488847D01*
X96279687Y-105488847D02*
X96327306Y-105679323D01*
X96327306Y-105679323D02*
X96374925Y-105774561D01*
X96374925Y-105774561D02*
X96470163Y-105869800D01*
X96470163Y-105869800D02*
X96613020Y-105917419D01*
X96613020Y-105917419D02*
X96851115Y-105917419D01*
X95851115Y-105917419D02*
X95851115Y-105250752D01*
X95851115Y-104917419D02*
X95898734Y-104965038D01*
X95898734Y-104965038D02*
X95851115Y-105012657D01*
X95851115Y-105012657D02*
X95803496Y-104965038D01*
X95803496Y-104965038D02*
X95851115Y-104917419D01*
X95851115Y-104917419D02*
X95851115Y-105012657D01*
X95232068Y-105917419D02*
X95327306Y-105869800D01*
X95327306Y-105869800D02*
X95374925Y-105822180D01*
X95374925Y-105822180D02*
X95422544Y-105726942D01*
X95422544Y-105726942D02*
X95422544Y-105441228D01*
X95422544Y-105441228D02*
X95374925Y-105345990D01*
X95374925Y-105345990D02*
X95327306Y-105298371D01*
X95327306Y-105298371D02*
X95232068Y-105250752D01*
X95232068Y-105250752D02*
X95089211Y-105250752D01*
X95089211Y-105250752D02*
X94993973Y-105298371D01*
X94993973Y-105298371D02*
X94946354Y-105345990D01*
X94946354Y-105345990D02*
X94898735Y-105441228D01*
X94898735Y-105441228D02*
X94898735Y-105726942D01*
X94898735Y-105726942D02*
X94946354Y-105822180D01*
X94946354Y-105822180D02*
X94993973Y-105869800D01*
X94993973Y-105869800D02*
X95089211Y-105917419D01*
X95089211Y-105917419D02*
X95232068Y-105917419D01*
X94041592Y-105917419D02*
X94041592Y-104917419D01*
X94041592Y-105869800D02*
X94136830Y-105917419D01*
X94136830Y-105917419D02*
X94327306Y-105917419D01*
X94327306Y-105917419D02*
X94422544Y-105869800D01*
X94422544Y-105869800D02*
X94470163Y-105822180D01*
X94470163Y-105822180D02*
X94517782Y-105726942D01*
X94517782Y-105726942D02*
X94517782Y-105441228D01*
X94517782Y-105441228D02*
X94470163Y-105345990D01*
X94470163Y-105345990D02*
X94422544Y-105298371D01*
X94422544Y-105298371D02*
X94327306Y-105250752D01*
X94327306Y-105250752D02*
X94136830Y-105250752D01*
X94136830Y-105250752D02*
X94041592Y-105298371D01*
X93184449Y-105869800D02*
X93279687Y-105917419D01*
X93279687Y-105917419D02*
X93470163Y-105917419D01*
X93470163Y-105917419D02*
X93565401Y-105869800D01*
X93565401Y-105869800D02*
X93613020Y-105774561D01*
X93613020Y-105774561D02*
X93613020Y-105393609D01*
X93613020Y-105393609D02*
X93565401Y-105298371D01*
X93565401Y-105298371D02*
X93470163Y-105250752D01*
X93470163Y-105250752D02*
X93279687Y-105250752D01*
X93279687Y-105250752D02*
X93184449Y-105298371D01*
X93184449Y-105298371D02*
X93136830Y-105393609D01*
X93136830Y-105393609D02*
X93136830Y-105488847D01*
X93136830Y-105488847D02*
X93613020Y-105584085D01*
X91517782Y-105917419D02*
X91517782Y-105393609D01*
X91517782Y-105393609D02*
X91565401Y-105298371D01*
X91565401Y-105298371D02*
X91660639Y-105250752D01*
X91660639Y-105250752D02*
X91851115Y-105250752D01*
X91851115Y-105250752D02*
X91946353Y-105298371D01*
X91517782Y-105869800D02*
X91613020Y-105917419D01*
X91613020Y-105917419D02*
X91851115Y-105917419D01*
X91851115Y-105917419D02*
X91946353Y-105869800D01*
X91946353Y-105869800D02*
X91993972Y-105774561D01*
X91993972Y-105774561D02*
X91993972Y-105679323D01*
X91993972Y-105679323D02*
X91946353Y-105584085D01*
X91946353Y-105584085D02*
X91851115Y-105536466D01*
X91851115Y-105536466D02*
X91613020Y-105536466D01*
X91613020Y-105536466D02*
X91517782Y-105488847D01*
X91041591Y-105917419D02*
X91041591Y-105250752D01*
X91041591Y-105441228D02*
X90993972Y-105345990D01*
X90993972Y-105345990D02*
X90946353Y-105298371D01*
X90946353Y-105298371D02*
X90851115Y-105250752D01*
X90851115Y-105250752D02*
X90755877Y-105250752D01*
X90422543Y-105917419D02*
X90422543Y-105250752D01*
X90422543Y-105441228D02*
X90374924Y-105345990D01*
X90374924Y-105345990D02*
X90327305Y-105298371D01*
X90327305Y-105298371D02*
X90232067Y-105250752D01*
X90232067Y-105250752D02*
X90136829Y-105250752D01*
X89374924Y-105917419D02*
X89374924Y-105393609D01*
X89374924Y-105393609D02*
X89422543Y-105298371D01*
X89422543Y-105298371D02*
X89517781Y-105250752D01*
X89517781Y-105250752D02*
X89708257Y-105250752D01*
X89708257Y-105250752D02*
X89803495Y-105298371D01*
X89374924Y-105869800D02*
X89470162Y-105917419D01*
X89470162Y-105917419D02*
X89708257Y-105917419D01*
X89708257Y-105917419D02*
X89803495Y-105869800D01*
X89803495Y-105869800D02*
X89851114Y-105774561D01*
X89851114Y-105774561D02*
X89851114Y-105679323D01*
X89851114Y-105679323D02*
X89803495Y-105584085D01*
X89803495Y-105584085D02*
X89708257Y-105536466D01*
X89708257Y-105536466D02*
X89470162Y-105536466D01*
X89470162Y-105536466D02*
X89374924Y-105488847D01*
X88993971Y-105250752D02*
X88755876Y-105917419D01*
X88517781Y-105250752D02*
X88755876Y-105917419D01*
X88755876Y-105917419D02*
X88851114Y-106155514D01*
X88851114Y-106155514D02*
X88898733Y-106203133D01*
X88898733Y-106203133D02*
X88993971Y-106250752D01*
X88136828Y-105822180D02*
X88089209Y-105869800D01*
X88089209Y-105869800D02*
X88136828Y-105917419D01*
X88136828Y-105917419D02*
X88184447Y-105869800D01*
X88184447Y-105869800D02*
X88136828Y-105822180D01*
X88136828Y-105822180D02*
X88136828Y-105917419D01*
X88136828Y-105298371D02*
X88089209Y-105345990D01*
X88089209Y-105345990D02*
X88136828Y-105393609D01*
X88136828Y-105393609D02*
X88184447Y-105345990D01*
X88184447Y-105345990D02*
X88136828Y-105298371D01*
X88136828Y-105298371D02*
X88136828Y-105393609D01*
X86374924Y-105917419D02*
X86946352Y-105917419D01*
X86660638Y-105917419D02*
X86660638Y-104917419D01*
X86660638Y-104917419D02*
X86755876Y-105060276D01*
X86755876Y-105060276D02*
X86851114Y-105155514D01*
X86851114Y-105155514D02*
X86946352Y-105203133D01*
X85946352Y-105917419D02*
X85946352Y-104917419D01*
X85946352Y-104917419D02*
X85374924Y-105917419D01*
X85374924Y-105917419D02*
X85374924Y-104917419D01*
X84470162Y-105250752D02*
X84470162Y-105917419D01*
X84708257Y-104869800D02*
X84946352Y-105584085D01*
X84946352Y-105584085D02*
X84327305Y-105584085D01*
X83422543Y-105917419D02*
X83993971Y-105917419D01*
X83708257Y-105917419D02*
X83708257Y-104917419D01*
X83708257Y-104917419D02*
X83803495Y-105060276D01*
X83803495Y-105060276D02*
X83898733Y-105155514D01*
X83898733Y-105155514D02*
X83993971Y-105203133D01*
X82565400Y-105250752D02*
X82565400Y-105917419D01*
X82803495Y-104869800D02*
X83041590Y-105584085D01*
X83041590Y-105584085D02*
X82422543Y-105584085D01*
X81898733Y-105345990D02*
X81993971Y-105298371D01*
X81993971Y-105298371D02*
X82041590Y-105250752D01*
X82041590Y-105250752D02*
X82089209Y-105155514D01*
X82089209Y-105155514D02*
X82089209Y-105107895D01*
X82089209Y-105107895D02*
X82041590Y-105012657D01*
X82041590Y-105012657D02*
X81993971Y-104965038D01*
X81993971Y-104965038D02*
X81898733Y-104917419D01*
X81898733Y-104917419D02*
X81708257Y-104917419D01*
X81708257Y-104917419D02*
X81613019Y-104965038D01*
X81613019Y-104965038D02*
X81565400Y-105012657D01*
X81565400Y-105012657D02*
X81517781Y-105107895D01*
X81517781Y-105107895D02*
X81517781Y-105155514D01*
X81517781Y-105155514D02*
X81565400Y-105250752D01*
X81565400Y-105250752D02*
X81613019Y-105298371D01*
X81613019Y-105298371D02*
X81708257Y-105345990D01*
X81708257Y-105345990D02*
X81898733Y-105345990D01*
X81898733Y-105345990D02*
X81993971Y-105393609D01*
X81993971Y-105393609D02*
X82041590Y-105441228D01*
X82041590Y-105441228D02*
X82089209Y-105536466D01*
X82089209Y-105536466D02*
X82089209Y-105726942D01*
X82089209Y-105726942D02*
X82041590Y-105822180D01*
X82041590Y-105822180D02*
X81993971Y-105869800D01*
X81993971Y-105869800D02*
X81898733Y-105917419D01*
X81898733Y-105917419D02*
X81708257Y-105917419D01*
X81708257Y-105917419D02*
X81613019Y-105869800D01*
X81613019Y-105869800D02*
X81565400Y-105822180D01*
X81565400Y-105822180D02*
X81517781Y-105726942D01*
X81517781Y-105726942D02*
X81517781Y-105536466D01*
X81517781Y-105536466D02*
X81565400Y-105441228D01*
X81565400Y-105441228D02*
X81613019Y-105393609D01*
X81613019Y-105393609D02*
X81708257Y-105345990D01*
X102314419Y-59485884D02*
X101314419Y-59485884D01*
X101314419Y-59485884D02*
X101314419Y-59866836D01*
X101314419Y-59866836D02*
X101362038Y-59962074D01*
X101362038Y-59962074D02*
X101409657Y-60009693D01*
X101409657Y-60009693D02*
X101504895Y-60057312D01*
X101504895Y-60057312D02*
X101647752Y-60057312D01*
X101647752Y-60057312D02*
X101742990Y-60009693D01*
X101742990Y-60009693D02*
X101790609Y-59962074D01*
X101790609Y-59962074D02*
X101838228Y-59866836D01*
X101838228Y-59866836D02*
X101838228Y-59485884D01*
X101409657Y-60438265D02*
X101362038Y-60485884D01*
X101362038Y-60485884D02*
X101314419Y-60581122D01*
X101314419Y-60581122D02*
X101314419Y-60819217D01*
X101314419Y-60819217D02*
X101362038Y-60914455D01*
X101362038Y-60914455D02*
X101409657Y-60962074D01*
X101409657Y-60962074D02*
X101504895Y-61009693D01*
X101504895Y-61009693D02*
X101600133Y-61009693D01*
X101600133Y-61009693D02*
X101742990Y-60962074D01*
X101742990Y-60962074D02*
X102314419Y-60390646D01*
X102314419Y-60390646D02*
X102314419Y-61009693D01*
X101314419Y-61628741D02*
X101314419Y-61723979D01*
X101314419Y-61723979D02*
X101362038Y-61819217D01*
X101362038Y-61819217D02*
X101409657Y-61866836D01*
X101409657Y-61866836D02*
X101504895Y-61914455D01*
X101504895Y-61914455D02*
X101695371Y-61962074D01*
X101695371Y-61962074D02*
X101933466Y-61962074D01*
X101933466Y-61962074D02*
X102123942Y-61914455D01*
X102123942Y-61914455D02*
X102219180Y-61866836D01*
X102219180Y-61866836D02*
X102266800Y-61819217D01*
X102266800Y-61819217D02*
X102314419Y-61723979D01*
X102314419Y-61723979D02*
X102314419Y-61628741D01*
X102314419Y-61628741D02*
X102266800Y-61533503D01*
X102266800Y-61533503D02*
X102219180Y-61485884D01*
X102219180Y-61485884D02*
X102123942Y-61438265D01*
X102123942Y-61438265D02*
X101933466Y-61390646D01*
X101933466Y-61390646D02*
X101695371Y-61390646D01*
X101695371Y-61390646D02*
X101504895Y-61438265D01*
X101504895Y-61438265D02*
X101409657Y-61485884D01*
X101409657Y-61485884D02*
X101362038Y-61533503D01*
X101362038Y-61533503D02*
X101314419Y-61628741D01*
X101314419Y-62581122D02*
X101314419Y-62676360D01*
X101314419Y-62676360D02*
X101362038Y-62771598D01*
X101362038Y-62771598D02*
X101409657Y-62819217D01*
X101409657Y-62819217D02*
X101504895Y-62866836D01*
X101504895Y-62866836D02*
X101695371Y-62914455D01*
X101695371Y-62914455D02*
X101933466Y-62914455D01*
X101933466Y-62914455D02*
X102123942Y-62866836D01*
X102123942Y-62866836D02*
X102219180Y-62819217D01*
X102219180Y-62819217D02*
X102266800Y-62771598D01*
X102266800Y-62771598D02*
X102314419Y-62676360D01*
X102314419Y-62676360D02*
X102314419Y-62581122D01*
X102314419Y-62581122D02*
X102266800Y-62485884D01*
X102266800Y-62485884D02*
X102219180Y-62438265D01*
X102219180Y-62438265D02*
X102123942Y-62390646D01*
X102123942Y-62390646D02*
X101933466Y-62343027D01*
X101933466Y-62343027D02*
X101695371Y-62343027D01*
X101695371Y-62343027D02*
X101504895Y-62390646D01*
X101504895Y-62390646D02*
X101409657Y-62438265D01*
X101409657Y-62438265D02*
X101362038Y-62485884D01*
X101362038Y-62485884D02*
X101314419Y-62581122D01*
X101314419Y-63533503D02*
X101314419Y-63628741D01*
X101314419Y-63628741D02*
X101362038Y-63723979D01*
X101362038Y-63723979D02*
X101409657Y-63771598D01*
X101409657Y-63771598D02*
X101504895Y-63819217D01*
X101504895Y-63819217D02*
X101695371Y-63866836D01*
X101695371Y-63866836D02*
X101933466Y-63866836D01*
X101933466Y-63866836D02*
X102123942Y-63819217D01*
X102123942Y-63819217D02*
X102219180Y-63771598D01*
X102219180Y-63771598D02*
X102266800Y-63723979D01*
X102266800Y-63723979D02*
X102314419Y-63628741D01*
X102314419Y-63628741D02*
X102314419Y-63533503D01*
X102314419Y-63533503D02*
X102266800Y-63438265D01*
X102266800Y-63438265D02*
X102219180Y-63390646D01*
X102219180Y-63390646D02*
X102123942Y-63343027D01*
X102123942Y-63343027D02*
X101933466Y-63295408D01*
X101933466Y-63295408D02*
X101695371Y-63295408D01*
X101695371Y-63295408D02*
X101504895Y-63343027D01*
X101504895Y-63343027D02*
X101409657Y-63390646D01*
X101409657Y-63390646D02*
X101362038Y-63438265D01*
X101362038Y-63438265D02*
X101314419Y-63533503D01*
X101314419Y-64152551D02*
X101314419Y-64723979D01*
X102314419Y-64438265D02*
X101314419Y-64438265D01*
X102266800Y-65771599D02*
X102314419Y-65914456D01*
X102314419Y-65914456D02*
X102314419Y-66152551D01*
X102314419Y-66152551D02*
X102266800Y-66247789D01*
X102266800Y-66247789D02*
X102219180Y-66295408D01*
X102219180Y-66295408D02*
X102123942Y-66343027D01*
X102123942Y-66343027D02*
X102028704Y-66343027D01*
X102028704Y-66343027D02*
X101933466Y-66295408D01*
X101933466Y-66295408D02*
X101885847Y-66247789D01*
X101885847Y-66247789D02*
X101838228Y-66152551D01*
X101838228Y-66152551D02*
X101790609Y-65962075D01*
X101790609Y-65962075D02*
X101742990Y-65866837D01*
X101742990Y-65866837D02*
X101695371Y-65819218D01*
X101695371Y-65819218D02*
X101600133Y-65771599D01*
X101600133Y-65771599D02*
X101504895Y-65771599D01*
X101504895Y-65771599D02*
X101409657Y-65819218D01*
X101409657Y-65819218D02*
X101362038Y-65866837D01*
X101362038Y-65866837D02*
X101314419Y-65962075D01*
X101314419Y-65962075D02*
X101314419Y-66200170D01*
X101314419Y-66200170D02*
X101362038Y-66343027D01*
X102314419Y-67247789D02*
X102314419Y-66771599D01*
X102314419Y-66771599D02*
X101314419Y-66771599D01*
X101314419Y-67771599D02*
X101314419Y-67962075D01*
X101314419Y-67962075D02*
X101362038Y-68057313D01*
X101362038Y-68057313D02*
X101457276Y-68152551D01*
X101457276Y-68152551D02*
X101647752Y-68200170D01*
X101647752Y-68200170D02*
X101981085Y-68200170D01*
X101981085Y-68200170D02*
X102171561Y-68152551D01*
X102171561Y-68152551D02*
X102266800Y-68057313D01*
X102266800Y-68057313D02*
X102314419Y-67962075D01*
X102314419Y-67962075D02*
X102314419Y-67771599D01*
X102314419Y-67771599D02*
X102266800Y-67676361D01*
X102266800Y-67676361D02*
X102171561Y-67581123D01*
X102171561Y-67581123D02*
X101981085Y-67533504D01*
X101981085Y-67533504D02*
X101647752Y-67533504D01*
X101647752Y-67533504D02*
X101457276Y-67581123D01*
X101457276Y-67581123D02*
X101362038Y-67676361D01*
X101362038Y-67676361D02*
X101314419Y-67771599D01*
X101314419Y-68485885D02*
X101314419Y-69057313D01*
X102314419Y-68771599D02*
X101314419Y-68771599D01*
X101409657Y-69343028D02*
X101362038Y-69390647D01*
X101362038Y-69390647D02*
X101314419Y-69485885D01*
X101314419Y-69485885D02*
X101314419Y-69723980D01*
X101314419Y-69723980D02*
X101362038Y-69819218D01*
X101362038Y-69819218D02*
X101409657Y-69866837D01*
X101409657Y-69866837D02*
X101504895Y-69914456D01*
X101504895Y-69914456D02*
X101600133Y-69914456D01*
X101600133Y-69914456D02*
X101742990Y-69866837D01*
X101742990Y-69866837D02*
X102314419Y-69295409D01*
X102314419Y-69295409D02*
X102314419Y-69914456D01*
X102924363Y-59771598D02*
X103638648Y-59771598D01*
X103638648Y-59771598D02*
X103781505Y-59723979D01*
X103781505Y-59723979D02*
X103876744Y-59628741D01*
X103876744Y-59628741D02*
X103924363Y-59485884D01*
X103924363Y-59485884D02*
X103924363Y-59390646D01*
X102924363Y-60438265D02*
X102924363Y-60628741D01*
X102924363Y-60628741D02*
X102971982Y-60723979D01*
X102971982Y-60723979D02*
X103067220Y-60819217D01*
X103067220Y-60819217D02*
X103257696Y-60866836D01*
X103257696Y-60866836D02*
X103591029Y-60866836D01*
X103591029Y-60866836D02*
X103781505Y-60819217D01*
X103781505Y-60819217D02*
X103876744Y-60723979D01*
X103876744Y-60723979D02*
X103924363Y-60628741D01*
X103924363Y-60628741D02*
X103924363Y-60438265D01*
X103924363Y-60438265D02*
X103876744Y-60343027D01*
X103876744Y-60343027D02*
X103781505Y-60247789D01*
X103781505Y-60247789D02*
X103591029Y-60200170D01*
X103591029Y-60200170D02*
X103257696Y-60200170D01*
X103257696Y-60200170D02*
X103067220Y-60247789D01*
X103067220Y-60247789D02*
X102971982Y-60343027D01*
X102971982Y-60343027D02*
X102924363Y-60438265D01*
X103448172Y-61485884D02*
X103924363Y-61485884D01*
X102924363Y-61152551D02*
X103448172Y-61485884D01*
X103448172Y-61485884D02*
X102924363Y-61819217D01*
X103876744Y-62104932D02*
X103924363Y-62247789D01*
X103924363Y-62247789D02*
X103924363Y-62485884D01*
X103924363Y-62485884D02*
X103876744Y-62581122D01*
X103876744Y-62581122D02*
X103829124Y-62628741D01*
X103829124Y-62628741D02*
X103733886Y-62676360D01*
X103733886Y-62676360D02*
X103638648Y-62676360D01*
X103638648Y-62676360D02*
X103543410Y-62628741D01*
X103543410Y-62628741D02*
X103495791Y-62581122D01*
X103495791Y-62581122D02*
X103448172Y-62485884D01*
X103448172Y-62485884D02*
X103400553Y-62295408D01*
X103400553Y-62295408D02*
X103352934Y-62200170D01*
X103352934Y-62200170D02*
X103305315Y-62152551D01*
X103305315Y-62152551D02*
X103210077Y-62104932D01*
X103210077Y-62104932D02*
X103114839Y-62104932D01*
X103114839Y-62104932D02*
X103019601Y-62152551D01*
X103019601Y-62152551D02*
X102971982Y-62200170D01*
X102971982Y-62200170D02*
X102924363Y-62295408D01*
X102924363Y-62295408D02*
X102924363Y-62533503D01*
X102924363Y-62533503D02*
X102971982Y-62676360D01*
X102924363Y-62962075D02*
X102924363Y-63533503D01*
X103924363Y-63247789D02*
X102924363Y-63247789D01*
X103924363Y-63866837D02*
X102924363Y-63866837D01*
X103829124Y-64914455D02*
X103876744Y-64866836D01*
X103876744Y-64866836D02*
X103924363Y-64723979D01*
X103924363Y-64723979D02*
X103924363Y-64628741D01*
X103924363Y-64628741D02*
X103876744Y-64485884D01*
X103876744Y-64485884D02*
X103781505Y-64390646D01*
X103781505Y-64390646D02*
X103686267Y-64343027D01*
X103686267Y-64343027D02*
X103495791Y-64295408D01*
X103495791Y-64295408D02*
X103352934Y-64295408D01*
X103352934Y-64295408D02*
X103162458Y-64343027D01*
X103162458Y-64343027D02*
X103067220Y-64390646D01*
X103067220Y-64390646D02*
X102971982Y-64485884D01*
X102971982Y-64485884D02*
X102924363Y-64628741D01*
X102924363Y-64628741D02*
X102924363Y-64723979D01*
X102924363Y-64723979D02*
X102971982Y-64866836D01*
X102971982Y-64866836D02*
X103019601Y-64914455D01*
X103924363Y-65343027D02*
X102924363Y-65343027D01*
X103924363Y-65914455D02*
X103352934Y-65485884D01*
X102924363Y-65914455D02*
X103495791Y-65343027D01*
X103829124Y-67676360D02*
X103876744Y-67628741D01*
X103876744Y-67628741D02*
X103924363Y-67485884D01*
X103924363Y-67485884D02*
X103924363Y-67390646D01*
X103924363Y-67390646D02*
X103876744Y-67247789D01*
X103876744Y-67247789D02*
X103781505Y-67152551D01*
X103781505Y-67152551D02*
X103686267Y-67104932D01*
X103686267Y-67104932D02*
X103495791Y-67057313D01*
X103495791Y-67057313D02*
X103352934Y-67057313D01*
X103352934Y-67057313D02*
X103162458Y-67104932D01*
X103162458Y-67104932D02*
X103067220Y-67152551D01*
X103067220Y-67152551D02*
X102971982Y-67247789D01*
X102971982Y-67247789D02*
X102924363Y-67390646D01*
X102924363Y-67390646D02*
X102924363Y-67485884D01*
X102924363Y-67485884D02*
X102971982Y-67628741D01*
X102971982Y-67628741D02*
X103019601Y-67676360D01*
X103638648Y-68057313D02*
X103638648Y-68533503D01*
X103924363Y-67962075D02*
X102924363Y-68295408D01*
X102924363Y-68295408D02*
X103924363Y-68628741D01*
X103924363Y-69533503D02*
X103448172Y-69200170D01*
X103924363Y-68962075D02*
X102924363Y-68962075D01*
X102924363Y-68962075D02*
X102924363Y-69343027D01*
X102924363Y-69343027D02*
X102971982Y-69438265D01*
X102971982Y-69438265D02*
X103019601Y-69485884D01*
X103019601Y-69485884D02*
X103114839Y-69533503D01*
X103114839Y-69533503D02*
X103257696Y-69533503D01*
X103257696Y-69533503D02*
X103352934Y-69485884D01*
X103352934Y-69485884D02*
X103400553Y-69438265D01*
X103400553Y-69438265D02*
X103448172Y-69343027D01*
X103448172Y-69343027D02*
X103448172Y-68962075D01*
X102924363Y-69819218D02*
X102924363Y-70390646D01*
X103924363Y-70104932D02*
X102924363Y-70104932D01*
X103924363Y-71295408D02*
X103448172Y-70962075D01*
X103924363Y-70723980D02*
X102924363Y-70723980D01*
X102924363Y-70723980D02*
X102924363Y-71104932D01*
X102924363Y-71104932D02*
X102971982Y-71200170D01*
X102971982Y-71200170D02*
X103019601Y-71247789D01*
X103019601Y-71247789D02*
X103114839Y-71295408D01*
X103114839Y-71295408D02*
X103257696Y-71295408D01*
X103257696Y-71295408D02*
X103352934Y-71247789D01*
X103352934Y-71247789D02*
X103400553Y-71200170D01*
X103400553Y-71200170D02*
X103448172Y-71104932D01*
X103448172Y-71104932D02*
X103448172Y-70723980D01*
X103924363Y-71723980D02*
X102924363Y-71723980D01*
X103924363Y-72200170D02*
X102924363Y-72200170D01*
X102924363Y-72200170D02*
X102924363Y-72438265D01*
X102924363Y-72438265D02*
X102971982Y-72581122D01*
X102971982Y-72581122D02*
X103067220Y-72676360D01*
X103067220Y-72676360D02*
X103162458Y-72723979D01*
X103162458Y-72723979D02*
X103352934Y-72771598D01*
X103352934Y-72771598D02*
X103495791Y-72771598D01*
X103495791Y-72771598D02*
X103686267Y-72723979D01*
X103686267Y-72723979D02*
X103781505Y-72676360D01*
X103781505Y-72676360D02*
X103876744Y-72581122D01*
X103876744Y-72581122D02*
X103924363Y-72438265D01*
X103924363Y-72438265D02*
X103924363Y-72200170D01*
X102971982Y-73723979D02*
X102924363Y-73628741D01*
X102924363Y-73628741D02*
X102924363Y-73485884D01*
X102924363Y-73485884D02*
X102971982Y-73343027D01*
X102971982Y-73343027D02*
X103067220Y-73247789D01*
X103067220Y-73247789D02*
X103162458Y-73200170D01*
X103162458Y-73200170D02*
X103352934Y-73152551D01*
X103352934Y-73152551D02*
X103495791Y-73152551D01*
X103495791Y-73152551D02*
X103686267Y-73200170D01*
X103686267Y-73200170D02*
X103781505Y-73247789D01*
X103781505Y-73247789D02*
X103876744Y-73343027D01*
X103876744Y-73343027D02*
X103924363Y-73485884D01*
X103924363Y-73485884D02*
X103924363Y-73581122D01*
X103924363Y-73581122D02*
X103876744Y-73723979D01*
X103876744Y-73723979D02*
X103829124Y-73771598D01*
X103829124Y-73771598D02*
X103495791Y-73771598D01*
X103495791Y-73771598D02*
X103495791Y-73581122D01*
X103400553Y-74200170D02*
X103400553Y-74533503D01*
X103924363Y-74676360D02*
X103924363Y-74200170D01*
X103924363Y-74200170D02*
X102924363Y-74200170D01*
X102924363Y-74200170D02*
X102924363Y-74676360D01*
X104305315Y-76152551D02*
X104257696Y-76104932D01*
X104257696Y-76104932D02*
X104114839Y-76009694D01*
X104114839Y-76009694D02*
X104019601Y-75962075D01*
X104019601Y-75962075D02*
X103876744Y-75914456D01*
X103876744Y-75914456D02*
X103638648Y-75866837D01*
X103638648Y-75866837D02*
X103448172Y-75866837D01*
X103448172Y-75866837D02*
X103210077Y-75914456D01*
X103210077Y-75914456D02*
X103067220Y-75962075D01*
X103067220Y-75962075D02*
X102971982Y-76009694D01*
X102971982Y-76009694D02*
X102829124Y-76104932D01*
X102829124Y-76104932D02*
X102781505Y-76152551D01*
X103924363Y-76533504D02*
X103257696Y-76533504D01*
X103448172Y-76533504D02*
X103352934Y-76581123D01*
X103352934Y-76581123D02*
X103305315Y-76628742D01*
X103305315Y-76628742D02*
X103257696Y-76723980D01*
X103257696Y-76723980D02*
X103257696Y-76819218D01*
X103876744Y-77533504D02*
X103924363Y-77438266D01*
X103924363Y-77438266D02*
X103924363Y-77247790D01*
X103924363Y-77247790D02*
X103876744Y-77152552D01*
X103876744Y-77152552D02*
X103781505Y-77104933D01*
X103781505Y-77104933D02*
X103400553Y-77104933D01*
X103400553Y-77104933D02*
X103305315Y-77152552D01*
X103305315Y-77152552D02*
X103257696Y-77247790D01*
X103257696Y-77247790D02*
X103257696Y-77438266D01*
X103257696Y-77438266D02*
X103305315Y-77533504D01*
X103305315Y-77533504D02*
X103400553Y-77581123D01*
X103400553Y-77581123D02*
X103495791Y-77581123D01*
X103495791Y-77581123D02*
X103591029Y-77104933D01*
X103257696Y-77914457D02*
X103924363Y-78152552D01*
X103924363Y-78152552D02*
X103257696Y-78390647D01*
X103924363Y-79295409D02*
X103924363Y-78723981D01*
X103924363Y-79009695D02*
X102924363Y-79009695D01*
X102924363Y-79009695D02*
X103067220Y-78914457D01*
X103067220Y-78914457D02*
X103162458Y-78819219D01*
X103162458Y-78819219D02*
X103210077Y-78723981D01*
X104305315Y-79628743D02*
X104257696Y-79676362D01*
X104257696Y-79676362D02*
X104114839Y-79771600D01*
X104114839Y-79771600D02*
X104019601Y-79819219D01*
X104019601Y-79819219D02*
X103876744Y-79866838D01*
X103876744Y-79866838D02*
X103638648Y-79914457D01*
X103638648Y-79914457D02*
X103448172Y-79914457D01*
X103448172Y-79914457D02*
X103210077Y-79866838D01*
X103210077Y-79866838D02*
X103067220Y-79819219D01*
X103067220Y-79819219D02*
X102971982Y-79771600D01*
X102971982Y-79771600D02*
X102829124Y-79676362D01*
X102829124Y-79676362D02*
X102781505Y-79628743D01*
D13*
X40064031Y-115610133D02*
X40635459Y-115610133D01*
X40349745Y-115610133D02*
X40349745Y-114610133D01*
X40349745Y-114610133D02*
X40444983Y-114752990D01*
X40444983Y-114752990D02*
X40540221Y-114848228D01*
X40540221Y-114848228D02*
X40635459Y-114895847D01*
X39206888Y-115610133D02*
X39206888Y-115086323D01*
X39206888Y-115086323D02*
X39254507Y-114991085D01*
X39254507Y-114991085D02*
X39349745Y-114943466D01*
X39349745Y-114943466D02*
X39540221Y-114943466D01*
X39540221Y-114943466D02*
X39635459Y-114991085D01*
X39206888Y-115562514D02*
X39302126Y-115610133D01*
X39302126Y-115610133D02*
X39540221Y-115610133D01*
X39540221Y-115610133D02*
X39635459Y-115562514D01*
X39635459Y-115562514D02*
X39683078Y-115467275D01*
X39683078Y-115467275D02*
X39683078Y-115372037D01*
X39683078Y-115372037D02*
X39635459Y-115276799D01*
X39635459Y-115276799D02*
X39540221Y-115229180D01*
X39540221Y-115229180D02*
X39302126Y-115229180D01*
X39302126Y-115229180D02*
X39206888Y-115181561D01*
D12*
X78830872Y-113494556D02*
X80030872Y-113494556D01*
X80030872Y-112694556D02*
X80030872Y-112465984D01*
X80030872Y-112465984D02*
X79973729Y-112351699D01*
X79973729Y-112351699D02*
X79859443Y-112237413D01*
X79859443Y-112237413D02*
X79630872Y-112180270D01*
X79630872Y-112180270D02*
X79230872Y-112180270D01*
X79230872Y-112180270D02*
X79002300Y-112237413D01*
X79002300Y-112237413D02*
X78888015Y-112351699D01*
X78888015Y-112351699D02*
X78830872Y-112465984D01*
X78830872Y-112465984D02*
X78830872Y-112694556D01*
X78830872Y-112694556D02*
X78888015Y-112808842D01*
X78888015Y-112808842D02*
X79002300Y-112923127D01*
X79002300Y-112923127D02*
X79230872Y-112980270D01*
X79230872Y-112980270D02*
X79630872Y-112980270D01*
X79630872Y-112980270D02*
X79859443Y-112923127D01*
X79859443Y-112923127D02*
X79973729Y-112808842D01*
X79973729Y-112808842D02*
X80030872Y-112694556D01*
X78830872Y-110980270D02*
X79402300Y-111380270D01*
X78830872Y-111665984D02*
X80030872Y-111665984D01*
X80030872Y-111665984D02*
X80030872Y-111208841D01*
X80030872Y-111208841D02*
X79973729Y-111094556D01*
X79973729Y-111094556D02*
X79916586Y-111037413D01*
X79916586Y-111037413D02*
X79802300Y-110980270D01*
X79802300Y-110980270D02*
X79630872Y-110980270D01*
X79630872Y-110980270D02*
X79516586Y-111037413D01*
X79516586Y-111037413D02*
X79459443Y-111094556D01*
X79459443Y-111094556D02*
X79402300Y-111208841D01*
X79402300Y-111208841D02*
X79402300Y-111665984D01*
X78716586Y-109665984D02*
X78773729Y-109780270D01*
X78773729Y-109780270D02*
X78888015Y-109894556D01*
X78888015Y-109894556D02*
X79059443Y-110065984D01*
X79059443Y-110065984D02*
X79116586Y-110180270D01*
X79116586Y-110180270D02*
X79116586Y-110294556D01*
X78830872Y-110237413D02*
X78888015Y-110351699D01*
X78888015Y-110351699D02*
X79002300Y-110465984D01*
X79002300Y-110465984D02*
X79230872Y-110523127D01*
X79230872Y-110523127D02*
X79630872Y-110523127D01*
X79630872Y-110523127D02*
X79859443Y-110465984D01*
X79859443Y-110465984D02*
X79973729Y-110351699D01*
X79973729Y-110351699D02*
X80030872Y-110237413D01*
X80030872Y-110237413D02*
X80030872Y-110008841D01*
X80030872Y-110008841D02*
X79973729Y-109894556D01*
X79973729Y-109894556D02*
X79859443Y-109780270D01*
X79859443Y-109780270D02*
X79630872Y-109723127D01*
X79630872Y-109723127D02*
X79230872Y-109723127D01*
X79230872Y-109723127D02*
X79002300Y-109780270D01*
X79002300Y-109780270D02*
X78888015Y-109894556D01*
X78888015Y-109894556D02*
X78830872Y-110008841D01*
X78830872Y-110008841D02*
X78830872Y-110237413D01*
X80364015Y-113660271D02*
X80364015Y-109614556D01*
X82855622Y-113494556D02*
X84055622Y-113494556D01*
X82855622Y-112923127D02*
X84055622Y-112923127D01*
X84055622Y-112923127D02*
X82855622Y-112237413D01*
X82855622Y-112237413D02*
X84055622Y-112237413D01*
X84055622Y-111837413D02*
X84055622Y-111151699D01*
X82855622Y-111494556D02*
X84055622Y-111494556D01*
X84388765Y-113660271D02*
X84388765Y-111157413D01*
D13*
X72328621Y-115432333D02*
X72138145Y-115432333D01*
X72138145Y-115432333D02*
X72042907Y-115384714D01*
X72042907Y-115384714D02*
X71995288Y-115337094D01*
X71995288Y-115337094D02*
X71900050Y-115194237D01*
X71900050Y-115194237D02*
X71852431Y-115003761D01*
X71852431Y-115003761D02*
X71852431Y-114622809D01*
X71852431Y-114622809D02*
X71900050Y-114527571D01*
X71900050Y-114527571D02*
X71947669Y-114479952D01*
X71947669Y-114479952D02*
X72042907Y-114432333D01*
X72042907Y-114432333D02*
X72233383Y-114432333D01*
X72233383Y-114432333D02*
X72328621Y-114479952D01*
X72328621Y-114479952D02*
X72376240Y-114527571D01*
X72376240Y-114527571D02*
X72423859Y-114622809D01*
X72423859Y-114622809D02*
X72423859Y-114860904D01*
X72423859Y-114860904D02*
X72376240Y-114956142D01*
X72376240Y-114956142D02*
X72328621Y-115003761D01*
X72328621Y-115003761D02*
X72233383Y-115051380D01*
X72233383Y-115051380D02*
X72042907Y-115051380D01*
X72042907Y-115051380D02*
X71947669Y-115003761D01*
X71947669Y-115003761D02*
X71900050Y-114956142D01*
X71900050Y-114956142D02*
X71852431Y-114860904D01*
X70995288Y-115432333D02*
X70995288Y-114908523D01*
X70995288Y-114908523D02*
X71042907Y-114813285D01*
X71042907Y-114813285D02*
X71138145Y-114765666D01*
X71138145Y-114765666D02*
X71328621Y-114765666D01*
X71328621Y-114765666D02*
X71423859Y-114813285D01*
X70995288Y-115384714D02*
X71090526Y-115432333D01*
X71090526Y-115432333D02*
X71328621Y-115432333D01*
X71328621Y-115432333D02*
X71423859Y-115384714D01*
X71423859Y-115384714D02*
X71471478Y-115289475D01*
X71471478Y-115289475D02*
X71471478Y-115194237D01*
X71471478Y-115194237D02*
X71423859Y-115098999D01*
X71423859Y-115098999D02*
X71328621Y-115051380D01*
X71328621Y-115051380D02*
X71090526Y-115051380D01*
X71090526Y-115051380D02*
X70995288Y-115003761D01*
X81395580Y-62327333D02*
X81443200Y-62279714D01*
X81443200Y-62279714D02*
X81490819Y-62136857D01*
X81490819Y-62136857D02*
X81490819Y-62041619D01*
X81490819Y-62041619D02*
X81443200Y-61898762D01*
X81443200Y-61898762D02*
X81347961Y-61803524D01*
X81347961Y-61803524D02*
X81252723Y-61755905D01*
X81252723Y-61755905D02*
X81062247Y-61708286D01*
X81062247Y-61708286D02*
X80919390Y-61708286D01*
X80919390Y-61708286D02*
X80728914Y-61755905D01*
X80728914Y-61755905D02*
X80633676Y-61803524D01*
X80633676Y-61803524D02*
X80538438Y-61898762D01*
X80538438Y-61898762D02*
X80490819Y-62041619D01*
X80490819Y-62041619D02*
X80490819Y-62136857D01*
X80490819Y-62136857D02*
X80538438Y-62279714D01*
X80538438Y-62279714D02*
X80586057Y-62327333D01*
X80586057Y-62708286D02*
X80538438Y-62755905D01*
X80538438Y-62755905D02*
X80490819Y-62851143D01*
X80490819Y-62851143D02*
X80490819Y-63089238D01*
X80490819Y-63089238D02*
X80538438Y-63184476D01*
X80538438Y-63184476D02*
X80586057Y-63232095D01*
X80586057Y-63232095D02*
X80681295Y-63279714D01*
X80681295Y-63279714D02*
X80776533Y-63279714D01*
X80776533Y-63279714D02*
X80919390Y-63232095D01*
X80919390Y-63232095D02*
X81490819Y-62660667D01*
X81490819Y-62660667D02*
X81490819Y-63279714D01*
X71864094Y-93672819D02*
X71864094Y-92672819D01*
X71864094Y-92672819D02*
X71625999Y-92672819D01*
X71625999Y-92672819D02*
X71483142Y-92720438D01*
X71483142Y-92720438D02*
X71387904Y-92815676D01*
X71387904Y-92815676D02*
X71340285Y-92910914D01*
X71340285Y-92910914D02*
X71292666Y-93101390D01*
X71292666Y-93101390D02*
X71292666Y-93244247D01*
X71292666Y-93244247D02*
X71340285Y-93434723D01*
X71340285Y-93434723D02*
X71387904Y-93529961D01*
X71387904Y-93529961D02*
X71483142Y-93625200D01*
X71483142Y-93625200D02*
X71625999Y-93672819D01*
X71625999Y-93672819D02*
X71864094Y-93672819D01*
X70435523Y-92672819D02*
X70625999Y-92672819D01*
X70625999Y-92672819D02*
X70721237Y-92720438D01*
X70721237Y-92720438D02*
X70768856Y-92768057D01*
X70768856Y-92768057D02*
X70864094Y-92910914D01*
X70864094Y-92910914D02*
X70911713Y-93101390D01*
X70911713Y-93101390D02*
X70911713Y-93482342D01*
X70911713Y-93482342D02*
X70864094Y-93577580D01*
X70864094Y-93577580D02*
X70816475Y-93625200D01*
X70816475Y-93625200D02*
X70721237Y-93672819D01*
X70721237Y-93672819D02*
X70530761Y-93672819D01*
X70530761Y-93672819D02*
X70435523Y-93625200D01*
X70435523Y-93625200D02*
X70387904Y-93577580D01*
X70387904Y-93577580D02*
X70340285Y-93482342D01*
X70340285Y-93482342D02*
X70340285Y-93244247D01*
X70340285Y-93244247D02*
X70387904Y-93149009D01*
X70387904Y-93149009D02*
X70435523Y-93101390D01*
X70435523Y-93101390D02*
X70530761Y-93053771D01*
X70530761Y-93053771D02*
X70721237Y-93053771D01*
X70721237Y-93053771D02*
X70816475Y-93101390D01*
X70816475Y-93101390D02*
X70864094Y-93149009D01*
X70864094Y-93149009D02*
X70911713Y-93244247D01*
X69774819Y-94734095D02*
X68774819Y-94734095D01*
X69774819Y-95305523D02*
X69203390Y-94876952D01*
X68774819Y-95305523D02*
X69346247Y-94734095D01*
X46714580Y-73493333D02*
X46762200Y-73445714D01*
X46762200Y-73445714D02*
X46809819Y-73302857D01*
X46809819Y-73302857D02*
X46809819Y-73207619D01*
X46809819Y-73207619D02*
X46762200Y-73064762D01*
X46762200Y-73064762D02*
X46666961Y-72969524D01*
X46666961Y-72969524D02*
X46571723Y-72921905D01*
X46571723Y-72921905D02*
X46381247Y-72874286D01*
X46381247Y-72874286D02*
X46238390Y-72874286D01*
X46238390Y-72874286D02*
X46047914Y-72921905D01*
X46047914Y-72921905D02*
X45952676Y-72969524D01*
X45952676Y-72969524D02*
X45857438Y-73064762D01*
X45857438Y-73064762D02*
X45809819Y-73207619D01*
X45809819Y-73207619D02*
X45809819Y-73302857D01*
X45809819Y-73302857D02*
X45857438Y-73445714D01*
X45857438Y-73445714D02*
X45905057Y-73493333D01*
X46143152Y-74350476D02*
X46809819Y-74350476D01*
X45762200Y-74112381D02*
X46476485Y-73874286D01*
X46476485Y-73874286D02*
X46476485Y-74493333D01*
X63565580Y-66127333D02*
X63613200Y-66079714D01*
X63613200Y-66079714D02*
X63660819Y-65936857D01*
X63660819Y-65936857D02*
X63660819Y-65841619D01*
X63660819Y-65841619D02*
X63613200Y-65698762D01*
X63613200Y-65698762D02*
X63517961Y-65603524D01*
X63517961Y-65603524D02*
X63422723Y-65555905D01*
X63422723Y-65555905D02*
X63232247Y-65508286D01*
X63232247Y-65508286D02*
X63089390Y-65508286D01*
X63089390Y-65508286D02*
X62898914Y-65555905D01*
X62898914Y-65555905D02*
X62803676Y-65603524D01*
X62803676Y-65603524D02*
X62708438Y-65698762D01*
X62708438Y-65698762D02*
X62660819Y-65841619D01*
X62660819Y-65841619D02*
X62660819Y-65936857D01*
X62660819Y-65936857D02*
X62708438Y-66079714D01*
X62708438Y-66079714D02*
X62756057Y-66127333D01*
X63660819Y-67079714D02*
X63660819Y-66508286D01*
X63660819Y-66794000D02*
X62660819Y-66794000D01*
X62660819Y-66794000D02*
X62803676Y-66698762D01*
X62803676Y-66698762D02*
X62898914Y-66603524D01*
X62898914Y-66603524D02*
X62946533Y-66508286D01*
X32204819Y-68667333D02*
X31728628Y-68334000D01*
X32204819Y-68095905D02*
X31204819Y-68095905D01*
X31204819Y-68095905D02*
X31204819Y-68476857D01*
X31204819Y-68476857D02*
X31252438Y-68572095D01*
X31252438Y-68572095D02*
X31300057Y-68619714D01*
X31300057Y-68619714D02*
X31395295Y-68667333D01*
X31395295Y-68667333D02*
X31538152Y-68667333D01*
X31538152Y-68667333D02*
X31633390Y-68619714D01*
X31633390Y-68619714D02*
X31681009Y-68572095D01*
X31681009Y-68572095D02*
X31728628Y-68476857D01*
X31728628Y-68476857D02*
X31728628Y-68095905D01*
X31204819Y-69000667D02*
X31204819Y-69619714D01*
X31204819Y-69619714D02*
X31585771Y-69286381D01*
X31585771Y-69286381D02*
X31585771Y-69429238D01*
X31585771Y-69429238D02*
X31633390Y-69524476D01*
X31633390Y-69524476D02*
X31681009Y-69572095D01*
X31681009Y-69572095D02*
X31776247Y-69619714D01*
X31776247Y-69619714D02*
X32014342Y-69619714D01*
X32014342Y-69619714D02*
X32109580Y-69572095D01*
X32109580Y-69572095D02*
X32157200Y-69524476D01*
X32157200Y-69524476D02*
X32204819Y-69429238D01*
X32204819Y-69429238D02*
X32204819Y-69143524D01*
X32204819Y-69143524D02*
X32157200Y-69048286D01*
X32157200Y-69048286D02*
X32109580Y-69000667D01*
X37457047Y-69288819D02*
X38028475Y-69288819D01*
X37742761Y-69288819D02*
X37742761Y-68288819D01*
X37742761Y-68288819D02*
X37837999Y-68431676D01*
X37837999Y-68431676D02*
X37933237Y-68526914D01*
X37933237Y-68526914D02*
X38028475Y-68574533D01*
X37028475Y-69288819D02*
X37028475Y-68288819D01*
X36933237Y-68907866D02*
X36647523Y-69288819D01*
X36647523Y-68622152D02*
X37028475Y-69003104D01*
X31569819Y-59634523D02*
X31093628Y-59301190D01*
X31569819Y-59063095D02*
X30569819Y-59063095D01*
X30569819Y-59063095D02*
X30569819Y-59444047D01*
X30569819Y-59444047D02*
X30617438Y-59539285D01*
X30617438Y-59539285D02*
X30665057Y-59586904D01*
X30665057Y-59586904D02*
X30760295Y-59634523D01*
X30760295Y-59634523D02*
X30903152Y-59634523D01*
X30903152Y-59634523D02*
X30998390Y-59586904D01*
X30998390Y-59586904D02*
X31046009Y-59539285D01*
X31046009Y-59539285D02*
X31093628Y-59444047D01*
X31093628Y-59444047D02*
X31093628Y-59063095D01*
X31569819Y-60063095D02*
X30569819Y-60063095D01*
X30569819Y-60063095D02*
X31569819Y-60634523D01*
X31569819Y-60634523D02*
X30569819Y-60634523D01*
X31569819Y-61634523D02*
X31569819Y-61063095D01*
X31569819Y-61348809D02*
X30569819Y-61348809D01*
X30569819Y-61348809D02*
X30712676Y-61253571D01*
X30712676Y-61253571D02*
X30807914Y-61158333D01*
X30807914Y-61158333D02*
X30855533Y-61063095D01*
X57604819Y-60205952D02*
X57604819Y-59634524D01*
X57604819Y-59920238D02*
X56604819Y-59920238D01*
X56604819Y-59920238D02*
X56747676Y-59825000D01*
X56747676Y-59825000D02*
X56842914Y-59729762D01*
X56842914Y-59729762D02*
X56890533Y-59634524D01*
X57604819Y-60634524D02*
X56604819Y-60634524D01*
X57223866Y-60729762D02*
X57604819Y-61015476D01*
X56938152Y-61015476D02*
X57319104Y-60634524D01*
X61716094Y-93672819D02*
X61716094Y-92672819D01*
X61716094Y-92672819D02*
X61477999Y-92672819D01*
X61477999Y-92672819D02*
X61335142Y-92720438D01*
X61335142Y-92720438D02*
X61239904Y-92815676D01*
X61239904Y-92815676D02*
X61192285Y-92910914D01*
X61192285Y-92910914D02*
X61144666Y-93101390D01*
X61144666Y-93101390D02*
X61144666Y-93244247D01*
X61144666Y-93244247D02*
X61192285Y-93434723D01*
X61192285Y-93434723D02*
X61239904Y-93529961D01*
X61239904Y-93529961D02*
X61335142Y-93625200D01*
X61335142Y-93625200D02*
X61477999Y-93672819D01*
X61477999Y-93672819D02*
X61716094Y-93672819D01*
X60573237Y-93101390D02*
X60668475Y-93053771D01*
X60668475Y-93053771D02*
X60716094Y-93006152D01*
X60716094Y-93006152D02*
X60763713Y-92910914D01*
X60763713Y-92910914D02*
X60763713Y-92863295D01*
X60763713Y-92863295D02*
X60716094Y-92768057D01*
X60716094Y-92768057D02*
X60668475Y-92720438D01*
X60668475Y-92720438D02*
X60573237Y-92672819D01*
X60573237Y-92672819D02*
X60382761Y-92672819D01*
X60382761Y-92672819D02*
X60287523Y-92720438D01*
X60287523Y-92720438D02*
X60239904Y-92768057D01*
X60239904Y-92768057D02*
X60192285Y-92863295D01*
X60192285Y-92863295D02*
X60192285Y-92910914D01*
X60192285Y-92910914D02*
X60239904Y-93006152D01*
X60239904Y-93006152D02*
X60287523Y-93053771D01*
X60287523Y-93053771D02*
X60382761Y-93101390D01*
X60382761Y-93101390D02*
X60573237Y-93101390D01*
X60573237Y-93101390D02*
X60668475Y-93149009D01*
X60668475Y-93149009D02*
X60716094Y-93196628D01*
X60716094Y-93196628D02*
X60763713Y-93291866D01*
X60763713Y-93291866D02*
X60763713Y-93482342D01*
X60763713Y-93482342D02*
X60716094Y-93577580D01*
X60716094Y-93577580D02*
X60668475Y-93625200D01*
X60668475Y-93625200D02*
X60573237Y-93672819D01*
X60573237Y-93672819D02*
X60382761Y-93672819D01*
X60382761Y-93672819D02*
X60287523Y-93625200D01*
X60287523Y-93625200D02*
X60239904Y-93577580D01*
X60239904Y-93577580D02*
X60192285Y-93482342D01*
X60192285Y-93482342D02*
X60192285Y-93291866D01*
X60192285Y-93291866D02*
X60239904Y-93196628D01*
X60239904Y-93196628D02*
X60287523Y-93149009D01*
X60287523Y-93149009D02*
X60382761Y-93101390D01*
X59614819Y-94734095D02*
X58614819Y-94734095D01*
X59614819Y-95305523D02*
X59043390Y-94876952D01*
X58614819Y-95305523D02*
X59186247Y-94734095D01*
X39115904Y-75356819D02*
X39115904Y-76166342D01*
X39115904Y-76166342D02*
X39068285Y-76261580D01*
X39068285Y-76261580D02*
X39020666Y-76309200D01*
X39020666Y-76309200D02*
X38925428Y-76356819D01*
X38925428Y-76356819D02*
X38734952Y-76356819D01*
X38734952Y-76356819D02*
X38639714Y-76309200D01*
X38639714Y-76309200D02*
X38592095Y-76261580D01*
X38592095Y-76261580D02*
X38544476Y-76166342D01*
X38544476Y-76166342D02*
X38544476Y-75356819D01*
X37544476Y-76356819D02*
X38115904Y-76356819D01*
X37830190Y-76356819D02*
X37830190Y-75356819D01*
X37830190Y-75356819D02*
X37925428Y-75499676D01*
X37925428Y-75499676D02*
X38020666Y-75594914D01*
X38020666Y-75594914D02*
X38115904Y-75642533D01*
X41139713Y-95256819D02*
X40473047Y-95256819D01*
X40473047Y-95256819D02*
X40901618Y-96256819D01*
X39663523Y-95590152D02*
X39663523Y-96256819D01*
X39901618Y-95209200D02*
X40139713Y-95923485D01*
X40139713Y-95923485D02*
X39520666Y-95923485D01*
X39139713Y-96256819D02*
X39139713Y-95256819D01*
X39139713Y-95733009D02*
X38568285Y-95733009D01*
X38568285Y-96256819D02*
X38568285Y-95256819D01*
X37520666Y-96161580D02*
X37568285Y-96209200D01*
X37568285Y-96209200D02*
X37711142Y-96256819D01*
X37711142Y-96256819D02*
X37806380Y-96256819D01*
X37806380Y-96256819D02*
X37949237Y-96209200D01*
X37949237Y-96209200D02*
X38044475Y-96113961D01*
X38044475Y-96113961D02*
X38092094Y-96018723D01*
X38092094Y-96018723D02*
X38139713Y-95828247D01*
X38139713Y-95828247D02*
X38139713Y-95685390D01*
X38139713Y-95685390D02*
X38092094Y-95494914D01*
X38092094Y-95494914D02*
X38044475Y-95399676D01*
X38044475Y-95399676D02*
X37949237Y-95304438D01*
X37949237Y-95304438D02*
X37806380Y-95256819D01*
X37806380Y-95256819D02*
X37711142Y-95256819D01*
X37711142Y-95256819D02*
X37568285Y-95304438D01*
X37568285Y-95304438D02*
X37520666Y-95352057D01*
X36901618Y-95256819D02*
X36806380Y-95256819D01*
X36806380Y-95256819D02*
X36711142Y-95304438D01*
X36711142Y-95304438D02*
X36663523Y-95352057D01*
X36663523Y-95352057D02*
X36615904Y-95447295D01*
X36615904Y-95447295D02*
X36568285Y-95637771D01*
X36568285Y-95637771D02*
X36568285Y-95875866D01*
X36568285Y-95875866D02*
X36615904Y-96066342D01*
X36615904Y-96066342D02*
X36663523Y-96161580D01*
X36663523Y-96161580D02*
X36711142Y-96209200D01*
X36711142Y-96209200D02*
X36806380Y-96256819D01*
X36806380Y-96256819D02*
X36901618Y-96256819D01*
X36901618Y-96256819D02*
X36996856Y-96209200D01*
X36996856Y-96209200D02*
X37044475Y-96161580D01*
X37044475Y-96161580D02*
X37092094Y-96066342D01*
X37092094Y-96066342D02*
X37139713Y-95875866D01*
X37139713Y-95875866D02*
X37139713Y-95637771D01*
X37139713Y-95637771D02*
X37092094Y-95447295D01*
X37092094Y-95447295D02*
X37044475Y-95352057D01*
X37044475Y-95352057D02*
X36996856Y-95304438D01*
X36996856Y-95304438D02*
X36901618Y-95256819D01*
X36187332Y-95352057D02*
X36139713Y-95304438D01*
X36139713Y-95304438D02*
X36044475Y-95256819D01*
X36044475Y-95256819D02*
X35806380Y-95256819D01*
X35806380Y-95256819D02*
X35711142Y-95304438D01*
X35711142Y-95304438D02*
X35663523Y-95352057D01*
X35663523Y-95352057D02*
X35615904Y-95447295D01*
X35615904Y-95447295D02*
X35615904Y-95542533D01*
X35615904Y-95542533D02*
X35663523Y-95685390D01*
X35663523Y-95685390D02*
X36234951Y-96256819D01*
X36234951Y-96256819D02*
X35615904Y-96256819D01*
X45412819Y-64589333D02*
X44936628Y-64256000D01*
X45412819Y-64017905D02*
X44412819Y-64017905D01*
X44412819Y-64017905D02*
X44412819Y-64398857D01*
X44412819Y-64398857D02*
X44460438Y-64494095D01*
X44460438Y-64494095D02*
X44508057Y-64541714D01*
X44508057Y-64541714D02*
X44603295Y-64589333D01*
X44603295Y-64589333D02*
X44746152Y-64589333D01*
X44746152Y-64589333D02*
X44841390Y-64541714D01*
X44841390Y-64541714D02*
X44889009Y-64494095D01*
X44889009Y-64494095D02*
X44936628Y-64398857D01*
X44936628Y-64398857D02*
X44936628Y-64017905D01*
X45412819Y-65541714D02*
X45412819Y-64970286D01*
X45412819Y-65256000D02*
X44412819Y-65256000D01*
X44412819Y-65256000D02*
X44555676Y-65160762D01*
X44555676Y-65160762D02*
X44650914Y-65065524D01*
X44650914Y-65065524D02*
X44698533Y-64970286D01*
X51141238Y-65210819D02*
X51712666Y-65210819D01*
X51426952Y-65210819D02*
X51426952Y-64210819D01*
X51426952Y-64210819D02*
X51522190Y-64353676D01*
X51522190Y-64353676D02*
X51617428Y-64448914D01*
X51617428Y-64448914D02*
X51712666Y-64496533D01*
X50522190Y-64210819D02*
X50426952Y-64210819D01*
X50426952Y-64210819D02*
X50331714Y-64258438D01*
X50331714Y-64258438D02*
X50284095Y-64306057D01*
X50284095Y-64306057D02*
X50236476Y-64401295D01*
X50236476Y-64401295D02*
X50188857Y-64591771D01*
X50188857Y-64591771D02*
X50188857Y-64829866D01*
X50188857Y-64829866D02*
X50236476Y-65020342D01*
X50236476Y-65020342D02*
X50284095Y-65115580D01*
X50284095Y-65115580D02*
X50331714Y-65163200D01*
X50331714Y-65163200D02*
X50426952Y-65210819D01*
X50426952Y-65210819D02*
X50522190Y-65210819D01*
X50522190Y-65210819D02*
X50617428Y-65163200D01*
X50617428Y-65163200D02*
X50665047Y-65115580D01*
X50665047Y-65115580D02*
X50712666Y-65020342D01*
X50712666Y-65020342D02*
X50760285Y-64829866D01*
X50760285Y-64829866D02*
X50760285Y-64591771D01*
X50760285Y-64591771D02*
X50712666Y-64401295D01*
X50712666Y-64401295D02*
X50665047Y-64306057D01*
X50665047Y-64306057D02*
X50617428Y-64258438D01*
X50617428Y-64258438D02*
X50522190Y-64210819D01*
X49760285Y-65210819D02*
X49760285Y-64210819D01*
X49665047Y-64829866D02*
X49379333Y-65210819D01*
X49379333Y-64544152D02*
X49760285Y-64925104D01*
X76938094Y-93672819D02*
X76938094Y-92672819D01*
X76938094Y-92672819D02*
X76699999Y-92672819D01*
X76699999Y-92672819D02*
X76557142Y-92720438D01*
X76557142Y-92720438D02*
X76461904Y-92815676D01*
X76461904Y-92815676D02*
X76414285Y-92910914D01*
X76414285Y-92910914D02*
X76366666Y-93101390D01*
X76366666Y-93101390D02*
X76366666Y-93244247D01*
X76366666Y-93244247D02*
X76414285Y-93434723D01*
X76414285Y-93434723D02*
X76461904Y-93529961D01*
X76461904Y-93529961D02*
X76557142Y-93625200D01*
X76557142Y-93625200D02*
X76699999Y-93672819D01*
X76699999Y-93672819D02*
X76938094Y-93672819D01*
X75461904Y-92672819D02*
X75938094Y-92672819D01*
X75938094Y-92672819D02*
X75985713Y-93149009D01*
X75985713Y-93149009D02*
X75938094Y-93101390D01*
X75938094Y-93101390D02*
X75842856Y-93053771D01*
X75842856Y-93053771D02*
X75604761Y-93053771D01*
X75604761Y-93053771D02*
X75509523Y-93101390D01*
X75509523Y-93101390D02*
X75461904Y-93149009D01*
X75461904Y-93149009D02*
X75414285Y-93244247D01*
X75414285Y-93244247D02*
X75414285Y-93482342D01*
X75414285Y-93482342D02*
X75461904Y-93577580D01*
X75461904Y-93577580D02*
X75509523Y-93625200D01*
X75509523Y-93625200D02*
X75604761Y-93672819D01*
X75604761Y-93672819D02*
X75842856Y-93672819D01*
X75842856Y-93672819D02*
X75938094Y-93625200D01*
X75938094Y-93625200D02*
X75985713Y-93577580D01*
X74854819Y-94734095D02*
X73854819Y-94734095D01*
X74854819Y-95305523D02*
X74283390Y-94876952D01*
X73854819Y-95305523D02*
X74426247Y-94734095D01*
X87086094Y-93672819D02*
X87086094Y-92672819D01*
X87086094Y-92672819D02*
X86847999Y-92672819D01*
X86847999Y-92672819D02*
X86705142Y-92720438D01*
X86705142Y-92720438D02*
X86609904Y-92815676D01*
X86609904Y-92815676D02*
X86562285Y-92910914D01*
X86562285Y-92910914D02*
X86514666Y-93101390D01*
X86514666Y-93101390D02*
X86514666Y-93244247D01*
X86514666Y-93244247D02*
X86562285Y-93434723D01*
X86562285Y-93434723D02*
X86609904Y-93529961D01*
X86609904Y-93529961D02*
X86705142Y-93625200D01*
X86705142Y-93625200D02*
X86847999Y-93672819D01*
X86847999Y-93672819D02*
X87086094Y-93672819D01*
X86181332Y-92672819D02*
X85562285Y-92672819D01*
X85562285Y-92672819D02*
X85895618Y-93053771D01*
X85895618Y-93053771D02*
X85752761Y-93053771D01*
X85752761Y-93053771D02*
X85657523Y-93101390D01*
X85657523Y-93101390D02*
X85609904Y-93149009D01*
X85609904Y-93149009D02*
X85562285Y-93244247D01*
X85562285Y-93244247D02*
X85562285Y-93482342D01*
X85562285Y-93482342D02*
X85609904Y-93577580D01*
X85609904Y-93577580D02*
X85657523Y-93625200D01*
X85657523Y-93625200D02*
X85752761Y-93672819D01*
X85752761Y-93672819D02*
X86038475Y-93672819D01*
X86038475Y-93672819D02*
X86133713Y-93625200D01*
X86133713Y-93625200D02*
X86181332Y-93577580D01*
X85014819Y-94734095D02*
X84014819Y-94734095D01*
X85014819Y-95305523D02*
X84443390Y-94876952D01*
X84014819Y-95305523D02*
X84586247Y-94734095D01*
X82012094Y-93672819D02*
X82012094Y-92672819D01*
X82012094Y-92672819D02*
X81773999Y-92672819D01*
X81773999Y-92672819D02*
X81631142Y-92720438D01*
X81631142Y-92720438D02*
X81535904Y-92815676D01*
X81535904Y-92815676D02*
X81488285Y-92910914D01*
X81488285Y-92910914D02*
X81440666Y-93101390D01*
X81440666Y-93101390D02*
X81440666Y-93244247D01*
X81440666Y-93244247D02*
X81488285Y-93434723D01*
X81488285Y-93434723D02*
X81535904Y-93529961D01*
X81535904Y-93529961D02*
X81631142Y-93625200D01*
X81631142Y-93625200D02*
X81773999Y-93672819D01*
X81773999Y-93672819D02*
X82012094Y-93672819D01*
X80583523Y-93006152D02*
X80583523Y-93672819D01*
X80821618Y-92625200D02*
X81059713Y-93339485D01*
X81059713Y-93339485D02*
X80440666Y-93339485D01*
X79934819Y-94734095D02*
X78934819Y-94734095D01*
X79934819Y-95305523D02*
X79363390Y-94876952D01*
X78934819Y-95305523D02*
X79506247Y-94734095D01*
X45412819Y-68667333D02*
X44936628Y-68334000D01*
X45412819Y-68095905D02*
X44412819Y-68095905D01*
X44412819Y-68095905D02*
X44412819Y-68476857D01*
X44412819Y-68476857D02*
X44460438Y-68572095D01*
X44460438Y-68572095D02*
X44508057Y-68619714D01*
X44508057Y-68619714D02*
X44603295Y-68667333D01*
X44603295Y-68667333D02*
X44746152Y-68667333D01*
X44746152Y-68667333D02*
X44841390Y-68619714D01*
X44841390Y-68619714D02*
X44889009Y-68572095D01*
X44889009Y-68572095D02*
X44936628Y-68476857D01*
X44936628Y-68476857D02*
X44936628Y-68095905D01*
X44508057Y-69048286D02*
X44460438Y-69095905D01*
X44460438Y-69095905D02*
X44412819Y-69191143D01*
X44412819Y-69191143D02*
X44412819Y-69429238D01*
X44412819Y-69429238D02*
X44460438Y-69524476D01*
X44460438Y-69524476D02*
X44508057Y-69572095D01*
X44508057Y-69572095D02*
X44603295Y-69619714D01*
X44603295Y-69619714D02*
X44698533Y-69619714D01*
X44698533Y-69619714D02*
X44841390Y-69572095D01*
X44841390Y-69572095D02*
X45412819Y-69000667D01*
X45412819Y-69000667D02*
X45412819Y-69619714D01*
X51141238Y-69274819D02*
X51712666Y-69274819D01*
X51426952Y-69274819D02*
X51426952Y-68274819D01*
X51426952Y-68274819D02*
X51522190Y-68417676D01*
X51522190Y-68417676D02*
X51617428Y-68512914D01*
X51617428Y-68512914D02*
X51712666Y-68560533D01*
X50522190Y-68274819D02*
X50426952Y-68274819D01*
X50426952Y-68274819D02*
X50331714Y-68322438D01*
X50331714Y-68322438D02*
X50284095Y-68370057D01*
X50284095Y-68370057D02*
X50236476Y-68465295D01*
X50236476Y-68465295D02*
X50188857Y-68655771D01*
X50188857Y-68655771D02*
X50188857Y-68893866D01*
X50188857Y-68893866D02*
X50236476Y-69084342D01*
X50236476Y-69084342D02*
X50284095Y-69179580D01*
X50284095Y-69179580D02*
X50331714Y-69227200D01*
X50331714Y-69227200D02*
X50426952Y-69274819D01*
X50426952Y-69274819D02*
X50522190Y-69274819D01*
X50522190Y-69274819D02*
X50617428Y-69227200D01*
X50617428Y-69227200D02*
X50665047Y-69179580D01*
X50665047Y-69179580D02*
X50712666Y-69084342D01*
X50712666Y-69084342D02*
X50760285Y-68893866D01*
X50760285Y-68893866D02*
X50760285Y-68655771D01*
X50760285Y-68655771D02*
X50712666Y-68465295D01*
X50712666Y-68465295D02*
X50665047Y-68370057D01*
X50665047Y-68370057D02*
X50617428Y-68322438D01*
X50617428Y-68322438D02*
X50522190Y-68274819D01*
X49760285Y-69274819D02*
X49760285Y-68274819D01*
X49665047Y-68893866D02*
X49379333Y-69274819D01*
X49379333Y-68608152D02*
X49760285Y-68989104D01*
X32204819Y-64603333D02*
X31728628Y-64270000D01*
X32204819Y-64031905D02*
X31204819Y-64031905D01*
X31204819Y-64031905D02*
X31204819Y-64412857D01*
X31204819Y-64412857D02*
X31252438Y-64508095D01*
X31252438Y-64508095D02*
X31300057Y-64555714D01*
X31300057Y-64555714D02*
X31395295Y-64603333D01*
X31395295Y-64603333D02*
X31538152Y-64603333D01*
X31538152Y-64603333D02*
X31633390Y-64555714D01*
X31633390Y-64555714D02*
X31681009Y-64508095D01*
X31681009Y-64508095D02*
X31728628Y-64412857D01*
X31728628Y-64412857D02*
X31728628Y-64031905D01*
X31538152Y-65460476D02*
X32204819Y-65460476D01*
X31157200Y-65222381D02*
X31871485Y-64984286D01*
X31871485Y-64984286D02*
X31871485Y-65603333D01*
X37457047Y-65238819D02*
X38028475Y-65238819D01*
X37742761Y-65238819D02*
X37742761Y-64238819D01*
X37742761Y-64238819D02*
X37837999Y-64381676D01*
X37837999Y-64381676D02*
X37933237Y-64476914D01*
X37933237Y-64476914D02*
X38028475Y-64524533D01*
X37028475Y-65238819D02*
X37028475Y-64238819D01*
X36933237Y-64857866D02*
X36647523Y-65238819D01*
X36647523Y-64572152D02*
X37028475Y-64953104D01*
X68579904Y-68164819D02*
X68579904Y-68974342D01*
X68579904Y-68974342D02*
X68532285Y-69069580D01*
X68532285Y-69069580D02*
X68484666Y-69117200D01*
X68484666Y-69117200D02*
X68389428Y-69164819D01*
X68389428Y-69164819D02*
X68198952Y-69164819D01*
X68198952Y-69164819D02*
X68103714Y-69117200D01*
X68103714Y-69117200D02*
X68056095Y-69069580D01*
X68056095Y-69069580D02*
X68008476Y-68974342D01*
X68008476Y-68974342D02*
X68008476Y-68164819D01*
X67103714Y-68498152D02*
X67103714Y-69164819D01*
X67341809Y-68117200D02*
X67579904Y-68831485D01*
X67579904Y-68831485D02*
X66960857Y-68831485D01*
X72246571Y-91717200D02*
X72103714Y-91764819D01*
X72103714Y-91764819D02*
X71865619Y-91764819D01*
X71865619Y-91764819D02*
X71770381Y-91717200D01*
X71770381Y-91717200D02*
X71722762Y-91669580D01*
X71722762Y-91669580D02*
X71675143Y-91574342D01*
X71675143Y-91574342D02*
X71675143Y-91479104D01*
X71675143Y-91479104D02*
X71722762Y-91383866D01*
X71722762Y-91383866D02*
X71770381Y-91336247D01*
X71770381Y-91336247D02*
X71865619Y-91288628D01*
X71865619Y-91288628D02*
X72056095Y-91241009D01*
X72056095Y-91241009D02*
X72151333Y-91193390D01*
X72151333Y-91193390D02*
X72198952Y-91145771D01*
X72198952Y-91145771D02*
X72246571Y-91050533D01*
X72246571Y-91050533D02*
X72246571Y-90955295D01*
X72246571Y-90955295D02*
X72198952Y-90860057D01*
X72198952Y-90860057D02*
X72151333Y-90812438D01*
X72151333Y-90812438D02*
X72056095Y-90764819D01*
X72056095Y-90764819D02*
X71818000Y-90764819D01*
X71818000Y-90764819D02*
X71675143Y-90812438D01*
X71294190Y-91717200D02*
X71151333Y-91764819D01*
X71151333Y-91764819D02*
X70913238Y-91764819D01*
X70913238Y-91764819D02*
X70818000Y-91717200D01*
X70818000Y-91717200D02*
X70770381Y-91669580D01*
X70770381Y-91669580D02*
X70722762Y-91574342D01*
X70722762Y-91574342D02*
X70722762Y-91479104D01*
X70722762Y-91479104D02*
X70770381Y-91383866D01*
X70770381Y-91383866D02*
X70818000Y-91336247D01*
X70818000Y-91336247D02*
X70913238Y-91288628D01*
X70913238Y-91288628D02*
X71103714Y-91241009D01*
X71103714Y-91241009D02*
X71198952Y-91193390D01*
X71198952Y-91193390D02*
X71246571Y-91145771D01*
X71246571Y-91145771D02*
X71294190Y-91050533D01*
X71294190Y-91050533D02*
X71294190Y-90955295D01*
X71294190Y-90955295D02*
X71246571Y-90860057D01*
X71246571Y-90860057D02*
X71198952Y-90812438D01*
X71198952Y-90812438D02*
X71103714Y-90764819D01*
X71103714Y-90764819D02*
X70865619Y-90764819D01*
X70865619Y-90764819D02*
X70722762Y-90812438D01*
X70437047Y-90764819D02*
X69865619Y-90764819D01*
X70151333Y-91764819D02*
X70151333Y-90764819D01*
X69627523Y-90764819D02*
X69008476Y-90764819D01*
X69008476Y-90764819D02*
X69341809Y-91145771D01*
X69341809Y-91145771D02*
X69198952Y-91145771D01*
X69198952Y-91145771D02*
X69103714Y-91193390D01*
X69103714Y-91193390D02*
X69056095Y-91241009D01*
X69056095Y-91241009D02*
X69008476Y-91336247D01*
X69008476Y-91336247D02*
X69008476Y-91574342D01*
X69008476Y-91574342D02*
X69056095Y-91669580D01*
X69056095Y-91669580D02*
X69103714Y-91717200D01*
X69103714Y-91717200D02*
X69198952Y-91764819D01*
X69198952Y-91764819D02*
X69484666Y-91764819D01*
X69484666Y-91764819D02*
X69579904Y-91717200D01*
X69579904Y-91717200D02*
X69627523Y-91669580D01*
X68532285Y-91764819D02*
X68341809Y-91764819D01*
X68341809Y-91764819D02*
X68246571Y-91717200D01*
X68246571Y-91717200D02*
X68198952Y-91669580D01*
X68198952Y-91669580D02*
X68103714Y-91526723D01*
X68103714Y-91526723D02*
X68056095Y-91336247D01*
X68056095Y-91336247D02*
X68056095Y-90955295D01*
X68056095Y-90955295D02*
X68103714Y-90860057D01*
X68103714Y-90860057D02*
X68151333Y-90812438D01*
X68151333Y-90812438D02*
X68246571Y-90764819D01*
X68246571Y-90764819D02*
X68437047Y-90764819D01*
X68437047Y-90764819D02*
X68532285Y-90812438D01*
X68532285Y-90812438D02*
X68579904Y-90860057D01*
X68579904Y-90860057D02*
X68627523Y-90955295D01*
X68627523Y-90955295D02*
X68627523Y-91193390D01*
X68627523Y-91193390D02*
X68579904Y-91288628D01*
X68579904Y-91288628D02*
X68532285Y-91336247D01*
X68532285Y-91336247D02*
X68437047Y-91383866D01*
X68437047Y-91383866D02*
X68246571Y-91383866D01*
X68246571Y-91383866D02*
X68151333Y-91336247D01*
X68151333Y-91336247D02*
X68103714Y-91288628D01*
X68103714Y-91288628D02*
X68056095Y-91193390D01*
X67675142Y-91717200D02*
X67532285Y-91764819D01*
X67532285Y-91764819D02*
X67294190Y-91764819D01*
X67294190Y-91764819D02*
X67198952Y-91717200D01*
X67198952Y-91717200D02*
X67151333Y-91669580D01*
X67151333Y-91669580D02*
X67103714Y-91574342D01*
X67103714Y-91574342D02*
X67103714Y-91479104D01*
X67103714Y-91479104D02*
X67151333Y-91383866D01*
X67151333Y-91383866D02*
X67198952Y-91336247D01*
X67198952Y-91336247D02*
X67294190Y-91288628D01*
X67294190Y-91288628D02*
X67484666Y-91241009D01*
X67484666Y-91241009D02*
X67579904Y-91193390D01*
X67579904Y-91193390D02*
X67627523Y-91145771D01*
X67627523Y-91145771D02*
X67675142Y-91050533D01*
X67675142Y-91050533D02*
X67675142Y-90955295D01*
X67675142Y-90955295D02*
X67627523Y-90860057D01*
X67627523Y-90860057D02*
X67579904Y-90812438D01*
X67579904Y-90812438D02*
X67484666Y-90764819D01*
X67484666Y-90764819D02*
X67246571Y-90764819D01*
X67246571Y-90764819D02*
X67103714Y-90812438D01*
X66341809Y-91241009D02*
X66675142Y-91241009D01*
X66675142Y-91764819D02*
X66675142Y-90764819D01*
X66675142Y-90764819D02*
X66198952Y-90764819D01*
X65627523Y-90764819D02*
X65532285Y-90764819D01*
X65532285Y-90764819D02*
X65437047Y-90812438D01*
X65437047Y-90812438D02*
X65389428Y-90860057D01*
X65389428Y-90860057D02*
X65341809Y-90955295D01*
X65341809Y-90955295D02*
X65294190Y-91145771D01*
X65294190Y-91145771D02*
X65294190Y-91383866D01*
X65294190Y-91383866D02*
X65341809Y-91574342D01*
X65341809Y-91574342D02*
X65389428Y-91669580D01*
X65389428Y-91669580D02*
X65437047Y-91717200D01*
X65437047Y-91717200D02*
X65532285Y-91764819D01*
X65532285Y-91764819D02*
X65627523Y-91764819D01*
X65627523Y-91764819D02*
X65722761Y-91717200D01*
X65722761Y-91717200D02*
X65770380Y-91669580D01*
X65770380Y-91669580D02*
X65817999Y-91574342D01*
X65817999Y-91574342D02*
X65865618Y-91383866D01*
X65865618Y-91383866D02*
X65865618Y-91145771D01*
X65865618Y-91145771D02*
X65817999Y-90955295D01*
X65817999Y-90955295D02*
X65770380Y-90860057D01*
X65770380Y-90860057D02*
X65722761Y-90812438D01*
X65722761Y-90812438D02*
X65627523Y-90764819D01*
X64341809Y-91764819D02*
X64913237Y-91764819D01*
X64627523Y-91764819D02*
X64627523Y-90764819D01*
X64627523Y-90764819D02*
X64722761Y-90907676D01*
X64722761Y-90907676D02*
X64817999Y-91002914D01*
X64817999Y-91002914D02*
X64913237Y-91050533D01*
X63722761Y-90764819D02*
X63627523Y-90764819D01*
X63627523Y-90764819D02*
X63532285Y-90812438D01*
X63532285Y-90812438D02*
X63484666Y-90860057D01*
X63484666Y-90860057D02*
X63437047Y-90955295D01*
X63437047Y-90955295D02*
X63389428Y-91145771D01*
X63389428Y-91145771D02*
X63389428Y-91383866D01*
X63389428Y-91383866D02*
X63437047Y-91574342D01*
X63437047Y-91574342D02*
X63484666Y-91669580D01*
X63484666Y-91669580D02*
X63532285Y-91717200D01*
X63532285Y-91717200D02*
X63627523Y-91764819D01*
X63627523Y-91764819D02*
X63722761Y-91764819D01*
X63722761Y-91764819D02*
X63817999Y-91717200D01*
X63817999Y-91717200D02*
X63865618Y-91669580D01*
X63865618Y-91669580D02*
X63913237Y-91574342D01*
X63913237Y-91574342D02*
X63960856Y-91383866D01*
X63960856Y-91383866D02*
X63960856Y-91145771D01*
X63960856Y-91145771D02*
X63913237Y-90955295D01*
X63913237Y-90955295D02*
X63865618Y-90860057D01*
X63865618Y-90860057D02*
X63817999Y-90812438D01*
X63817999Y-90812438D02*
X63722761Y-90764819D01*
X51561904Y-75356819D02*
X51561904Y-76166342D01*
X51561904Y-76166342D02*
X51514285Y-76261580D01*
X51514285Y-76261580D02*
X51466666Y-76309200D01*
X51466666Y-76309200D02*
X51371428Y-76356819D01*
X51371428Y-76356819D02*
X51180952Y-76356819D01*
X51180952Y-76356819D02*
X51085714Y-76309200D01*
X51085714Y-76309200D02*
X51038095Y-76261580D01*
X51038095Y-76261580D02*
X50990476Y-76166342D01*
X50990476Y-76166342D02*
X50990476Y-75356819D01*
X50561904Y-75452057D02*
X50514285Y-75404438D01*
X50514285Y-75404438D02*
X50419047Y-75356819D01*
X50419047Y-75356819D02*
X50180952Y-75356819D01*
X50180952Y-75356819D02*
X50085714Y-75404438D01*
X50085714Y-75404438D02*
X50038095Y-75452057D01*
X50038095Y-75452057D02*
X49990476Y-75547295D01*
X49990476Y-75547295D02*
X49990476Y-75642533D01*
X49990476Y-75642533D02*
X50038095Y-75785390D01*
X50038095Y-75785390D02*
X50609523Y-76356819D01*
X50609523Y-76356819D02*
X49990476Y-76356819D01*
X53585713Y-95256819D02*
X52919047Y-95256819D01*
X52919047Y-95256819D02*
X53347618Y-96256819D01*
X52109523Y-95590152D02*
X52109523Y-96256819D01*
X52347618Y-95209200D02*
X52585713Y-95923485D01*
X52585713Y-95923485D02*
X51966666Y-95923485D01*
X51585713Y-96256819D02*
X51585713Y-95256819D01*
X51585713Y-95733009D02*
X51014285Y-95733009D01*
X51014285Y-96256819D02*
X51014285Y-95256819D01*
X49966666Y-96161580D02*
X50014285Y-96209200D01*
X50014285Y-96209200D02*
X50157142Y-96256819D01*
X50157142Y-96256819D02*
X50252380Y-96256819D01*
X50252380Y-96256819D02*
X50395237Y-96209200D01*
X50395237Y-96209200D02*
X50490475Y-96113961D01*
X50490475Y-96113961D02*
X50538094Y-96018723D01*
X50538094Y-96018723D02*
X50585713Y-95828247D01*
X50585713Y-95828247D02*
X50585713Y-95685390D01*
X50585713Y-95685390D02*
X50538094Y-95494914D01*
X50538094Y-95494914D02*
X50490475Y-95399676D01*
X50490475Y-95399676D02*
X50395237Y-95304438D01*
X50395237Y-95304438D02*
X50252380Y-95256819D01*
X50252380Y-95256819D02*
X50157142Y-95256819D01*
X50157142Y-95256819D02*
X50014285Y-95304438D01*
X50014285Y-95304438D02*
X49966666Y-95352057D01*
X49633332Y-95256819D02*
X48966666Y-95256819D01*
X48966666Y-95256819D02*
X49395237Y-96256819D01*
X48157142Y-95590152D02*
X48157142Y-96256819D01*
X48395237Y-95209200D02*
X48633332Y-95923485D01*
X48633332Y-95923485D02*
X48014285Y-95923485D01*
X97234094Y-93672819D02*
X97234094Y-92672819D01*
X97234094Y-92672819D02*
X96995999Y-92672819D01*
X96995999Y-92672819D02*
X96853142Y-92720438D01*
X96853142Y-92720438D02*
X96757904Y-92815676D01*
X96757904Y-92815676D02*
X96710285Y-92910914D01*
X96710285Y-92910914D02*
X96662666Y-93101390D01*
X96662666Y-93101390D02*
X96662666Y-93244247D01*
X96662666Y-93244247D02*
X96710285Y-93434723D01*
X96710285Y-93434723D02*
X96757904Y-93529961D01*
X96757904Y-93529961D02*
X96853142Y-93625200D01*
X96853142Y-93625200D02*
X96995999Y-93672819D01*
X96995999Y-93672819D02*
X97234094Y-93672819D01*
X95710285Y-93672819D02*
X96281713Y-93672819D01*
X95995999Y-93672819D02*
X95995999Y-92672819D01*
X95995999Y-92672819D02*
X96091237Y-92815676D01*
X96091237Y-92815676D02*
X96186475Y-92910914D01*
X96186475Y-92910914D02*
X96281713Y-92958533D01*
X95174819Y-94734095D02*
X94174819Y-94734095D01*
X95174819Y-95305523D02*
X94603390Y-94876952D01*
X94174819Y-95305523D02*
X94746247Y-94734095D01*
X66790094Y-93672819D02*
X66790094Y-92672819D01*
X66790094Y-92672819D02*
X66551999Y-92672819D01*
X66551999Y-92672819D02*
X66409142Y-92720438D01*
X66409142Y-92720438D02*
X66313904Y-92815676D01*
X66313904Y-92815676D02*
X66266285Y-92910914D01*
X66266285Y-92910914D02*
X66218666Y-93101390D01*
X66218666Y-93101390D02*
X66218666Y-93244247D01*
X66218666Y-93244247D02*
X66266285Y-93434723D01*
X66266285Y-93434723D02*
X66313904Y-93529961D01*
X66313904Y-93529961D02*
X66409142Y-93625200D01*
X66409142Y-93625200D02*
X66551999Y-93672819D01*
X66551999Y-93672819D02*
X66790094Y-93672819D01*
X65885332Y-92672819D02*
X65218666Y-92672819D01*
X65218666Y-92672819D02*
X65647237Y-93672819D01*
X64694819Y-94734095D02*
X63694819Y-94734095D01*
X64694819Y-95305523D02*
X64123390Y-94876952D01*
X63694819Y-95305523D02*
X64266247Y-94734095D01*
X86359904Y-64434819D02*
X86359904Y-65244342D01*
X86359904Y-65244342D02*
X86312285Y-65339580D01*
X86312285Y-65339580D02*
X86264666Y-65387200D01*
X86264666Y-65387200D02*
X86169428Y-65434819D01*
X86169428Y-65434819D02*
X85978952Y-65434819D01*
X85978952Y-65434819D02*
X85883714Y-65387200D01*
X85883714Y-65387200D02*
X85836095Y-65339580D01*
X85836095Y-65339580D02*
X85788476Y-65244342D01*
X85788476Y-65244342D02*
X85788476Y-64434819D01*
X85407523Y-64434819D02*
X84788476Y-64434819D01*
X84788476Y-64434819D02*
X85121809Y-64815771D01*
X85121809Y-64815771D02*
X84978952Y-64815771D01*
X84978952Y-64815771D02*
X84883714Y-64863390D01*
X84883714Y-64863390D02*
X84836095Y-64911009D01*
X84836095Y-64911009D02*
X84788476Y-65006247D01*
X84788476Y-65006247D02*
X84788476Y-65244342D01*
X84788476Y-65244342D02*
X84836095Y-65339580D01*
X84836095Y-65339580D02*
X84883714Y-65387200D01*
X84883714Y-65387200D02*
X84978952Y-65434819D01*
X84978952Y-65434819D02*
X85264666Y-65434819D01*
X85264666Y-65434819D02*
X85359904Y-65387200D01*
X85359904Y-65387200D02*
X85407523Y-65339580D01*
X88859904Y-86874819D02*
X88193238Y-86874819D01*
X88193238Y-86874819D02*
X88621809Y-87874819D01*
X87383714Y-87208152D02*
X87383714Y-87874819D01*
X87621809Y-86827200D02*
X87859904Y-87541485D01*
X87859904Y-87541485D02*
X87240857Y-87541485D01*
X86859904Y-87874819D02*
X86859904Y-86874819D01*
X86859904Y-87351009D02*
X86288476Y-87351009D01*
X86288476Y-87874819D02*
X86288476Y-86874819D01*
X85240857Y-87779580D02*
X85288476Y-87827200D01*
X85288476Y-87827200D02*
X85431333Y-87874819D01*
X85431333Y-87874819D02*
X85526571Y-87874819D01*
X85526571Y-87874819D02*
X85669428Y-87827200D01*
X85669428Y-87827200D02*
X85764666Y-87731961D01*
X85764666Y-87731961D02*
X85812285Y-87636723D01*
X85812285Y-87636723D02*
X85859904Y-87446247D01*
X85859904Y-87446247D02*
X85859904Y-87303390D01*
X85859904Y-87303390D02*
X85812285Y-87112914D01*
X85812285Y-87112914D02*
X85764666Y-87017676D01*
X85764666Y-87017676D02*
X85669428Y-86922438D01*
X85669428Y-86922438D02*
X85526571Y-86874819D01*
X85526571Y-86874819D02*
X85431333Y-86874819D01*
X85431333Y-86874819D02*
X85288476Y-86922438D01*
X85288476Y-86922438D02*
X85240857Y-86970057D01*
X84288476Y-87874819D02*
X84859904Y-87874819D01*
X84574190Y-87874819D02*
X84574190Y-86874819D01*
X84574190Y-86874819D02*
X84669428Y-87017676D01*
X84669428Y-87017676D02*
X84764666Y-87112914D01*
X84764666Y-87112914D02*
X84859904Y-87160533D01*
X83955142Y-86874819D02*
X83336095Y-86874819D01*
X83336095Y-86874819D02*
X83669428Y-87255771D01*
X83669428Y-87255771D02*
X83526571Y-87255771D01*
X83526571Y-87255771D02*
X83431333Y-87303390D01*
X83431333Y-87303390D02*
X83383714Y-87351009D01*
X83383714Y-87351009D02*
X83336095Y-87446247D01*
X83336095Y-87446247D02*
X83336095Y-87684342D01*
X83336095Y-87684342D02*
X83383714Y-87779580D01*
X83383714Y-87779580D02*
X83431333Y-87827200D01*
X83431333Y-87827200D02*
X83526571Y-87874819D01*
X83526571Y-87874819D02*
X83812285Y-87874819D01*
X83812285Y-87874819D02*
X83907523Y-87827200D01*
X83907523Y-87827200D02*
X83955142Y-87779580D01*
X82764666Y-87303390D02*
X82859904Y-87255771D01*
X82859904Y-87255771D02*
X82907523Y-87208152D01*
X82907523Y-87208152D02*
X82955142Y-87112914D01*
X82955142Y-87112914D02*
X82955142Y-87065295D01*
X82955142Y-87065295D02*
X82907523Y-86970057D01*
X82907523Y-86970057D02*
X82859904Y-86922438D01*
X82859904Y-86922438D02*
X82764666Y-86874819D01*
X82764666Y-86874819D02*
X82574190Y-86874819D01*
X82574190Y-86874819D02*
X82478952Y-86922438D01*
X82478952Y-86922438D02*
X82431333Y-86970057D01*
X82431333Y-86970057D02*
X82383714Y-87065295D01*
X82383714Y-87065295D02*
X82383714Y-87112914D01*
X82383714Y-87112914D02*
X82431333Y-87208152D01*
X82431333Y-87208152D02*
X82478952Y-87255771D01*
X82478952Y-87255771D02*
X82574190Y-87303390D01*
X82574190Y-87303390D02*
X82764666Y-87303390D01*
X82764666Y-87303390D02*
X82859904Y-87351009D01*
X82859904Y-87351009D02*
X82907523Y-87398628D01*
X82907523Y-87398628D02*
X82955142Y-87493866D01*
X82955142Y-87493866D02*
X82955142Y-87684342D01*
X82955142Y-87684342D02*
X82907523Y-87779580D01*
X82907523Y-87779580D02*
X82859904Y-87827200D01*
X82859904Y-87827200D02*
X82764666Y-87874819D01*
X82764666Y-87874819D02*
X82574190Y-87874819D01*
X82574190Y-87874819D02*
X82478952Y-87827200D01*
X82478952Y-87827200D02*
X82431333Y-87779580D01*
X82431333Y-87779580D02*
X82383714Y-87684342D01*
X82383714Y-87684342D02*
X82383714Y-87493866D01*
X82383714Y-87493866D02*
X82431333Y-87398628D01*
X82431333Y-87398628D02*
X82478952Y-87351009D01*
X82478952Y-87351009D02*
X82574190Y-87303390D01*
X92160094Y-93672819D02*
X92160094Y-92672819D01*
X92160094Y-92672819D02*
X91921999Y-92672819D01*
X91921999Y-92672819D02*
X91779142Y-92720438D01*
X91779142Y-92720438D02*
X91683904Y-92815676D01*
X91683904Y-92815676D02*
X91636285Y-92910914D01*
X91636285Y-92910914D02*
X91588666Y-93101390D01*
X91588666Y-93101390D02*
X91588666Y-93244247D01*
X91588666Y-93244247D02*
X91636285Y-93434723D01*
X91636285Y-93434723D02*
X91683904Y-93529961D01*
X91683904Y-93529961D02*
X91779142Y-93625200D01*
X91779142Y-93625200D02*
X91921999Y-93672819D01*
X91921999Y-93672819D02*
X92160094Y-93672819D01*
X91207713Y-92768057D02*
X91160094Y-92720438D01*
X91160094Y-92720438D02*
X91064856Y-92672819D01*
X91064856Y-92672819D02*
X90826761Y-92672819D01*
X90826761Y-92672819D02*
X90731523Y-92720438D01*
X90731523Y-92720438D02*
X90683904Y-92768057D01*
X90683904Y-92768057D02*
X90636285Y-92863295D01*
X90636285Y-92863295D02*
X90636285Y-92958533D01*
X90636285Y-92958533D02*
X90683904Y-93101390D01*
X90683904Y-93101390D02*
X91255332Y-93672819D01*
X91255332Y-93672819D02*
X90636285Y-93672819D01*
X90094819Y-94734095D02*
X89094819Y-94734095D01*
X90094819Y-95305523D02*
X89523390Y-94876952D01*
X89094819Y-95305523D02*
X89666247Y-94734095D01*
X34395580Y-73493333D02*
X34443200Y-73445714D01*
X34443200Y-73445714D02*
X34490819Y-73302857D01*
X34490819Y-73302857D02*
X34490819Y-73207619D01*
X34490819Y-73207619D02*
X34443200Y-73064762D01*
X34443200Y-73064762D02*
X34347961Y-72969524D01*
X34347961Y-72969524D02*
X34252723Y-72921905D01*
X34252723Y-72921905D02*
X34062247Y-72874286D01*
X34062247Y-72874286D02*
X33919390Y-72874286D01*
X33919390Y-72874286D02*
X33728914Y-72921905D01*
X33728914Y-72921905D02*
X33633676Y-72969524D01*
X33633676Y-72969524D02*
X33538438Y-73064762D01*
X33538438Y-73064762D02*
X33490819Y-73207619D01*
X33490819Y-73207619D02*
X33490819Y-73302857D01*
X33490819Y-73302857D02*
X33538438Y-73445714D01*
X33538438Y-73445714D02*
X33586057Y-73493333D01*
X33490819Y-73826667D02*
X33490819Y-74445714D01*
X33490819Y-74445714D02*
X33871771Y-74112381D01*
X33871771Y-74112381D02*
X33871771Y-74255238D01*
X33871771Y-74255238D02*
X33919390Y-74350476D01*
X33919390Y-74350476D02*
X33967009Y-74398095D01*
X33967009Y-74398095D02*
X34062247Y-74445714D01*
X34062247Y-74445714D02*
X34300342Y-74445714D01*
X34300342Y-74445714D02*
X34395580Y-74398095D01*
X34395580Y-74398095D02*
X34443200Y-74350476D01*
X34443200Y-74350476D02*
X34490819Y-74255238D01*
X34490819Y-74255238D02*
X34490819Y-73969524D01*
X34490819Y-73969524D02*
X34443200Y-73874286D01*
X34443200Y-73874286D02*
X34395580Y-73826667D01*
D11*
%TO.C,C2*%
X82988000Y-61124000D02*
X82988000Y-61439000D01*
X82988000Y-63549000D02*
X82988000Y-63864000D01*
X88228000Y-61124000D02*
X82988000Y-61124000D01*
X88228000Y-61124000D02*
X88228000Y-61439000D01*
X88228000Y-63549000D02*
X88228000Y-63864000D01*
X88228000Y-63864000D02*
X82988000Y-63864000D01*
%TO.C,J1*%
X28911000Y-36842000D02*
X28911000Y-26362000D01*
X38606000Y-37736338D02*
X38856000Y-37303325D01*
X38856000Y-37303325D02*
X39106000Y-37736338D01*
X39106000Y-37736338D02*
X38606000Y-37736338D01*
X59881000Y-26362000D02*
X59881000Y-36842000D01*
X59881000Y-36842000D02*
X28911000Y-36842000D01*
%TO.C,D6*%
X70000000Y-96686000D02*
X70000000Y-100926000D01*
X70000000Y-100926000D02*
X72240000Y-100926000D01*
X71120000Y-96686000D02*
X71120000Y-96036000D01*
X71120000Y-100926000D02*
X71120000Y-101576000D01*
X72240000Y-96686000D02*
X70000000Y-96686000D01*
X72240000Y-97286000D02*
X70000000Y-97286000D01*
X72240000Y-97406000D02*
X70000000Y-97406000D01*
X72240000Y-97526000D02*
X70000000Y-97526000D01*
X72240000Y-100926000D02*
X72240000Y-96686000D01*
%TO.C,C4*%
X47966000Y-72290000D02*
X47966000Y-72605000D01*
X47966000Y-74715000D02*
X47966000Y-75030000D01*
X53206000Y-72290000D02*
X47966000Y-72290000D01*
X53206000Y-72290000D02*
X53206000Y-72605000D01*
X53206000Y-74715000D02*
X53206000Y-75030000D01*
X53206000Y-75030000D02*
X47966000Y-75030000D01*
%TO.C,C1*%
X65198000Y-64924000D02*
X65198000Y-65239000D01*
X65198000Y-67349000D02*
X65198000Y-67664000D01*
X70438000Y-64924000D02*
X65198000Y-64924000D01*
X70438000Y-64924000D02*
X70438000Y-65239000D01*
X70438000Y-67349000D02*
X70438000Y-67664000D01*
X70438000Y-67664000D02*
X65198000Y-67664000D01*
%TO.C,R3*%
X34068000Y-67450000D02*
X34068000Y-67780000D01*
X34068000Y-70190000D02*
X34068000Y-69860000D01*
X40608000Y-67450000D02*
X34068000Y-67450000D01*
X40608000Y-67780000D02*
X40608000Y-67450000D01*
X40608000Y-69860000D02*
X40608000Y-70190000D01*
X40608000Y-70190000D02*
X34068000Y-70190000D01*
%TO.C,RN1*%
X32596000Y-58798000D02*
X32596000Y-61598000D01*
X32596000Y-61598000D02*
X55796000Y-61598000D01*
X53086000Y-61598000D02*
X53086000Y-58798000D01*
X55796000Y-58798000D02*
X32596000Y-58798000D01*
X55796000Y-61598000D02*
X55796000Y-58798000D01*
%TO.C,D8*%
X59840000Y-96686000D02*
X59840000Y-100926000D01*
X59840000Y-100926000D02*
X62080000Y-100926000D01*
X60960000Y-96686000D02*
X60960000Y-96036000D01*
X60960000Y-100926000D02*
X60960000Y-101576000D01*
X62080000Y-96686000D02*
X59840000Y-96686000D01*
X62080000Y-97286000D02*
X59840000Y-97286000D01*
X62080000Y-97406000D02*
X59840000Y-97406000D01*
X62080000Y-97526000D02*
X59840000Y-97526000D01*
X62080000Y-100926000D02*
X62080000Y-96686000D01*
%TO.C,U1*%
X33214000Y-76842000D02*
X33214000Y-94862000D01*
X33214000Y-94862000D02*
X43494000Y-94862000D01*
X35704000Y-76902000D02*
X35704000Y-94802000D01*
X35704000Y-94802000D02*
X41004000Y-94802000D01*
X37354000Y-76902000D02*
X35704000Y-76902000D01*
X41004000Y-76902000D02*
X39354000Y-76902000D01*
X41004000Y-94802000D02*
X41004000Y-76902000D01*
X43494000Y-76842000D02*
X33214000Y-76842000D01*
X43494000Y-94862000D02*
X43494000Y-76842000D01*
X39354000Y-76902000D02*
G75*
G02*
X37354000Y-76902000I-1000000J0D01*
G01*
%TO.C,R1*%
X47276000Y-63400000D02*
X53816000Y-63400000D01*
X47276000Y-63730000D02*
X47276000Y-63400000D01*
X47276000Y-65810000D02*
X47276000Y-66140000D01*
X47276000Y-66140000D02*
X53816000Y-66140000D01*
X53816000Y-63400000D02*
X53816000Y-63730000D01*
X53816000Y-66140000D02*
X53816000Y-65810000D01*
%TO.C,D5*%
X75080000Y-96686000D02*
X75080000Y-100926000D01*
X75080000Y-100926000D02*
X77320000Y-100926000D01*
X76200000Y-96686000D02*
X76200000Y-96036000D01*
X76200000Y-100926000D02*
X76200000Y-101576000D01*
X77320000Y-96686000D02*
X75080000Y-96686000D01*
X77320000Y-97286000D02*
X75080000Y-97286000D01*
X77320000Y-97406000D02*
X75080000Y-97406000D01*
X77320000Y-97526000D02*
X75080000Y-97526000D01*
X77320000Y-100926000D02*
X77320000Y-96686000D01*
%TO.C,D3*%
X85240000Y-96686000D02*
X85240000Y-100926000D01*
X85240000Y-100926000D02*
X87480000Y-100926000D01*
X86360000Y-96686000D02*
X86360000Y-96036000D01*
X86360000Y-100926000D02*
X86360000Y-101576000D01*
X87480000Y-96686000D02*
X85240000Y-96686000D01*
X87480000Y-97286000D02*
X85240000Y-97286000D01*
X87480000Y-97406000D02*
X85240000Y-97406000D01*
X87480000Y-97526000D02*
X85240000Y-97526000D01*
X87480000Y-100926000D02*
X87480000Y-96686000D01*
%TO.C,D4*%
X80160000Y-96686000D02*
X80160000Y-100926000D01*
X80160000Y-100926000D02*
X82400000Y-100926000D01*
X81280000Y-96686000D02*
X81280000Y-96036000D01*
X81280000Y-100926000D02*
X81280000Y-101576000D01*
X82400000Y-96686000D02*
X80160000Y-96686000D01*
X82400000Y-97286000D02*
X80160000Y-97286000D01*
X82400000Y-97406000D02*
X80160000Y-97406000D01*
X82400000Y-97526000D02*
X80160000Y-97526000D01*
X82400000Y-100926000D02*
X82400000Y-96686000D01*
%TO.C,R2*%
X47276000Y-67464000D02*
X53816000Y-67464000D01*
X47276000Y-67794000D02*
X47276000Y-67464000D01*
X47276000Y-69874000D02*
X47276000Y-70204000D01*
X47276000Y-70204000D02*
X53816000Y-70204000D01*
X53816000Y-67464000D02*
X53816000Y-67794000D01*
X53816000Y-70204000D02*
X53816000Y-69874000D01*
%TO.C,J3*%
X63461000Y-36842000D02*
X63461000Y-26362000D01*
X73156000Y-37736338D02*
X73406000Y-37303325D01*
X73406000Y-37303325D02*
X73656000Y-37736338D01*
X73656000Y-37736338D02*
X73156000Y-37736338D01*
X94431000Y-26362000D02*
X94431000Y-36842000D01*
X94431000Y-36842000D02*
X63461000Y-36842000D01*
%TO.C,R4*%
X34068000Y-63400000D02*
X34068000Y-63730000D01*
X34068000Y-66140000D02*
X34068000Y-65810000D01*
X40608000Y-63400000D02*
X34068000Y-63400000D01*
X40608000Y-63730000D02*
X40608000Y-63400000D01*
X40608000Y-65810000D02*
X40608000Y-66140000D01*
X40608000Y-66140000D02*
X34068000Y-66140000D01*
%TO.C,U4*%
X58693000Y-69610000D02*
X58693000Y-90410000D01*
X58693000Y-90410000D02*
X76943000Y-90410000D01*
X66818000Y-69610000D02*
X58693000Y-69610000D01*
X75943000Y-69610000D02*
X68818000Y-69610000D01*
X76943000Y-70610000D02*
X75943000Y-69610000D01*
X76943000Y-90410000D02*
X76943000Y-70610000D01*
%TO.C,U2*%
X45660000Y-76842000D02*
X45660000Y-94862000D01*
X45660000Y-94862000D02*
X55940000Y-94862000D01*
X48150000Y-76902000D02*
X48150000Y-94802000D01*
X48150000Y-94802000D02*
X53450000Y-94802000D01*
X49800000Y-76902000D02*
X48150000Y-76902000D01*
X53450000Y-76902000D02*
X51800000Y-76902000D01*
X53450000Y-94802000D02*
X53450000Y-76902000D01*
X55940000Y-76842000D02*
X45660000Y-76842000D01*
X55940000Y-94862000D02*
X55940000Y-76842000D01*
X51800000Y-76902000D02*
G75*
G02*
X49800000Y-76902000I-1000000J0D01*
G01*
%TO.C,D1*%
X95400000Y-96686000D02*
X95400000Y-100926000D01*
X95400000Y-100926000D02*
X97640000Y-100926000D01*
X96520000Y-96686000D02*
X96520000Y-96036000D01*
X96520000Y-100926000D02*
X96520000Y-101576000D01*
X97640000Y-96686000D02*
X95400000Y-96686000D01*
X97640000Y-97286000D02*
X95400000Y-97286000D01*
X97640000Y-97406000D02*
X95400000Y-97406000D01*
X97640000Y-97526000D02*
X95400000Y-97526000D01*
X97640000Y-100926000D02*
X97640000Y-96686000D01*
%TO.C,D7*%
X64920000Y-96686000D02*
X64920000Y-100926000D01*
X64920000Y-100926000D02*
X67160000Y-100926000D01*
X66040000Y-96686000D02*
X66040000Y-96036000D01*
X66040000Y-100926000D02*
X66040000Y-101576000D01*
X67160000Y-96686000D02*
X64920000Y-96686000D01*
X67160000Y-97286000D02*
X64920000Y-97286000D01*
X67160000Y-97406000D02*
X64920000Y-97406000D01*
X67160000Y-97526000D02*
X64920000Y-97526000D01*
X67160000Y-100926000D02*
X67160000Y-96686000D01*
%TO.C,U3*%
X80458000Y-65920000D02*
X80458000Y-86480000D01*
X80458000Y-86480000D02*
X90738000Y-86480000D01*
X82948000Y-65980000D02*
X82948000Y-86420000D01*
X82948000Y-86420000D02*
X88248000Y-86420000D01*
X84598000Y-65980000D02*
X82948000Y-65980000D01*
X88248000Y-65980000D02*
X86598000Y-65980000D01*
X88248000Y-86420000D02*
X88248000Y-65980000D01*
X90738000Y-65920000D02*
X80458000Y-65920000D01*
X90738000Y-86480000D02*
X90738000Y-65920000D01*
X86598000Y-65980000D02*
G75*
G02*
X84598000Y-65980000I-1000000J0D01*
G01*
%TO.C,D2*%
X90320000Y-96686000D02*
X90320000Y-100926000D01*
X90320000Y-100926000D02*
X92560000Y-100926000D01*
X91440000Y-96686000D02*
X91440000Y-96036000D01*
X91440000Y-100926000D02*
X91440000Y-101576000D01*
X92560000Y-96686000D02*
X90320000Y-96686000D01*
X92560000Y-97286000D02*
X90320000Y-97286000D01*
X92560000Y-97406000D02*
X90320000Y-97406000D01*
X92560000Y-97526000D02*
X90320000Y-97526000D01*
X92560000Y-100926000D02*
X92560000Y-96686000D01*
%TO.C,C3*%
X35774000Y-72290000D02*
X35774000Y-72605000D01*
X35774000Y-74715000D02*
X35774000Y-75030000D01*
X41014000Y-72290000D02*
X35774000Y-72290000D01*
X41014000Y-72290000D02*
X41014000Y-72605000D01*
X41014000Y-74715000D02*
X41014000Y-75030000D01*
X41014000Y-75030000D02*
X35774000Y-75030000D01*
%TD*%
M02*
