%TF.GenerationSoftware,KiCad,Pcbnew,8.0.2*%
%TF.CreationDate,2025-01-31T19:47:28+01:00*%
%TF.ProjectId,p2000t-joystick-nes,70323030-3074-42d6-9a6f-79737469636b,rev?*%
%TF.SameCoordinates,Original*%
%TF.FileFunction,Soldermask,Bot*%
%TF.FilePolarity,Negative*%
%FSLAX46Y46*%
G04 Gerber Fmt 4.6, Leading zero omitted, Abs format (unit mm)*
G04 Created by KiCad (PCBNEW 8.0.2) date 2025-01-31 19:47:28*
%MOMM*%
%LPD*%
G01*
G04 APERTURE LIST*
%ADD10C,0.100000*%
%ADD11R,1.600000X1.600000*%
%ADD12O,1.600000X1.600000*%
%ADD13O,3.900000X4.200000*%
%ADD14C,2.700000*%
%ADD15C,1.600000*%
%ADD16R,1.422400X1.422400*%
%ADD17C,1.422400*%
%ADD18R,2.000000X10.000000*%
G04 APERTURE END LIST*
D10*
X35560000Y-116840000D02*
X99695000Y-116840000D01*
X99695000Y-126365000D01*
X35560000Y-126365000D01*
X35560000Y-116840000D01*
G36*
X35560000Y-116840000D02*
G01*
X99695000Y-116840000D01*
X99695000Y-126365000D01*
X35560000Y-126365000D01*
X35560000Y-116840000D01*
G37*
D11*
%TO.C,SW1*%
X97155000Y-35517500D03*
D12*
X99695000Y-35517500D03*
X102235000Y-35517500D03*
X104775000Y-35517500D03*
X104775000Y-27897500D03*
X102235000Y-27897500D03*
X99695000Y-27897500D03*
X97155000Y-27897500D03*
%TD*%
D11*
%TO.C,D16*%
X37490400Y-107442000D03*
D12*
X37490400Y-99822000D03*
%TD*%
D13*
%TO.C,J1*%
X34225000Y-29985000D03*
X54725000Y-29985000D03*
D14*
X50725000Y-42235000D03*
X46532000Y-42235000D03*
X42341000Y-42235000D03*
X38150000Y-42235000D03*
X38150000Y-38735000D03*
X42341000Y-38735000D03*
X46532000Y-38735000D03*
%TD*%
D15*
%TO.C,C1*%
X33020000Y-69810000D03*
X33020000Y-64810000D03*
%TD*%
D11*
%TO.C,U8*%
X62230000Y-76952000D03*
D12*
X62230000Y-79492000D03*
X62230000Y-82032000D03*
X62230000Y-84572000D03*
X62230000Y-87112000D03*
X62230000Y-89652000D03*
X62230000Y-92192000D03*
X62230000Y-94732000D03*
X54610000Y-94732000D03*
X54610000Y-92192000D03*
X54610000Y-89652000D03*
X54610000Y-87112000D03*
X54610000Y-84572000D03*
X54610000Y-82032000D03*
X54610000Y-79492000D03*
X54610000Y-76952000D03*
%TD*%
D11*
%TO.C,D6*%
X77978000Y-107442000D03*
D12*
X77978000Y-99822000D03*
%TD*%
D13*
%TO.C,J2*%
X65950000Y-30040000D03*
X86450000Y-30040000D03*
D14*
X82450000Y-42290000D03*
X78257000Y-42290000D03*
X74066000Y-42290000D03*
X69875000Y-42290000D03*
X69875000Y-38790000D03*
X74066000Y-38790000D03*
X78257000Y-38790000D03*
%TD*%
D11*
%TO.C,U10*%
X38608000Y-50038000D03*
D12*
X41148000Y-50038000D03*
X43688000Y-50038000D03*
X46228000Y-50038000D03*
X48768000Y-50038000D03*
X51308000Y-50038000D03*
X53848000Y-50038000D03*
X53848000Y-57658000D03*
X51308000Y-57658000D03*
X48768000Y-57658000D03*
X46228000Y-57658000D03*
X43688000Y-57658000D03*
X41148000Y-57658000D03*
X38608000Y-57658000D03*
%TD*%
D16*
%TO.C,U7*%
X92710000Y-81026000D03*
D17*
X95250000Y-78486000D03*
X95250000Y-81026000D03*
X97790000Y-78486000D03*
X100330000Y-81026000D03*
X97790000Y-81026000D03*
X100330000Y-83566000D03*
X97790000Y-83566000D03*
X100330000Y-86106000D03*
X97790000Y-86106000D03*
X100330000Y-88646000D03*
X97790000Y-88646000D03*
X100330000Y-91186000D03*
X97790000Y-93726000D03*
X97790000Y-91186000D03*
X95250000Y-93726000D03*
X95250000Y-91186000D03*
X92710000Y-93726000D03*
X92710000Y-91186000D03*
X90170000Y-93726000D03*
X87630000Y-91186000D03*
X90170000Y-91186000D03*
X87630000Y-88646000D03*
X90170000Y-88646000D03*
X87630000Y-86106000D03*
X90170000Y-86106000D03*
X87630000Y-83566000D03*
X90170000Y-83566000D03*
X87630000Y-81026000D03*
X90170000Y-78486000D03*
X90170000Y-81026000D03*
X92710000Y-78486000D03*
%TD*%
D18*
%TO.C,J3*%
X39994000Y-121285000D03*
X43954000Y-121285000D03*
X47914000Y-121285000D03*
X51874000Y-121285000D03*
X55834000Y-121285000D03*
X59794000Y-121285000D03*
X63754000Y-121285000D03*
X67714000Y-121285000D03*
X71674000Y-121285000D03*
X75634000Y-121285000D03*
X79594000Y-121285000D03*
X83554000Y-121285000D03*
X95434000Y-121285000D03*
%TD*%
D11*
%TO.C,D11*%
X57725700Y-107442000D03*
D12*
X57725700Y-99822000D03*
%TD*%
D11*
%TO.C,RN1*%
X105664000Y-66294000D03*
D12*
X105664000Y-68834000D03*
X105664000Y-71374000D03*
X105664000Y-73914000D03*
X105664000Y-76454000D03*
X105664000Y-78994000D03*
X105664000Y-81534000D03*
X105664000Y-84074000D03*
X105664000Y-86614000D03*
%TD*%
D11*
%TO.C,D8*%
X69850000Y-107442000D03*
D12*
X69850000Y-99822000D03*
%TD*%
D11*
%TO.C,U1*%
X81280000Y-63246000D03*
D12*
X83820000Y-63246000D03*
X86360000Y-63246000D03*
X88900000Y-63246000D03*
X91440000Y-63246000D03*
X93980000Y-63246000D03*
X96520000Y-63246000D03*
X96520000Y-70866000D03*
X93980000Y-70866000D03*
X91440000Y-70866000D03*
X88900000Y-70866000D03*
X86360000Y-70866000D03*
X83820000Y-70866000D03*
X81280000Y-70866000D03*
%TD*%
D16*
%TO.C,U6*%
X72644000Y-81026000D03*
D17*
X75184000Y-78486000D03*
X75184000Y-81026000D03*
X77724000Y-78486000D03*
X80264000Y-81026000D03*
X77724000Y-81026000D03*
X80264000Y-83566000D03*
X77724000Y-83566000D03*
X80264000Y-86106000D03*
X77724000Y-86106000D03*
X80264000Y-88646000D03*
X77724000Y-88646000D03*
X80264000Y-91186000D03*
X77724000Y-93726000D03*
X77724000Y-91186000D03*
X75184000Y-93726000D03*
X75184000Y-91186000D03*
X72644000Y-93726000D03*
X72644000Y-91186000D03*
X70104000Y-93726000D03*
X67564000Y-91186000D03*
X70104000Y-91186000D03*
X67564000Y-88646000D03*
X70104000Y-88646000D03*
X67564000Y-86106000D03*
X70104000Y-86106000D03*
X67564000Y-83566000D03*
X70104000Y-83566000D03*
X67564000Y-81026000D03*
X70104000Y-78486000D03*
X70104000Y-81026000D03*
X72644000Y-78486000D03*
%TD*%
D11*
%TO.C,D10*%
X61772800Y-107442000D03*
D12*
X61772800Y-99822000D03*
%TD*%
D11*
%TO.C,D5*%
X82042000Y-107442000D03*
D12*
X82042000Y-99822000D03*
%TD*%
D11*
%TO.C,D3*%
X89662000Y-107442000D03*
D12*
X89662000Y-99822000D03*
%TD*%
D11*
%TO.C,D4*%
X85852000Y-107442000D03*
D12*
X85852000Y-99822000D03*
%TD*%
D11*
%TO.C,U9*%
X58928000Y-63246000D03*
D12*
X61468000Y-63246000D03*
X64008000Y-63246000D03*
X66548000Y-63246000D03*
X69088000Y-63246000D03*
X71628000Y-63246000D03*
X74168000Y-63246000D03*
X76708000Y-63246000D03*
X76708000Y-70866000D03*
X74168000Y-70866000D03*
X71628000Y-70866000D03*
X69088000Y-70866000D03*
X66548000Y-70866000D03*
X64008000Y-70866000D03*
X61468000Y-70866000D03*
X58928000Y-70866000D03*
%TD*%
D11*
%TO.C,U4*%
X50546000Y-76962000D03*
D12*
X50546000Y-79502000D03*
X50546000Y-82042000D03*
X50546000Y-84582000D03*
X50546000Y-87122000D03*
X50546000Y-89662000D03*
X50546000Y-92202000D03*
X50546000Y-94742000D03*
X42926000Y-94742000D03*
X42926000Y-92202000D03*
X42926000Y-89662000D03*
X42926000Y-87122000D03*
X42926000Y-84582000D03*
X42926000Y-82042000D03*
X42926000Y-79502000D03*
X42926000Y-76962000D03*
%TD*%
D11*
%TO.C,D13*%
X49631600Y-107442000D03*
D12*
X49631600Y-99822000D03*
%TD*%
D11*
%TO.C,D15*%
X41537500Y-107442000D03*
D12*
X41537500Y-99822000D03*
%TD*%
D11*
%TO.C,U2*%
X81280000Y-50038000D03*
D12*
X83820000Y-50038000D03*
X86360000Y-50038000D03*
X88900000Y-50038000D03*
X91440000Y-50038000D03*
X93980000Y-50038000D03*
X96520000Y-50038000D03*
X96520000Y-57658000D03*
X93980000Y-57658000D03*
X91440000Y-57658000D03*
X88900000Y-57658000D03*
X86360000Y-57658000D03*
X83820000Y-57658000D03*
X81280000Y-57658000D03*
%TD*%
D11*
%TO.C,X1*%
X60198000Y-49530000D03*
D15*
X75438000Y-49530000D03*
X75438000Y-57150000D03*
X60198000Y-57150000D03*
%TD*%
D11*
%TO.C,D14*%
X45584500Y-107442000D03*
D12*
X45584500Y-99822000D03*
%TD*%
D11*
%TO.C,D1*%
X97790000Y-107442000D03*
D12*
X97790000Y-99822000D03*
%TD*%
D11*
%TO.C,D12*%
X53678700Y-107442000D03*
D12*
X53678700Y-99822000D03*
%TD*%
D11*
%TO.C,U5*%
X38354000Y-63246000D03*
D12*
X40894000Y-63246000D03*
X43434000Y-63246000D03*
X45974000Y-63246000D03*
X48514000Y-63246000D03*
X51054000Y-63246000D03*
X53594000Y-63246000D03*
X53594000Y-70866000D03*
X51054000Y-70866000D03*
X48514000Y-70866000D03*
X45974000Y-70866000D03*
X43434000Y-70866000D03*
X40894000Y-70866000D03*
X38354000Y-70866000D03*
%TD*%
D11*
%TO.C,D7*%
X73914000Y-107442000D03*
D12*
X73914000Y-99822000D03*
%TD*%
D11*
%TO.C,U3*%
X38598000Y-76952000D03*
D12*
X38598000Y-79492000D03*
X38598000Y-82032000D03*
X38598000Y-84572000D03*
X38598000Y-87112000D03*
X38598000Y-89652000D03*
X38598000Y-92192000D03*
X38598000Y-94732000D03*
X30978000Y-94732000D03*
X30978000Y-92192000D03*
X30978000Y-89652000D03*
X30978000Y-87112000D03*
X30978000Y-84572000D03*
X30978000Y-82032000D03*
X30978000Y-79492000D03*
X30978000Y-76952000D03*
%TD*%
D15*
%TO.C,C2*%
X101092000Y-69810000D03*
X101092000Y-64810000D03*
%TD*%
D11*
%TO.C,D9*%
X65819900Y-107442000D03*
D12*
X65819900Y-99822000D03*
%TD*%
D11*
%TO.C,D2*%
X93726000Y-107442000D03*
D12*
X93726000Y-99822000D03*
%TD*%
M02*
