%TF.GenerationSoftware,KiCad,Pcbnew,9.0.0*%
%TF.CreationDate,2025-04-21T20:58:03+02:00*%
%TF.ProjectId,p2000t-joystick-slot2-cpld,70323030-3074-42d6-9a6f-79737469636b,rev?*%
%TF.SameCoordinates,Original*%
%TF.FileFunction,Soldermask,Top*%
%TF.FilePolarity,Negative*%
%FSLAX46Y46*%
G04 Gerber Fmt 4.6, Leading zero omitted, Abs format (unit mm)*
G04 Created by KiCad (PCBNEW 9.0.0) date 2025-04-21 20:58:03*
%MOMM*%
%LPD*%
G01*
G04 APERTURE LIST*
G04 Aperture macros list*
%AMRoundRect*
0 Rectangle with rounded corners*
0 $1 Rounding radius*
0 $2 $3 $4 $5 $6 $7 $8 $9 X,Y pos of 4 corners*
0 Add a 4 corners polygon primitive as box body*
4,1,4,$2,$3,$4,$5,$6,$7,$8,$9,$2,$3,0*
0 Add four circle primitives for the rounded corners*
1,1,$1+$1,$2,$3*
1,1,$1+$1,$4,$5*
1,1,$1+$1,$6,$7*
1,1,$1+$1,$8,$9*
0 Add four rect primitives between the rounded corners*
20,1,$1+$1,$2,$3,$4,$5,0*
20,1,$1+$1,$4,$5,$6,$7,0*
20,1,$1+$1,$6,$7,$8,$9,0*
20,1,$1+$1,$8,$9,$2,$3,0*%
G04 Aperture macros list end*
%ADD10C,0.100000*%
%ADD11R,1.600000X1.600000*%
%ADD12O,1.600000X1.600000*%
%ADD13C,1.600000*%
%ADD14C,4.000000*%
%ADD15R,1.700000X1.700000*%
%ADD16O,1.700000X1.700000*%
%ADD17R,2.000000X10.000000*%
%ADD18R,1.422400X1.422400*%
%ADD19C,1.422400*%
%ADD20RoundRect,0.250000X-0.600000X-0.600000X0.600000X-0.600000X0.600000X0.600000X-0.600000X0.600000X0*%
%ADD21C,1.700000*%
G04 APERTURE END LIST*
D10*
X35560000Y-116840000D02*
X99695000Y-116840000D01*
X99695000Y-126365000D01*
X35560000Y-126365000D01*
X35560000Y-116840000D01*
G36*
X35560000Y-116840000D02*
G01*
X99695000Y-116840000D01*
X99695000Y-126365000D01*
X35560000Y-126365000D01*
X35560000Y-116840000D01*
G37*
D11*
%TO.C,SW1*%
X100203000Y-36957000D03*
D12*
X102743000Y-36957000D03*
X102743000Y-29337000D03*
X100203000Y-29337000D03*
%TD*%
D13*
%TO.C,C2*%
X82270600Y-79320400D03*
X82270600Y-74320400D03*
%TD*%
D14*
%TO.C,J1*%
X31896000Y-33782000D03*
X56896000Y-33782000D03*
D11*
X38856000Y-34082000D03*
D13*
X41626000Y-34082000D03*
X44396000Y-34082000D03*
X47166000Y-34082000D03*
X49936000Y-34082000D03*
X40241000Y-31242000D03*
X43011000Y-31242000D03*
X45781000Y-31242000D03*
X48551000Y-31242000D03*
%TD*%
D15*
%TO.C,J5*%
X93980000Y-78740000D03*
D16*
X93980000Y-76200000D03*
%TD*%
D11*
%TO.C,D6*%
X71120000Y-94996000D03*
D12*
X71120000Y-102616000D03*
%TD*%
D17*
%TO.C,J2*%
X39957000Y-120959000D03*
X43917000Y-120959000D03*
X47877000Y-120959000D03*
X51837000Y-120959000D03*
X55797000Y-120959000D03*
X59757000Y-120959000D03*
X63717000Y-120959000D03*
X67677000Y-120959000D03*
X71637000Y-120959000D03*
X75597000Y-120959000D03*
X79557000Y-120959000D03*
X83517000Y-120959000D03*
X91451400Y-120959000D03*
X95397000Y-120959000D03*
%TD*%
D13*
%TO.C,C4*%
X74102600Y-89458800D03*
X69102600Y-89458800D03*
%TD*%
%TO.C,C1*%
X68997200Y-60045600D03*
X63997200Y-60045600D03*
%TD*%
%TO.C,R3*%
X86360000Y-50800000D03*
D12*
X93980000Y-50800000D03*
%TD*%
D18*
%TO.C,U3*%
X66548000Y-69164200D03*
D19*
X69088000Y-66624200D03*
X69088000Y-69164200D03*
X71628000Y-66624200D03*
X71628000Y-69164200D03*
X74168000Y-66624200D03*
X76708000Y-69164200D03*
X74168000Y-69164200D03*
X76708000Y-71704200D03*
X74168000Y-71704200D03*
X76708000Y-74244200D03*
X74168000Y-74244200D03*
X76708000Y-76784200D03*
X74168000Y-76784200D03*
X76708000Y-79324200D03*
X74168000Y-79324200D03*
X76708000Y-81864200D03*
X74168000Y-84404200D03*
X74168000Y-81864200D03*
X71628000Y-84404200D03*
X71628000Y-81864200D03*
X69088000Y-84404200D03*
X69088000Y-81864200D03*
X66548000Y-84404200D03*
X66548000Y-81864200D03*
X64008000Y-84404200D03*
X64008000Y-81864200D03*
X61468000Y-84404200D03*
X58928000Y-81864200D03*
X61468000Y-81864200D03*
X58928000Y-79324200D03*
X61468000Y-79324200D03*
X58928000Y-76784200D03*
X61468000Y-76784200D03*
X58928000Y-74244200D03*
X61468000Y-74244200D03*
X58928000Y-71704200D03*
X61468000Y-71704200D03*
X58928000Y-69164200D03*
X61468000Y-66624200D03*
X61468000Y-69164200D03*
X64008000Y-66624200D03*
X64008000Y-69164200D03*
X66548000Y-66624200D03*
%TD*%
D11*
%TO.C,RN1*%
X57150000Y-45720000D03*
D12*
X59690000Y-45720000D03*
X62230000Y-45720000D03*
X64770000Y-45720000D03*
X67310000Y-45720000D03*
X69850000Y-45720000D03*
X72390000Y-45720000D03*
X74930000Y-45720000D03*
X77470000Y-45720000D03*
%TD*%
D11*
%TO.C,D8*%
X60960000Y-94996000D03*
D12*
X60960000Y-102616000D03*
%TD*%
D13*
%TO.C,R1*%
X93980000Y-54610000D03*
D12*
X86360000Y-54610000D03*
%TD*%
D11*
%TO.C,D5*%
X76200000Y-94996000D03*
D12*
X76200000Y-102616000D03*
%TD*%
D11*
%TO.C,D3*%
X86360000Y-94996000D03*
D12*
X86360000Y-102616000D03*
%TD*%
D11*
%TO.C,D4*%
X81280000Y-94996000D03*
D12*
X81280000Y-102616000D03*
%TD*%
D13*
%TO.C,R2*%
X93980000Y-58420000D03*
D12*
X86360000Y-58420000D03*
%TD*%
D14*
%TO.C,J3*%
X66446000Y-33782000D03*
X91446000Y-33782000D03*
D11*
X73406000Y-34082000D03*
D13*
X76176000Y-34082000D03*
X78946000Y-34082000D03*
X81716000Y-34082000D03*
X84486000Y-34082000D03*
X74791000Y-31242000D03*
X77561000Y-31242000D03*
X80331000Y-31242000D03*
X83101000Y-31242000D03*
%TD*%
%TO.C,R4*%
X86360000Y-46990000D03*
D12*
X93980000Y-46990000D03*
%TD*%
D11*
%TO.C,D1*%
X96520000Y-94996000D03*
D12*
X96520000Y-102616000D03*
%TD*%
D11*
%TO.C,D7*%
X66040000Y-94996000D03*
D12*
X66040000Y-102616000D03*
%TD*%
D20*
%TO.C,J4*%
X39370000Y-81280000D03*
D21*
X41910000Y-81280000D03*
X39370000Y-78740000D03*
X41910000Y-78740000D03*
X39370000Y-76200000D03*
X41910000Y-76200000D03*
X39370000Y-73660000D03*
X41910000Y-73660000D03*
X39370000Y-71120000D03*
X41910000Y-71120000D03*
%TD*%
D11*
%TO.C,D2*%
X91440000Y-94996000D03*
D12*
X91440000Y-102616000D03*
%TD*%
D13*
%TO.C,C3*%
X53848000Y-74273400D03*
X53848000Y-79273400D03*
%TD*%
M02*
