M48
; DRILL file {KiCad 9.0.0} date 2025-04-21T20:58:06+0200
; FORMAT={-:-/ absolute / metric / decimal}
; #@! TF.CreationDate,2025-04-21T20:58:06+02:00
; #@! TF.GenerationSoftware,Kicad,Pcbnew,9.0.0
; #@! TF.FileFunction,Plated,1,2,PTH
FMAT,2
METRIC
; #@! TA.AperFunction,Plated,PTH,ViaDrill
T1C0.300
; #@! TA.AperFunction,Plated,PTH,ComponentDrill
T2C0.800
; #@! TA.AperFunction,Plated,PTH,ComponentDrill
T3C1.000
; #@! TA.AperFunction,Plated,PTH,ComponentDrill
T4C3.200
%
G90
G05
T1
X36.83Y-107.95
X41.91Y-92.71
X45.796Y-109.505
X57.404Y-88.459
X63.175Y-65.149
X63.924Y-87.477
X65.278Y-64.66
X67.162Y-63.41
X67.437Y-101.096
X69.088Y-74.93
X69.088Y-78.74
X69.088Y-101.907
X70.015Y-76.891
X72.126Y-78.993
X72.135Y-80.554
X72.881Y-101.907
X75.184Y-92.202
X76.514Y-83.88
X77.276Y-83.118
X77.501Y-87.808
X77.836Y-80.112
X78.32Y-102.701
X78.651Y-80.109
X79.331Y-104.762
X80.01Y-87.884
X80.01Y-92.202
X83.264Y-97.37
X84.893Y-103.329
X88.598Y-109.975
X100.33Y-109.22
T2
X53.848Y-74.273
X53.848Y-79.273
X57.15Y-45.72
X58.928Y-69.164
X58.928Y-71.704
X58.928Y-74.244
X58.928Y-76.784
X58.928Y-79.324
X58.928Y-81.864
X59.69Y-45.72
X60.96Y-94.996
X60.96Y-102.616
X61.468Y-66.624
X61.468Y-69.164
X61.468Y-71.704
X61.468Y-74.244
X61.468Y-76.784
X61.468Y-79.324
X61.468Y-81.864
X61.468Y-84.404
X62.23Y-45.72
X63.997Y-60.046
X64.008Y-66.624
X64.008Y-69.164
X64.008Y-81.864
X64.008Y-84.404
X64.77Y-45.72
X66.04Y-94.996
X66.04Y-102.616
X66.548Y-66.624
X66.548Y-69.164
X66.548Y-81.864
X66.548Y-84.404
X67.31Y-45.72
X68.997Y-60.046
X69.088Y-66.624
X69.088Y-69.164
X69.088Y-81.864
X69.088Y-84.404
X69.103Y-89.459
X69.85Y-45.72
X71.12Y-94.996
X71.12Y-102.616
X71.628Y-66.624
X71.628Y-69.164
X71.628Y-81.864
X71.628Y-84.404
X72.39Y-45.72
X74.103Y-89.459
X74.168Y-66.624
X74.168Y-69.164
X74.168Y-71.704
X74.168Y-74.244
X74.168Y-76.784
X74.168Y-79.324
X74.168Y-81.864
X74.168Y-84.404
X74.93Y-45.72
X76.2Y-94.996
X76.2Y-102.616
X76.708Y-69.164
X76.708Y-71.704
X76.708Y-74.244
X76.708Y-76.784
X76.708Y-79.324
X76.708Y-81.864
X77.47Y-45.72
X81.28Y-94.996
X81.28Y-102.616
X82.271Y-74.32
X82.271Y-79.32
X86.36Y-46.99
X86.36Y-50.8
X86.36Y-54.61
X86.36Y-58.42
X86.36Y-94.996
X86.36Y-102.616
X91.44Y-94.996
X91.44Y-102.616
X93.98Y-46.99
X93.98Y-50.8
X93.98Y-54.61
X93.98Y-58.42
X96.52Y-94.996
X96.52Y-102.616
X100.203Y-29.337
X100.203Y-36.957
X102.743Y-29.337
X102.743Y-36.957
T3
X38.856Y-34.082
X39.37Y-71.12
X39.37Y-73.66
X39.37Y-76.2
X39.37Y-78.74
X39.37Y-81.28
X40.241Y-31.242
X41.626Y-34.082
X41.91Y-71.12
X41.91Y-73.66
X41.91Y-76.2
X41.91Y-78.74
X41.91Y-81.28
X43.011Y-31.242
X44.396Y-34.082
X45.781Y-31.242
X47.166Y-34.082
X48.551Y-31.242
X49.936Y-34.082
X73.406Y-34.082
X74.791Y-31.242
X76.176Y-34.082
X77.561Y-31.242
X78.946Y-34.082
X80.331Y-31.242
X81.716Y-34.082
X83.101Y-31.242
X84.486Y-34.082
X93.98Y-76.2
X93.98Y-78.74
T4
X31.896Y-33.782
X56.896Y-33.782
X66.446Y-33.782
X91.446Y-33.782
M30
